/*
  C-file generated by Bin2C
  Compiled:    Jun 13 2018 at 10:51:26

  Copyright (C) 2014
  Segger Microcontroller GmbH & Co. KG
  www.segger.com

  Solutions for real time microcontroller applications
*/
#include <MusicRawData.h>
const unsigned char gMusicData[MUSIC_RAW_DATA_SIZE] = {
  0x4D, 0x54, 0x68, 0x64, 0x00, 0x00, 0x00, 0x06, 0x00, 0x01, 0x00, 0x1B, 0x01, 0x80, 0x4D, 0x54, 0x72, 0x6B, 0x00, 0x00, 0x00, 0x1A, 0x00, 0xFF, 0x58, 0x04, 0x04, 0x02, 0x60, 0x08, 0x00, 0xFF, 0x7F, 0x03, 0x00, 0x00, 0x41, 0x00, 0xFF, 0x51,
  0x03, 0x06, 0xAE, 0xC4, 0x00, 0xFF, 0x2F, 0x00, 0x4D, 0x54, 0x72, 0x6B, 0x00, 0x00, 0x0F, 0x08, 0x00, 0xFF, 0x03, 0x07, 0x20, 0x4D, 0x6F, 0x72, 0x74, 0x61, 0x6C, 0x00, 0xB0, 0x00, 0x00, 0x00, 0xC0, 0x30, 0x00, 0xFF, 0x59, 0x02, 0x00, 0x00,
  0x8C, 0x00, 0x90, 0x39, 0x7F, 0x81, 0x00, 0x80, 0x39, 0x64, 0x40, 0x90, 0x39, 0x7F, 0x81, 0x00, 0x80, 0x39, 0x64, 0x40, 0x90, 0x3C, 0x7F, 0x81, 0x00, 0x80, 0x3C, 0x64, 0x40, 0x90, 0x39, 0x7F, 0x81, 0x00, 0x80, 0x39, 0x64, 0x40, 0x90, 0x3E,
  0x7F, 0x81, 0x00, 0x80, 0x3E, 0x64, 0x40, 0x90, 0x39, 0x7F, 0x81, 0x00, 0x80, 0x39, 0x64, 0x40, 0x90, 0x40, 0x7F, 0x81, 0x00, 0x80, 0x40, 0x64, 0x40, 0x90, 0x3E, 0x7F, 0x81, 0x00, 0x80, 0x3E, 0x64, 0x40, 0x90, 0x3C, 0x7F, 0x81, 0x00, 0x80,
  0x3C, 0x64, 0x40, 0x90, 0x3C, 0x7F, 0x81, 0x00, 0x80, 0x3C, 0x64, 0x40, 0x90, 0x40, 0x7F, 0x81, 0x00, 0x80, 0x40, 0x64, 0x40, 0x90, 0x3C, 0x7F, 0x81, 0x00, 0x80, 0x3C, 0x64, 0x40, 0x90, 0x43, 0x7F, 0x81, 0x00, 0x80, 0x43, 0x64, 0x40, 0x90,
  0x3C, 0x7F, 0x81, 0x00, 0x80, 0x3C, 0x64, 0x40, 0x90, 0x40, 0x7F, 0x81, 0x00, 0x80, 0x40, 0x64, 0x40, 0x90, 0x3C, 0x7F, 0x81, 0x00, 0x80, 0x3C, 0x64, 0x40, 0x90, 0x37, 0x7F, 0x81, 0x00, 0x80, 0x37, 0x64, 0x40, 0x90, 0x37, 0x7F, 0x81, 0x00,
  0x80, 0x37, 0x64, 0x40, 0x90, 0x3B, 0x7F, 0x81, 0x00, 0x80, 0x3B, 0x64, 0x40, 0x90, 0x37, 0x7F, 0x81, 0x00, 0x80, 0x37, 0x64, 0x40, 0x90, 0x3C, 0x7F, 0x81, 0x00, 0x80, 0x3C, 0x64, 0x40, 0x90, 0x37, 0x7F, 0x81, 0x00, 0x80, 0x37, 0x64, 0x40,
  0x90, 0x3E, 0x7F, 0x81, 0x00, 0x80, 0x3E, 0x64, 0x40, 0x90, 0x3C, 0x7F, 0x81, 0x00, 0x80, 0x3C, 0x64, 0x40, 0x90, 0x35, 0x7F, 0x81, 0x00, 0x80, 0x35, 0x64, 0x40, 0x90, 0x35, 0x7F, 0x81, 0x00, 0x80, 0x35, 0x64, 0x40, 0x90, 0x39, 0x7F, 0x81,
  0x00, 0x80, 0x39, 0x64, 0x40, 0x90, 0x35, 0x7F, 0x81, 0x00, 0x80, 0x35, 0x64, 0x40, 0x90, 0x3C, 0x7F, 0x81, 0x00, 0x80, 0x3C, 0x64, 0x40, 0x90, 0x35, 0x7F, 0x81, 0x00, 0x80, 0x35, 0x64, 0x40, 0x90, 0x3C, 0x7F, 0x81, 0x00, 0x80, 0x3C, 0x64,
  0x40, 0x90, 0x3B, 0x7F, 0x81, 0x00, 0x80, 0x3B, 0x64, 0x40, 0x90, 0x39, 0x7F, 0x81, 0x00, 0x80, 0x39, 0x64, 0x40, 0x90, 0x39, 0x7F, 0x81, 0x00, 0x80, 0x39, 0x64, 0x40, 0x90, 0x3C, 0x7F, 0x81, 0x00, 0x80, 0x3C, 0x64, 0x40, 0x90, 0x39, 0x7F,
  0x81, 0x00, 0x80, 0x39, 0x64, 0x40, 0x90, 0x3E, 0x7F, 0x81, 0x00, 0x80, 0x3E, 0x64, 0x40, 0x90, 0x39, 0x7F, 0x81, 0x00, 0x80, 0x39, 0x64, 0x40, 0x90, 0x40, 0x7F, 0x81, 0x00, 0x80, 0x40, 0x64, 0x40, 0x90, 0x3E, 0x7F, 0x81, 0x00, 0x80, 0x3E,
  0x64, 0x40, 0x90, 0x3C, 0x7F, 0x81, 0x00, 0x80, 0x3C, 0x64, 0x40, 0x90, 0x3C, 0x7F, 0x81, 0x00, 0x80, 0x3C, 0x64, 0x40, 0x90, 0x40, 0x7F, 0x81, 0x00, 0x80, 0x40, 0x64, 0x40, 0x90, 0x3C, 0x7F, 0x81, 0x00, 0x80, 0x3C, 0x64, 0x40, 0x90, 0x43,
  0x7F, 0x81, 0x00, 0x80, 0x43, 0x64, 0x40, 0x90, 0x3C, 0x7F, 0x81, 0x00, 0x80, 0x3C, 0x64, 0x40, 0x90, 0x40, 0x7F, 0x81, 0x00, 0x80, 0x40, 0x64, 0x40, 0x90, 0x3C, 0x7F, 0x81, 0x00, 0x80, 0x3C, 0x64, 0x40, 0x90, 0x37, 0x7F, 0x81, 0x00, 0x80,
  0x37, 0x64, 0x40, 0x90, 0x37, 0x7F, 0x81, 0x00, 0x80, 0x37, 0x64, 0x40, 0x90, 0x3B, 0x7F, 0x81, 0x00, 0x80, 0x3B, 0x64, 0x40, 0x90, 0x37, 0x7F, 0x81, 0x00, 0x80, 0x37, 0x64, 0x40, 0x90, 0x3C, 0x7F, 0x81, 0x00, 0x80, 0x3C, 0x64, 0x40, 0x90,
  0x37, 0x7F, 0x81, 0x00, 0x80, 0x37, 0x64, 0x40, 0x90, 0x3E, 0x7F, 0x81, 0x00, 0x80, 0x3E, 0x64, 0x40, 0x90, 0x3C, 0x7F, 0x81, 0x00, 0x80, 0x3C, 0x64, 0x40, 0x90, 0x35, 0x7F, 0x81, 0x00, 0x80, 0x35, 0x64, 0x40, 0x90, 0x35, 0x7F, 0x81, 0x00,
  0x80, 0x35, 0x64, 0x40, 0x90, 0x39, 0x7F, 0x81, 0x00, 0x80, 0x39, 0x64, 0x40, 0x90, 0x35, 0x7F, 0x81, 0x00, 0x80, 0x35, 0x64, 0x40, 0x90, 0x3C, 0x7F, 0x81, 0x00, 0x80, 0x3C, 0x64, 0x40, 0x90, 0x35, 0x7F, 0x81, 0x00, 0x80, 0x35, 0x64, 0x40,
  0x90, 0x3C, 0x7F, 0x81, 0x00, 0x80, 0x3C, 0x64, 0x40, 0x90, 0x3B, 0x7F, 0x81, 0x00, 0x80, 0x3B, 0x64, 0x81, 0xB4, 0x40, 0x90, 0x4B, 0x5A, 0x00, 0x90, 0x51, 0x5A, 0x00, 0x90, 0x57, 0x5A, 0x82, 0x34, 0x80, 0x4B, 0x64, 0x00, 0x80, 0x51, 0x64,
  0x00, 0x80, 0x57, 0x64, 0x4C, 0x90, 0x4B, 0x5A, 0x00, 0x90, 0x51, 0x5A, 0x00, 0x90, 0x57, 0x5A, 0x82, 0x34, 0x80, 0x4B, 0x64, 0x00, 0x80, 0x51, 0x64, 0x00, 0x80, 0x57, 0x64, 0x4C, 0x90, 0x51, 0x5A, 0x00, 0x90, 0x4B, 0x5A, 0x00, 0x90, 0x57,
  0x5A, 0x82, 0x34, 0x80, 0x51, 0x64, 0x00, 0x80, 0x4B, 0x64, 0x00, 0x80, 0x57, 0x64, 0x4C, 0x90, 0x57, 0x5A, 0x00, 0x90, 0x51, 0x5A, 0x00, 0x90, 0x4B, 0x5A, 0x82, 0x34, 0x80, 0x57, 0x64, 0x00, 0x80, 0x51, 0x64, 0x00, 0x80, 0x4B, 0x64, 0xE0,
  0x4C, 0x90, 0x39, 0x7F, 0x81, 0x00, 0x80, 0x39, 0x64, 0x40, 0x90, 0x39, 0x7F, 0x81, 0x00, 0x80, 0x39, 0x64, 0x40, 0x90, 0x3C, 0x7F, 0x81, 0x00, 0x80, 0x3C, 0x64, 0x40, 0x90, 0x39, 0x7F, 0x81, 0x00, 0x80, 0x39, 0x64, 0x40, 0x90, 0x3E, 0x7F,
  0x81, 0x00, 0x80, 0x3E, 0x64, 0x40, 0x90, 0x39, 0x7F, 0x81, 0x00, 0x80, 0x39, 0x64, 0x40, 0x90, 0x40, 0x7F, 0x81, 0x00, 0x80, 0x40, 0x64, 0x40, 0x90, 0x3E, 0x7F, 0x81, 0x00, 0x80, 0x3E, 0x64, 0x40, 0x90, 0x3C, 0x7F, 0x81, 0x00, 0x80, 0x3C,
  0x64, 0x40, 0x90, 0x3C, 0x7F, 0x81, 0x00, 0x80, 0x3C, 0x64, 0x40, 0x90, 0x40, 0x7F, 0x81, 0x00, 0x80, 0x40, 0x64, 0x40, 0x90, 0x3C, 0x7F, 0x81, 0x00, 0x80, 0x3C, 0x64, 0x40, 0x90, 0x43, 0x7F, 0x81, 0x00, 0x80, 0x43, 0x64, 0x40, 0x90, 0x3C,
  0x7F, 0x81, 0x00, 0x80, 0x3C, 0x64, 0x40, 0x90, 0x40, 0x7F, 0x81, 0x00, 0x80, 0x40, 0x64, 0x40, 0x90, 0x3C, 0x7F, 0x81, 0x00, 0x80, 0x3C, 0x64, 0x40, 0x90, 0x37, 0x7F, 0x81, 0x00, 0x80, 0x37, 0x64, 0x40, 0x90, 0x37, 0x7F, 0x81, 0x00, 0x80,
  0x37, 0x64, 0x40, 0x90, 0x3B, 0x7F, 0x81, 0x00, 0x80, 0x3B, 0x64, 0x40, 0x90, 0x37, 0x7F, 0x81, 0x00, 0x80, 0x37, 0x64, 0x40, 0x90, 0x3C, 0x7F, 0x81, 0x00, 0x80, 0x3C, 0x64, 0x40, 0x90, 0x37, 0x7F, 0x81, 0x00, 0x80, 0x37, 0x64, 0x40, 0x90,
  0x3E, 0x7F, 0x81, 0x00, 0x80, 0x3E, 0x64, 0x40, 0x90, 0x3C, 0x7F, 0x81, 0x00, 0x80, 0x3C, 0x64, 0x40, 0x90, 0x35, 0x7F, 0x81, 0x00, 0x80, 0x35, 0x64, 0x40, 0x90, 0x35, 0x7F, 0x81, 0x00, 0x80, 0x35, 0x64, 0x40, 0x90, 0x39, 0x7F, 0x81, 0x00,
  0x80, 0x39, 0x64, 0x40, 0x90, 0x35, 0x7F, 0x81, 0x00, 0x80, 0x35, 0x64, 0x40, 0x90, 0x3C, 0x7F, 0x81, 0x00, 0x80, 0x3C, 0x64, 0x40, 0x90, 0x35, 0x7F, 0x81, 0x00, 0x80, 0x35, 0x64, 0x40, 0x90, 0x3C, 0x7F, 0x81, 0x00, 0x80, 0x3C, 0x64, 0x40,
  0x90, 0x3B, 0x7F, 0x81, 0x00, 0x80, 0x3B, 0x64, 0x40, 0x90, 0x39, 0x64, 0x81, 0x00, 0x80, 0x39, 0x64, 0x40, 0x90, 0x39, 0x64, 0x81, 0x00, 0x80, 0x39, 0x64, 0x40, 0x90, 0x3C, 0x64, 0x81, 0x00, 0x80, 0x3C, 0x64, 0x40, 0x90, 0x39, 0x64, 0x81,
  0x00, 0x80, 0x39, 0x64, 0x40, 0x90, 0x3E, 0x64, 0x81, 0x00, 0x80, 0x3E, 0x64, 0x40, 0x90, 0x39, 0x64, 0x81, 0x00, 0x80, 0x39, 0x64, 0x40, 0x90, 0x40, 0x64, 0x81, 0x00, 0x80, 0x40, 0x64, 0x40, 0x90, 0x3E, 0x64, 0x81, 0x00, 0x80, 0x3E, 0x64,
  0x40, 0x90, 0x3C, 0x64, 0x81, 0x00, 0x80, 0x3C, 0x64, 0x40, 0x90, 0x3C, 0x64, 0x81, 0x00, 0x80, 0x3C, 0x64, 0x40, 0x90, 0x40, 0x64, 0x81, 0x00, 0x80, 0x40, 0x64, 0x40, 0x90, 0x3C, 0x64, 0x81, 0x00, 0x80, 0x3C, 0x64, 0x40, 0x90, 0x43, 0x64,
  0x81, 0x00, 0x80, 0x43, 0x64, 0x40, 0x90, 0x3C, 0x64, 0x81, 0x00, 0x80, 0x3C, 0x64, 0x40, 0x90, 0x40, 0x64, 0x81, 0x00, 0x80, 0x40, 0x64, 0x40, 0x90, 0x3C, 0x64, 0x81, 0x00, 0x80, 0x3C, 0x64, 0x40, 0x90, 0x37, 0x64, 0x81, 0x00, 0x80, 0x37,
  0x64, 0x40, 0x90, 0x37, 0x64, 0x81, 0x00, 0x80, 0x37, 0x64, 0x40, 0x90, 0x3B, 0x64, 0x81, 0x00, 0x80, 0x3B, 0x64, 0x40, 0x90, 0x37, 0x64, 0x81, 0x00, 0x80, 0x37, 0x64, 0x40, 0x90, 0x3C, 0x64, 0x81, 0x00, 0x80, 0x3C, 0x64, 0x40, 0x90, 0x37,
  0x64, 0x81, 0x00, 0x80, 0x37, 0x64, 0x40, 0x90, 0x3E, 0x64, 0x81, 0x00, 0x80, 0x3E, 0x64, 0x40, 0x90, 0x3C, 0x64, 0x81, 0x00, 0x80, 0x3C, 0x64, 0x40, 0x90, 0x35, 0x64, 0x81, 0x00, 0x80, 0x35, 0x64, 0x40, 0x90, 0x35, 0x64, 0x81, 0x00, 0x80,
  0x35, 0x64, 0x40, 0x90, 0x39, 0x64, 0x81, 0x00, 0x80, 0x39, 0x64, 0x40, 0x90, 0x35, 0x64, 0x81, 0x00, 0x80, 0x35, 0x64, 0x40, 0x90, 0x3C, 0x64, 0x81, 0x00, 0x80, 0x3C, 0x64, 0x40, 0x90, 0x35, 0x64, 0x81, 0x00, 0x80, 0x35, 0x64, 0x40, 0x90,
  0x3C, 0x64, 0x81, 0x00, 0x80, 0x3C, 0x64, 0x40, 0x90, 0x3B, 0x64, 0x81, 0x00, 0x80, 0x3B, 0x64, 0xE2, 0x00, 0x90, 0x51, 0x4B, 0x81, 0x70, 0x80, 0x51, 0x64, 0x30, 0x90, 0x4F, 0x4B, 0x81, 0x70, 0x80, 0x4F, 0x64, 0x30, 0x90, 0x4D, 0x4B, 0x81,
  0x70, 0x80, 0x4D, 0x64, 0x30, 0x90, 0x4C, 0x4B, 0x81, 0x70, 0x80, 0x4C, 0x64, 0x30, 0x90, 0x4A, 0x4B, 0x81, 0x48, 0x80, 0x4A, 0x64, 0x81, 0x38, 0x90, 0x51, 0x4B, 0x81, 0x70, 0x80, 0x51, 0x64, 0x30, 0x90, 0x4F, 0x4B, 0x81, 0x70, 0x80, 0x4F,
  0x64, 0x30, 0x90, 0x4D, 0x4B, 0x81, 0x70, 0x80, 0x4D, 0x64, 0x30, 0x90, 0x4C, 0x4B, 0x81, 0x70, 0x80, 0x4C, 0x64, 0x30, 0x90, 0x4A, 0x4B, 0x81, 0x48, 0x80, 0x4A, 0x64, 0x81, 0x38, 0x90, 0x51, 0x4B, 0x81, 0x70, 0x80, 0x51, 0x64, 0x30, 0x90,
  0x4F, 0x4B, 0x81, 0x70, 0x80, 0x4F, 0x64, 0x30, 0x90, 0x4D, 0x4B, 0x81, 0x70, 0x80, 0x4D, 0x64, 0x30, 0x90, 0x4C, 0x4B, 0x81, 0x70, 0x80, 0x4C, 0x64, 0x30, 0x90, 0x4A, 0x4B, 0x81, 0x48, 0x80, 0x4A, 0x64, 0x81, 0x38, 0x90, 0x4C, 0x4B, 0x81,
  0x70, 0x80, 0x4C, 0x64, 0x30, 0x90, 0x4A, 0x4B, 0x81, 0x70, 0x80, 0x4A, 0x64, 0x30, 0x90, 0x48, 0x4B, 0x81, 0x70, 0x80, 0x48, 0x64, 0x30, 0x90, 0x47, 0x4B, 0x81, 0x70, 0x80, 0x47, 0x64, 0x30, 0x90, 0x45, 0x4B, 0x81, 0x48, 0x80, 0x45, 0x64,
  0x81, 0x38, 0x90, 0x51, 0x4B, 0x81, 0x70, 0x80, 0x51, 0x64, 0x30, 0x90, 0x4F, 0x4B, 0x81, 0x70, 0x80, 0x4F, 0x64, 0x30, 0x90, 0x4D, 0x4B, 0x81, 0x70, 0x80, 0x4D, 0x64, 0x30, 0x90, 0x4C, 0x4B, 0x81, 0x70, 0x80, 0x4C, 0x64, 0x30, 0x90, 0x4A,
  0x4B, 0x81, 0x48, 0x80, 0x4A, 0x64, 0x81, 0x38, 0x90, 0x51, 0x4B, 0x81, 0x70, 0x80, 0x51, 0x64, 0x30, 0x90, 0x4F, 0x4B, 0x81, 0x70, 0x80, 0x4F, 0x64, 0x30, 0x90, 0x4D, 0x4B, 0x81, 0x70, 0x80, 0x4D, 0x64, 0x30, 0x90, 0x4C, 0x4B, 0x81, 0x70,
  0x80, 0x4C, 0x64, 0x30, 0x90, 0x4A, 0x4B, 0x81, 0x48, 0x80, 0x4A, 0x64, 0x81, 0x38, 0x90, 0x51, 0x4B, 0x81, 0x70, 0x80, 0x51, 0x64, 0x30, 0x90, 0x4F, 0x4B, 0x81, 0x70, 0x80, 0x4F, 0x64, 0x30, 0x90, 0x4D, 0x4B, 0x81, 0x70, 0x80, 0x4D, 0x64,
  0x30, 0x90, 0x4C, 0x4B, 0x81, 0x70, 0x80, 0x4C, 0x64, 0x30, 0x90, 0x4A, 0x4B, 0x81, 0x48, 0x80, 0x4A, 0x64, 0x81, 0x38, 0x90, 0x4C, 0x4B, 0x81, 0x70, 0x80, 0x4C, 0x64, 0x30, 0x90, 0x4A, 0x4B, 0x81, 0x70, 0x80, 0x4A, 0x64, 0x30, 0x90, 0x48,
  0x4B, 0x81, 0x70, 0x80, 0x48, 0x64, 0x30, 0x90, 0x47, 0x4B, 0x81, 0x70, 0x80, 0x47, 0x64, 0x30, 0x90, 0x45, 0x4B, 0x81, 0x40, 0x90, 0x39, 0x7F, 0x08, 0x80, 0x45, 0x64, 0x78, 0x80, 0x39, 0x64, 0x40, 0x90, 0x39, 0x7F, 0x81, 0x00, 0x80, 0x39,
  0x64, 0x40, 0x90, 0x3C, 0x7F, 0x81, 0x00, 0x80, 0x3C, 0x64, 0x40, 0x90, 0x39, 0x7F, 0x81, 0x00, 0x80, 0x39, 0x64, 0x40, 0x90, 0x3E, 0x7F, 0x81, 0x00, 0x80, 0x3E, 0x64, 0x40, 0x90, 0x39, 0x7F, 0x81, 0x00, 0x80, 0x39, 0x64, 0x40, 0x90, 0x40,
  0x7F, 0x81, 0x00, 0x80, 0x40, 0x64, 0x40, 0x90, 0x3E, 0x7F, 0x81, 0x00, 0x80, 0x3E, 0x64, 0x40, 0x90, 0x3C, 0x7F, 0x81, 0x00, 0x80, 0x3C, 0x64, 0x40, 0x90, 0x3C, 0x7F, 0x81, 0x00, 0x80, 0x3C, 0x64, 0x40, 0x90, 0x40, 0x7F, 0x81, 0x00, 0x80,
  0x40, 0x64, 0x40, 0x90, 0x3C, 0x7F, 0x81, 0x00, 0x80, 0x3C, 0x64, 0x40, 0x90, 0x43, 0x7F, 0x81, 0x00, 0x80, 0x43, 0x64, 0x40, 0x90, 0x3C, 0x7F, 0x81, 0x00, 0x80, 0x3C, 0x64, 0x40, 0x90, 0x40, 0x7F, 0x81, 0x00, 0x80, 0x40, 0x64, 0x40, 0x90,
  0x3C, 0x7F, 0x81, 0x00, 0x80, 0x3C, 0x64, 0x40, 0x90, 0x37, 0x7F, 0x81, 0x00, 0x80, 0x37, 0x64, 0x40, 0x90, 0x37, 0x7F, 0x81, 0x00, 0x80, 0x37, 0x64, 0x40, 0x90, 0x3B, 0x7F, 0x81, 0x00, 0x80, 0x3B, 0x64, 0x40, 0x90, 0x37, 0x7F, 0x81, 0x00,
  0x80, 0x37, 0x64, 0x40, 0x90, 0x3C, 0x7F, 0x81, 0x00, 0x80, 0x3C, 0x64, 0x40, 0x90, 0x37, 0x7F, 0x81, 0x00, 0x80, 0x37, 0x64, 0x40, 0x90, 0x3E, 0x7F, 0x81, 0x00, 0x80, 0x3E, 0x64, 0x40, 0x90, 0x3C, 0x7F, 0x81, 0x00, 0x80, 0x3C, 0x64, 0x40,
  0x90, 0x35, 0x7F, 0x81, 0x00, 0x80, 0x35, 0x64, 0x40, 0x90, 0x35, 0x7F, 0x81, 0x00, 0x80, 0x35, 0x64, 0x40, 0x90, 0x39, 0x7F, 0x81, 0x00, 0x80, 0x39, 0x64, 0x40, 0x90, 0x35, 0x7F, 0x81, 0x00, 0x80, 0x35, 0x64, 0x40, 0x90, 0x3C, 0x7F, 0x81,
  0x00, 0x80, 0x3C, 0x64, 0x40, 0x90, 0x35, 0x7F, 0x81, 0x00, 0x80, 0x35, 0x64, 0x40, 0x90, 0x3C, 0x7F, 0x81, 0x00, 0x80, 0x3C, 0x64, 0x40, 0x90, 0x3B, 0x7F, 0x81, 0x00, 0x80, 0x3B, 0x64, 0x40, 0x90, 0x39, 0x7F, 0x81, 0x00, 0x80, 0x39, 0x64,
  0x40, 0x90, 0x39, 0x7F, 0x81, 0x00, 0x80, 0x39, 0x64, 0x40, 0x90, 0x3C, 0x7F, 0x81, 0x00, 0x80, 0x3C, 0x64, 0x40, 0x90, 0x39, 0x7F, 0x81, 0x00, 0x80, 0x39, 0x64, 0x40, 0x90, 0x3E, 0x7F, 0x81, 0x00, 0x80, 0x3E, 0x64, 0x40, 0x90, 0x39, 0x7F,
  0x81, 0x00, 0x80, 0x39, 0x64, 0x40, 0x90, 0x40, 0x7F, 0x81, 0x00, 0x80, 0x40, 0x64, 0x40, 0x90, 0x3E, 0x7F, 0x81, 0x00, 0x80, 0x3E, 0x64, 0x40, 0x90, 0x3C, 0x7F, 0x81, 0x00, 0x80, 0x3C, 0x64, 0x40, 0x90, 0x3C, 0x7F, 0x81, 0x00, 0x80, 0x3C,
  0x64, 0x40, 0x90, 0x40, 0x7F, 0x81, 0x00, 0x80, 0x40, 0x64, 0x40, 0x90, 0x3C, 0x7F, 0x81, 0x00, 0x80, 0x3C, 0x64, 0x40, 0x90, 0x43, 0x7F, 0x81, 0x00, 0x80, 0x43, 0x64, 0x40, 0x90, 0x3C, 0x7F, 0x81, 0x00, 0x80, 0x3C, 0x64, 0x40, 0x90, 0x40,
  0x7F, 0x81, 0x00, 0x80, 0x40, 0x64, 0x40, 0x90, 0x3C, 0x7F, 0x81, 0x00, 0x80, 0x3C, 0x64, 0x40, 0x90, 0x37, 0x7F, 0x81, 0x00, 0x80, 0x37, 0x64, 0x40, 0x90, 0x37, 0x7F, 0x81, 0x00, 0x80, 0x37, 0x64, 0x40, 0x90, 0x3B, 0x7F, 0x81, 0x00, 0x80,
  0x3B, 0x64, 0x40, 0x90, 0x37, 0x7F, 0x81, 0x00, 0x80, 0x37, 0x64, 0x40, 0x90, 0x3C, 0x7F, 0x81, 0x00, 0x80, 0x3C, 0x64, 0x40, 0x90, 0x37, 0x7F, 0x81, 0x00, 0x80, 0x37, 0x64, 0x40, 0x90, 0x3E, 0x7F, 0x81, 0x00, 0x80, 0x3E, 0x64, 0x40, 0x90,
  0x3C, 0x7F, 0x81, 0x00, 0x80, 0x3C, 0x64, 0x40, 0x90, 0x35, 0x7F, 0x81, 0x00, 0x80, 0x35, 0x64, 0x40, 0x90, 0x35, 0x7F, 0x81, 0x00, 0x80, 0x35, 0x64, 0x40, 0x90, 0x39, 0x7F, 0x81, 0x00, 0x80, 0x39, 0x64, 0x40, 0x90, 0x35, 0x7F, 0x81, 0x00,
  0x80, 0x35, 0x64, 0x40, 0x90, 0x3C, 0x7F, 0x81, 0x00, 0x80, 0x3C, 0x64, 0x40, 0x90, 0x35, 0x7F, 0x81, 0x00, 0x80, 0x35, 0x64, 0x40, 0x90, 0x3C, 0x7F, 0x81, 0x00, 0x80, 0x3C, 0x64, 0x40, 0x90, 0x3B, 0x7F, 0x81, 0x00, 0x80, 0x3B, 0x64, 0xD4,
  0x40, 0x90, 0x4B, 0x5A, 0x00, 0x90, 0x51, 0x5A, 0x00, 0x90, 0x57, 0x5A, 0x82, 0x34, 0x80, 0x4B, 0x64, 0x00, 0x80, 0x51, 0x64, 0x00, 0x80, 0x57, 0x64, 0x4C, 0x90, 0x4B, 0x5A, 0x00, 0x90, 0x51, 0x5A, 0x00, 0x90, 0x57, 0x5A, 0x82, 0x34, 0x80,
  0x4B, 0x64, 0x00, 0x80, 0x51, 0x64, 0x00, 0x80, 0x57, 0x64, 0x4C, 0x90, 0x51, 0x5A, 0x00, 0x90, 0x4B, 0x5A, 0x00, 0x90, 0x57, 0x5A, 0x82, 0x34, 0x80, 0x51, 0x64, 0x00, 0x80, 0x4B, 0x64, 0x00, 0x80, 0x57, 0x64, 0x4C, 0x90, 0x57, 0x5A, 0x00,
  0x90, 0x51, 0x5A, 0x00, 0x90, 0x4B, 0x5A, 0x82, 0x34, 0x80, 0x57, 0x64, 0x00, 0x80, 0x51, 0x64, 0x00, 0x80, 0x4B, 0x64, 0x82, 0x0C, 0x90, 0x51, 0x4B, 0x81, 0x70, 0x80, 0x51, 0x64, 0x30, 0x90, 0x4F, 0x4B, 0x81, 0x70, 0x80, 0x4F, 0x64, 0x30,
  0x90, 0x4D, 0x4B, 0x81, 0x70, 0x80, 0x4D, 0x64, 0x30, 0x90, 0x4C, 0x4B, 0x81, 0x70, 0x80, 0x4C, 0x64, 0x30, 0x90, 0x4A, 0x4B, 0x81, 0x48, 0x80, 0x4A, 0x64, 0x81, 0x38, 0x90, 0x51, 0x4B, 0x81, 0x70, 0x80, 0x51, 0x64, 0x30, 0x90, 0x4F, 0x4B,
  0x81, 0x70, 0x80, 0x4F, 0x64, 0x30, 0x90, 0x4D, 0x4B, 0x81, 0x70, 0x80, 0x4D, 0x64, 0x30, 0x90, 0x4C, 0x4B, 0x81, 0x70, 0x80, 0x4C, 0x64, 0x30, 0x90, 0x4A, 0x4B, 0x81, 0x48, 0x80, 0x4A, 0x64, 0x81, 0x38, 0x90, 0x51, 0x4B, 0x81, 0x70, 0x80,
  0x51, 0x64, 0x30, 0x90, 0x4F, 0x4B, 0x81, 0x70, 0x80, 0x4F, 0x64, 0x30, 0x90, 0x4D, 0x4B, 0x81, 0x70, 0x80, 0x4D, 0x64, 0x30, 0x90, 0x4C, 0x4B, 0x81, 0x70, 0x80, 0x4C, 0x64, 0x30, 0x90, 0x4A, 0x4B, 0x81, 0x48, 0x80, 0x4A, 0x64, 0x81, 0x38,
  0x90, 0x4C, 0x4B, 0x81, 0x70, 0x80, 0x4C, 0x64, 0x30, 0x90, 0x4A, 0x4B, 0x81, 0x70, 0x80, 0x4A, 0x64, 0x30, 0x90, 0x48, 0x4B, 0x81, 0x70, 0x80, 0x48, 0x64, 0x30, 0x90, 0x47, 0x4B, 0x81, 0x70, 0x80, 0x47, 0x64, 0x30, 0x90, 0x45, 0x4B, 0x81,
  0x48, 0x80, 0x45, 0x64, 0x81, 0x38, 0x90, 0x51, 0x4B, 0x81, 0x70, 0x80, 0x51, 0x64, 0x30, 0x90, 0x4F, 0x4B, 0x81, 0x70, 0x80, 0x4F, 0x64, 0x30, 0x90, 0x4D, 0x4B, 0x81, 0x70, 0x80, 0x4D, 0x64, 0x30, 0x90, 0x4C, 0x4B, 0x81, 0x70, 0x80, 0x4C,
  0x64, 0x30, 0x90, 0x4A, 0x4B, 0x81, 0x48, 0x80, 0x4A, 0x64, 0x81, 0x38, 0x90, 0x51, 0x4B, 0x81, 0x70, 0x80, 0x51, 0x64, 0x30, 0x90, 0x4F, 0x4B, 0x81, 0x70, 0x80, 0x4F, 0x64, 0x30, 0x90, 0x4D, 0x4B, 0x81, 0x70, 0x80, 0x4D, 0x64, 0x30, 0x90,
  0x4C, 0x4B, 0x81, 0x70, 0x80, 0x4C, 0x64, 0x30, 0x90, 0x4A, 0x4B, 0x81, 0x48, 0x80, 0x4A, 0x64, 0x81, 0x38, 0x90, 0x51, 0x4B, 0x81, 0x70, 0x80, 0x51, 0x64, 0x30, 0x90, 0x4F, 0x4B, 0x81, 0x70, 0x80, 0x4F, 0x64, 0x30, 0x90, 0x4D, 0x4B, 0x81,
  0x70, 0x80, 0x4D, 0x64, 0x30, 0x90, 0x4C, 0x4B, 0x81, 0x70, 0x80, 0x4C, 0x64, 0x30, 0x90, 0x4A, 0x4B, 0x81, 0x48, 0x80, 0x4A, 0x64, 0x81, 0x38, 0x90, 0x4C, 0x4B, 0x81, 0x70, 0x80, 0x4C, 0x64, 0x30, 0x90, 0x4A, 0x4B, 0x81, 0x70, 0x80, 0x4A,
  0x64, 0x30, 0x90, 0x48, 0x4B, 0x81, 0x70, 0x80, 0x48, 0x64, 0x30, 0x90, 0x47, 0x4B, 0x81, 0x70, 0x80, 0x47, 0x64, 0x30, 0x90, 0x45, 0x4B, 0x81, 0x40, 0x90, 0x39, 0x7F, 0x08, 0x80, 0x45, 0x64, 0x78, 0x80, 0x39, 0x64, 0x40, 0x90, 0x39, 0x7F,
  0x81, 0x00, 0x80, 0x39, 0x64, 0x40, 0x90, 0x3C, 0x7F, 0x81, 0x00, 0x80, 0x3C, 0x64, 0x40, 0x90, 0x39, 0x7F, 0x81, 0x00, 0x80, 0x39, 0x64, 0x40, 0x90, 0x3E, 0x7F, 0x81, 0x00, 0x80, 0x3E, 0x64, 0x40, 0x90, 0x39, 0x7F, 0x81, 0x00, 0x80, 0x39,
  0x64, 0x40, 0x90, 0x40, 0x7F, 0x81, 0x00, 0x80, 0x40, 0x64, 0x40, 0x90, 0x3E, 0x7F, 0x81, 0x00, 0x80, 0x3E, 0x64, 0x40, 0x90, 0x3C, 0x7F, 0x81, 0x00, 0x80, 0x3C, 0x64, 0x40, 0x90, 0x3C, 0x7F, 0x81, 0x00, 0x80, 0x3C, 0x64, 0x40, 0x90, 0x40,
  0x7F, 0x81, 0x00, 0x80, 0x40, 0x64, 0x40, 0x90, 0x3C, 0x7F, 0x81, 0x00, 0x80, 0x3C, 0x64, 0x40, 0x90, 0x43, 0x7F, 0x81, 0x00, 0x80, 0x43, 0x64, 0x40, 0x90, 0x3C, 0x7F, 0x81, 0x00, 0x80, 0x3C, 0x64, 0x40, 0x90, 0x40, 0x7F, 0x81, 0x00, 0x80,
  0x40, 0x64, 0x40, 0x90, 0x3C, 0x7F, 0x81, 0x00, 0x80, 0x3C, 0x64, 0x40, 0x90, 0x37, 0x7F, 0x81, 0x00, 0x80, 0x37, 0x64, 0x40, 0x90, 0x37, 0x7F, 0x81, 0x00, 0x80, 0x37, 0x64, 0x40, 0x90, 0x3B, 0x7F, 0x81, 0x00, 0x80, 0x3B, 0x64, 0x40, 0x90,
  0x37, 0x7F, 0x81, 0x00, 0x80, 0x37, 0x64, 0x40, 0x90, 0x3C, 0x7F, 0x81, 0x00, 0x80, 0x3C, 0x64, 0x40, 0x90, 0x37, 0x7F, 0x81, 0x00, 0x80, 0x37, 0x64, 0x40, 0x90, 0x3E, 0x7F, 0x81, 0x00, 0x80, 0x3E, 0x64, 0x40, 0x90, 0x3C, 0x7F, 0x81, 0x00,
  0x80, 0x3C, 0x64, 0x40, 0x90, 0x35, 0x7F, 0x81, 0x00, 0x80, 0x35, 0x64, 0x40, 0x90, 0x35, 0x7F, 0x81, 0x00, 0x80, 0x35, 0x64, 0x40, 0x90, 0x39, 0x7F, 0x81, 0x00, 0x80, 0x39, 0x64, 0x40, 0x90, 0x35, 0x7F, 0x81, 0x00, 0x80, 0x35, 0x64, 0x40,
  0x90, 0x3C, 0x7F, 0x81, 0x00, 0x80, 0x3C, 0x64, 0x40, 0x90, 0x35, 0x7F, 0x81, 0x00, 0x80, 0x35, 0x64, 0x40, 0x90, 0x3C, 0x7F, 0x81, 0x00, 0x80, 0x3C, 0x64, 0x40, 0x90, 0x3B, 0x7F, 0x81, 0x00, 0x80, 0x3B, 0x64, 0x40, 0x90, 0x39, 0x7F, 0x81,
  0x00, 0x80, 0x39, 0x64, 0x40, 0x90, 0x39, 0x7F, 0x81, 0x00, 0x80, 0x39, 0x64, 0x40, 0x90, 0x3C, 0x7F, 0x81, 0x00, 0x80, 0x3C, 0x64, 0x40, 0x90, 0x39, 0x7F, 0x81, 0x00, 0x80, 0x39, 0x64, 0x40, 0x90, 0x3E, 0x7F, 0x81, 0x00, 0x80, 0x3E, 0x64,
  0x40, 0x90, 0x39, 0x7F, 0x81, 0x00, 0x80, 0x39, 0x64, 0x40, 0x90, 0x40, 0x7F, 0x81, 0x00, 0x80, 0x40, 0x64, 0x40, 0x90, 0x3E, 0x7F, 0x81, 0x00, 0x80, 0x3E, 0x64, 0x40, 0x90, 0x3C, 0x7F, 0x81, 0x00, 0x80, 0x3C, 0x64, 0x40, 0x90, 0x3C, 0x7F,
  0x81, 0x00, 0x80, 0x3C, 0x64, 0x40, 0x90, 0x40, 0x7F, 0x81, 0x00, 0x80, 0x40, 0x64, 0x40, 0x90, 0x3C, 0x7F, 0x81, 0x00, 0x80, 0x3C, 0x64, 0x40, 0x90, 0x43, 0x7F, 0x81, 0x00, 0x80, 0x43, 0x64, 0x40, 0x90, 0x3C, 0x7F, 0x81, 0x00, 0x80, 0x3C,
  0x64, 0x40, 0x90, 0x40, 0x7F, 0x81, 0x00, 0x80, 0x40, 0x64, 0x40, 0x90, 0x3C, 0x7F, 0x81, 0x00, 0x80, 0x3C, 0x64, 0x40, 0x90, 0x37, 0x7F, 0x81, 0x00, 0x80, 0x37, 0x64, 0x40, 0x90, 0x37, 0x7F, 0x81, 0x00, 0x80, 0x37, 0x64, 0x40, 0x90, 0x3B,
  0x7F, 0x81, 0x00, 0x80, 0x3B, 0x64, 0x40, 0x90, 0x37, 0x7F, 0x81, 0x00, 0x80, 0x37, 0x64, 0x40, 0x90, 0x3C, 0x7F, 0x81, 0x00, 0x80, 0x3C, 0x64, 0x40, 0x90, 0x37, 0x7F, 0x81, 0x00, 0x80, 0x37, 0x64, 0x40, 0x90, 0x3E, 0x7F, 0x81, 0x00, 0x80,
  0x3E, 0x64, 0x40, 0x90, 0x3C, 0x7F, 0x81, 0x00, 0x80, 0x3C, 0x64, 0x40, 0x90, 0x35, 0x7F, 0x81, 0x00, 0x80, 0x35, 0x64, 0x40, 0x90, 0x35, 0x7F, 0x81, 0x00, 0x80, 0x35, 0x64, 0x40, 0x90, 0x39, 0x7F, 0x81, 0x00, 0x80, 0x39, 0x64, 0x40, 0x90,
  0x35, 0x7F, 0x81, 0x00, 0x80, 0x35, 0x64, 0x40, 0x90, 0x3C, 0x7F, 0x81, 0x00, 0x80, 0x3C, 0x64, 0x40, 0x90, 0x35, 0x7F, 0x81, 0x00, 0x80, 0x35, 0x64, 0x40, 0x90, 0x3C, 0x7F, 0x81, 0x00, 0x80, 0x3C, 0x64, 0x40, 0x90, 0x3B, 0x7F, 0x81, 0x00,
  0x80, 0x3B, 0x64, 0xEC, 0x40, 0x90, 0x39, 0x7F, 0x81, 0x00, 0x80, 0x39, 0x23, 0x40, 0x90, 0x39, 0x7F, 0x81, 0x00, 0x80, 0x39, 0x23, 0x40, 0x90, 0x3C, 0x7F, 0x81, 0x00, 0x80, 0x3C, 0x23, 0x40, 0x90, 0x39, 0x7F, 0x81, 0x00, 0x80, 0x39, 0x23,
  0x40, 0x90, 0x3E, 0x7F, 0x81, 0x00, 0x80, 0x3E, 0x23, 0x40, 0x90, 0x39, 0x7F, 0x81, 0x00, 0x80, 0x39, 0x23, 0x40, 0x90, 0x40, 0x7F, 0x81, 0x00, 0x80, 0x40, 0x23, 0x40, 0x90, 0x3E, 0x7F, 0x81, 0x00, 0x80, 0x3E, 0x23, 0x40, 0x90, 0x3C, 0x7F,
  0x81, 0x00, 0x80, 0x3C, 0x23, 0x40, 0x90, 0x3C, 0x7F, 0x81, 0x00, 0x80, 0x3C, 0x23, 0x40, 0x90, 0x40, 0x7F, 0x81, 0x00, 0x80, 0x40, 0x23, 0x40, 0x90, 0x3C, 0x7F, 0x81, 0x00, 0x80, 0x3C, 0x23, 0x40, 0x90, 0x43, 0x7F, 0x81, 0x00, 0x80, 0x43,
  0x23, 0x40, 0x90, 0x3C, 0x7F, 0x81, 0x00, 0x80, 0x3C, 0x23, 0x40, 0x90, 0x40, 0x7F, 0x81, 0x00, 0x80, 0x40, 0x23, 0x40, 0x90, 0x3C, 0x7F, 0x81, 0x00, 0x80, 0x3C, 0x23, 0x40, 0x90, 0x37, 0x7F, 0x81, 0x00, 0x80, 0x37, 0x23, 0x40, 0x90, 0x37,
  0x7F, 0x81, 0x00, 0x80, 0x37, 0x23, 0x40, 0x90, 0x3B, 0x7F, 0x81, 0x00, 0x80, 0x3B, 0x23, 0x40, 0x90, 0x37, 0x7F, 0x81, 0x00, 0x80, 0x37, 0x23, 0x40, 0x90, 0x3C, 0x7F, 0x81, 0x00, 0x80, 0x3C, 0x23, 0x40, 0x90, 0x37, 0x7F, 0x81, 0x00, 0x80,
  0x37, 0x23, 0x40, 0x90, 0x3E, 0x7F, 0x81, 0x00, 0x80, 0x3E, 0x23, 0x40, 0x90, 0x3C, 0x7F, 0x81, 0x00, 0x80, 0x3C, 0x23, 0x40, 0x90, 0x35, 0x7F, 0x81, 0x00, 0x80, 0x35, 0x23, 0x40, 0x90, 0x35, 0x7F, 0x81, 0x00, 0x80, 0x35, 0x23, 0x40, 0x90,
  0x39, 0x7F, 0x81, 0x00, 0x80, 0x39, 0x23, 0x40, 0x90, 0x35, 0x7F, 0x81, 0x00, 0x80, 0x35, 0x23, 0x40, 0x90, 0x3C, 0x7F, 0x81, 0x00, 0x80, 0x3C, 0x23, 0x40, 0x90, 0x35, 0x7F, 0x81, 0x00, 0x80, 0x35, 0x23, 0x40, 0x90, 0x3C, 0x7F, 0x81, 0x00,
  0x80, 0x3C, 0x23, 0x40, 0x90, 0x3B, 0x7F, 0x81, 0x00, 0x80, 0x3B, 0x23, 0x40, 0x90, 0x39, 0x7F, 0x81, 0x00, 0x80, 0x39, 0x23, 0x40, 0x90, 0x39, 0x7F, 0x81, 0x00, 0x80, 0x39, 0x23, 0x40, 0x90, 0x3C, 0x7F, 0x81, 0x00, 0x80, 0x3C, 0x23, 0x40,
  0x90, 0x39, 0x7F, 0x81, 0x00, 0x80, 0x39, 0x23, 0x40, 0x90, 0x3E, 0x7F, 0x81, 0x00, 0x80, 0x3E, 0x23, 0x40, 0x90, 0x39, 0x7F, 0x81, 0x00, 0x80, 0x39, 0x23, 0x40, 0x90, 0x40, 0x7F, 0x81, 0x00, 0x80, 0x40, 0x23, 0x40, 0x90, 0x3E, 0x7F, 0x81,
  0x00, 0x80, 0x3E, 0x23, 0x40, 0x90, 0x3C, 0x7F, 0x81, 0x00, 0x80, 0x3C, 0x23, 0x40, 0x90, 0x3C, 0x7F, 0x81, 0x00, 0x80, 0x3C, 0x23, 0x40, 0x90, 0x40, 0x7F, 0x81, 0x00, 0x80, 0x40, 0x23, 0x40, 0x90, 0x3C, 0x7F, 0x81, 0x00, 0x80, 0x3C, 0x23,
  0x40, 0x90, 0x43, 0x7F, 0x81, 0x00, 0x80, 0x43, 0x23, 0x40, 0x90, 0x3C, 0x7F, 0x81, 0x00, 0x80, 0x3C, 0x23, 0x40, 0x90, 0x40, 0x7F, 0x81, 0x00, 0x80, 0x40, 0x23, 0x40, 0x90, 0x3C, 0x7F, 0x81, 0x00, 0x80, 0x3C, 0x23, 0x40, 0x90, 0x37, 0x7F,
  0x81, 0x00, 0x80, 0x37, 0x23, 0x40, 0x90, 0x37, 0x7F, 0x81, 0x00, 0x80, 0x37, 0x23, 0x40, 0x90, 0x3B, 0x7F, 0x81, 0x00, 0x80, 0x3B, 0x23, 0x40, 0x90, 0x37, 0x7F, 0x81, 0x00, 0x80, 0x37, 0x23, 0x40, 0x90, 0x3C, 0x7F, 0x81, 0x00, 0x80, 0x3C,
  0x23, 0x40, 0x90, 0x37, 0x7F, 0x81, 0x00, 0x80, 0x37, 0x23, 0x40, 0x90, 0x3E, 0x7F, 0x81, 0x00, 0x80, 0x3E, 0x23, 0x40, 0x90, 0x3C, 0x7F, 0x81, 0x00, 0x80, 0x3C, 0x23, 0x40, 0x90, 0x35, 0x7F, 0x81, 0x00, 0x80, 0x35, 0x23, 0x40, 0x90, 0x35,
  0x7F, 0x81, 0x00, 0x80, 0x35, 0x23, 0x40, 0x90, 0x39, 0x7F, 0x81, 0x00, 0x80, 0x39, 0x23, 0x40, 0x90, 0x35, 0x7F, 0x81, 0x00, 0x80, 0x35, 0x23, 0x40, 0x90, 0x3C, 0x7F, 0x81, 0x00, 0x80, 0x3C, 0x23, 0x40, 0x90, 0x35, 0x7F, 0x81, 0x00, 0x80,
  0x35, 0x23, 0x40, 0x90, 0x3C, 0x7F, 0x81, 0x00, 0x80, 0x3C, 0x23, 0x40, 0x90, 0x3B, 0x7F, 0x82, 0x00, 0x80, 0x3B, 0x23, 0x00, 0xFF, 0x2F, 0x00, 0x4D, 0x54, 0x72, 0x6B, 0x00, 0x00, 0x11, 0xEF, 0x00, 0xFF, 0x03, 0x06, 0x4B, 0x6F, 0x6D, 0x62,
  0x61, 0x74, 0x00, 0xB1, 0x00, 0x00, 0x00, 0xC1, 0x37, 0x00, 0xFF, 0x59, 0x02, 0x00, 0x00, 0xEC, 0x00, 0x91, 0x45, 0x7F, 0x81, 0x40, 0x81, 0x45, 0x64, 0x60, 0x91, 0x45, 0x7F, 0x81, 0x40, 0x81, 0x45, 0x64, 0x60, 0x91, 0x45, 0x7F, 0x81, 0x40,
  0x81, 0x45, 0x64, 0x60, 0x91, 0x45, 0x7F, 0x81, 0x40, 0x81, 0x45, 0x64, 0x60, 0x91, 0x43, 0x7F, 0x81, 0x00, 0x81, 0x43, 0x64, 0x40, 0x91, 0x48, 0x7F, 0x81, 0x00, 0x81, 0x48, 0x64, 0x40, 0x91, 0x45, 0x7F, 0x81, 0x40, 0x81, 0x45, 0x64, 0x60,
  0x91, 0x45, 0x7F, 0x81, 0x40, 0x81, 0x45, 0x64, 0x60, 0x91, 0x45, 0x7F, 0x81, 0x40, 0x81, 0x45, 0x64, 0x60, 0x91, 0x45, 0x7F, 0x81, 0x40, 0x81, 0x45, 0x64, 0x60, 0x91, 0x43, 0x7F, 0x81, 0x00, 0x81, 0x43, 0x64, 0x40, 0x91, 0x40, 0x7F, 0x81,
  0x00, 0x81, 0x40, 0x64, 0x40, 0x91, 0x45, 0x7F, 0x81, 0x40, 0x81, 0x45, 0x64, 0x60, 0x91, 0x45, 0x7F, 0x81, 0x40, 0x81, 0x45, 0x64, 0x60, 0x91, 0x45, 0x7F, 0x81, 0x40, 0x81, 0x45, 0x64, 0x60, 0x91, 0x45, 0x7F, 0x81, 0x40, 0x81, 0x45, 0x64,
  0x60, 0x91, 0x43, 0x7F, 0x81, 0x00, 0x81, 0x43, 0x64, 0x40, 0x91, 0x48, 0x7F, 0x81, 0x00, 0x81, 0x48, 0x64, 0x40, 0x91, 0x45, 0x7F, 0x81, 0x40, 0x81, 0x45, 0x64, 0x60, 0x91, 0x45, 0x7F, 0x81, 0x40, 0x81, 0x45, 0x64, 0x60, 0x91, 0x45, 0x7F,
  0x81, 0x00, 0x81, 0x45, 0x64, 0x40, 0x91, 0x45, 0x7F, 0x40, 0x81, 0x45, 0x64, 0x20, 0x91, 0x45, 0x7F, 0x40, 0x81, 0x45, 0x64, 0x81, 0x00, 0x91, 0x45, 0x7F, 0x40, 0x81, 0x45, 0x64, 0x20, 0x91, 0x45, 0x7F, 0x40, 0x81, 0x45, 0x64, 0x82, 0x40,
  0x91, 0x45, 0x7F, 0x81, 0x40, 0x81, 0x45, 0x64, 0x60, 0x91, 0x45, 0x7F, 0x81, 0x40, 0x81, 0x45, 0x64, 0x60, 0x91, 0x45, 0x7F, 0x81, 0x40, 0x81, 0x45, 0x64, 0x60, 0x91, 0x45, 0x7F, 0x81, 0x40, 0x81, 0x45, 0x64, 0x60, 0x91, 0x43, 0x7F, 0x81,
  0x00, 0x81, 0x43, 0x64, 0x40, 0x91, 0x48, 0x7F, 0x81, 0x00, 0x81, 0x48, 0x64, 0x40, 0x91, 0x45, 0x7F, 0x81, 0x40, 0x81, 0x45, 0x64, 0x60, 0x91, 0x45, 0x7F, 0x81, 0x40, 0x81, 0x45, 0x64, 0x60, 0x91, 0x45, 0x7F, 0x81, 0x40, 0x81, 0x45, 0x64,
  0x60, 0x91, 0x45, 0x7F, 0x81, 0x40, 0x81, 0x45, 0x64, 0x60, 0x91, 0x43, 0x7F, 0x81, 0x00, 0x81, 0x43, 0x64, 0x40, 0x91, 0x40, 0x7F, 0x81, 0x00, 0x81, 0x40, 0x64, 0x40, 0x91, 0x45, 0x7F, 0x81, 0x40, 0x81, 0x45, 0x64, 0x60, 0x91, 0x45, 0x7F,
  0x81, 0x40, 0x81, 0x45, 0x64, 0x60, 0x91, 0x45, 0x7F, 0x81, 0x40, 0x81, 0x45, 0x64, 0x60, 0x91, 0x45, 0x7F, 0x81, 0x40, 0x81, 0x45, 0x64, 0x60, 0x91, 0x43, 0x7F, 0x81, 0x00, 0x81, 0x43, 0x64, 0x40, 0x91, 0x48, 0x7F, 0x81, 0x00, 0x81, 0x48,
  0x64, 0x40, 0x91, 0x45, 0x7F, 0x81, 0x40, 0x81, 0x45, 0x64, 0x60, 0x91, 0x45, 0x7F, 0x81, 0x40, 0x81, 0x45, 0x64, 0x60, 0x91, 0x45, 0x7F, 0x81, 0x00, 0x81, 0x45, 0x64, 0x40, 0x91, 0x45, 0x7F, 0x40, 0x81, 0x45, 0x64, 0x20, 0x91, 0x45, 0x7F,
  0x40, 0x81, 0x45, 0x64, 0x81, 0x00, 0x91, 0x45, 0x7F, 0x40, 0x81, 0x45, 0x64, 0x20, 0x91, 0x45, 0x7F, 0x40, 0x81, 0x45, 0x64, 0x82, 0x40, 0x91, 0x45, 0x7F, 0x40, 0x81, 0x45, 0x64, 0x20, 0x91, 0x4C, 0x7F, 0x81, 0x00, 0x81, 0x4C, 0x64, 0x40,
  0x91, 0x45, 0x7F, 0x40, 0x81, 0x45, 0x64, 0x20, 0x91, 0x48, 0x7F, 0x81, 0x00, 0x81, 0x48, 0x64, 0x40, 0x91, 0x45, 0x7F, 0x40, 0x81, 0x45, 0x64, 0x20, 0x91, 0x46, 0x7F, 0x81, 0x00, 0x81, 0x46, 0x64, 0x40, 0x91, 0x45, 0x7F, 0x40, 0x81, 0x45,
  0x64, 0x20, 0x91, 0x48, 0x7F, 0x81, 0x00, 0x81, 0x48, 0x64, 0x40, 0x91, 0x45, 0x7F, 0x40, 0x81, 0x45, 0x64, 0x20, 0x91, 0x46, 0x7F, 0x40, 0x81, 0x46, 0x64, 0x20, 0x91, 0x43, 0x7F, 0x81, 0x00, 0x81, 0x43, 0x64, 0x40, 0x91, 0x45, 0x7F, 0x40,
  0x81, 0x45, 0x64, 0x20, 0x91, 0x4C, 0x7F, 0x81, 0x00, 0x81, 0x4C, 0x64, 0x40, 0x91, 0x45, 0x7F, 0x40, 0x81, 0x45, 0x64, 0x20, 0x91, 0x48, 0x7F, 0x81, 0x00, 0x81, 0x48, 0x64, 0x40, 0x91, 0x45, 0x7F, 0x40, 0x81, 0x45, 0x64, 0x20, 0x91, 0x46,
  0x7F, 0x81, 0x00, 0x81, 0x46, 0x64, 0x40, 0x91, 0x45, 0x7F, 0x40, 0x81, 0x45, 0x64, 0x20, 0x91, 0x48, 0x7F, 0x81, 0x00, 0x81, 0x48, 0x64, 0x40, 0x91, 0x45, 0x7F, 0x40, 0x81, 0x45, 0x64, 0x20, 0x91, 0x46, 0x7F, 0x40, 0x81, 0x46, 0x64, 0x20,
  0x91, 0x43, 0x7F, 0x81, 0x00, 0x81, 0x43, 0x64, 0x40, 0x91, 0x45, 0x7F, 0x40, 0x81, 0x45, 0x64, 0x20, 0x91, 0x4C, 0x7F, 0x81, 0x00, 0x81, 0x4C, 0x64, 0x40, 0x91, 0x45, 0x7F, 0x40, 0x81, 0x45, 0x64, 0x20, 0x91, 0x48, 0x7F, 0x81, 0x00, 0x81,
  0x48, 0x64, 0x40, 0x91, 0x45, 0x7F, 0x40, 0x81, 0x45, 0x64, 0x20, 0x91, 0x46, 0x7F, 0x81, 0x00, 0x81, 0x46, 0x64, 0x40, 0x91, 0x45, 0x7F, 0x40, 0x81, 0x45, 0x64, 0x20, 0x91, 0x48, 0x7F, 0x81, 0x00, 0x81, 0x48, 0x64, 0x40, 0x91, 0x45, 0x7F,
  0x40, 0x81, 0x45, 0x64, 0x20, 0x91, 0x46, 0x7F, 0x40, 0x81, 0x46, 0x64, 0x20, 0x91, 0x43, 0x7F, 0x81, 0x00, 0x81, 0x43, 0x64, 0x40, 0x91, 0x45, 0x7F, 0x40, 0x81, 0x45, 0x64, 0x20, 0x91, 0x4C, 0x7F, 0x81, 0x00, 0x81, 0x4C, 0x64, 0x40, 0x91,
  0x45, 0x7F, 0x40, 0x81, 0x45, 0x64, 0x20, 0x91, 0x48, 0x7F, 0x81, 0x00, 0x81, 0x48, 0x64, 0x40, 0x91, 0x43, 0x7F, 0x40, 0x81, 0x43, 0x64, 0x20, 0x91, 0x43, 0x7F, 0x81, 0x00, 0x81, 0x43, 0x64, 0x40, 0x91, 0x43, 0x7F, 0x40, 0x81, 0x43, 0x64,
  0x20, 0x91, 0x45, 0x7F, 0x81, 0x00, 0x81, 0x45, 0x64, 0x40, 0x91, 0x45, 0x7F, 0x81, 0x00, 0x81, 0x45, 0x64, 0x82, 0x00, 0x91, 0x45, 0x7F, 0x40, 0x81, 0x45, 0x64, 0x20, 0x91, 0x4C, 0x7F, 0x81, 0x00, 0x81, 0x4C, 0x64, 0x40, 0x91, 0x45, 0x7F,
  0x40, 0x81, 0x45, 0x64, 0x20, 0x91, 0x48, 0x7F, 0x81, 0x00, 0x81, 0x48, 0x64, 0x40, 0x91, 0x45, 0x7F, 0x40, 0x81, 0x45, 0x64, 0x20, 0x91, 0x46, 0x7F, 0x81, 0x00, 0x81, 0x46, 0x64, 0x40, 0x91, 0x45, 0x7F, 0x40, 0x81, 0x45, 0x64, 0x20, 0x91,
  0x48, 0x7F, 0x81, 0x00, 0x81, 0x48, 0x64, 0x40, 0x91, 0x45, 0x7F, 0x40, 0x81, 0x45, 0x64, 0x20, 0x91, 0x46, 0x7F, 0x40, 0x81, 0x46, 0x64, 0x20, 0x91, 0x43, 0x7F, 0x81, 0x00, 0x81, 0x43, 0x64, 0x40, 0x91, 0x45, 0x7F, 0x40, 0x81, 0x45, 0x64,
  0x20, 0x91, 0x4C, 0x7F, 0x81, 0x00, 0x81, 0x4C, 0x64, 0x40, 0x91, 0x45, 0x7F, 0x40, 0x81, 0x45, 0x64, 0x20, 0x91, 0x48, 0x7F, 0x81, 0x00, 0x81, 0x48, 0x64, 0x40, 0x91, 0x45, 0x7F, 0x40, 0x81, 0x45, 0x64, 0x20, 0x91, 0x46, 0x7F, 0x81, 0x00,
  0x81, 0x46, 0x64, 0x40, 0x91, 0x45, 0x7F, 0x40, 0x81, 0x45, 0x64, 0x20, 0x91, 0x48, 0x7F, 0x81, 0x00, 0x81, 0x48, 0x64, 0x40, 0x91, 0x45, 0x7F, 0x40, 0x81, 0x45, 0x64, 0x20, 0x91, 0x46, 0x7F, 0x40, 0x81, 0x46, 0x64, 0x20, 0x91, 0x43, 0x7F,
  0x81, 0x00, 0x81, 0x43, 0x64, 0x40, 0x91, 0x45, 0x7F, 0x40, 0x81, 0x45, 0x64, 0x20, 0x91, 0x4C, 0x7F, 0x81, 0x00, 0x81, 0x4C, 0x64, 0x40, 0x91, 0x45, 0x7F, 0x40, 0x81, 0x45, 0x64, 0x20, 0x91, 0x48, 0x7F, 0x81, 0x00, 0x81, 0x48, 0x64, 0x40,
  0x91, 0x45, 0x7F, 0x40, 0x81, 0x45, 0x64, 0x20, 0x91, 0x46, 0x7F, 0x81, 0x00, 0x81, 0x46, 0x64, 0x40, 0x91, 0x45, 0x7F, 0x40, 0x81, 0x45, 0x64, 0x20, 0x91, 0x48, 0x7F, 0x81, 0x00, 0x81, 0x48, 0x64, 0x40, 0x91, 0x45, 0x7F, 0x40, 0x81, 0x45,
  0x64, 0x20, 0x91, 0x46, 0x7F, 0x40, 0x81, 0x46, 0x64, 0x20, 0x91, 0x43, 0x7F, 0x81, 0x00, 0x81, 0x43, 0x64, 0xEC, 0x40, 0x91, 0x45, 0x7F, 0x81, 0x40, 0x81, 0x45, 0x64, 0x60, 0x91, 0x45, 0x7F, 0x81, 0x40, 0x81, 0x45, 0x64, 0x60, 0x91, 0x45,
  0x7F, 0x81, 0x40, 0x81, 0x45, 0x64, 0x60, 0x91, 0x45, 0x7F, 0x81, 0x40, 0x81, 0x45, 0x64, 0x60, 0x91, 0x43, 0x7F, 0x81, 0x00, 0x81, 0x43, 0x64, 0x40, 0x91, 0x48, 0x7F, 0x81, 0x00, 0x81, 0x48, 0x64, 0x40, 0x91, 0x45, 0x7F, 0x81, 0x40, 0x81,
  0x45, 0x64, 0x60, 0x91, 0x45, 0x7F, 0x81, 0x40, 0x81, 0x45, 0x64, 0x60, 0x91, 0x45, 0x7F, 0x81, 0x40, 0x81, 0x45, 0x64, 0x60, 0x91, 0x45, 0x7F, 0x81, 0x40, 0x81, 0x45, 0x64, 0x60, 0x91, 0x43, 0x7F, 0x81, 0x00, 0x81, 0x43, 0x64, 0x40, 0x91,
  0x40, 0x7F, 0x81, 0x00, 0x81, 0x40, 0x64, 0x40, 0x91, 0x45, 0x7F, 0x81, 0x40, 0x81, 0x45, 0x64, 0x60, 0x91, 0x45, 0x7F, 0x81, 0x40, 0x81, 0x45, 0x64, 0x60, 0x91, 0x45, 0x7F, 0x81, 0x40, 0x81, 0x45, 0x64, 0x60, 0x91, 0x45, 0x7F, 0x81, 0x40,
  0x81, 0x45, 0x64, 0x60, 0x91, 0x43, 0x7F, 0x81, 0x00, 0x81, 0x43, 0x64, 0x40, 0x91, 0x48, 0x7F, 0x81, 0x00, 0x81, 0x48, 0x64, 0x40, 0x91, 0x45, 0x7F, 0x81, 0x40, 0x81, 0x45, 0x64, 0x60, 0x91, 0x45, 0x7F, 0x81, 0x40, 0x81, 0x45, 0x64, 0x60,
  0x91, 0x45, 0x7F, 0x81, 0x00, 0x81, 0x45, 0x64, 0x40, 0x91, 0x45, 0x7F, 0x40, 0x81, 0x45, 0x64, 0x20, 0x91, 0x45, 0x7F, 0x40, 0x81, 0x45, 0x64, 0x81, 0x00, 0x91, 0x45, 0x7F, 0x40, 0x81, 0x45, 0x64, 0x20, 0x91, 0x45, 0x7F, 0x40, 0x81, 0x45,
  0x64, 0x82, 0x40, 0x91, 0x45, 0x7F, 0x81, 0x40, 0x81, 0x45, 0x64, 0x60, 0x91, 0x45, 0x7F, 0x81, 0x40, 0x81, 0x45, 0x64, 0x60, 0x91, 0x45, 0x7F, 0x81, 0x40, 0x81, 0x45, 0x64, 0x60, 0x91, 0x45, 0x7F, 0x81, 0x40, 0x81, 0x45, 0x64, 0x60, 0x91,
  0x43, 0x7F, 0x81, 0x00, 0x81, 0x43, 0x64, 0x40, 0x91, 0x48, 0x7F, 0x81, 0x00, 0x81, 0x48, 0x64, 0x40, 0x91, 0x45, 0x7F, 0x81, 0x40, 0x81, 0x45, 0x64, 0x60, 0x91, 0x45, 0x7F, 0x81, 0x40, 0x81, 0x45, 0x64, 0x60, 0x91, 0x45, 0x7F, 0x81, 0x40,
  0x81, 0x45, 0x64, 0x60, 0x91, 0x45, 0x7F, 0x81, 0x40, 0x81, 0x45, 0x64, 0x60, 0x91, 0x43, 0x7F, 0x81, 0x00, 0x81, 0x43, 0x64, 0x40, 0x91, 0x40, 0x7F, 0x81, 0x00, 0x81, 0x40, 0x64, 0x40, 0x91, 0x45, 0x7F, 0x81, 0x40, 0x81, 0x45, 0x64, 0x60,
  0x91, 0x45, 0x7F, 0x81, 0x40, 0x81, 0x45, 0x64, 0x60, 0x91, 0x45, 0x7F, 0x81, 0x40, 0x81, 0x45, 0x64, 0x60, 0x91, 0x45, 0x7F, 0x81, 0x40, 0x81, 0x45, 0x64, 0x60, 0x91, 0x43, 0x7F, 0x81, 0x00, 0x81, 0x43, 0x64, 0x40, 0x91, 0x48, 0x7F, 0x81,
  0x00, 0x81, 0x48, 0x64, 0x40, 0x91, 0x45, 0x7F, 0x81, 0x40, 0x81, 0x45, 0x64, 0x60, 0x91, 0x45, 0x7F, 0x81, 0x40, 0x81, 0x45, 0x64, 0x60, 0x91, 0x45, 0x7F, 0x81, 0x00, 0x81, 0x45, 0x64, 0x40, 0x91, 0x45, 0x7F, 0x40, 0x81, 0x45, 0x64, 0x20,
  0x91, 0x45, 0x7F, 0x40, 0x81, 0x45, 0x64, 0x81, 0x00, 0x91, 0x45, 0x7F, 0x40, 0x81, 0x45, 0x64, 0x20, 0x91, 0x45, 0x7F, 0x40, 0x81, 0x45, 0x64, 0x82, 0x40, 0x91, 0x45, 0x7F, 0x40, 0x81, 0x45, 0x64, 0x20, 0x91, 0x4C, 0x7F, 0x81, 0x00, 0x81,
  0x4C, 0x64, 0x40, 0x91, 0x45, 0x7F, 0x40, 0x81, 0x45, 0x64, 0x20, 0x91, 0x48, 0x7F, 0x81, 0x00, 0x81, 0x48, 0x64, 0x40, 0x91, 0x45, 0x7F, 0x40, 0x81, 0x45, 0x64, 0x20, 0x91, 0x46, 0x7F, 0x81, 0x00, 0x81, 0x46, 0x64, 0x40, 0x91, 0x45, 0x7F,
  0x40, 0x81, 0x45, 0x64, 0x20, 0x91, 0x48, 0x7F, 0x81, 0x00, 0x81, 0x48, 0x64, 0x40, 0x91, 0x45, 0x7F, 0x40, 0x81, 0x45, 0x64, 0x20, 0x91, 0x46, 0x7F, 0x40, 0x81, 0x46, 0x64, 0x20, 0x91, 0x43, 0x7F, 0x81, 0x00, 0x81, 0x43, 0x64, 0x40, 0x91,
  0x45, 0x7F, 0x40, 0x81, 0x45, 0x64, 0x20, 0x91, 0x4C, 0x7F, 0x81, 0x00, 0x81, 0x4C, 0x64, 0x40, 0x91, 0x45, 0x7F, 0x40, 0x81, 0x45, 0x64, 0x20, 0x91, 0x48, 0x7F, 0x81, 0x00, 0x81, 0x48, 0x64, 0x40, 0x91, 0x45, 0x7F, 0x40, 0x81, 0x45, 0x64,
  0x20, 0x91, 0x46, 0x7F, 0x81, 0x00, 0x81, 0x46, 0x64, 0x40, 0x91, 0x45, 0x7F, 0x40, 0x81, 0x45, 0x64, 0x20, 0x91, 0x48, 0x7F, 0x81, 0x00, 0x81, 0x48, 0x64, 0x40, 0x91, 0x45, 0x7F, 0x40, 0x81, 0x45, 0x64, 0x20, 0x91, 0x46, 0x7F, 0x40, 0x81,
  0x46, 0x64, 0x20, 0x91, 0x43, 0x7F, 0x81, 0x00, 0x81, 0x43, 0x64, 0x40, 0x91, 0x45, 0x7F, 0x40, 0x81, 0x45, 0x64, 0x20, 0x91, 0x4C, 0x7F, 0x81, 0x00, 0x81, 0x4C, 0x64, 0x40, 0x91, 0x45, 0x7F, 0x40, 0x81, 0x45, 0x64, 0x20, 0x91, 0x48, 0x7F,
  0x81, 0x00, 0x81, 0x48, 0x64, 0x40, 0x91, 0x45, 0x7F, 0x40, 0x81, 0x45, 0x64, 0x20, 0x91, 0x46, 0x7F, 0x81, 0x00, 0x81, 0x46, 0x64, 0x40, 0x91, 0x45, 0x7F, 0x40, 0x81, 0x45, 0x64, 0x20, 0x91, 0x48, 0x7F, 0x81, 0x00, 0x81, 0x48, 0x64, 0x40,
  0x91, 0x45, 0x7F, 0x40, 0x81, 0x45, 0x64, 0x20, 0x91, 0x46, 0x7F, 0x40, 0x81, 0x46, 0x64, 0x20, 0x91, 0x43, 0x7F, 0x81, 0x00, 0x81, 0x43, 0x64, 0x40, 0x91, 0x45, 0x7F, 0x40, 0x81, 0x45, 0x64, 0x20, 0x91, 0x4C, 0x7F, 0x81, 0x00, 0x81, 0x4C,
  0x64, 0x40, 0x91, 0x45, 0x7F, 0x40, 0x81, 0x45, 0x64, 0x20, 0x91, 0x48, 0x7F, 0x81, 0x00, 0x81, 0x48, 0x64, 0x40, 0x91, 0x43, 0x7F, 0x40, 0x81, 0x43, 0x64, 0x20, 0x91, 0x43, 0x7F, 0x81, 0x00, 0x81, 0x43, 0x64, 0x40, 0x91, 0x43, 0x7F, 0x40,
  0x81, 0x43, 0x64, 0x20, 0x91, 0x45, 0x7F, 0x81, 0x00, 0x81, 0x45, 0x64, 0x40, 0x91, 0x45, 0x7F, 0x81, 0x00, 0x81, 0x45, 0x64, 0x82, 0x00, 0x91, 0x45, 0x7F, 0x40, 0x81, 0x45, 0x64, 0x20, 0x91, 0x4C, 0x7F, 0x81, 0x00, 0x81, 0x4C, 0x64, 0x40,
  0x91, 0x45, 0x7F, 0x40, 0x81, 0x45, 0x64, 0x20, 0x91, 0x48, 0x7F, 0x81, 0x00, 0x81, 0x48, 0x64, 0x40, 0x91, 0x45, 0x7F, 0x40, 0x81, 0x45, 0x64, 0x20, 0x91, 0x46, 0x7F, 0x81, 0x00, 0x81, 0x46, 0x64, 0x40, 0x91, 0x45, 0x7F, 0x40, 0x81, 0x45,
  0x64, 0x20, 0x91, 0x48, 0x7F, 0x81, 0x00, 0x81, 0x48, 0x64, 0x40, 0x91, 0x45, 0x7F, 0x40, 0x81, 0x45, 0x64, 0x20, 0x91, 0x46, 0x7F, 0x40, 0x81, 0x46, 0x64, 0x20, 0x91, 0x43, 0x7F, 0x81, 0x00, 0x81, 0x43, 0x64, 0x40, 0x91, 0x45, 0x7F, 0x40,
  0x81, 0x45, 0x64, 0x20, 0x91, 0x4C, 0x7F, 0x81, 0x00, 0x81, 0x4C, 0x64, 0x40, 0x91, 0x45, 0x7F, 0x40, 0x81, 0x45, 0x64, 0x20, 0x91, 0x48, 0x7F, 0x81, 0x00, 0x81, 0x48, 0x64, 0x40, 0x91, 0x45, 0x7F, 0x40, 0x81, 0x45, 0x64, 0x20, 0x91, 0x46,
  0x7F, 0x81, 0x00, 0x81, 0x46, 0x64, 0x40, 0x91, 0x45, 0x7F, 0x40, 0x81, 0x45, 0x64, 0x20, 0x91, 0x48, 0x7F, 0x81, 0x00, 0x81, 0x48, 0x64, 0x40, 0x91, 0x45, 0x7F, 0x40, 0x81, 0x45, 0x64, 0x20, 0x91, 0x46, 0x7F, 0x40, 0x81, 0x46, 0x64, 0x20,
  0x91, 0x43, 0x7F, 0x81, 0x00, 0x81, 0x43, 0x64, 0x40, 0x91, 0x45, 0x7F, 0x40, 0x81, 0x45, 0x64, 0x20, 0x91, 0x4C, 0x7F, 0x81, 0x00, 0x81, 0x4C, 0x64, 0x40, 0x91, 0x45, 0x7F, 0x40, 0x81, 0x45, 0x64, 0x20, 0x91, 0x48, 0x7F, 0x81, 0x00, 0x81,
  0x48, 0x64, 0x40, 0x91, 0x45, 0x7F, 0x40, 0x81, 0x45, 0x64, 0x20, 0x91, 0x46, 0x7F, 0x81, 0x00, 0x81, 0x46, 0x64, 0x40, 0x91, 0x45, 0x7F, 0x40, 0x81, 0x45, 0x64, 0x20, 0x91, 0x48, 0x7F, 0x81, 0x00, 0x81, 0x48, 0x64, 0x40, 0x91, 0x45, 0x7F,
  0x40, 0x81, 0x45, 0x64, 0x20, 0x91, 0x46, 0x7F, 0x40, 0x81, 0x46, 0x64, 0x20, 0x91, 0x43, 0x7F, 0x81, 0x00, 0x81, 0x43, 0x64, 0x40, 0x91, 0x45, 0x7F, 0x40, 0x81, 0x45, 0x64, 0x20, 0x91, 0x4C, 0x7F, 0x81, 0x00, 0x81, 0x4C, 0x64, 0x40, 0x91,
  0x45, 0x7F, 0x40, 0x81, 0x45, 0x64, 0x20, 0x91, 0x48, 0x7F, 0x81, 0x00, 0x81, 0x48, 0x64, 0x40, 0x91, 0x43, 0x7F, 0x40, 0x81, 0x43, 0x64, 0x20, 0x91, 0x43, 0x7F, 0x81, 0x00, 0x81, 0x43, 0x64, 0x40, 0x91, 0x43, 0x7F, 0x40, 0x81, 0x43, 0x64,
  0x20, 0x91, 0x45, 0x7F, 0x81, 0x00, 0x81, 0x45, 0x64, 0x40, 0x91, 0x45, 0x7F, 0x81, 0x00, 0x81, 0x45, 0x64, 0xE2, 0x00, 0x91, 0x45, 0x7F, 0x81, 0x40, 0x81, 0x45, 0x64, 0x60, 0x91, 0x45, 0x7F, 0x81, 0x40, 0x81, 0x45, 0x64, 0x60, 0x91, 0x45,
  0x7F, 0x81, 0x40, 0x81, 0x45, 0x64, 0x60, 0x91, 0x45, 0x7F, 0x81, 0x40, 0x81, 0x45, 0x64, 0x60, 0x91, 0x43, 0x7F, 0x81, 0x00, 0x81, 0x43, 0x64, 0x40, 0x91, 0x48, 0x7F, 0x81, 0x00, 0x81, 0x48, 0x64, 0x40, 0x91, 0x45, 0x7F, 0x81, 0x40, 0x81,
  0x45, 0x64, 0x60, 0x91, 0x45, 0x7F, 0x81, 0x40, 0x81, 0x45, 0x64, 0x60, 0x91, 0x45, 0x7F, 0x81, 0x40, 0x81, 0x45, 0x64, 0x60, 0x91, 0x45, 0x7F, 0x81, 0x40, 0x81, 0x45, 0x64, 0x60, 0x91, 0x43, 0x7F, 0x81, 0x00, 0x81, 0x43, 0x64, 0x40, 0x91,
  0x40, 0x7F, 0x81, 0x00, 0x81, 0x40, 0x64, 0x40, 0x91, 0x45, 0x7F, 0x81, 0x40, 0x81, 0x45, 0x64, 0x60, 0x91, 0x45, 0x7F, 0x81, 0x40, 0x81, 0x45, 0x64, 0x60, 0x91, 0x45, 0x7F, 0x81, 0x40, 0x81, 0x45, 0x64, 0x60, 0x91, 0x45, 0x7F, 0x81, 0x40,
  0x81, 0x45, 0x64, 0x60, 0x91, 0x43, 0x7F, 0x81, 0x00, 0x81, 0x43, 0x64, 0x40, 0x91, 0x48, 0x7F, 0x81, 0x00, 0x81, 0x48, 0x64, 0x40, 0x91, 0x45, 0x7F, 0x81, 0x40, 0x81, 0x45, 0x64, 0x60, 0x91, 0x45, 0x7F, 0x81, 0x40, 0x81, 0x45, 0x64, 0x60,
  0x91, 0x45, 0x7F, 0x81, 0x00, 0x81, 0x45, 0x64, 0x40, 0x91, 0x45, 0x7F, 0x40, 0x81, 0x45, 0x64, 0x20, 0x91, 0x45, 0x7F, 0x40, 0x81, 0x45, 0x64, 0x81, 0x00, 0x91, 0x45, 0x7F, 0x40, 0x81, 0x45, 0x64, 0x20, 0x91, 0x45, 0x7F, 0x40, 0x81, 0x45,
  0x64, 0x82, 0x40, 0x91, 0x45, 0x7F, 0x81, 0x40, 0x81, 0x45, 0x64, 0x60, 0x91, 0x45, 0x7F, 0x81, 0x40, 0x81, 0x45, 0x64, 0x60, 0x91, 0x45, 0x7F, 0x81, 0x40, 0x81, 0x45, 0x64, 0x60, 0x91, 0x45, 0x7F, 0x81, 0x40, 0x81, 0x45, 0x64, 0x60, 0x91,
  0x43, 0x7F, 0x81, 0x00, 0x81, 0x43, 0x64, 0x40, 0x91, 0x48, 0x7F, 0x81, 0x00, 0x81, 0x48, 0x64, 0x40, 0x91, 0x45, 0x7F, 0x81, 0x40, 0x81, 0x45, 0x64, 0x60, 0x91, 0x45, 0x7F, 0x81, 0x40, 0x81, 0x45, 0x64, 0x60, 0x91, 0x45, 0x7F, 0x81, 0x40,
  0x81, 0x45, 0x64, 0x60, 0x91, 0x45, 0x7F, 0x81, 0x40, 0x81, 0x45, 0x64, 0x60, 0x91, 0x43, 0x7F, 0x81, 0x00, 0x81, 0x43, 0x64, 0x40, 0x91, 0x40, 0x7F, 0x81, 0x00, 0x81, 0x40, 0x64, 0x40, 0x91, 0x45, 0x7F, 0x81, 0x40, 0x81, 0x45, 0x64, 0x60,
  0x91, 0x45, 0x7F, 0x81, 0x40, 0x81, 0x45, 0x64, 0x60, 0x91, 0x45, 0x7F, 0x81, 0x40, 0x81, 0x45, 0x64, 0x60, 0x91, 0x45, 0x7F, 0x81, 0x40, 0x81, 0x45, 0x64, 0x60, 0x91, 0x43, 0x7F, 0x81, 0x00, 0x81, 0x43, 0x64, 0x40, 0x91, 0x48, 0x7F, 0x81,
  0x00, 0x81, 0x48, 0x64, 0x40, 0x91, 0x45, 0x7F, 0x81, 0x40, 0x81, 0x45, 0x64, 0x60, 0x91, 0x45, 0x7F, 0x81, 0x40, 0x81, 0x45, 0x64, 0x60, 0x91, 0x45, 0x7F, 0x81, 0x00, 0x81, 0x45, 0x64, 0x40, 0x91, 0x45, 0x7F, 0x40, 0x81, 0x45, 0x64, 0x20,
  0x91, 0x45, 0x7F, 0x40, 0x81, 0x45, 0x64, 0x81, 0x00, 0x91, 0x45, 0x7F, 0x40, 0x81, 0x45, 0x64, 0x20, 0x91, 0x45, 0x7F, 0x40, 0x81, 0x45, 0x64, 0x82, 0x40, 0x91, 0x45, 0x7F, 0x40, 0x81, 0x45, 0x64, 0x20, 0x91, 0x4C, 0x7F, 0x81, 0x00, 0x81,
  0x4C, 0x64, 0x40, 0x91, 0x45, 0x7F, 0x40, 0x81, 0x45, 0x64, 0x20, 0x91, 0x48, 0x7F, 0x81, 0x00, 0x81, 0x48, 0x64, 0x40, 0x91, 0x45, 0x7F, 0x40, 0x81, 0x45, 0x64, 0x20, 0x91, 0x46, 0x7F, 0x81, 0x00, 0x81, 0x46, 0x64, 0x40, 0x91, 0x45, 0x7F,
  0x40, 0x81, 0x45, 0x64, 0x20, 0x91, 0x48, 0x7F, 0x81, 0x00, 0x81, 0x48, 0x64, 0x40, 0x91, 0x45, 0x7F, 0x40, 0x81, 0x45, 0x64, 0x20, 0x91, 0x46, 0x7F, 0x40, 0x81, 0x46, 0x64, 0x20, 0x91, 0x43, 0x7F, 0x81, 0x00, 0x81, 0x43, 0x64, 0x40, 0x91,
  0x45, 0x7F, 0x40, 0x81, 0x45, 0x64, 0x20, 0x91, 0x4C, 0x7F, 0x81, 0x00, 0x81, 0x4C, 0x64, 0x40, 0x91, 0x45, 0x7F, 0x40, 0x81, 0x45, 0x64, 0x20, 0x91, 0x48, 0x7F, 0x81, 0x00, 0x81, 0x48, 0x64, 0x40, 0x91, 0x45, 0x7F, 0x40, 0x81, 0x45, 0x64,
  0x20, 0x91, 0x46, 0x7F, 0x81, 0x00, 0x81, 0x46, 0x64, 0x40, 0x91, 0x45, 0x7F, 0x40, 0x81, 0x45, 0x64, 0x20, 0x91, 0x48, 0x7F, 0x81, 0x00, 0x81, 0x48, 0x64, 0x40, 0x91, 0x45, 0x7F, 0x40, 0x81, 0x45, 0x64, 0x20, 0x91, 0x46, 0x7F, 0x40, 0x81,
  0x46, 0x64, 0x20, 0x91, 0x43, 0x7F, 0x81, 0x00, 0x81, 0x43, 0x64, 0x40, 0x91, 0x45, 0x7F, 0x40, 0x81, 0x45, 0x64, 0x20, 0x91, 0x4C, 0x7F, 0x81, 0x00, 0x81, 0x4C, 0x64, 0x40, 0x91, 0x45, 0x7F, 0x40, 0x81, 0x45, 0x64, 0x20, 0x91, 0x48, 0x7F,
  0x81, 0x00, 0x81, 0x48, 0x64, 0x40, 0x91, 0x45, 0x7F, 0x40, 0x81, 0x45, 0x64, 0x20, 0x91, 0x46, 0x7F, 0x81, 0x00, 0x81, 0x46, 0x64, 0x40, 0x91, 0x45, 0x7F, 0x40, 0x81, 0x45, 0x64, 0x20, 0x91, 0x48, 0x7F, 0x81, 0x00, 0x81, 0x48, 0x64, 0x40,
  0x91, 0x45, 0x7F, 0x40, 0x81, 0x45, 0x64, 0x20, 0x91, 0x46, 0x7F, 0x40, 0x81, 0x46, 0x64, 0x20, 0x91, 0x43, 0x7F, 0x81, 0x00, 0x81, 0x43, 0x64, 0x40, 0x91, 0x45, 0x7F, 0x40, 0x81, 0x45, 0x64, 0x20, 0x91, 0x4C, 0x7F, 0x81, 0x00, 0x81, 0x4C,
  0x64, 0x40, 0x91, 0x45, 0x7F, 0x40, 0x81, 0x45, 0x64, 0x20, 0x91, 0x48, 0x7F, 0x81, 0x00, 0x81, 0x48, 0x64, 0x40, 0x91, 0x43, 0x7F, 0x40, 0x81, 0x43, 0x64, 0x20, 0x91, 0x43, 0x7F, 0x81, 0x00, 0x81, 0x43, 0x64, 0x40, 0x91, 0x43, 0x7F, 0x40,
  0x81, 0x43, 0x64, 0x20, 0x91, 0x45, 0x7F, 0x81, 0x00, 0x81, 0x45, 0x64, 0x40, 0x91, 0x45, 0x7F, 0x81, 0x00, 0x81, 0x45, 0x64, 0x82, 0x00, 0x91, 0x45, 0x7F, 0x40, 0x81, 0x45, 0x64, 0x20, 0x91, 0x4C, 0x7F, 0x81, 0x00, 0x81, 0x4C, 0x64, 0x40,
  0x91, 0x45, 0x7F, 0x40, 0x81, 0x45, 0x64, 0x20, 0x91, 0x48, 0x7F, 0x81, 0x00, 0x81, 0x48, 0x64, 0x40, 0x91, 0x45, 0x7F, 0x40, 0x81, 0x45, 0x64, 0x20, 0x91, 0x46, 0x7F, 0x81, 0x00, 0x81, 0x46, 0x64, 0x40, 0x91, 0x45, 0x7F, 0x40, 0x81, 0x45,
  0x64, 0x20, 0x91, 0x48, 0x7F, 0x81, 0x00, 0x81, 0x48, 0x64, 0x40, 0x91, 0x45, 0x7F, 0x40, 0x81, 0x45, 0x64, 0x20, 0x91, 0x46, 0x7F, 0x40, 0x81, 0x46, 0x64, 0x20, 0x91, 0x43, 0x7F, 0x81, 0x00, 0x81, 0x43, 0x64, 0x40, 0x91, 0x45, 0x7F, 0x40,
  0x81, 0x45, 0x64, 0x20, 0x91, 0x4C, 0x7F, 0x81, 0x00, 0x81, 0x4C, 0x64, 0x40, 0x91, 0x45, 0x7F, 0x40, 0x81, 0x45, 0x64, 0x20, 0x91, 0x48, 0x7F, 0x81, 0x00, 0x81, 0x48, 0x64, 0x40, 0x91, 0x45, 0x7F, 0x40, 0x81, 0x45, 0x64, 0x20, 0x91, 0x46,
  0x7F, 0x81, 0x00, 0x81, 0x46, 0x64, 0x40, 0x91, 0x45, 0x7F, 0x40, 0x81, 0x45, 0x64, 0x20, 0x91, 0x48, 0x7F, 0x81, 0x00, 0x81, 0x48, 0x64, 0x40, 0x91, 0x45, 0x7F, 0x40, 0x81, 0x45, 0x64, 0x20, 0x91, 0x46, 0x7F, 0x40, 0x81, 0x46, 0x64, 0x20,
  0x91, 0x43, 0x7F, 0x81, 0x00, 0x81, 0x43, 0x64, 0x40, 0x91, 0x45, 0x7F, 0x40, 0x81, 0x45, 0x64, 0x20, 0x91, 0x4C, 0x7F, 0x81, 0x00, 0x81, 0x4C, 0x64, 0x40, 0x91, 0x45, 0x7F, 0x40, 0x81, 0x45, 0x64, 0x20, 0x91, 0x48, 0x7F, 0x81, 0x00, 0x81,
  0x48, 0x64, 0x40, 0x91, 0x45, 0x7F, 0x40, 0x81, 0x45, 0x64, 0x20, 0x91, 0x46, 0x7F, 0x81, 0x00, 0x81, 0x46, 0x64, 0x40, 0x91, 0x45, 0x7F, 0x40, 0x81, 0x45, 0x64, 0x20, 0x91, 0x48, 0x7F, 0x81, 0x00, 0x81, 0x48, 0x64, 0x40, 0x91, 0x45, 0x7F,
  0x40, 0x81, 0x45, 0x64, 0x20, 0x91, 0x46, 0x7F, 0x40, 0x81, 0x46, 0x64, 0x20, 0x91, 0x43, 0x7F, 0x81, 0x00, 0x81, 0x43, 0x64, 0xEC, 0x40, 0x91, 0x45, 0x7F, 0x81, 0x40, 0x81, 0x45, 0x64, 0x60, 0x91, 0x45, 0x7F, 0x81, 0x40, 0x81, 0x45, 0x64,
  0x60, 0x91, 0x45, 0x7F, 0x81, 0x40, 0x81, 0x45, 0x64, 0x60, 0x91, 0x45, 0x7F, 0x81, 0x40, 0x81, 0x45, 0x64, 0x60, 0x91, 0x43, 0x7F, 0x81, 0x00, 0x81, 0x43, 0x64, 0x40, 0x91, 0x48, 0x7F, 0x81, 0x00, 0x81, 0x48, 0x64, 0x40, 0x91, 0x45, 0x7F,
  0x81, 0x40, 0x81, 0x45, 0x64, 0x60, 0x91, 0x45, 0x7F, 0x81, 0x40, 0x81, 0x45, 0x64, 0x60, 0x91, 0x45, 0x7F, 0x81, 0x40, 0x81, 0x45, 0x64, 0x60, 0x91, 0x45, 0x7F, 0x81, 0x40, 0x81, 0x45, 0x64, 0x60, 0x91, 0x43, 0x7F, 0x81, 0x00, 0x81, 0x43,
  0x64, 0x40, 0x91, 0x40, 0x7F, 0x81, 0x00, 0x81, 0x40, 0x64, 0x40, 0x91, 0x45, 0x7F, 0x81, 0x40, 0x81, 0x45, 0x64, 0x60, 0x91, 0x45, 0x7F, 0x81, 0x40, 0x81, 0x45, 0x64, 0x60, 0x91, 0x45, 0x7F, 0x81, 0x40, 0x81, 0x45, 0x64, 0x60, 0x91, 0x45,
  0x7F, 0x81, 0x40, 0x81, 0x45, 0x64, 0x60, 0x91, 0x43, 0x7F, 0x81, 0x00, 0x81, 0x43, 0x64, 0x40, 0x91, 0x48, 0x7F, 0x81, 0x00, 0x81, 0x48, 0x64, 0x40, 0x91, 0x45, 0x7F, 0x81, 0x40, 0x81, 0x45, 0x64, 0x60, 0x91, 0x45, 0x7F, 0x81, 0x40, 0x81,
  0x45, 0x64, 0x60, 0x91, 0x45, 0x7F, 0x81, 0x00, 0x81, 0x45, 0x64, 0x40, 0x91, 0x45, 0x7F, 0x40, 0x81, 0x45, 0x64, 0x20, 0x91, 0x45, 0x7F, 0x40, 0x81, 0x45, 0x64, 0x81, 0x00, 0x91, 0x45, 0x7F, 0x40, 0x81, 0x45, 0x64, 0x20, 0x91, 0x45, 0x7F,
  0x40, 0x81, 0x45, 0x64, 0x82, 0x40, 0x91, 0x45, 0x7F, 0x81, 0x40, 0x81, 0x45, 0x64, 0x60, 0x91, 0x45, 0x7F, 0x81, 0x40, 0x81, 0x45, 0x64, 0x60, 0x91, 0x45, 0x7F, 0x81, 0x40, 0x81, 0x45, 0x64, 0x60, 0x91, 0x45, 0x7F, 0x81, 0x40, 0x81, 0x45,
  0x64, 0x60, 0x91, 0x43, 0x7F, 0x81, 0x00, 0x81, 0x43, 0x64, 0x40, 0x91, 0x48, 0x7F, 0x81, 0x00, 0x81, 0x48, 0x64, 0x40, 0x91, 0x45, 0x7F, 0x81, 0x40, 0x81, 0x45, 0x64, 0x60, 0x91, 0x45, 0x7F, 0x81, 0x40, 0x81, 0x45, 0x64, 0x60, 0x91, 0x45,
  0x7F, 0x81, 0x40, 0x81, 0x45, 0x64, 0x60, 0x91, 0x45, 0x7F, 0x81, 0x40, 0x81, 0x45, 0x64, 0x60, 0x91, 0x43, 0x7F, 0x81, 0x00, 0x81, 0x43, 0x64, 0x40, 0x91, 0x40, 0x7F, 0x81, 0x00, 0x81, 0x40, 0x64, 0x40, 0x91, 0x45, 0x7F, 0x81, 0x40, 0x81,
  0x45, 0x64, 0x60, 0x91, 0x45, 0x7F, 0x81, 0x40, 0x81, 0x45, 0x64, 0x60, 0x91, 0x45, 0x7F, 0x81, 0x40, 0x81, 0x45, 0x64, 0x60, 0x91, 0x45, 0x7F, 0x81, 0x40, 0x81, 0x45, 0x64, 0x60, 0x91, 0x43, 0x7F, 0x81, 0x00, 0x81, 0x43, 0x64, 0x40, 0x91,
  0x48, 0x7F, 0x81, 0x00, 0x81, 0x48, 0x64, 0x40, 0x91, 0x45, 0x7F, 0x81, 0x40, 0x81, 0x45, 0x64, 0x60, 0x91, 0x45, 0x7F, 0x81, 0x40, 0x81, 0x45, 0x64, 0x60, 0x91, 0x45, 0x7F, 0x81, 0x00, 0x81, 0x45, 0x64, 0x40, 0x91, 0x45, 0x7F, 0x40, 0x81,
  0x45, 0x64, 0x20, 0x91, 0x45, 0x7F, 0x40, 0x81, 0x45, 0x64, 0x81, 0x00, 0x91, 0x45, 0x7F, 0x40, 0x81, 0x45, 0x64, 0x20, 0x91, 0x45, 0x7F, 0x40, 0x81, 0x45, 0x64, 0x82, 0x40, 0x91, 0x45, 0x7F, 0x40, 0x81, 0x45, 0x64, 0x20, 0x91, 0x4C, 0x7F,
  0x81, 0x00, 0x81, 0x4C, 0x64, 0x40, 0x91, 0x45, 0x7F, 0x40, 0x81, 0x45, 0x64, 0x20, 0x91, 0x48, 0x7F, 0x81, 0x00, 0x81, 0x48, 0x64, 0x40, 0x91, 0x45, 0x7F, 0x40, 0x81, 0x45, 0x64, 0x20, 0x91, 0x46, 0x7F, 0x81, 0x00, 0x81, 0x46, 0x64, 0x40,
  0x91, 0x45, 0x7F, 0x40, 0x81, 0x45, 0x64, 0x20, 0x91, 0x48, 0x7F, 0x81, 0x00, 0x81, 0x48, 0x64, 0x40, 0x91, 0x45, 0x7F, 0x40, 0x81, 0x45, 0x64, 0x20, 0x91, 0x46, 0x7F, 0x40, 0x81, 0x46, 0x64, 0x20, 0x91, 0x43, 0x7F, 0x81, 0x00, 0x81, 0x43,
  0x64, 0x40, 0x91, 0x45, 0x7F, 0x40, 0x81, 0x45, 0x64, 0x20, 0x91, 0x4C, 0x7F, 0x81, 0x00, 0x81, 0x4C, 0x64, 0x40, 0x91, 0x45, 0x7F, 0x40, 0x81, 0x45, 0x64, 0x20, 0x91, 0x48, 0x7F, 0x81, 0x00, 0x81, 0x48, 0x64, 0x40, 0x91, 0x45, 0x7F, 0x40,
  0x81, 0x45, 0x64, 0x20, 0x91, 0x46, 0x7F, 0x81, 0x00, 0x81, 0x46, 0x64, 0x40, 0x91, 0x45, 0x7F, 0x40, 0x81, 0x45, 0x64, 0x20, 0x91, 0x48, 0x7F, 0x81, 0x00, 0x81, 0x48, 0x64, 0x40, 0x91, 0x45, 0x7F, 0x40, 0x81, 0x45, 0x64, 0x20, 0x91, 0x46,
  0x7F, 0x40, 0x81, 0x46, 0x64, 0x20, 0x91, 0x43, 0x7F, 0x81, 0x00, 0x81, 0x43, 0x64, 0x40, 0x91, 0x45, 0x7F, 0x40, 0x81, 0x45, 0x64, 0x20, 0x91, 0x4C, 0x7F, 0x81, 0x00, 0x81, 0x4C, 0x64, 0x40, 0x91, 0x45, 0x7F, 0x40, 0x81, 0x45, 0x64, 0x20,
  0x91, 0x48, 0x7F, 0x81, 0x00, 0x81, 0x48, 0x64, 0x40, 0x91, 0x45, 0x7F, 0x40, 0x81, 0x45, 0x64, 0x20, 0x91, 0x46, 0x7F, 0x81, 0x00, 0x81, 0x46, 0x64, 0x40, 0x91, 0x45, 0x7F, 0x40, 0x81, 0x45, 0x64, 0x20, 0x91, 0x48, 0x7F, 0x81, 0x00, 0x81,
  0x48, 0x64, 0x40, 0x91, 0x45, 0x7F, 0x40, 0x81, 0x45, 0x64, 0x20, 0x91, 0x46, 0x7F, 0x40, 0x81, 0x46, 0x64, 0x20, 0x91, 0x43, 0x7F, 0x81, 0x00, 0x81, 0x43, 0x64, 0x40, 0x91, 0x45, 0x7F, 0x40, 0x81, 0x45, 0x64, 0x20, 0x91, 0x4C, 0x7F, 0x81,
  0x00, 0x81, 0x4C, 0x64, 0x40, 0x91, 0x45, 0x7F, 0x40, 0x81, 0x45, 0x64, 0x20, 0x91, 0x48, 0x7F, 0x81, 0x00, 0x81, 0x48, 0x64, 0x40, 0x91, 0x43, 0x7F, 0x40, 0x81, 0x43, 0x64, 0x20, 0x91, 0x43, 0x7F, 0x81, 0x00, 0x81, 0x43, 0x64, 0x40, 0x91,
  0x43, 0x7F, 0x40, 0x81, 0x43, 0x64, 0x20, 0x91, 0x45, 0x7F, 0x81, 0x00, 0x81, 0x45, 0x64, 0x40, 0x91, 0x45, 0x7F, 0x81, 0x00, 0x81, 0x45, 0x64, 0x82, 0x00, 0x91, 0x45, 0x7F, 0x40, 0x81, 0x45, 0x64, 0x20, 0x91, 0x4C, 0x7F, 0x81, 0x00, 0x81,
  0x4C, 0x64, 0x40, 0x91, 0x45, 0x7F, 0x40, 0x81, 0x45, 0x64, 0x20, 0x91, 0x48, 0x7F, 0x81, 0x00, 0x81, 0x48, 0x64, 0x40, 0x91, 0x45, 0x7F, 0x40, 0x81, 0x45, 0x64, 0x20, 0x91, 0x46, 0x7F, 0x81, 0x00, 0x81, 0x46, 0x64, 0x40, 0x91, 0x45, 0x7F,
  0x40, 0x81, 0x45, 0x64, 0x20, 0x91, 0x48, 0x7F, 0x81, 0x00, 0x81, 0x48, 0x64, 0x40, 0x91, 0x45, 0x7F, 0x40, 0x81, 0x45, 0x64, 0x20, 0x91, 0x46, 0x7F, 0x40, 0x81, 0x46, 0x64, 0x20, 0x91, 0x43, 0x7F, 0x81, 0x00, 0x81, 0x43, 0x64, 0x40, 0x91,
  0x45, 0x7F, 0x40, 0x81, 0x45, 0x64, 0x20, 0x91, 0x4C, 0x7F, 0x81, 0x00, 0x81, 0x4C, 0x64, 0x40, 0x91, 0x45, 0x7F, 0x40, 0x81, 0x45, 0x64, 0x20, 0x91, 0x48, 0x7F, 0x81, 0x00, 0x81, 0x48, 0x64, 0x40, 0x91, 0x45, 0x7F, 0x40, 0x81, 0x45, 0x64,
  0x20, 0x91, 0x46, 0x7F, 0x81, 0x00, 0x81, 0x46, 0x64, 0x40, 0x91, 0x45, 0x7F, 0x40, 0x81, 0x45, 0x64, 0x20, 0x91, 0x48, 0x7F, 0x81, 0x00, 0x81, 0x48, 0x64, 0x40, 0x91, 0x45, 0x7F, 0x40, 0x81, 0x45, 0x64, 0x20, 0x91, 0x46, 0x7F, 0x40, 0x81,
  0x46, 0x64, 0x20, 0x91, 0x43, 0x7F, 0x81, 0x00, 0x81, 0x43, 0x64, 0x40, 0x91, 0x45, 0x7F, 0x40, 0x81, 0x45, 0x64, 0x20, 0x91, 0x4C, 0x7F, 0x81, 0x00, 0x81, 0x4C, 0x64, 0x40, 0x91, 0x45, 0x7F, 0x40, 0x81, 0x45, 0x64, 0x20, 0x91, 0x48, 0x7F,
  0x81, 0x00, 0x81, 0x48, 0x64, 0x40, 0x91, 0x45, 0x7F, 0x40, 0x81, 0x45, 0x64, 0x20, 0x91, 0x46, 0x7F, 0x81, 0x00, 0x81, 0x46, 0x64, 0x40, 0x91, 0x45, 0x7F, 0x40, 0x81, 0x45, 0x64, 0x20, 0x91, 0x48, 0x7F, 0x81, 0x00, 0x81, 0x48, 0x64, 0x40,
  0x91, 0x45, 0x7F, 0x40, 0x81, 0x45, 0x64, 0x20, 0x91, 0x46, 0x7F, 0x40, 0x81, 0x46, 0x64, 0x20, 0x91, 0x43, 0x7F, 0x81, 0x00, 0x81, 0x43, 0x64, 0x40, 0x91, 0x45, 0x7F, 0x40, 0x81, 0x45, 0x64, 0x20, 0x91, 0x4C, 0x7F, 0x81, 0x00, 0x81, 0x4C,
  0x64, 0x40, 0x91, 0x45, 0x7F, 0x40, 0x81, 0x45, 0x64, 0x20, 0x91, 0x48, 0x7F, 0x81, 0x00, 0x81, 0x48, 0x64, 0x40, 0x91, 0x43, 0x7F, 0x40, 0x81, 0x43, 0x64, 0x20, 0x91, 0x43, 0x7F, 0x81, 0x00, 0x81, 0x43, 0x64, 0x40, 0x91, 0x43, 0x7F, 0x40,
  0x81, 0x43, 0x64, 0x20, 0x91, 0x45, 0x7F, 0x81, 0x00, 0x81, 0x45, 0x64, 0x40, 0x91, 0x45, 0x7F, 0x81, 0x00, 0x81, 0x45, 0x64, 0x82, 0x00, 0x91, 0x45, 0x7F, 0x40, 0x81, 0x45, 0x64, 0x20, 0x91, 0x4C, 0x7F, 0x81, 0x00, 0x81, 0x4C, 0x64, 0x40,
  0x91, 0x45, 0x7F, 0x40, 0x81, 0x45, 0x64, 0x20, 0x91, 0x48, 0x7F, 0x81, 0x00, 0x81, 0x48, 0x64, 0x40, 0x91, 0x43, 0x7F, 0x40, 0x81, 0x43, 0x64, 0x20, 0x91, 0x43, 0x7F, 0x81, 0x00, 0x81, 0x43, 0x64, 0x40, 0x91, 0x43, 0x7F, 0x40, 0x81, 0x43,
  0x64, 0x20, 0x91, 0x45, 0x7F, 0x81, 0x00, 0x81, 0x45, 0x64, 0x40, 0x91, 0x45, 0x7F, 0x81, 0x00, 0x81, 0x45, 0x64, 0x00, 0xFF, 0x2F, 0x00, 0x4D, 0x54, 0x72, 0x6B, 0x00, 0x00, 0x11, 0x36, 0x00, 0xFF, 0x03, 0x05, 0x20, 0x20, 0x4D, 0x69, 0x78,
  0x00, 0xB2, 0x00, 0x00, 0x00, 0xC2, 0x27, 0x00, 0xFF, 0x59, 0x02, 0x00, 0x00, 0xBC, 0x00, 0x92, 0x2D, 0x7F, 0x40, 0x82, 0x2D, 0x64, 0x20, 0x92, 0x2D, 0x7F, 0x40, 0x82, 0x2D, 0x64, 0x20, 0x92, 0x2D, 0x7F, 0x40, 0x82, 0x2D, 0x64, 0x20, 0x92,
  0x2D, 0x7F, 0x40, 0x82, 0x2D, 0x64, 0x20, 0x92, 0x2D, 0x7F, 0x40, 0x82, 0x2D, 0x64, 0x20, 0x92, 0x2D, 0x7F, 0x40, 0x82, 0x2D, 0x64, 0x20, 0x92, 0x2B, 0x7F, 0x40, 0x82, 0x2B, 0x64, 0x20, 0x92, 0x2B, 0x7F, 0x40, 0x82, 0x2B, 0x64, 0x20, 0x92,
  0x2D, 0x7F, 0x40, 0x82, 0x2D, 0x64, 0x20, 0x92, 0x2D, 0x7F, 0x40, 0x82, 0x2D, 0x64, 0x20, 0x92, 0x2D, 0x7F, 0x40, 0x82, 0x2D, 0x64, 0x20, 0x92, 0x2D, 0x7F, 0x40, 0x82, 0x2D, 0x64, 0x20, 0x92, 0x2D, 0x7F, 0x40, 0x82, 0x2D, 0x64, 0x20, 0x92,
  0x2D, 0x7F, 0x40, 0x82, 0x2D, 0x64, 0x20, 0x92, 0x2B, 0x7F, 0x40, 0x82, 0x2B, 0x64, 0x20, 0x92, 0x2B, 0x7F, 0x40, 0x82, 0x2B, 0x64, 0x20, 0x92, 0x2D, 0x7F, 0x40, 0x82, 0x2D, 0x64, 0x20, 0x92, 0x2D, 0x7F, 0x40, 0x82, 0x2D, 0x64, 0x20, 0x92,
  0x2D, 0x7F, 0x40, 0x82, 0x2D, 0x64, 0x20, 0x92, 0x2D, 0x7F, 0x40, 0x82, 0x2D, 0x64, 0x20, 0x92, 0x2D, 0x7F, 0x40, 0x82, 0x2D, 0x64, 0x20, 0x92, 0x2D, 0x7F, 0x40, 0x82, 0x2D, 0x64, 0x20, 0x92, 0x2B, 0x7F, 0x40, 0x82, 0x2B, 0x64, 0x20, 0x92,
  0x2B, 0x7F, 0x40, 0x82, 0x2B, 0x64, 0x20, 0x92, 0x2D, 0x7F, 0x40, 0x82, 0x2D, 0x64, 0x20, 0x92, 0x2D, 0x7F, 0x40, 0x82, 0x2D, 0x64, 0x20, 0x92, 0x2D, 0x7F, 0x40, 0x82, 0x2D, 0x64, 0x20, 0x92, 0x2D, 0x7F, 0x40, 0x82, 0x2D, 0x64, 0x20, 0x92,
  0x2D, 0x7F, 0x40, 0x82, 0x2D, 0x64, 0x20, 0x92, 0x2D, 0x7F, 0x40, 0x82, 0x2D, 0x64, 0x20, 0x92, 0x2B, 0x7F, 0x40, 0x82, 0x2B, 0x64, 0x20, 0x92, 0x2B, 0x7F, 0x40, 0x82, 0x2B, 0x64, 0x20, 0x92, 0x2D, 0x7F, 0x40, 0x82, 0x2D, 0x64, 0x20, 0x92,
  0x2D, 0x7F, 0x40, 0x82, 0x2D, 0x64, 0x20, 0x92, 0x2D, 0x7F, 0x40, 0x82, 0x2D, 0x64, 0x20, 0x92, 0x2D, 0x7F, 0x40, 0x82, 0x2D, 0x64, 0x20, 0x92, 0x2D, 0x7F, 0x40, 0x82, 0x2D, 0x64, 0x20, 0x92, 0x2D, 0x7F, 0x40, 0x82, 0x2D, 0x64, 0x20, 0x92,
  0x2B, 0x7F, 0x40, 0x82, 0x2B, 0x64, 0x20, 0x92, 0x2B, 0x7F, 0x40, 0x82, 0x2B, 0x64, 0x20, 0x92, 0x2D, 0x7F, 0x40, 0x82, 0x2D, 0x64, 0x20, 0x92, 0x2D, 0x7F, 0x40, 0x82, 0x2D, 0x64, 0x20, 0x92, 0x2D, 0x7F, 0x40, 0x82, 0x2D, 0x64, 0x20, 0x92,
  0x2D, 0x7F, 0x40, 0x82, 0x2D, 0x64, 0x20, 0x92, 0x2D, 0x7F, 0x40, 0x82, 0x2D, 0x64, 0x20, 0x92, 0x2D, 0x7F, 0x40, 0x82, 0x2D, 0x64, 0x20, 0x92, 0x2B, 0x7F, 0x40, 0x82, 0x2B, 0x64, 0x20, 0x92, 0x2B, 0x7F, 0x40, 0x82, 0x2B, 0x64, 0x81, 0xCC,
  0x20, 0x92, 0x2D, 0x64, 0x40, 0x82, 0x2D, 0x64, 0x20, 0x92, 0x2D, 0x64, 0x40, 0x82, 0x2D, 0x64, 0x20, 0x92, 0x2D, 0x64, 0x40, 0x82, 0x2D, 0x64, 0x20, 0x92, 0x2D, 0x64, 0x40, 0x82, 0x2D, 0x64, 0x83, 0x20, 0x92, 0x2B, 0x64, 0x40, 0x82, 0x2B,
  0x64, 0x20, 0x92, 0x2B, 0x64, 0x40, 0x82, 0x2B, 0x64, 0x20, 0x92, 0x2B, 0x64, 0x40, 0x82, 0x2B, 0x64, 0x20, 0x92, 0x2B, 0x64, 0x40, 0x82, 0x2B, 0x64, 0x83, 0x20, 0x92, 0x2D, 0x64, 0x40, 0x82, 0x2D, 0x64, 0x20, 0x92, 0x2D, 0x64, 0x40, 0x82,
  0x2D, 0x64, 0x20, 0x92, 0x2D, 0x64, 0x40, 0x82, 0x2D, 0x64, 0x20, 0x92, 0x2D, 0x64, 0x40, 0x82, 0x2D, 0x64, 0x83, 0x20, 0x92, 0x2B, 0x64, 0x40, 0x82, 0x2B, 0x64, 0x20, 0x92, 0x2B, 0x64, 0x40, 0x82, 0x2B, 0x64, 0x20, 0x92, 0x2B, 0x64, 0x40,
  0x82, 0x2B, 0x64, 0x20, 0x92, 0x2B, 0x64, 0x40, 0x82, 0x2B, 0x64, 0x20, 0x92, 0x28, 0x64, 0x81, 0x00, 0x82, 0x28, 0x64, 0x40, 0x92, 0x2B, 0x64, 0x81, 0x00, 0x82, 0x2B, 0x64, 0x40, 0x92, 0x2D, 0x64, 0x40, 0x82, 0x2D, 0x64, 0x20, 0x92, 0x2D,
  0x64, 0x40, 0x82, 0x2D, 0x64, 0x20, 0x92, 0x2D, 0x64, 0x40, 0x82, 0x2D, 0x64, 0x20, 0x92, 0x2D, 0x64, 0x40, 0x82, 0x2D, 0x64, 0x83, 0x20, 0x92, 0x2B, 0x64, 0x40, 0x82, 0x2B, 0x64, 0x20, 0x92, 0x2B, 0x64, 0x40, 0x82, 0x2B, 0x64, 0x20, 0x92,
  0x2B, 0x64, 0x40, 0x82, 0x2B, 0x64, 0x20, 0x92, 0x2B, 0x64, 0x40, 0x82, 0x2B, 0x64, 0x20, 0x92, 0x28, 0x64, 0x81, 0x00, 0x82, 0x28, 0x64, 0x40, 0x92, 0x2B, 0x64, 0x81, 0x00, 0x82, 0x2B, 0x64, 0x40, 0x92, 0x2D, 0x64, 0x40, 0x82, 0x2D, 0x64,
  0x20, 0x92, 0x2D, 0x64, 0x40, 0x82, 0x2D, 0x64, 0x20, 0x92, 0x2D, 0x64, 0x40, 0x82, 0x2D, 0x64, 0x20, 0x92, 0x2D, 0x64, 0x40, 0x82, 0x2D, 0x64, 0x83, 0x20, 0x92, 0x2B, 0x64, 0x40, 0x82, 0x2B, 0x64, 0x20, 0x92, 0x2B, 0x64, 0x40, 0x82, 0x2B,
  0x64, 0x20, 0x92, 0x2B, 0x64, 0x40, 0x82, 0x2B, 0x64, 0x20, 0x92, 0x2B, 0x64, 0x40, 0x82, 0x2B, 0x64, 0x20, 0x92, 0x28, 0x64, 0x81, 0x00, 0x82, 0x28, 0x64, 0x40, 0x92, 0x2B, 0x64, 0x81, 0x00, 0x82, 0x2B, 0x64, 0x40, 0x92, 0x2D, 0x64, 0x40,
  0x82, 0x2D, 0x64, 0x20, 0x92, 0x2D, 0x64, 0x40, 0x82, 0x2D, 0x64, 0x20, 0x92, 0x2D, 0x64, 0x40, 0x82, 0x2D, 0x64, 0x20, 0x92, 0x2D, 0x64, 0x40, 0x82, 0x2D, 0x64, 0x83, 0x20, 0x92, 0x2B, 0x64, 0x40, 0x82, 0x2B, 0x64, 0x20, 0x92, 0x2B, 0x64,
  0x40, 0x82, 0x2B, 0x64, 0x20, 0x92, 0x2B, 0x64, 0x40, 0x82, 0x2B, 0x64, 0x20, 0x92, 0x2B, 0x64, 0x40, 0x82, 0x2B, 0x64, 0x20, 0x92, 0x28, 0x64, 0x81, 0x00, 0x82, 0x28, 0x64, 0x40, 0x92, 0x2B, 0x64, 0x81, 0x00, 0x82, 0x2B, 0x64, 0x40, 0x92,
  0x2D, 0x64, 0x40, 0x82, 0x2D, 0x64, 0x20, 0x92, 0x2D, 0x64, 0x40, 0x82, 0x2D, 0x64, 0x20, 0x92, 0x2D, 0x64, 0x40, 0x82, 0x2D, 0x64, 0x20, 0x92, 0x2D, 0x64, 0x40, 0x82, 0x2D, 0x64, 0x83, 0x20, 0x92, 0x2B, 0x64, 0x40, 0x82, 0x2B, 0x64, 0x20,
  0x92, 0x2B, 0x64, 0x40, 0x82, 0x2B, 0x64, 0x20, 0x92, 0x2B, 0x64, 0x40, 0x82, 0x2B, 0x64, 0x20, 0x92, 0x2B, 0x64, 0x40, 0x82, 0x2B, 0x64, 0x20, 0x92, 0x28, 0x64, 0x81, 0x00, 0x82, 0x28, 0x64, 0x40, 0x92, 0x2B, 0x64, 0x81, 0x00, 0x82, 0x2B,
  0x64, 0x40, 0x92, 0x2D, 0x64, 0x40, 0x82, 0x2D, 0x64, 0x20, 0x92, 0x2D, 0x64, 0x40, 0x82, 0x2D, 0x64, 0x20, 0x92, 0x2D, 0x64, 0x40, 0x82, 0x2D, 0x64, 0x20, 0x92, 0x2D, 0x64, 0x40, 0x82, 0x2D, 0x64, 0x83, 0x20, 0x92, 0x2B, 0x64, 0x40, 0x82,
  0x2B, 0x64, 0x20, 0x92, 0x2B, 0x64, 0x40, 0x82, 0x2B, 0x64, 0x20, 0x92, 0x2B, 0x64, 0x40, 0x82, 0x2B, 0x64, 0x20, 0x92, 0x2B, 0x64, 0x40, 0x82, 0x2B, 0x64, 0x20, 0x92, 0x28, 0x64, 0x81, 0x00, 0x82, 0x28, 0x64, 0x40, 0x92, 0x2B, 0x64, 0x81,
  0x00, 0x82, 0x2B, 0x64, 0x40, 0x92, 0x2D, 0x64, 0x40, 0x82, 0x2D, 0x64, 0x20, 0x92, 0x2D, 0x64, 0x40, 0x82, 0x2D, 0x64, 0x20, 0x92, 0x2D, 0x64, 0x40, 0x82, 0x2D, 0x64, 0x20, 0x92, 0x2D, 0x64, 0x40, 0x82, 0x2D, 0x64, 0x83, 0x20, 0x92, 0x2B,
  0x64, 0x40, 0x82, 0x2B, 0x64, 0x20, 0x92, 0x2B, 0x64, 0x40, 0x82, 0x2B, 0x64, 0x20, 0x92, 0x2B, 0x64, 0x40, 0x82, 0x2B, 0x64, 0x20, 0x92, 0x2B, 0x64, 0x40, 0x82, 0x2B, 0x64, 0x20, 0x92, 0x28, 0x64, 0x81, 0x00, 0x82, 0x28, 0x64, 0x40, 0x92,
  0x2B, 0x64, 0x81, 0x00, 0x82, 0x2B, 0x64, 0xB0, 0x40, 0x92, 0x2D, 0x7F, 0x40, 0x82, 0x2D, 0x64, 0x20, 0x92, 0x2D, 0x7F, 0x40, 0x82, 0x2D, 0x64, 0x20, 0x92, 0x2D, 0x7F, 0x40, 0x82, 0x2D, 0x64, 0x20, 0x92, 0x2D, 0x7F, 0x40, 0x82, 0x2D, 0x64,
  0x20, 0x92, 0x2D, 0x7F, 0x40, 0x82, 0x2D, 0x64, 0x20, 0x92, 0x2D, 0x7F, 0x40, 0x82, 0x2D, 0x64, 0x20, 0x92, 0x2B, 0x7F, 0x40, 0x82, 0x2B, 0x64, 0x20, 0x92, 0x2B, 0x7F, 0x40, 0x82, 0x2B, 0x64, 0x20, 0x92, 0x2D, 0x7F, 0x40, 0x82, 0x2D, 0x64,
  0x20, 0x92, 0x2D, 0x7F, 0x40, 0x82, 0x2D, 0x64, 0x20, 0x92, 0x2D, 0x7F, 0x40, 0x82, 0x2D, 0x64, 0x20, 0x92, 0x2D, 0x7F, 0x40, 0x82, 0x2D, 0x64, 0x20, 0x92, 0x2D, 0x7F, 0x40, 0x82, 0x2D, 0x64, 0x20, 0x92, 0x2D, 0x7F, 0x40, 0x82, 0x2D, 0x64,
  0x20, 0x92, 0x2B, 0x7F, 0x40, 0x82, 0x2B, 0x64, 0x20, 0x92, 0x2B, 0x7F, 0x40, 0x82, 0x2B, 0x64, 0x20, 0x92, 0x2D, 0x7F, 0x40, 0x82, 0x2D, 0x64, 0x20, 0x92, 0x2D, 0x7F, 0x40, 0x82, 0x2D, 0x64, 0x20, 0x92, 0x2D, 0x7F, 0x40, 0x82, 0x2D, 0x64,
  0x20, 0x92, 0x2D, 0x7F, 0x40, 0x82, 0x2D, 0x64, 0x20, 0x92, 0x2D, 0x7F, 0x40, 0x82, 0x2D, 0x64, 0x20, 0x92, 0x2D, 0x7F, 0x40, 0x82, 0x2D, 0x64, 0x20, 0x92, 0x2B, 0x7F, 0x40, 0x82, 0x2B, 0x64, 0x20, 0x92, 0x2B, 0x7F, 0x40, 0x82, 0x2B, 0x64,
  0x20, 0x92, 0x2D, 0x7F, 0x40, 0x82, 0x2D, 0x64, 0x20, 0x92, 0x2D, 0x7F, 0x40, 0x82, 0x2D, 0x64, 0x20, 0x92, 0x2D, 0x7F, 0x40, 0x82, 0x2D, 0x64, 0x20, 0x92, 0x2D, 0x7F, 0x40, 0x82, 0x2D, 0x64, 0x20, 0x92, 0x2D, 0x7F, 0x40, 0x82, 0x2D, 0x64,
  0x20, 0x92, 0x2D, 0x7F, 0x40, 0x82, 0x2D, 0x64, 0x20, 0x92, 0x2B, 0x7F, 0x40, 0x82, 0x2B, 0x64, 0x20, 0x92, 0x2B, 0x7F, 0x40, 0x82, 0x2B, 0x64, 0x20, 0x92, 0x2D, 0x7F, 0x40, 0x82, 0x2D, 0x64, 0x20, 0x92, 0x2D, 0x7F, 0x40, 0x82, 0x2D, 0x64,
  0x20, 0x92, 0x2D, 0x7F, 0x40, 0x82, 0x2D, 0x64, 0x20, 0x92, 0x2D, 0x7F, 0x40, 0x82, 0x2D, 0x64, 0x20, 0x92, 0x2D, 0x7F, 0x40, 0x82, 0x2D, 0x64, 0x20, 0x92, 0x2D, 0x7F, 0x40, 0x82, 0x2D, 0x64, 0x20, 0x92, 0x2B, 0x7F, 0x40, 0x82, 0x2B, 0x64,
  0x20, 0x92, 0x2B, 0x7F, 0x40, 0x82, 0x2B, 0x64, 0x20, 0x92, 0x2D, 0x7F, 0x40, 0x82, 0x2D, 0x64, 0x20, 0x92, 0x2D, 0x7F, 0x40, 0x82, 0x2D, 0x64, 0x20, 0x92, 0x2D, 0x7F, 0x40, 0x82, 0x2D, 0x64, 0x20, 0x92, 0x2D, 0x7F, 0x40, 0x82, 0x2D, 0x64,
  0x20, 0x92, 0x2D, 0x7F, 0x40, 0x82, 0x2D, 0x64, 0x20, 0x92, 0x2D, 0x7F, 0x40, 0x82, 0x2D, 0x64, 0x20, 0x92, 0x2B, 0x7F, 0x40, 0x82, 0x2B, 0x64, 0x20, 0x92, 0x2B, 0x7F, 0x40, 0x82, 0x2B, 0x64, 0x20, 0x92, 0x2D, 0x7F, 0x40, 0x82, 0x2D, 0x64,
  0x20, 0x92, 0x2D, 0x7F, 0x40, 0x82, 0x2D, 0x64, 0x20, 0x92, 0x2D, 0x7F, 0x40, 0x82, 0x2D, 0x64, 0x20, 0x92, 0x2D, 0x7F, 0x40, 0x82, 0x2D, 0x64, 0x20, 0x92, 0x2D, 0x7F, 0x40, 0x82, 0x2D, 0x64, 0x20, 0x92, 0x2D, 0x7F, 0x40, 0x82, 0x2D, 0x64,
  0x20, 0x92, 0x2B, 0x7F, 0x40, 0x82, 0x2B, 0x64, 0x20, 0x92, 0x2B, 0x7F, 0x40, 0x82, 0x2B, 0x64, 0x20, 0x92, 0x30, 0x7F, 0x40, 0x82, 0x30, 0x64, 0x20, 0x92, 0x30, 0x7F, 0x40, 0x82, 0x30, 0x64, 0x20, 0x92, 0x30, 0x7F, 0x40, 0x82, 0x30, 0x64,
  0x20, 0x92, 0x30, 0x7F, 0x40, 0x82, 0x30, 0x64, 0x20, 0x92, 0x32, 0x7F, 0x40, 0x82, 0x32, 0x64, 0x20, 0x92, 0x32, 0x7F, 0x40, 0x82, 0x32, 0x64, 0x20, 0x92, 0x32, 0x7F, 0x40, 0x82, 0x32, 0x64, 0x20, 0x92, 0x32, 0x7F, 0x40, 0x82, 0x32, 0x64,
  0xE0, 0x20, 0x92, 0x2D, 0x64, 0x40, 0x82, 0x2D, 0x64, 0x20, 0x92, 0x2D, 0x64, 0x40, 0x82, 0x2D, 0x64, 0x20, 0x92, 0x2D, 0x64, 0x40, 0x82, 0x2D, 0x64, 0x20, 0x92, 0x2D, 0x64, 0x40, 0x82, 0x2D, 0x64, 0x83, 0x20, 0x92, 0x2B, 0x64, 0x40, 0x82,
  0x2B, 0x64, 0x20, 0x92, 0x2B, 0x64, 0x40, 0x82, 0x2B, 0x64, 0x20, 0x92, 0x2B, 0x64, 0x40, 0x82, 0x2B, 0x64, 0x20, 0x92, 0x2B, 0x64, 0x40, 0x82, 0x2B, 0x64, 0x83, 0x20, 0x92, 0x2D, 0x64, 0x40, 0x82, 0x2D, 0x64, 0x20, 0x92, 0x2D, 0x64, 0x40,
  0x82, 0x2D, 0x64, 0x20, 0x92, 0x2D, 0x64, 0x40, 0x82, 0x2D, 0x64, 0x20, 0x92, 0x2D, 0x64, 0x40, 0x82, 0x2D, 0x64, 0x83, 0x20, 0x92, 0x2B, 0x64, 0x40, 0x82, 0x2B, 0x64, 0x20, 0x92, 0x2B, 0x64, 0x40, 0x82, 0x2B, 0x64, 0x20, 0x92, 0x2B, 0x64,
  0x40, 0x82, 0x2B, 0x64, 0x20, 0x92, 0x2B, 0x64, 0x40, 0x82, 0x2B, 0x64, 0x20, 0x92, 0x28, 0x64, 0x81, 0x00, 0x82, 0x28, 0x64, 0x40, 0x92, 0x2B, 0x64, 0x81, 0x00, 0x82, 0x2B, 0x64, 0x40, 0x92, 0x2D, 0x64, 0x40, 0x82, 0x2D, 0x64, 0x20, 0x92,
  0x2D, 0x64, 0x40, 0x82, 0x2D, 0x64, 0x20, 0x92, 0x2D, 0x64, 0x40, 0x82, 0x2D, 0x64, 0x20, 0x92, 0x2D, 0x64, 0x40, 0x82, 0x2D, 0x64, 0x83, 0x20, 0x92, 0x2B, 0x64, 0x40, 0x82, 0x2B, 0x64, 0x20, 0x92, 0x2B, 0x64, 0x40, 0x82, 0x2B, 0x64, 0x20,
  0x92, 0x2B, 0x64, 0x40, 0x82, 0x2B, 0x64, 0x20, 0x92, 0x2B, 0x64, 0x40, 0x82, 0x2B, 0x64, 0x20, 0x92, 0x28, 0x64, 0x81, 0x00, 0x82, 0x28, 0x64, 0x40, 0x92, 0x2B, 0x64, 0x81, 0x00, 0x82, 0x2B, 0x64, 0x40, 0x92, 0x2D, 0x64, 0x40, 0x82, 0x2D,
  0x64, 0x20, 0x92, 0x2D, 0x64, 0x40, 0x82, 0x2D, 0x64, 0x20, 0x92, 0x2D, 0x64, 0x40, 0x82, 0x2D, 0x64, 0x20, 0x92, 0x2D, 0x64, 0x40, 0x82, 0x2D, 0x64, 0x83, 0x20, 0x92, 0x2B, 0x64, 0x40, 0x82, 0x2B, 0x64, 0x20, 0x92, 0x2B, 0x64, 0x40, 0x82,
  0x2B, 0x64, 0x20, 0x92, 0x2B, 0x64, 0x40, 0x82, 0x2B, 0x64, 0x20, 0x92, 0x2B, 0x64, 0x40, 0x82, 0x2B, 0x64, 0x20, 0x92, 0x28, 0x64, 0x81, 0x00, 0x82, 0x28, 0x64, 0x40, 0x92, 0x2B, 0x64, 0x81, 0x00, 0x82, 0x2B, 0x64, 0x40, 0x92, 0x2D, 0x64,
  0x40, 0x82, 0x2D, 0x64, 0x20, 0x92, 0x2D, 0x64, 0x40, 0x82, 0x2D, 0x64, 0x20, 0x92, 0x2D, 0x64, 0x40, 0x82, 0x2D, 0x64, 0x20, 0x92, 0x2D, 0x64, 0x40, 0x82, 0x2D, 0x64, 0x83, 0x20, 0x92, 0x2B, 0x64, 0x40, 0x82, 0x2B, 0x64, 0x20, 0x92, 0x2B,
  0x64, 0x40, 0x82, 0x2B, 0x64, 0x20, 0x92, 0x2B, 0x64, 0x40, 0x82, 0x2B, 0x64, 0x20, 0x92, 0x2B, 0x64, 0x40, 0x82, 0x2B, 0x64, 0x20, 0x92, 0x28, 0x64, 0x81, 0x00, 0x82, 0x28, 0x64, 0x40, 0x92, 0x2B, 0x64, 0x81, 0x00, 0x82, 0x2B, 0x64, 0x40,
  0x92, 0x2D, 0x64, 0x40, 0x82, 0x2D, 0x64, 0x20, 0x92, 0x2D, 0x64, 0x40, 0x82, 0x2D, 0x64, 0x20, 0x92, 0x2D, 0x64, 0x40, 0x82, 0x2D, 0x64, 0x20, 0x92, 0x2D, 0x64, 0x40, 0x82, 0x2D, 0x64, 0x83, 0x20, 0x92, 0x2B, 0x64, 0x40, 0x82, 0x2B, 0x64,
  0x20, 0x92, 0x2B, 0x64, 0x40, 0x82, 0x2B, 0x64, 0x20, 0x92, 0x2B, 0x64, 0x40, 0x82, 0x2B, 0x64, 0x20, 0x92, 0x2B, 0x64, 0x40, 0x82, 0x2B, 0x64, 0x20, 0x92, 0x28, 0x64, 0x81, 0x00, 0x82, 0x28, 0x64, 0x40, 0x92, 0x2B, 0x64, 0x81, 0x00, 0x82,
  0x2B, 0x64, 0x40, 0x92, 0x2D, 0x64, 0x40, 0x82, 0x2D, 0x64, 0x20, 0x92, 0x2D, 0x64, 0x40, 0x82, 0x2D, 0x64, 0x20, 0x92, 0x2D, 0x64, 0x40, 0x82, 0x2D, 0x64, 0x20, 0x92, 0x2D, 0x64, 0x40, 0x82, 0x2D, 0x64, 0x83, 0x20, 0x92, 0x2B, 0x64, 0x40,
  0x82, 0x2B, 0x64, 0x20, 0x92, 0x2B, 0x64, 0x40, 0x82, 0x2B, 0x64, 0x20, 0x92, 0x2B, 0x64, 0x40, 0x82, 0x2B, 0x64, 0x20, 0x92, 0x2B, 0x64, 0x40, 0x82, 0x2B, 0x64, 0x20, 0x92, 0x28, 0x64, 0x81, 0x00, 0x82, 0x28, 0x64, 0x40, 0x92, 0x2B, 0x64,
  0x81, 0x00, 0x82, 0x2B, 0x64, 0x40, 0x92, 0x2D, 0x64, 0x40, 0x82, 0x2D, 0x64, 0x20, 0x92, 0x2D, 0x64, 0x40, 0x82, 0x2D, 0x64, 0x20, 0x92, 0x2D, 0x64, 0x40, 0x82, 0x2D, 0x64, 0x20, 0x92, 0x2D, 0x64, 0x40, 0x82, 0x2D, 0x64, 0x83, 0x20, 0x92,
  0x2B, 0x64, 0x40, 0x82, 0x2B, 0x64, 0x20, 0x92, 0x2B, 0x64, 0x40, 0x82, 0x2B, 0x64, 0x20, 0x92, 0x2B, 0x64, 0x40, 0x82, 0x2B, 0x64, 0x20, 0x92, 0x2B, 0x64, 0x40, 0x82, 0x2B, 0x64, 0x20, 0x92, 0x28, 0x64, 0x81, 0x00, 0x82, 0x28, 0x64, 0x40,
  0x92, 0x2B, 0x64, 0x81, 0x00, 0x82, 0x2B, 0x64, 0xB0, 0x40, 0x92, 0x2D, 0x7F, 0x40, 0x82, 0x2D, 0x64, 0x20, 0x92, 0x2D, 0x7F, 0x40, 0x82, 0x2D, 0x64, 0x20, 0x92, 0x2D, 0x7F, 0x40, 0x82, 0x2D, 0x64, 0x20, 0x92, 0x2D, 0x7F, 0x40, 0x82, 0x2D,
  0x64, 0x20, 0x92, 0x2D, 0x7F, 0x40, 0x82, 0x2D, 0x64, 0x20, 0x92, 0x2D, 0x7F, 0x40, 0x82, 0x2D, 0x64, 0x20, 0x92, 0x2B, 0x7F, 0x40, 0x82, 0x2B, 0x64, 0x20, 0x92, 0x2B, 0x7F, 0x40, 0x82, 0x2B, 0x64, 0x20, 0x92, 0x2D, 0x7F, 0x40, 0x82, 0x2D,
  0x64, 0x20, 0x92, 0x2D, 0x7F, 0x40, 0x82, 0x2D, 0x64, 0x20, 0x92, 0x2D, 0x7F, 0x40, 0x82, 0x2D, 0x64, 0x20, 0x92, 0x2D, 0x7F, 0x40, 0x82, 0x2D, 0x64, 0x20, 0x92, 0x2D, 0x7F, 0x40, 0x82, 0x2D, 0x64, 0x20, 0x92, 0x2D, 0x7F, 0x40, 0x82, 0x2D,
  0x64, 0x20, 0x92, 0x2B, 0x7F, 0x40, 0x82, 0x2B, 0x64, 0x20, 0x92, 0x2B, 0x7F, 0x40, 0x82, 0x2B, 0x64, 0x20, 0x92, 0x2D, 0x7F, 0x40, 0x82, 0x2D, 0x64, 0x20, 0x92, 0x2D, 0x7F, 0x40, 0x82, 0x2D, 0x64, 0x20, 0x92, 0x2D, 0x7F, 0x40, 0x82, 0x2D,
  0x64, 0x20, 0x92, 0x2D, 0x7F, 0x40, 0x82, 0x2D, 0x64, 0x20, 0x92, 0x2D, 0x7F, 0x40, 0x82, 0x2D, 0x64, 0x20, 0x92, 0x2D, 0x7F, 0x40, 0x82, 0x2D, 0x64, 0x20, 0x92, 0x2B, 0x7F, 0x40, 0x82, 0x2B, 0x64, 0x20, 0x92, 0x2B, 0x7F, 0x40, 0x82, 0x2B,
  0x64, 0x20, 0x92, 0x2D, 0x7F, 0x40, 0x82, 0x2D, 0x64, 0x20, 0x92, 0x2D, 0x7F, 0x40, 0x82, 0x2D, 0x64, 0x20, 0x92, 0x2D, 0x7F, 0x40, 0x82, 0x2D, 0x64, 0x20, 0x92, 0x2D, 0x7F, 0x40, 0x82, 0x2D, 0x64, 0x20, 0x92, 0x2D, 0x7F, 0x40, 0x82, 0x2D,
  0x64, 0x20, 0x92, 0x2D, 0x7F, 0x40, 0x82, 0x2D, 0x64, 0x20, 0x92, 0x2B, 0x7F, 0x40, 0x82, 0x2B, 0x64, 0x20, 0x92, 0x2B, 0x7F, 0x40, 0x82, 0x2B, 0x64, 0x20, 0x92, 0x2D, 0x7F, 0x40, 0x82, 0x2D, 0x64, 0x20, 0x92, 0x2D, 0x7F, 0x40, 0x82, 0x2D,
  0x64, 0x20, 0x92, 0x2D, 0x7F, 0x40, 0x82, 0x2D, 0x64, 0x20, 0x92, 0x2D, 0x7F, 0x40, 0x82, 0x2D, 0x64, 0x20, 0x92, 0x2D, 0x7F, 0x40, 0x82, 0x2D, 0x64, 0x20, 0x92, 0x2D, 0x7F, 0x40, 0x82, 0x2D, 0x64, 0x20, 0x92, 0x2B, 0x7F, 0x40, 0x82, 0x2B,
  0x64, 0x20, 0x92, 0x2B, 0x7F, 0x40, 0x82, 0x2B, 0x64, 0x20, 0x92, 0x2D, 0x7F, 0x40, 0x82, 0x2D, 0x64, 0x20, 0x92, 0x2D, 0x7F, 0x40, 0x82, 0x2D, 0x64, 0x20, 0x92, 0x2D, 0x7F, 0x40, 0x82, 0x2D, 0x64, 0x20, 0x92, 0x2D, 0x7F, 0x40, 0x82, 0x2D,
  0x64, 0x20, 0x92, 0x2D, 0x7F, 0x40, 0x82, 0x2D, 0x64, 0x20, 0x92, 0x2D, 0x7F, 0x40, 0x82, 0x2D, 0x64, 0x20, 0x92, 0x2B, 0x7F, 0x40, 0x82, 0x2B, 0x64, 0x20, 0x92, 0x2B, 0x7F, 0x40, 0x82, 0x2B, 0x64, 0x20, 0x92, 0x2D, 0x7F, 0x40, 0x82, 0x2D,
  0x64, 0x20, 0x92, 0x2D, 0x7F, 0x40, 0x82, 0x2D, 0x64, 0x20, 0x92, 0x2D, 0x7F, 0x40, 0x82, 0x2D, 0x64, 0x20, 0x92, 0x2D, 0x7F, 0x40, 0x82, 0x2D, 0x64, 0x20, 0x92, 0x2D, 0x7F, 0x40, 0x82, 0x2D, 0x64, 0x20, 0x92, 0x2D, 0x7F, 0x40, 0x82, 0x2D,
  0x64, 0x20, 0x92, 0x2B, 0x7F, 0x40, 0x82, 0x2B, 0x64, 0x20, 0x92, 0x2B, 0x7F, 0x40, 0x82, 0x2B, 0x64, 0x20, 0x92, 0x30, 0x7F, 0x40, 0x82, 0x30, 0x64, 0x20, 0x92, 0x30, 0x7F, 0x40, 0x82, 0x30, 0x64, 0x20, 0x92, 0x30, 0x7F, 0x40, 0x82, 0x30,
  0x64, 0x20, 0x92, 0x30, 0x7F, 0x40, 0x82, 0x30, 0x64, 0x20, 0x92, 0x32, 0x7F, 0x40, 0x82, 0x32, 0x64, 0x20, 0x92, 0x32, 0x7F, 0x40, 0x82, 0x32, 0x64, 0x20, 0x92, 0x32, 0x7F, 0x40, 0x82, 0x32, 0x64, 0x20, 0x92, 0x32, 0x7F, 0x40, 0x82, 0x32,
  0x64, 0xE0, 0x20, 0x92, 0x2D, 0x64, 0x40, 0x82, 0x2D, 0x64, 0x20, 0x92, 0x2D, 0x64, 0x40, 0x82, 0x2D, 0x64, 0x20, 0x92, 0x2D, 0x64, 0x40, 0x82, 0x2D, 0x64, 0x20, 0x92, 0x2D, 0x64, 0x40, 0x82, 0x2D, 0x64, 0x83, 0x20, 0x92, 0x2B, 0x64, 0x40,
  0x82, 0x2B, 0x64, 0x20, 0x92, 0x2B, 0x64, 0x40, 0x82, 0x2B, 0x64, 0x20, 0x92, 0x2B, 0x64, 0x40, 0x82, 0x2B, 0x64, 0x20, 0x92, 0x2B, 0x64, 0x40, 0x82, 0x2B, 0x64, 0x83, 0x20, 0x92, 0x2D, 0x64, 0x40, 0x82, 0x2D, 0x64, 0x20, 0x92, 0x2D, 0x64,
  0x40, 0x82, 0x2D, 0x64, 0x20, 0x92, 0x2D, 0x64, 0x40, 0x82, 0x2D, 0x64, 0x20, 0x92, 0x2D, 0x64, 0x40, 0x82, 0x2D, 0x64, 0x83, 0x20, 0x92, 0x2B, 0x64, 0x40, 0x82, 0x2B, 0x64, 0x20, 0x92, 0x2B, 0x64, 0x40, 0x82, 0x2B, 0x64, 0x20, 0x92, 0x2B,
  0x64, 0x40, 0x82, 0x2B, 0x64, 0x20, 0x92, 0x2B, 0x64, 0x40, 0x82, 0x2B, 0x64, 0x20, 0x92, 0x28, 0x64, 0x81, 0x00, 0x82, 0x28, 0x64, 0x40, 0x92, 0x2B, 0x64, 0x81, 0x00, 0x82, 0x2B, 0x64, 0x40, 0x92, 0x2D, 0x64, 0x40, 0x82, 0x2D, 0x64, 0x20,
  0x92, 0x2D, 0x64, 0x40, 0x82, 0x2D, 0x64, 0x20, 0x92, 0x2D, 0x64, 0x40, 0x82, 0x2D, 0x64, 0x20, 0x92, 0x2D, 0x64, 0x40, 0x82, 0x2D, 0x64, 0x83, 0x20, 0x92, 0x2B, 0x64, 0x40, 0x82, 0x2B, 0x64, 0x20, 0x92, 0x2B, 0x64, 0x40, 0x82, 0x2B, 0x64,
  0x20, 0x92, 0x2B, 0x64, 0x40, 0x82, 0x2B, 0x64, 0x20, 0x92, 0x2B, 0x64, 0x40, 0x82, 0x2B, 0x64, 0x20, 0x92, 0x28, 0x64, 0x81, 0x00, 0x82, 0x28, 0x64, 0x40, 0x92, 0x2B, 0x64, 0x81, 0x00, 0x82, 0x2B, 0x64, 0x40, 0x92, 0x2D, 0x64, 0x40, 0x82,
  0x2D, 0x64, 0x20, 0x92, 0x2D, 0x64, 0x40, 0x82, 0x2D, 0x64, 0x20, 0x92, 0x2D, 0x64, 0x40, 0x82, 0x2D, 0x64, 0x20, 0x92, 0x2D, 0x64, 0x40, 0x82, 0x2D, 0x64, 0x83, 0x20, 0x92, 0x2B, 0x64, 0x40, 0x82, 0x2B, 0x64, 0x20, 0x92, 0x2B, 0x64, 0x40,
  0x82, 0x2B, 0x64, 0x20, 0x92, 0x2B, 0x64, 0x40, 0x82, 0x2B, 0x64, 0x20, 0x92, 0x2B, 0x64, 0x40, 0x82, 0x2B, 0x64, 0x20, 0x92, 0x28, 0x64, 0x81, 0x00, 0x82, 0x28, 0x64, 0x40, 0x92, 0x2B, 0x64, 0x81, 0x00, 0x82, 0x2B, 0x64, 0x40, 0x92, 0x2D,
  0x64, 0x40, 0x82, 0x2D, 0x64, 0x20, 0x92, 0x2D, 0x64, 0x40, 0x82, 0x2D, 0x64, 0x20, 0x92, 0x2D, 0x64, 0x40, 0x82, 0x2D, 0x64, 0x20, 0x92, 0x2D, 0x64, 0x40, 0x82, 0x2D, 0x64, 0x83, 0x20, 0x92, 0x2B, 0x64, 0x40, 0x82, 0x2B, 0x64, 0x20, 0x92,
  0x2B, 0x64, 0x40, 0x82, 0x2B, 0x64, 0x20, 0x92, 0x2B, 0x64, 0x40, 0x82, 0x2B, 0x64, 0x20, 0x92, 0x2B, 0x64, 0x40, 0x82, 0x2B, 0x64, 0x20, 0x92, 0x28, 0x64, 0x81, 0x00, 0x82, 0x28, 0x64, 0x40, 0x92, 0x2B, 0x64, 0x81, 0x00, 0x82, 0x2B, 0x64,
  0x40, 0x92, 0x2D, 0x64, 0x40, 0x82, 0x2D, 0x64, 0x20, 0x92, 0x2D, 0x64, 0x40, 0x82, 0x2D, 0x64, 0x20, 0x92, 0x2D, 0x64, 0x40, 0x82, 0x2D, 0x64, 0x20, 0x92, 0x2D, 0x64, 0x40, 0x82, 0x2D, 0x64, 0x83, 0x20, 0x92, 0x2B, 0x64, 0x40, 0x82, 0x2B,
  0x64, 0x20, 0x92, 0x2B, 0x64, 0x40, 0x82, 0x2B, 0x64, 0x20, 0x92, 0x2B, 0x64, 0x40, 0x82, 0x2B, 0x64, 0x20, 0x92, 0x2B, 0x64, 0x40, 0x82, 0x2B, 0x64, 0x20, 0x92, 0x28, 0x64, 0x81, 0x00, 0x82, 0x28, 0x64, 0x40, 0x92, 0x2B, 0x64, 0x81, 0x00,
  0x82, 0x2B, 0x64, 0x40, 0x92, 0x2D, 0x64, 0x40, 0x82, 0x2D, 0x64, 0x20, 0x92, 0x2D, 0x64, 0x40, 0x82, 0x2D, 0x64, 0x20, 0x92, 0x2D, 0x64, 0x40, 0x82, 0x2D, 0x64, 0x20, 0x92, 0x2D, 0x64, 0x40, 0x82, 0x2D, 0x64, 0x83, 0x20, 0x92, 0x2B, 0x64,
  0x40, 0x82, 0x2B, 0x64, 0x20, 0x92, 0x2B, 0x64, 0x40, 0x82, 0x2B, 0x64, 0x20, 0x92, 0x2B, 0x64, 0x40, 0x82, 0x2B, 0x64, 0x20, 0x92, 0x2B, 0x64, 0x40, 0x82, 0x2B, 0x64, 0x20, 0x92, 0x28, 0x64, 0x81, 0x00, 0x82, 0x28, 0x64, 0x40, 0x92, 0x2B,
  0x64, 0x81, 0x00, 0x82, 0x2B, 0x64, 0x40, 0x92, 0x2D, 0x64, 0x40, 0x82, 0x2D, 0x64, 0x20, 0x92, 0x2D, 0x64, 0x40, 0x82, 0x2D, 0x64, 0x20, 0x92, 0x2D, 0x64, 0x40, 0x82, 0x2D, 0x64, 0x20, 0x92, 0x2D, 0x64, 0x40, 0x82, 0x2D, 0x64, 0x83, 0x20,
  0x92, 0x2B, 0x64, 0x40, 0x82, 0x2B, 0x64, 0x20, 0x92, 0x2B, 0x64, 0x40, 0x82, 0x2B, 0x64, 0x20, 0x92, 0x2B, 0x64, 0x40, 0x82, 0x2B, 0x64, 0x20, 0x92, 0x2B, 0x64, 0x40, 0x82, 0x2B, 0x64, 0x20, 0x92, 0x28, 0x64, 0x81, 0x00, 0x82, 0x28, 0x64,
  0x40, 0x92, 0x2B, 0x64, 0x81, 0x00, 0x82, 0x2B, 0x64, 0x40, 0x92, 0x2D, 0x7F, 0x40, 0x82, 0x2D, 0x64, 0x20, 0x92, 0x2D, 0x7F, 0x40, 0x82, 0x2D, 0x64, 0x20, 0x92, 0x2D, 0x7F, 0x40, 0x82, 0x2D, 0x64, 0x20, 0x92, 0x2D, 0x7F, 0x40, 0x82, 0x2D,
  0x64, 0x20, 0x92, 0x2D, 0x7F, 0x40, 0x82, 0x2D, 0x64, 0x20, 0x92, 0x2D, 0x7F, 0x40, 0x82, 0x2D, 0x64, 0x20, 0x92, 0x2B, 0x7F, 0x40, 0x82, 0x2B, 0x64, 0x20, 0x92, 0x2B, 0x7F, 0x40, 0x82, 0x2B, 0x64, 0x20, 0x92, 0x2D, 0x7F, 0x40, 0x82, 0x2D,
  0x64, 0x20, 0x92, 0x2D, 0x7F, 0x40, 0x82, 0x2D, 0x64, 0x20, 0x92, 0x2D, 0x7F, 0x40, 0x82, 0x2D, 0x64, 0x20, 0x92, 0x2D, 0x7F, 0x40, 0x82, 0x2D, 0x64, 0x20, 0x92, 0x2D, 0x7F, 0x40, 0x82, 0x2D, 0x64, 0x20, 0x92, 0x2D, 0x7F, 0x40, 0x82, 0x2D,
  0x64, 0x20, 0x92, 0x2B, 0x7F, 0x40, 0x82, 0x2B, 0x64, 0x20, 0x92, 0x2B, 0x7F, 0x40, 0x82, 0x2B, 0x64, 0x20, 0x92, 0x2D, 0x7F, 0x40, 0x82, 0x2D, 0x64, 0x20, 0x92, 0x2D, 0x7F, 0x40, 0x82, 0x2D, 0x64, 0x20, 0x92, 0x2D, 0x7F, 0x40, 0x82, 0x2D,
  0x64, 0x20, 0x92, 0x2D, 0x7F, 0x40, 0x82, 0x2D, 0x64, 0x20, 0x92, 0x2D, 0x7F, 0x40, 0x82, 0x2D, 0x64, 0x20, 0x92, 0x2D, 0x7F, 0x40, 0x82, 0x2D, 0x64, 0x20, 0x92, 0x2B, 0x7F, 0x40, 0x82, 0x2B, 0x64, 0x20, 0x92, 0x2B, 0x7F, 0x40, 0x82, 0x2B,
  0x64, 0x20, 0x92, 0x2D, 0x7F, 0x40, 0x82, 0x2D, 0x64, 0x20, 0x92, 0x2D, 0x7F, 0x40, 0x82, 0x2D, 0x64, 0x20, 0x92, 0x2D, 0x7F, 0x40, 0x82, 0x2D, 0x64, 0x20, 0x92, 0x2D, 0x7F, 0x40, 0x82, 0x2D, 0x64, 0x20, 0x92, 0x2D, 0x7F, 0x40, 0x82, 0x2D,
  0x64, 0x20, 0x92, 0x2D, 0x7F, 0x40, 0x82, 0x2D, 0x64, 0x20, 0x92, 0x2B, 0x7F, 0x40, 0x82, 0x2B, 0x64, 0x20, 0x92, 0x2B, 0x7F, 0x40, 0x82, 0x2B, 0x64, 0x20, 0x92, 0x2D, 0x7F, 0x40, 0x82, 0x2D, 0x64, 0x20, 0x92, 0x2D, 0x7F, 0x40, 0x82, 0x2D,
  0x64, 0x20, 0x92, 0x2D, 0x7F, 0x40, 0x82, 0x2D, 0x64, 0x20, 0x92, 0x2D, 0x7F, 0x40, 0x82, 0x2D, 0x64, 0x20, 0x92, 0x2D, 0x7F, 0x40, 0x82, 0x2D, 0x64, 0x20, 0x92, 0x2D, 0x7F, 0x40, 0x82, 0x2D, 0x64, 0x20, 0x92, 0x2B, 0x7F, 0x40, 0x82, 0x2B,
  0x64, 0x20, 0x92, 0x2B, 0x7F, 0x40, 0x82, 0x2B, 0x64, 0x20, 0x92, 0x2D, 0x7F, 0x40, 0x82, 0x2D, 0x64, 0x20, 0x92, 0x2D, 0x7F, 0x40, 0x82, 0x2D, 0x64, 0x20, 0x92, 0x2D, 0x7F, 0x40, 0x82, 0x2D, 0x64, 0x20, 0x92, 0x2D, 0x7F, 0x40, 0x82, 0x2D,
  0x64, 0x20, 0x92, 0x2D, 0x7F, 0x40, 0x82, 0x2D, 0x64, 0x20, 0x92, 0x2D, 0x7F, 0x40, 0x82, 0x2D, 0x64, 0x20, 0x92, 0x2B, 0x7F, 0x40, 0x82, 0x2B, 0x64, 0x20, 0x92, 0x2B, 0x7F, 0x40, 0x82, 0x2B, 0x64, 0x20, 0x92, 0x2D, 0x7F, 0x40, 0x82, 0x2D,
  0x64, 0x20, 0x92, 0x2D, 0x7F, 0x40, 0x82, 0x2D, 0x64, 0x20, 0x92, 0x2D, 0x7F, 0x40, 0x82, 0x2D, 0x64, 0x20, 0x92, 0x2D, 0x7F, 0x40, 0x82, 0x2D, 0x64, 0x20, 0x92, 0x2D, 0x7F, 0x40, 0x82, 0x2D, 0x64, 0x20, 0x92, 0x2D, 0x7F, 0x40, 0x82, 0x2D,
  0x64, 0x20, 0x92, 0x2B, 0x7F, 0x40, 0x82, 0x2B, 0x64, 0x20, 0x92, 0x2B, 0x7F, 0x40, 0x82, 0x2B, 0x64, 0x20, 0x92, 0x30, 0x7F, 0x40, 0x82, 0x30, 0x64, 0x20, 0x92, 0x30, 0x7F, 0x40, 0x82, 0x30, 0x64, 0x20, 0x92, 0x30, 0x7F, 0x40, 0x82, 0x30,
  0x64, 0x20, 0x92, 0x30, 0x7F, 0x40, 0x82, 0x30, 0x64, 0x20, 0x92, 0x32, 0x7F, 0x40, 0x82, 0x32, 0x64, 0x20, 0x92, 0x32, 0x7F, 0x40, 0x82, 0x32, 0x64, 0x20, 0x92, 0x32, 0x7F, 0x40, 0x82, 0x32, 0x64, 0x20, 0x92, 0x32, 0x7F, 0x40, 0x82, 0x32,
  0x64, 0x20, 0x92, 0x2D, 0x7F, 0x40, 0x82, 0x2D, 0x64, 0x20, 0x92, 0x2D, 0x7F, 0x40, 0x82, 0x2D, 0x64, 0x20, 0x92, 0x2D, 0x7F, 0x40, 0x82, 0x2D, 0x64, 0x20, 0x92, 0x2D, 0x7F, 0x40, 0x82, 0x2D, 0x64, 0x20, 0x92, 0x2D, 0x7F, 0x40, 0x82, 0x2D,
  0x64, 0x20, 0x92, 0x2D, 0x7F, 0x40, 0x82, 0x2D, 0x64, 0x20, 0x92, 0x2B, 0x7F, 0x40, 0x82, 0x2B, 0x64, 0x20, 0x92, 0x2B, 0x7F, 0x40, 0x82, 0x2B, 0x64, 0x20, 0x92, 0x2D, 0x7F, 0x40, 0x82, 0x2D, 0x64, 0x20, 0x92, 0x2D, 0x7F, 0x40, 0x82, 0x2D,
  0x64, 0x20, 0x92, 0x2D, 0x7F, 0x40, 0x82, 0x2D, 0x64, 0x20, 0x92, 0x2D, 0x7F, 0x40, 0x82, 0x2D, 0x64, 0x20, 0x92, 0x2D, 0x7F, 0x40, 0x82, 0x2D, 0x64, 0x20, 0x92, 0x2D, 0x7F, 0x40, 0x82, 0x2D, 0x64, 0x20, 0x92, 0x2B, 0x7F, 0x40, 0x82, 0x2B,
  0x64, 0x20, 0x92, 0x2B, 0x7F, 0x40, 0x82, 0x2B, 0x64, 0x20, 0x92, 0x2D, 0x7F, 0x40, 0x82, 0x2D, 0x64, 0x20, 0x92, 0x2D, 0x7F, 0x40, 0x82, 0x2D, 0x64, 0x20, 0x92, 0x2D, 0x7F, 0x40, 0x82, 0x2D, 0x64, 0x20, 0x92, 0x2D, 0x7F, 0x40, 0x82, 0x2D,
  0x64, 0x20, 0x92, 0x2D, 0x7F, 0x40, 0x82, 0x2D, 0x64, 0x20, 0x92, 0x2D, 0x7F, 0x40, 0x82, 0x2D, 0x64, 0x20, 0x92, 0x2B, 0x7F, 0x40, 0x82, 0x2B, 0x64, 0x20, 0x92, 0x2B, 0x7F, 0x40, 0x82, 0x2B, 0x64, 0x20, 0x92, 0x2D, 0x7F, 0x40, 0x82, 0x2D,
  0x64, 0x20, 0x92, 0x2D, 0x7F, 0x40, 0x82, 0x2D, 0x64, 0x20, 0x92, 0x2D, 0x7F, 0x40, 0x82, 0x2D, 0x64, 0x20, 0x92, 0x2D, 0x7F, 0x40, 0x82, 0x2D, 0x64, 0x20, 0x92, 0x2D, 0x7F, 0x40, 0x82, 0x2D, 0x64, 0x20, 0x92, 0x2D, 0x7F, 0x40, 0x82, 0x2D,
  0x64, 0x20, 0x92, 0x2B, 0x7F, 0x40, 0x82, 0x2B, 0x64, 0x20, 0x92, 0x2B, 0x7F, 0x40, 0x82, 0x2B, 0x64, 0x20, 0x92, 0x2D, 0x7F, 0x40, 0x82, 0x2D, 0x64, 0x20, 0x92, 0x2D, 0x7F, 0x40, 0x82, 0x2D, 0x64, 0x20, 0x92, 0x2D, 0x7F, 0x40, 0x82, 0x2D,
  0x64, 0x20, 0x92, 0x2D, 0x7F, 0x40, 0x82, 0x2D, 0x64, 0x20, 0x92, 0x2D, 0x7F, 0x40, 0x82, 0x2D, 0x64, 0x20, 0x92, 0x2D, 0x7F, 0x40, 0x82, 0x2D, 0x64, 0x20, 0x92, 0x2B, 0x7F, 0x40, 0x82, 0x2B, 0x64, 0x20, 0x92, 0x2B, 0x7F, 0x40, 0x82, 0x2B,
  0x64, 0x20, 0x92, 0x2D, 0x7F, 0x40, 0x82, 0x2D, 0x64, 0x20, 0x92, 0x2D, 0x7F, 0x40, 0x82, 0x2D, 0x64, 0x20, 0x92, 0x2D, 0x7F, 0x40, 0x82, 0x2D, 0x64, 0x20, 0x92, 0x2D, 0x7F, 0x40, 0x82, 0x2D, 0x64, 0x20, 0x92, 0x2D, 0x7F, 0x40, 0x82, 0x2D,
  0x64, 0x20, 0x92, 0x2D, 0x7F, 0x40, 0x82, 0x2D, 0x64, 0x20, 0x92, 0x2B, 0x7F, 0x40, 0x82, 0x2B, 0x64, 0x20, 0x92, 0x2B, 0x7F, 0x40, 0x82, 0x2B, 0x64, 0x20, 0x92, 0x2D, 0x7F, 0x40, 0x82, 0x2D, 0x64, 0x20, 0x92, 0x2D, 0x7F, 0x40, 0x82, 0x2D,
  0x64, 0x20, 0x92, 0x2D, 0x7F, 0x40, 0x82, 0x2D, 0x64, 0x20, 0x92, 0x2D, 0x7F, 0x40, 0x82, 0x2D, 0x64, 0x20, 0x92, 0x2D, 0x7F, 0x40, 0x82, 0x2D, 0x64, 0x20, 0x92, 0x2D, 0x7F, 0x40, 0x82, 0x2D, 0x64, 0x20, 0x92, 0x2B, 0x7F, 0x40, 0x82, 0x2B,
  0x64, 0x20, 0x92, 0x2B, 0x7F, 0x40, 0x82, 0x2B, 0x64, 0x20, 0x92, 0x30, 0x7F, 0x40, 0x82, 0x30, 0x64, 0x20, 0x92, 0x30, 0x7F, 0x40, 0x82, 0x30, 0x64, 0x20, 0x92, 0x30, 0x7F, 0x40, 0x82, 0x30, 0x64, 0x20, 0x92, 0x30, 0x7F, 0x40, 0x82, 0x30,
  0x64, 0x20, 0x92, 0x32, 0x7F, 0x40, 0x82, 0x32, 0x64, 0x20, 0x92, 0x32, 0x7F, 0x40, 0x82, 0x32, 0x64, 0x20, 0x92, 0x32, 0x7F, 0x40, 0x82, 0x32, 0x64, 0x20, 0x92, 0x32, 0x7F, 0x40, 0x82, 0x32, 0x64, 0x00, 0xFF, 0x2F, 0x00, 0x4D, 0x54, 0x72,
  0x6B, 0x00, 0x00, 0x11, 0x14, 0x00, 0xFF, 0x03, 0x05, 0x20, 0x20, 0x20, 0x62, 0x79, 0x00, 0xB3, 0x00, 0x00, 0x00, 0xC3, 0x23, 0x00, 0xFF, 0x59, 0x02, 0x00, 0x00, 0xEC, 0x00, 0x93, 0x2D, 0x64, 0x81, 0x40, 0x83, 0x2D, 0x64, 0x60, 0x93, 0x2D,
  0x64, 0x81, 0x40, 0x83, 0x2D, 0x64, 0x60, 0x93, 0x2B, 0x64, 0x81, 0x00, 0x83, 0x2B, 0x64, 0x40, 0x93, 0x2D, 0x64, 0x40, 0x83, 0x2D, 0x64, 0x20, 0x93, 0x2D, 0x64, 0x40, 0x83, 0x2D, 0x64, 0x20, 0x93, 0x2D, 0x64, 0x40, 0x83, 0x2D, 0x64, 0x81,
  0x00, 0x93, 0x2D, 0x64, 0x81, 0x00, 0x83, 0x2D, 0x64, 0x40, 0x93, 0x2B, 0x64, 0x81, 0x00, 0x83, 0x2B, 0x64, 0x40, 0x93, 0x2D, 0x64, 0x81, 0x40, 0x83, 0x2D, 0x64, 0x60, 0x93, 0x2D, 0x64, 0x81, 0x40, 0x83, 0x2D, 0x64, 0x60, 0x93, 0x2B, 0x64,
  0x81, 0x00, 0x83, 0x2B, 0x64, 0x40, 0x93, 0x2D, 0x64, 0x40, 0x83, 0x2D, 0x64, 0x20, 0x93, 0x2D, 0x64, 0x40, 0x83, 0x2D, 0x64, 0x20, 0x93, 0x2D, 0x64, 0x40, 0x83, 0x2D, 0x64, 0x81, 0x00, 0x93, 0x2D, 0x64, 0x81, 0x00, 0x83, 0x2D, 0x64, 0x40,
  0x93, 0x2B, 0x64, 0x81, 0x00, 0x83, 0x2B, 0x64, 0x40, 0x93, 0x2D, 0x64, 0x81, 0x40, 0x83, 0x2D, 0x64, 0x60, 0x93, 0x2D, 0x64, 0x81, 0x40, 0x83, 0x2D, 0x64, 0x60, 0x93, 0x2B, 0x64, 0x81, 0x00, 0x83, 0x2B, 0x64, 0x40, 0x93, 0x2D, 0x64, 0x40,
  0x83, 0x2D, 0x64, 0x20, 0x93, 0x2D, 0x64, 0x40, 0x83, 0x2D, 0x64, 0x20, 0x93, 0x2D, 0x64, 0x40, 0x83, 0x2D, 0x64, 0x81, 0x00, 0x93, 0x2D, 0x64, 0x81, 0x00, 0x83, 0x2D, 0x64, 0x40, 0x93, 0x2B, 0x64, 0x81, 0x00, 0x83, 0x2B, 0x64, 0x40, 0x93,
  0x2D, 0x64, 0x81, 0x40, 0x83, 0x2D, 0x64, 0x60, 0x93, 0x2D, 0x64, 0x81, 0x40, 0x83, 0x2D, 0x64, 0x60, 0x93, 0x2B, 0x64, 0x81, 0x00, 0x83, 0x2B, 0x64, 0x40, 0x93, 0x30, 0x64, 0x40, 0x83, 0x30, 0x64, 0x20, 0x93, 0x30, 0x64, 0x40, 0x83, 0x30,
  0x64, 0x20, 0x93, 0x30, 0x64, 0x40, 0x83, 0x30, 0x64, 0x81, 0x00, 0x93, 0x32, 0x64, 0x81, 0x00, 0x83, 0x32, 0x64, 0x40, 0x93, 0x32, 0x64, 0x81, 0x00, 0x83, 0x32, 0x64, 0x40, 0x93, 0x2D, 0x64, 0x81, 0x40, 0x83, 0x2D, 0x64, 0x60, 0x93, 0x2D,
  0x64, 0x81, 0x40, 0x83, 0x2D, 0x64, 0x60, 0x93, 0x2B, 0x64, 0x81, 0x00, 0x83, 0x2B, 0x64, 0x40, 0x93, 0x2D, 0x64, 0x40, 0x83, 0x2D, 0x64, 0x20, 0x93, 0x2D, 0x64, 0x40, 0x83, 0x2D, 0x64, 0x20, 0x93, 0x2D, 0x64, 0x40, 0x83, 0x2D, 0x64, 0x81,
  0x00, 0x93, 0x2D, 0x64, 0x81, 0x00, 0x83, 0x2D, 0x64, 0x40, 0x93, 0x2B, 0x64, 0x81, 0x00, 0x83, 0x2B, 0x64, 0x40, 0x93, 0x2D, 0x64, 0x81, 0x40, 0x83, 0x2D, 0x64, 0x60, 0x93, 0x2D, 0x64, 0x81, 0x40, 0x83, 0x2D, 0x64, 0x60, 0x93, 0x2B, 0x64,
  0x81, 0x00, 0x83, 0x2B, 0x64, 0x40, 0x93, 0x2D, 0x64, 0x40, 0x83, 0x2D, 0x64, 0x20, 0x93, 0x2D, 0x64, 0x40, 0x83, 0x2D, 0x64, 0x20, 0x93, 0x2D, 0x64, 0x40, 0x83, 0x2D, 0x64, 0x81, 0x00, 0x93, 0x2D, 0x64, 0x81, 0x00, 0x83, 0x2D, 0x64, 0x40,
  0x93, 0x2B, 0x64, 0x81, 0x00, 0x83, 0x2B, 0x64, 0x40, 0x93, 0x2D, 0x64, 0x81, 0x40, 0x83, 0x2D, 0x64, 0x60, 0x93, 0x2D, 0x64, 0x81, 0x40, 0x83, 0x2D, 0x64, 0x60, 0x93, 0x2B, 0x64, 0x81, 0x00, 0x83, 0x2B, 0x64, 0x40, 0x93, 0x2D, 0x64, 0x40,
  0x83, 0x2D, 0x64, 0x20, 0x93, 0x2D, 0x64, 0x40, 0x83, 0x2D, 0x64, 0x20, 0x93, 0x2D, 0x64, 0x40, 0x83, 0x2D, 0x64, 0x81, 0x00, 0x93, 0x2D, 0x64, 0x81, 0x00, 0x83, 0x2D, 0x64, 0x40, 0x93, 0x2B, 0x64, 0x81, 0x00, 0x83, 0x2B, 0x64, 0x40, 0x93,
  0x2D, 0x64, 0x81, 0x40, 0x83, 0x2D, 0x64, 0x60, 0x93, 0x2D, 0x64, 0x81, 0x40, 0x83, 0x2D, 0x64, 0x60, 0x93, 0x2B, 0x64, 0x81, 0x00, 0x83, 0x2B, 0x64, 0x40, 0x93, 0x30, 0x64, 0x40, 0x83, 0x30, 0x64, 0x20, 0x93, 0x30, 0x64, 0x40, 0x83, 0x30,
  0x64, 0x20, 0x93, 0x30, 0x64, 0x40, 0x83, 0x30, 0x64, 0x81, 0x00, 0x93, 0x32, 0x64, 0x81, 0x00, 0x83, 0x32, 0x64, 0x40, 0x93, 0x32, 0x64, 0x81, 0x00, 0x83, 0x32, 0x64, 0x40, 0x93, 0x2D, 0x64, 0x81, 0x40, 0x83, 0x2D, 0x64, 0x60, 0x93, 0x2D,
  0x64, 0x81, 0x40, 0x83, 0x2D, 0x64, 0x60, 0x93, 0x2B, 0x64, 0x81, 0x00, 0x83, 0x2B, 0x64, 0x40, 0x93, 0x2D, 0x64, 0x40, 0x83, 0x2D, 0x64, 0x20, 0x93, 0x2D, 0x64, 0x40, 0x83, 0x2D, 0x64, 0x20, 0x93, 0x2D, 0x64, 0x40, 0x83, 0x2D, 0x64, 0x81,
  0x00, 0x93, 0x2D, 0x64, 0x81, 0x00, 0x83, 0x2D, 0x64, 0x40, 0x93, 0x2B, 0x64, 0x81, 0x00, 0x83, 0x2B, 0x64, 0x40, 0x93, 0x2D, 0x64, 0x81, 0x40, 0x83, 0x2D, 0x64, 0x60, 0x93, 0x2D, 0x64, 0x81, 0x40, 0x83, 0x2D, 0x64, 0x60, 0x93, 0x2B, 0x64,
  0x81, 0x00, 0x83, 0x2B, 0x64, 0x40, 0x93, 0x2D, 0x64, 0x40, 0x83, 0x2D, 0x64, 0x20, 0x93, 0x2D, 0x64, 0x40, 0x83, 0x2D, 0x64, 0x20, 0x93, 0x2D, 0x64, 0x40, 0x83, 0x2D, 0x64, 0x81, 0x00, 0x93, 0x2D, 0x64, 0x81, 0x00, 0x83, 0x2D, 0x64, 0x40,
  0x93, 0x2B, 0x64, 0x81, 0x00, 0x83, 0x2B, 0x64, 0x40, 0x93, 0x2D, 0x64, 0x81, 0x40, 0x83, 0x2D, 0x64, 0x60, 0x93, 0x2D, 0x64, 0x81, 0x40, 0x83, 0x2D, 0x64, 0x60, 0x93, 0x2B, 0x64, 0x81, 0x00, 0x83, 0x2B, 0x64, 0x40, 0x93, 0x2D, 0x64, 0x40,
  0x83, 0x2D, 0x64, 0x20, 0x93, 0x2D, 0x64, 0x40, 0x83, 0x2D, 0x64, 0x20, 0x93, 0x2D, 0x64, 0x40, 0x83, 0x2D, 0x64, 0x81, 0x00, 0x93, 0x2D, 0x64, 0x81, 0x00, 0x83, 0x2D, 0x64, 0x40, 0x93, 0x2B, 0x64, 0x81, 0x00, 0x83, 0x2B, 0x64, 0x40, 0x93,
  0x2D, 0x64, 0x81, 0x40, 0x83, 0x2D, 0x64, 0x60, 0x93, 0x2D, 0x64, 0x81, 0x40, 0x83, 0x2D, 0x64, 0x60, 0x93, 0x2B, 0x64, 0x81, 0x00, 0x83, 0x2B, 0x64, 0x40, 0x93, 0x30, 0x64, 0x40, 0x83, 0x30, 0x64, 0x20, 0x93, 0x30, 0x64, 0x40, 0x83, 0x30,
  0x64, 0x20, 0x93, 0x30, 0x64, 0x40, 0x83, 0x30, 0x64, 0x81, 0x00, 0x93, 0x32, 0x64, 0x81, 0x00, 0x83, 0x32, 0x64, 0x40, 0x93, 0x32, 0x64, 0x81, 0x00, 0x83, 0x32, 0x64, 0x40, 0x93, 0x2D, 0x64, 0x81, 0x40, 0x83, 0x2D, 0x64, 0x60, 0x93, 0x2D,
  0x64, 0x81, 0x40, 0x83, 0x2D, 0x64, 0x60, 0x93, 0x2B, 0x64, 0x81, 0x00, 0x83, 0x2B, 0x64, 0x40, 0x93, 0x2D, 0x64, 0x40, 0x83, 0x2D, 0x64, 0x20, 0x93, 0x2D, 0x64, 0x40, 0x83, 0x2D, 0x64, 0x20, 0x93, 0x2D, 0x64, 0x40, 0x83, 0x2D, 0x64, 0x81,
  0x00, 0x93, 0x2D, 0x64, 0x81, 0x00, 0x83, 0x2D, 0x64, 0x40, 0x93, 0x2B, 0x64, 0x81, 0x00, 0x83, 0x2B, 0x64, 0x40, 0x93, 0x2D, 0x64, 0x81, 0x40, 0x83, 0x2D, 0x64, 0x60, 0x93, 0x2D, 0x64, 0x81, 0x40, 0x83, 0x2D, 0x64, 0x60, 0x93, 0x2B, 0x64,
  0x81, 0x00, 0x83, 0x2B, 0x64, 0x40, 0x93, 0x2D, 0x64, 0x40, 0x83, 0x2D, 0x64, 0x20, 0x93, 0x2D, 0x64, 0x40, 0x83, 0x2D, 0x64, 0x20, 0x93, 0x2D, 0x64, 0x40, 0x83, 0x2D, 0x64, 0x81, 0x00, 0x93, 0x2D, 0x64, 0x81, 0x00, 0x83, 0x2D, 0x64, 0x40,
  0x93, 0x2B, 0x64, 0x81, 0x00, 0x83, 0x2B, 0x64, 0x40, 0x93, 0x2D, 0x64, 0x81, 0x40, 0x83, 0x2D, 0x64, 0x60, 0x93, 0x2D, 0x64, 0x81, 0x40, 0x83, 0x2D, 0x64, 0x60, 0x93, 0x2B, 0x64, 0x81, 0x00, 0x83, 0x2B, 0x64, 0x40, 0x93, 0x2D, 0x64, 0x40,
  0x83, 0x2D, 0x64, 0x20, 0x93, 0x2D, 0x64, 0x40, 0x83, 0x2D, 0x64, 0x20, 0x93, 0x2D, 0x64, 0x40, 0x83, 0x2D, 0x64, 0x81, 0x00, 0x93, 0x2D, 0x64, 0x81, 0x00, 0x83, 0x2D, 0x64, 0x40, 0x93, 0x2B, 0x64, 0x81, 0x00, 0x83, 0x2B, 0x64, 0x8C, 0x40,
  0x93, 0x2D, 0x64, 0x81, 0x40, 0x83, 0x2D, 0x64, 0x60, 0x93, 0x2D, 0x64, 0x81, 0x40, 0x83, 0x2D, 0x64, 0x60, 0x93, 0x2B, 0x64, 0x81, 0x00, 0x83, 0x2B, 0x64, 0x40, 0x93, 0x2D, 0x64, 0x40, 0x83, 0x2D, 0x64, 0x20, 0x93, 0x2D, 0x64, 0x40, 0x83,
  0x2D, 0x64, 0x20, 0x93, 0x2D, 0x64, 0x40, 0x83, 0x2D, 0x64, 0x81, 0x00, 0x93, 0x2D, 0x64, 0x81, 0x00, 0x83, 0x2D, 0x64, 0x40, 0x93, 0x2B, 0x64, 0x81, 0x00, 0x83, 0x2B, 0x64, 0x40, 0x93, 0x2D, 0x64, 0x81, 0x40, 0x83, 0x2D, 0x64, 0x60, 0x93,
  0x2D, 0x64, 0x81, 0x40, 0x83, 0x2D, 0x64, 0x60, 0x93, 0x2B, 0x64, 0x81, 0x00, 0x83, 0x2B, 0x64, 0x40, 0x93, 0x2D, 0x64, 0x40, 0x83, 0x2D, 0x64, 0x20, 0x93, 0x2D, 0x64, 0x40, 0x83, 0x2D, 0x64, 0x20, 0x93, 0x2D, 0x64, 0x40, 0x83, 0x2D, 0x64,
  0x81, 0x00, 0x93, 0x2D, 0x64, 0x81, 0x00, 0x83, 0x2D, 0x64, 0x40, 0x93, 0x2B, 0x64, 0x81, 0x00, 0x83, 0x2B, 0x64, 0x40, 0x93, 0x2D, 0x64, 0x81, 0x40, 0x83, 0x2D, 0x64, 0x60, 0x93, 0x2D, 0x64, 0x81, 0x40, 0x83, 0x2D, 0x64, 0x60, 0x93, 0x2B,
  0x64, 0x81, 0x00, 0x83, 0x2B, 0x64, 0x40, 0x93, 0x2D, 0x64, 0x40, 0x83, 0x2D, 0x64, 0x20, 0x93, 0x2D, 0x64, 0x40, 0x83, 0x2D, 0x64, 0x20, 0x93, 0x2D, 0x64, 0x40, 0x83, 0x2D, 0x64, 0x81, 0x00, 0x93, 0x2D, 0x64, 0x81, 0x00, 0x83, 0x2D, 0x64,
  0x40, 0x93, 0x2B, 0x64, 0x81, 0x00, 0x83, 0x2B, 0x64, 0x40, 0x93, 0x2D, 0x64, 0x81, 0x40, 0x83, 0x2D, 0x64, 0x60, 0x93, 0x2D, 0x64, 0x81, 0x40, 0x83, 0x2D, 0x64, 0x60, 0x93, 0x2B, 0x64, 0x81, 0x00, 0x83, 0x2B, 0x64, 0x40, 0x93, 0x2D, 0x64,
  0x40, 0x83, 0x2D, 0x64, 0x20, 0x93, 0x2D, 0x64, 0x40, 0x83, 0x2D, 0x64, 0x20, 0x93, 0x2D, 0x64, 0x40, 0x83, 0x2D, 0x64, 0x81, 0x00, 0x93, 0x2D, 0x64, 0x81, 0x00, 0x83, 0x2D, 0x64, 0x40, 0x93, 0x2B, 0x64, 0x81, 0x00, 0x83, 0x2B, 0x64, 0x40,
  0x93, 0x2D, 0x64, 0x81, 0x40, 0x83, 0x2D, 0x64, 0x60, 0x93, 0x2D, 0x64, 0x81, 0x40, 0x83, 0x2D, 0x64, 0x60, 0x93, 0x2B, 0x64, 0x81, 0x00, 0x83, 0x2B, 0x64, 0x40, 0x93, 0x2D, 0x64, 0x40, 0x83, 0x2D, 0x64, 0x20, 0x93, 0x2D, 0x64, 0x40, 0x83,
  0x2D, 0x64, 0x20, 0x93, 0x2D, 0x64, 0x40, 0x83, 0x2D, 0x64, 0x81, 0x00, 0x93, 0x2D, 0x64, 0x81, 0x00, 0x83, 0x2D, 0x64, 0x40, 0x93, 0x2B, 0x64, 0x81, 0x00, 0x83, 0x2B, 0x64, 0x40, 0x93, 0x2D, 0x64, 0x81, 0x40, 0x83, 0x2D, 0x64, 0x60, 0x93,
  0x2D, 0x64, 0x81, 0x40, 0x83, 0x2D, 0x64, 0x60, 0x93, 0x2B, 0x64, 0x81, 0x00, 0x83, 0x2B, 0x64, 0x40, 0x93, 0x2D, 0x64, 0x40, 0x83, 0x2D, 0x64, 0x20, 0x93, 0x2D, 0x64, 0x40, 0x83, 0x2D, 0x64, 0x20, 0x93, 0x2D, 0x64, 0x40, 0x83, 0x2D, 0x64,
  0x81, 0x00, 0x93, 0x2D, 0x64, 0x81, 0x00, 0x83, 0x2D, 0x64, 0x40, 0x93, 0x2B, 0x64, 0x81, 0x00, 0x83, 0x2B, 0x64, 0x40, 0x93, 0x2D, 0x64, 0x81, 0x40, 0x83, 0x2D, 0x64, 0x60, 0x93, 0x2D, 0x64, 0x81, 0x40, 0x83, 0x2D, 0x64, 0x60, 0x93, 0x2B,
  0x64, 0x81, 0x00, 0x83, 0x2B, 0x64, 0x40, 0x93, 0x2D, 0x64, 0x40, 0x83, 0x2D, 0x64, 0x20, 0x93, 0x2D, 0x64, 0x40, 0x83, 0x2D, 0x64, 0x20, 0x93, 0x2D, 0x64, 0x40, 0x83, 0x2D, 0x64, 0x81, 0x00, 0x93, 0x2D, 0x64, 0x81, 0x00, 0x83, 0x2D, 0x64,
  0x40, 0x93, 0x2B, 0x64, 0x81, 0x00, 0x83, 0x2B, 0x64, 0x40, 0x93, 0x2D, 0x64, 0x81, 0x40, 0x83, 0x2D, 0x64, 0x60, 0x93, 0x2D, 0x64, 0x81, 0x40, 0x83, 0x2D, 0x64, 0x60, 0x93, 0x2B, 0x64, 0x81, 0x00, 0x83, 0x2B, 0x64, 0x40, 0x93, 0x2D, 0x64,
  0x40, 0x83, 0x2D, 0x64, 0x20, 0x93, 0x2D, 0x64, 0x40, 0x83, 0x2D, 0x64, 0x20, 0x93, 0x2D, 0x64, 0x40, 0x83, 0x2D, 0x64, 0x81, 0x00, 0x93, 0x2D, 0x64, 0x81, 0x00, 0x83, 0x2D, 0x64, 0x40, 0x93, 0x2B, 0x64, 0x81, 0x00, 0x83, 0x2B, 0x64, 0xE0,
  0x40, 0x93, 0x2D, 0x64, 0x81, 0x40, 0x83, 0x2D, 0x64, 0x60, 0x93, 0x2D, 0x64, 0x81, 0x40, 0x83, 0x2D, 0x64, 0x60, 0x93, 0x2B, 0x64, 0x81, 0x00, 0x83, 0x2B, 0x64, 0x40, 0x93, 0x2D, 0x64, 0x40, 0x83, 0x2D, 0x64, 0x20, 0x93, 0x2D, 0x64, 0x40,
  0x83, 0x2D, 0x64, 0x20, 0x93, 0x2D, 0x64, 0x40, 0x83, 0x2D, 0x64, 0x81, 0x00, 0x93, 0x2D, 0x64, 0x81, 0x00, 0x83, 0x2D, 0x64, 0x40, 0x93, 0x2B, 0x64, 0x81, 0x00, 0x83, 0x2B, 0x64, 0x40, 0x93, 0x2D, 0x64, 0x81, 0x40, 0x83, 0x2D, 0x64, 0x60,
  0x93, 0x2D, 0x64, 0x81, 0x40, 0x83, 0x2D, 0x64, 0x60, 0x93, 0x2B, 0x64, 0x81, 0x00, 0x83, 0x2B, 0x64, 0x40, 0x93, 0x2D, 0x64, 0x40, 0x83, 0x2D, 0x64, 0x20, 0x93, 0x2D, 0x64, 0x40, 0x83, 0x2D, 0x64, 0x20, 0x93, 0x2D, 0x64, 0x40, 0x83, 0x2D,
  0x64, 0x81, 0x00, 0x93, 0x2D, 0x64, 0x81, 0x00, 0x83, 0x2D, 0x64, 0x40, 0x93, 0x2B, 0x64, 0x81, 0x00, 0x83, 0x2B, 0x64, 0x40, 0x93, 0x2D, 0x64, 0x81, 0x40, 0x83, 0x2D, 0x64, 0x60, 0x93, 0x2D, 0x64, 0x81, 0x40, 0x83, 0x2D, 0x64, 0x60, 0x93,
  0x2B, 0x64, 0x81, 0x00, 0x83, 0x2B, 0x64, 0x40, 0x93, 0x2D, 0x64, 0x40, 0x83, 0x2D, 0x64, 0x20, 0x93, 0x2D, 0x64, 0x40, 0x83, 0x2D, 0x64, 0x20, 0x93, 0x2D, 0x64, 0x40, 0x83, 0x2D, 0x64, 0x81, 0x00, 0x93, 0x2D, 0x64, 0x81, 0x00, 0x83, 0x2D,
  0x64, 0x40, 0x93, 0x2B, 0x64, 0x81, 0x00, 0x83, 0x2B, 0x64, 0x40, 0x93, 0x2D, 0x64, 0x81, 0x40, 0x83, 0x2D, 0x64, 0x60, 0x93, 0x2D, 0x64, 0x81, 0x40, 0x83, 0x2D, 0x64, 0x60, 0x93, 0x2B, 0x64, 0x81, 0x00, 0x83, 0x2B, 0x64, 0x40, 0x93, 0x30,
  0x64, 0x40, 0x83, 0x30, 0x64, 0x20, 0x93, 0x30, 0x64, 0x40, 0x83, 0x30, 0x64, 0x20, 0x93, 0x30, 0x64, 0x40, 0x83, 0x30, 0x64, 0x81, 0x00, 0x93, 0x32, 0x64, 0x81, 0x00, 0x83, 0x32, 0x64, 0x40, 0x93, 0x32, 0x64, 0x81, 0x00, 0x83, 0x32, 0x64,
  0x40, 0x93, 0x2D, 0x64, 0x81, 0x40, 0x83, 0x2D, 0x64, 0x60, 0x93, 0x2D, 0x64, 0x81, 0x40, 0x83, 0x2D, 0x64, 0x60, 0x93, 0x2B, 0x64, 0x81, 0x00, 0x83, 0x2B, 0x64, 0x40, 0x93, 0x2D, 0x64, 0x40, 0x83, 0x2D, 0x64, 0x20, 0x93, 0x2D, 0x64, 0x40,
  0x83, 0x2D, 0x64, 0x20, 0x93, 0x2D, 0x64, 0x40, 0x83, 0x2D, 0x64, 0x81, 0x00, 0x93, 0x2D, 0x64, 0x81, 0x00, 0x83, 0x2D, 0x64, 0x40, 0x93, 0x2B, 0x64, 0x81, 0x00, 0x83, 0x2B, 0x64, 0x40, 0x93, 0x2D, 0x64, 0x81, 0x40, 0x83, 0x2D, 0x64, 0x60,
  0x93, 0x2D, 0x64, 0x81, 0x40, 0x83, 0x2D, 0x64, 0x60, 0x93, 0x2B, 0x64, 0x81, 0x00, 0x83, 0x2B, 0x64, 0x40, 0x93, 0x2D, 0x64, 0x40, 0x83, 0x2D, 0x64, 0x20, 0x93, 0x2D, 0x64, 0x40, 0x83, 0x2D, 0x64, 0x20, 0x93, 0x2D, 0x64, 0x40, 0x83, 0x2D,
  0x64, 0x81, 0x00, 0x93, 0x2D, 0x64, 0x81, 0x00, 0x83, 0x2D, 0x64, 0x40, 0x93, 0x2B, 0x64, 0x81, 0x00, 0x83, 0x2B, 0x64, 0x40, 0x93, 0x2D, 0x64, 0x81, 0x40, 0x83, 0x2D, 0x64, 0x60, 0x93, 0x2D, 0x64, 0x81, 0x40, 0x83, 0x2D, 0x64, 0x60, 0x93,
  0x2B, 0x64, 0x81, 0x00, 0x83, 0x2B, 0x64, 0x40, 0x93, 0x2D, 0x64, 0x40, 0x83, 0x2D, 0x64, 0x20, 0x93, 0x2D, 0x64, 0x40, 0x83, 0x2D, 0x64, 0x20, 0x93, 0x2D, 0x64, 0x40, 0x83, 0x2D, 0x64, 0x81, 0x00, 0x93, 0x2D, 0x64, 0x81, 0x00, 0x83, 0x2D,
  0x64, 0x40, 0x93, 0x2B, 0x64, 0x81, 0x00, 0x83, 0x2B, 0x64, 0x40, 0x93, 0x2D, 0x64, 0x81, 0x40, 0x83, 0x2D, 0x64, 0x60, 0x93, 0x2D, 0x64, 0x81, 0x40, 0x83, 0x2D, 0x64, 0x60, 0x93, 0x2B, 0x64, 0x81, 0x00, 0x83, 0x2B, 0x64, 0x40, 0x93, 0x30,
  0x64, 0x40, 0x83, 0x30, 0x64, 0x20, 0x93, 0x30, 0x64, 0x40, 0x83, 0x30, 0x64, 0x20, 0x93, 0x30, 0x64, 0x40, 0x83, 0x30, 0x64, 0x81, 0x00, 0x93, 0x32, 0x64, 0x81, 0x00, 0x83, 0x32, 0x64, 0x40, 0x93, 0x32, 0x64, 0x81, 0x00, 0x83, 0x32, 0x64,
  0x40, 0x93, 0x2D, 0x64, 0x81, 0x40, 0x83, 0x2D, 0x64, 0x60, 0x93, 0x2D, 0x64, 0x81, 0x40, 0x83, 0x2D, 0x64, 0x60, 0x93, 0x2B, 0x64, 0x81, 0x00, 0x83, 0x2B, 0x64, 0x40, 0x93, 0x2D, 0x64, 0x40, 0x83, 0x2D, 0x64, 0x20, 0x93, 0x2D, 0x64, 0x40,
  0x83, 0x2D, 0x64, 0x20, 0x93, 0x2D, 0x64, 0x40, 0x83, 0x2D, 0x64, 0x81, 0x00, 0x93, 0x2D, 0x64, 0x81, 0x00, 0x83, 0x2D, 0x64, 0x40, 0x93, 0x2B, 0x64, 0x81, 0x00, 0x83, 0x2B, 0x64, 0x40, 0x93, 0x2D, 0x64, 0x81, 0x40, 0x83, 0x2D, 0x64, 0x60,
  0x93, 0x2D, 0x64, 0x81, 0x40, 0x83, 0x2D, 0x64, 0x60, 0x93, 0x2B, 0x64, 0x81, 0x00, 0x83, 0x2B, 0x64, 0x40, 0x93, 0x2D, 0x64, 0x40, 0x83, 0x2D, 0x64, 0x20, 0x93, 0x2D, 0x64, 0x40, 0x83, 0x2D, 0x64, 0x20, 0x93, 0x2D, 0x64, 0x40, 0x83, 0x2D,
  0x64, 0x81, 0x00, 0x93, 0x2D, 0x64, 0x81, 0x00, 0x83, 0x2D, 0x64, 0x40, 0x93, 0x2B, 0x64, 0x81, 0x00, 0x83, 0x2B, 0x64, 0x40, 0x93, 0x2D, 0x64, 0x81, 0x40, 0x83, 0x2D, 0x64, 0x60, 0x93, 0x2D, 0x64, 0x81, 0x40, 0x83, 0x2D, 0x64, 0x60, 0x93,
  0x2B, 0x64, 0x81, 0x00, 0x83, 0x2B, 0x64, 0x40, 0x93, 0x2D, 0x64, 0x40, 0x83, 0x2D, 0x64, 0x20, 0x93, 0x2D, 0x64, 0x40, 0x83, 0x2D, 0x64, 0x20, 0x93, 0x2D, 0x64, 0x40, 0x83, 0x2D, 0x64, 0x81, 0x00, 0x93, 0x2D, 0x64, 0x81, 0x00, 0x83, 0x2D,
  0x64, 0x40, 0x93, 0x2B, 0x64, 0x81, 0x00, 0x83, 0x2B, 0x64, 0x40, 0x93, 0x2D, 0x64, 0x81, 0x40, 0x83, 0x2D, 0x64, 0x60, 0x93, 0x2D, 0x64, 0x81, 0x40, 0x83, 0x2D, 0x64, 0x60, 0x93, 0x2B, 0x64, 0x81, 0x00, 0x83, 0x2B, 0x64, 0x40, 0x93, 0x2D,
  0x64, 0x40, 0x83, 0x2D, 0x64, 0x20, 0x93, 0x2D, 0x64, 0x40, 0x83, 0x2D, 0x64, 0x20, 0x93, 0x2D, 0x64, 0x40, 0x83, 0x2D, 0x64, 0x81, 0x00, 0x93, 0x2D, 0x64, 0x81, 0x00, 0x83, 0x2D, 0x64, 0x40, 0x93, 0x2B, 0x64, 0x81, 0x00, 0x83, 0x2B, 0x64,
  0x40, 0x93, 0x2D, 0x64, 0x81, 0x40, 0x83, 0x2D, 0x64, 0x60, 0x93, 0x2D, 0x64, 0x81, 0x40, 0x83, 0x2D, 0x64, 0x60, 0x93, 0x2B, 0x64, 0x81, 0x00, 0x83, 0x2B, 0x64, 0x40, 0x93, 0x2D, 0x64, 0x40, 0x83, 0x2D, 0x64, 0x20, 0x93, 0x2D, 0x64, 0x40,
  0x83, 0x2D, 0x64, 0x20, 0x93, 0x2D, 0x64, 0x40, 0x83, 0x2D, 0x64, 0x81, 0x00, 0x93, 0x2D, 0x64, 0x81, 0x00, 0x83, 0x2D, 0x64, 0x40, 0x93, 0x2B, 0x64, 0x81, 0x00, 0x83, 0x2B, 0x64, 0x40, 0x93, 0x2D, 0x64, 0x81, 0x40, 0x83, 0x2D, 0x64, 0x60,
  0x93, 0x2D, 0x64, 0x81, 0x40, 0x83, 0x2D, 0x64, 0x60, 0x93, 0x2B, 0x64, 0x81, 0x00, 0x83, 0x2B, 0x64, 0x40, 0x93, 0x2D, 0x64, 0x40, 0x83, 0x2D, 0x64, 0x20, 0x93, 0x2D, 0x64, 0x40, 0x83, 0x2D, 0x64, 0x20, 0x93, 0x2D, 0x64, 0x40, 0x83, 0x2D,
  0x64, 0x81, 0x00, 0x93, 0x2D, 0x64, 0x81, 0x00, 0x83, 0x2D, 0x64, 0x40, 0x93, 0x2B, 0x64, 0x81, 0x00, 0x83, 0x2B, 0x64, 0x40, 0x93, 0x2D, 0x64, 0x81, 0x40, 0x83, 0x2D, 0x64, 0x60, 0x93, 0x2D, 0x64, 0x81, 0x40, 0x83, 0x2D, 0x64, 0x60, 0x93,
  0x2B, 0x64, 0x81, 0x00, 0x83, 0x2B, 0x64, 0x40, 0x93, 0x2D, 0x64, 0x40, 0x83, 0x2D, 0x64, 0x20, 0x93, 0x2D, 0x64, 0x40, 0x83, 0x2D, 0x64, 0x20, 0x93, 0x2D, 0x64, 0x40, 0x83, 0x2D, 0x64, 0x81, 0x00, 0x93, 0x2D, 0x64, 0x81, 0x00, 0x83, 0x2D,
  0x64, 0x40, 0x93, 0x2B, 0x64, 0x81, 0x00, 0x83, 0x2B, 0x64, 0x40, 0x93, 0x2D, 0x64, 0x81, 0x40, 0x83, 0x2D, 0x64, 0x60, 0x93, 0x2D, 0x64, 0x81, 0x40, 0x83, 0x2D, 0x64, 0x60, 0x93, 0x2B, 0x64, 0x81, 0x00, 0x83, 0x2B, 0x64, 0x40, 0x93, 0x2D,
  0x64, 0x40, 0x83, 0x2D, 0x64, 0x20, 0x93, 0x2D, 0x64, 0x40, 0x83, 0x2D, 0x64, 0x20, 0x93, 0x2D, 0x64, 0x40, 0x83, 0x2D, 0x64, 0x81, 0x00, 0x93, 0x2D, 0x64, 0x81, 0x00, 0x83, 0x2D, 0x64, 0x40, 0x93, 0x2B, 0x64, 0x81, 0x00, 0x83, 0x2B, 0x64,
  0xE0, 0x40, 0x93, 0x2D, 0x64, 0x81, 0x40, 0x83, 0x2D, 0x64, 0x60, 0x93, 0x2D, 0x64, 0x81, 0x40, 0x83, 0x2D, 0x64, 0x60, 0x93, 0x2B, 0x64, 0x81, 0x00, 0x83, 0x2B, 0x64, 0x40, 0x93, 0x2D, 0x64, 0x40, 0x83, 0x2D, 0x64, 0x20, 0x93, 0x2D, 0x64,
  0x40, 0x83, 0x2D, 0x64, 0x20, 0x93, 0x2D, 0x64, 0x40, 0x83, 0x2D, 0x64, 0x81, 0x00, 0x93, 0x2D, 0x64, 0x81, 0x00, 0x83, 0x2D, 0x64, 0x40, 0x93, 0x2B, 0x64, 0x81, 0x00, 0x83, 0x2B, 0x64, 0x40, 0x93, 0x2D, 0x64, 0x81, 0x40, 0x83, 0x2D, 0x64,
  0x60, 0x93, 0x2D, 0x64, 0x81, 0x40, 0x83, 0x2D, 0x64, 0x60, 0x93, 0x2B, 0x64, 0x81, 0x00, 0x83, 0x2B, 0x64, 0x40, 0x93, 0x2D, 0x64, 0x40, 0x83, 0x2D, 0x64, 0x20, 0x93, 0x2D, 0x64, 0x40, 0x83, 0x2D, 0x64, 0x20, 0x93, 0x2D, 0x64, 0x40, 0x83,
  0x2D, 0x64, 0x81, 0x00, 0x93, 0x2D, 0x64, 0x81, 0x00, 0x83, 0x2D, 0x64, 0x40, 0x93, 0x2B, 0x64, 0x81, 0x00, 0x83, 0x2B, 0x64, 0x40, 0x93, 0x2D, 0x64, 0x81, 0x40, 0x83, 0x2D, 0x64, 0x60, 0x93, 0x2D, 0x64, 0x81, 0x40, 0x83, 0x2D, 0x64, 0x60,
  0x93, 0x2B, 0x64, 0x81, 0x00, 0x83, 0x2B, 0x64, 0x40, 0x93, 0x2D, 0x64, 0x40, 0x83, 0x2D, 0x64, 0x20, 0x93, 0x2D, 0x64, 0x40, 0x83, 0x2D, 0x64, 0x20, 0x93, 0x2D, 0x64, 0x40, 0x83, 0x2D, 0x64, 0x81, 0x00, 0x93, 0x2D, 0x64, 0x81, 0x00, 0x83,
  0x2D, 0x64, 0x40, 0x93, 0x2B, 0x64, 0x81, 0x00, 0x83, 0x2B, 0x64, 0x40, 0x93, 0x2D, 0x64, 0x81, 0x40, 0x83, 0x2D, 0x64, 0x60, 0x93, 0x2D, 0x64, 0x81, 0x40, 0x83, 0x2D, 0x64, 0x60, 0x93, 0x2B, 0x64, 0x81, 0x00, 0x83, 0x2B, 0x64, 0x40, 0x93,
  0x30, 0x64, 0x40, 0x83, 0x30, 0x64, 0x20, 0x93, 0x30, 0x64, 0x40, 0x83, 0x30, 0x64, 0x20, 0x93, 0x30, 0x64, 0x40, 0x83, 0x30, 0x64, 0x81, 0x00, 0x93, 0x32, 0x64, 0x81, 0x00, 0x83, 0x32, 0x64, 0x40, 0x93, 0x32, 0x64, 0x81, 0x00, 0x83, 0x32,
  0x64, 0x40, 0x93, 0x2D, 0x64, 0x81, 0x40, 0x83, 0x2D, 0x64, 0x60, 0x93, 0x2D, 0x64, 0x81, 0x40, 0x83, 0x2D, 0x64, 0x60, 0x93, 0x2B, 0x64, 0x81, 0x00, 0x83, 0x2B, 0x64, 0x40, 0x93, 0x2D, 0x64, 0x40, 0x83, 0x2D, 0x64, 0x20, 0x93, 0x2D, 0x64,
  0x40, 0x83, 0x2D, 0x64, 0x20, 0x93, 0x2D, 0x64, 0x40, 0x83, 0x2D, 0x64, 0x81, 0x00, 0x93, 0x2D, 0x64, 0x81, 0x00, 0x83, 0x2D, 0x64, 0x40, 0x93, 0x2B, 0x64, 0x81, 0x00, 0x83, 0x2B, 0x64, 0x40, 0x93, 0x2D, 0x64, 0x81, 0x40, 0x83, 0x2D, 0x64,
  0x60, 0x93, 0x2D, 0x64, 0x81, 0x40, 0x83, 0x2D, 0x64, 0x60, 0x93, 0x2B, 0x64, 0x81, 0x00, 0x83, 0x2B, 0x64, 0x40, 0x93, 0x2D, 0x64, 0x40, 0x83, 0x2D, 0x64, 0x20, 0x93, 0x2D, 0x64, 0x40, 0x83, 0x2D, 0x64, 0x20, 0x93, 0x2D, 0x64, 0x40, 0x83,
  0x2D, 0x64, 0x81, 0x00, 0x93, 0x2D, 0x64, 0x81, 0x00, 0x83, 0x2D, 0x64, 0x40, 0x93, 0x2B, 0x64, 0x81, 0x00, 0x83, 0x2B, 0x64, 0x40, 0x93, 0x2D, 0x64, 0x81, 0x40, 0x83, 0x2D, 0x64, 0x60, 0x93, 0x2D, 0x64, 0x81, 0x40, 0x83, 0x2D, 0x64, 0x60,
  0x93, 0x2B, 0x64, 0x81, 0x00, 0x83, 0x2B, 0x64, 0x40, 0x93, 0x2D, 0x64, 0x40, 0x83, 0x2D, 0x64, 0x20, 0x93, 0x2D, 0x64, 0x40, 0x83, 0x2D, 0x64, 0x20, 0x93, 0x2D, 0x64, 0x40, 0x83, 0x2D, 0x64, 0x81, 0x00, 0x93, 0x2D, 0x64, 0x81, 0x00, 0x83,
  0x2D, 0x64, 0x40, 0x93, 0x2B, 0x64, 0x81, 0x00, 0x83, 0x2B, 0x64, 0x8C, 0x40, 0x93, 0x2D, 0x64, 0x81, 0x40, 0x83, 0x2D, 0x64, 0x60, 0x93, 0x2D, 0x64, 0x81, 0x40, 0x83, 0x2D, 0x64, 0x60, 0x93, 0x2B, 0x64, 0x81, 0x00, 0x83, 0x2B, 0x64, 0x40,
  0x93, 0x2D, 0x64, 0x40, 0x83, 0x2D, 0x64, 0x20, 0x93, 0x2D, 0x64, 0x40, 0x83, 0x2D, 0x64, 0x20, 0x93, 0x2D, 0x64, 0x40, 0x83, 0x2D, 0x64, 0x81, 0x00, 0x93, 0x2D, 0x64, 0x81, 0x00, 0x83, 0x2D, 0x64, 0x40, 0x93, 0x2B, 0x64, 0x81, 0x00, 0x83,
  0x2B, 0x64, 0x40, 0x93, 0x2D, 0x64, 0x81, 0x40, 0x83, 0x2D, 0x64, 0x60, 0x93, 0x2D, 0x64, 0x81, 0x40, 0x83, 0x2D, 0x64, 0x60, 0x93, 0x2B, 0x64, 0x81, 0x00, 0x83, 0x2B, 0x64, 0x40, 0x93, 0x2D, 0x64, 0x40, 0x83, 0x2D, 0x64, 0x20, 0x93, 0x2D,
  0x64, 0x40, 0x83, 0x2D, 0x64, 0x20, 0x93, 0x2D, 0x64, 0x40, 0x83, 0x2D, 0x64, 0x81, 0x00, 0x93, 0x2D, 0x64, 0x81, 0x00, 0x83, 0x2D, 0x64, 0x40, 0x93, 0x2B, 0x64, 0x81, 0x00, 0x83, 0x2B, 0x64, 0x40, 0x93, 0x2D, 0x64, 0x81, 0x40, 0x83, 0x2D,
  0x64, 0x60, 0x93, 0x2D, 0x64, 0x81, 0x40, 0x83, 0x2D, 0x64, 0x60, 0x93, 0x2B, 0x64, 0x81, 0x00, 0x83, 0x2B, 0x64, 0x40, 0x93, 0x2D, 0x64, 0x40, 0x83, 0x2D, 0x64, 0x20, 0x93, 0x2D, 0x64, 0x40, 0x83, 0x2D, 0x64, 0x20, 0x93, 0x2D, 0x64, 0x40,
  0x83, 0x2D, 0x64, 0x81, 0x00, 0x93, 0x2D, 0x64, 0x81, 0x00, 0x83, 0x2D, 0x64, 0x40, 0x93, 0x2B, 0x64, 0x81, 0x00, 0x83, 0x2B, 0x64, 0x40, 0x93, 0x2D, 0x64, 0x81, 0x40, 0x83, 0x2D, 0x64, 0x60, 0x93, 0x2D, 0x64, 0x81, 0x40, 0x83, 0x2D, 0x64,
  0x60, 0x93, 0x2B, 0x64, 0x81, 0x00, 0x83, 0x2B, 0x64, 0x40, 0x93, 0x2D, 0x64, 0x40, 0x83, 0x2D, 0x64, 0x20, 0x93, 0x2D, 0x64, 0x40, 0x83, 0x2D, 0x64, 0x20, 0x93, 0x2D, 0x64, 0x40, 0x83, 0x2D, 0x64, 0x81, 0x00, 0x93, 0x2D, 0x64, 0x81, 0x00,
  0x83, 0x2D, 0x64, 0x40, 0x93, 0x2B, 0x64, 0x81, 0x00, 0x83, 0x2B, 0x64, 0x40, 0x93, 0x2D, 0x64, 0x81, 0x40, 0x83, 0x2D, 0x64, 0x60, 0x93, 0x2D, 0x64, 0x81, 0x40, 0x83, 0x2D, 0x64, 0x60, 0x93, 0x2B, 0x64, 0x81, 0x00, 0x83, 0x2B, 0x64, 0x40,
  0x93, 0x2D, 0x64, 0x40, 0x83, 0x2D, 0x64, 0x20, 0x93, 0x2D, 0x64, 0x40, 0x83, 0x2D, 0x64, 0x20, 0x93, 0x2D, 0x64, 0x40, 0x83, 0x2D, 0x64, 0x81, 0x00, 0x93, 0x2D, 0x64, 0x81, 0x00, 0x83, 0x2D, 0x64, 0x40, 0x93, 0x2B, 0x64, 0x81, 0x00, 0x83,
  0x2B, 0x64, 0x40, 0x93, 0x2D, 0x64, 0x81, 0x40, 0x83, 0x2D, 0x64, 0x60, 0x93, 0x2D, 0x64, 0x81, 0x40, 0x83, 0x2D, 0x64, 0x60, 0x93, 0x2B, 0x64, 0x81, 0x00, 0x83, 0x2B, 0x64, 0x40, 0x93, 0x2D, 0x64, 0x40, 0x83, 0x2D, 0x64, 0x20, 0x93, 0x2D,
  0x64, 0x40, 0x83, 0x2D, 0x64, 0x20, 0x93, 0x2D, 0x64, 0x40, 0x83, 0x2D, 0x64, 0x81, 0x00, 0x93, 0x2D, 0x64, 0x81, 0x00, 0x83, 0x2D, 0x64, 0x40, 0x93, 0x2B, 0x64, 0x81, 0x00, 0x83, 0x2B, 0x64, 0x40, 0x93, 0x2D, 0x64, 0x81, 0x40, 0x83, 0x2D,
  0x64, 0x60, 0x93, 0x2D, 0x64, 0x81, 0x40, 0x83, 0x2D, 0x64, 0x60, 0x93, 0x2B, 0x64, 0x81, 0x00, 0x83, 0x2B, 0x64, 0x40, 0x93, 0x2D, 0x64, 0x40, 0x83, 0x2D, 0x64, 0x20, 0x93, 0x2D, 0x64, 0x40, 0x83, 0x2D, 0x64, 0x20, 0x93, 0x2D, 0x64, 0x40,
  0x83, 0x2D, 0x64, 0x81, 0x00, 0x93, 0x2D, 0x64, 0x81, 0x00, 0x83, 0x2D, 0x64, 0x40, 0x93, 0x2B, 0x64, 0x81, 0x00, 0x83, 0x2B, 0x64, 0x40, 0x93, 0x2D, 0x64, 0x81, 0x40, 0x83, 0x2D, 0x64, 0x60, 0x93, 0x2D, 0x64, 0x81, 0x40, 0x83, 0x2D, 0x64,
  0x60, 0x93, 0x2B, 0x64, 0x81, 0x00, 0x83, 0x2B, 0x64, 0x40, 0x93, 0x2D, 0x64, 0x40, 0x83, 0x2D, 0x64, 0x20, 0x93, 0x2D, 0x64, 0x40, 0x83, 0x2D, 0x64, 0x20, 0x93, 0x2D, 0x64, 0x40, 0x83, 0x2D, 0x64, 0x81, 0x00, 0x93, 0x2D, 0x64, 0x81, 0x00,
  0x83, 0x2D, 0x64, 0x40, 0x93, 0x2B, 0x64, 0x81, 0x00, 0x83, 0x2B, 0x64, 0xE0, 0x40, 0x93, 0x2D, 0x64, 0x81, 0x40, 0x83, 0x2D, 0x64, 0x60, 0x93, 0x2D, 0x64, 0x81, 0x40, 0x83, 0x2D, 0x64, 0x60, 0x93, 0x2B, 0x64, 0x81, 0x00, 0x83, 0x2B, 0x64,
  0x40, 0x93, 0x2D, 0x64, 0x40, 0x83, 0x2D, 0x64, 0x20, 0x93, 0x2D, 0x64, 0x40, 0x83, 0x2D, 0x64, 0x20, 0x93, 0x2D, 0x64, 0x40, 0x83, 0x2D, 0x64, 0x81, 0x00, 0x93, 0x2D, 0x64, 0x81, 0x00, 0x83, 0x2D, 0x64, 0x40, 0x93, 0x2B, 0x64, 0x81, 0x00,
  0x83, 0x2B, 0x64, 0x40, 0x93, 0x2D, 0x64, 0x81, 0x40, 0x83, 0x2D, 0x64, 0x60, 0x93, 0x2D, 0x64, 0x81, 0x40, 0x83, 0x2D, 0x64, 0x60, 0x93, 0x2B, 0x64, 0x81, 0x00, 0x83, 0x2B, 0x64, 0x40, 0x93, 0x2D, 0x64, 0x40, 0x83, 0x2D, 0x64, 0x20, 0x93,
  0x2D, 0x64, 0x40, 0x83, 0x2D, 0x64, 0x20, 0x93, 0x2D, 0x64, 0x40, 0x83, 0x2D, 0x64, 0x81, 0x00, 0x93, 0x2D, 0x64, 0x81, 0x00, 0x83, 0x2D, 0x64, 0x40, 0x93, 0x2B, 0x64, 0x81, 0x00, 0x83, 0x2B, 0x64, 0x40, 0x93, 0x2D, 0x64, 0x81, 0x40, 0x83,
  0x2D, 0x64, 0x60, 0x93, 0x2D, 0x64, 0x81, 0x40, 0x83, 0x2D, 0x64, 0x60, 0x93, 0x2B, 0x64, 0x81, 0x00, 0x83, 0x2B, 0x64, 0x40, 0x93, 0x2D, 0x64, 0x40, 0x83, 0x2D, 0x64, 0x20, 0x93, 0x2D, 0x64, 0x40, 0x83, 0x2D, 0x64, 0x20, 0x93, 0x2D, 0x64,
  0x40, 0x83, 0x2D, 0x64, 0x81, 0x00, 0x93, 0x2D, 0x64, 0x81, 0x00, 0x83, 0x2D, 0x64, 0x40, 0x93, 0x2B, 0x64, 0x81, 0x00, 0x83, 0x2B, 0x64, 0x40, 0x93, 0x2D, 0x64, 0x81, 0x40, 0x83, 0x2D, 0x64, 0x60, 0x93, 0x2D, 0x64, 0x81, 0x40, 0x83, 0x2D,
  0x64, 0x60, 0x93, 0x2B, 0x64, 0x81, 0x00, 0x83, 0x2B, 0x64, 0x40, 0x93, 0x30, 0x64, 0x40, 0x83, 0x30, 0x64, 0x20, 0x93, 0x30, 0x64, 0x40, 0x83, 0x30, 0x64, 0x20, 0x93, 0x30, 0x64, 0x40, 0x83, 0x30, 0x64, 0x81, 0x00, 0x93, 0x32, 0x64, 0x81,
  0x00, 0x83, 0x32, 0x64, 0x40, 0x93, 0x32, 0x64, 0x81, 0x00, 0x83, 0x32, 0x64, 0x40, 0x93, 0x2D, 0x64, 0x81, 0x40, 0x83, 0x2D, 0x64, 0x60, 0x93, 0x2D, 0x64, 0x81, 0x40, 0x83, 0x2D, 0x64, 0x60, 0x93, 0x2B, 0x64, 0x81, 0x00, 0x83, 0x2B, 0x64,
  0x40, 0x93, 0x2D, 0x64, 0x40, 0x83, 0x2D, 0x64, 0x20, 0x93, 0x2D, 0x64, 0x40, 0x83, 0x2D, 0x64, 0x20, 0x93, 0x2D, 0x64, 0x40, 0x83, 0x2D, 0x64, 0x81, 0x00, 0x93, 0x2D, 0x64, 0x81, 0x00, 0x83, 0x2D, 0x64, 0x40, 0x93, 0x2B, 0x64, 0x81, 0x00,
  0x83, 0x2B, 0x64, 0x40, 0x93, 0x2D, 0x64, 0x81, 0x40, 0x83, 0x2D, 0x64, 0x60, 0x93, 0x2D, 0x64, 0x81, 0x40, 0x83, 0x2D, 0x64, 0x60, 0x93, 0x2B, 0x64, 0x81, 0x00, 0x83, 0x2B, 0x64, 0x40, 0x93, 0x2D, 0x64, 0x40, 0x83, 0x2D, 0x64, 0x20, 0x93,
  0x2D, 0x64, 0x40, 0x83, 0x2D, 0x64, 0x20, 0x93, 0x2D, 0x64, 0x40, 0x83, 0x2D, 0x64, 0x81, 0x00, 0x93, 0x2D, 0x64, 0x81, 0x00, 0x83, 0x2D, 0x64, 0x40, 0x93, 0x2B, 0x64, 0x81, 0x00, 0x83, 0x2B, 0x64, 0x40, 0x93, 0x2D, 0x64, 0x81, 0x40, 0x83,
  0x2D, 0x64, 0x60, 0x93, 0x2D, 0x64, 0x81, 0x40, 0x83, 0x2D, 0x64, 0x60, 0x93, 0x2B, 0x64, 0x81, 0x00, 0x83, 0x2B, 0x64, 0x40, 0x93, 0x2D, 0x64, 0x40, 0x83, 0x2D, 0x64, 0x20, 0x93, 0x2D, 0x64, 0x40, 0x83, 0x2D, 0x64, 0x20, 0x93, 0x2D, 0x64,
  0x40, 0x83, 0x2D, 0x64, 0x81, 0x00, 0x93, 0x2D, 0x64, 0x81, 0x00, 0x83, 0x2D, 0x64, 0x40, 0x93, 0x2B, 0x64, 0x81, 0x00, 0x83, 0x2B, 0x64, 0x40, 0x93, 0x2D, 0x64, 0x81, 0x40, 0x83, 0x2D, 0x64, 0x60, 0x93, 0x2D, 0x64, 0x81, 0x40, 0x83, 0x2D,
  0x64, 0x60, 0x93, 0x2B, 0x64, 0x81, 0x00, 0x83, 0x2B, 0x64, 0x40, 0x93, 0x30, 0x64, 0x40, 0x83, 0x30, 0x64, 0x20, 0x93, 0x30, 0x64, 0x40, 0x83, 0x30, 0x64, 0x20, 0x93, 0x30, 0x64, 0x40, 0x83, 0x30, 0x64, 0x81, 0x00, 0x93, 0x32, 0x64, 0x81,
  0x00, 0x83, 0x32, 0x64, 0x40, 0x93, 0x32, 0x64, 0x81, 0x00, 0x83, 0x32, 0x64, 0x00, 0xFF, 0x2F, 0x00, 0x4D, 0x54, 0x72, 0x6B, 0x00, 0x00, 0x01, 0x9A, 0x00, 0xFF, 0x03, 0x05, 0x20, 0x20, 0x47, 0x75, 0x73, 0x00, 0xB4, 0x00, 0x00, 0x00, 0xC4,
  0x31, 0x00, 0xFF, 0x59, 0x02, 0x00, 0x00, 0x82, 0xAC, 0x00, 0x94, 0x4D, 0x64, 0x00, 0x94, 0x4A, 0x64, 0x00, 0x94, 0x45, 0x64, 0x97, 0x04, 0x84, 0x45, 0x64, 0x00, 0x84, 0x4A, 0x64, 0x00, 0x84, 0x4D, 0x64, 0x7C, 0x94, 0x45, 0x64, 0x00, 0x94,
  0x48, 0x64, 0x00, 0x94, 0x4C, 0x64, 0x97, 0x04, 0x84, 0x45, 0x64, 0x00, 0x84, 0x48, 0x64, 0x00, 0x84, 0x4C, 0x64, 0x7C, 0x94, 0x4A, 0x64, 0x00, 0x94, 0x4D, 0x64, 0x00, 0x94, 0x45, 0x64, 0x97, 0x04, 0x84, 0x45, 0x64, 0x00, 0x84, 0x4A, 0x64,
  0x00, 0x84, 0x4D, 0x64, 0x7C, 0x94, 0x45, 0x64, 0x00, 0x94, 0x48, 0x64, 0x00, 0x94, 0x4C, 0x64, 0x97, 0x04, 0x84, 0x45, 0x64, 0x00, 0x84, 0x48, 0x64, 0x00, 0x84, 0x4C, 0x64, 0x81, 0xC0, 0x7C, 0x94, 0x4D, 0x64, 0x00, 0x94, 0x4A, 0x64, 0x00,
  0x94, 0x45, 0x64, 0x97, 0x04, 0x84, 0x45, 0x64, 0x00, 0x84, 0x4A, 0x64, 0x00, 0x84, 0x4D, 0x64, 0x7C, 0x94, 0x45, 0x64, 0x00, 0x94, 0x48, 0x64, 0x00, 0x94, 0x4C, 0x64, 0x97, 0x04, 0x84, 0x45, 0x64, 0x00, 0x84, 0x48, 0x64, 0x00, 0x84, 0x4C,
  0x64, 0x7C, 0x94, 0x4A, 0x64, 0x00, 0x94, 0x4D, 0x64, 0x00, 0x94, 0x45, 0x64, 0x97, 0x04, 0x84, 0x45, 0x64, 0x00, 0x84, 0x4A, 0x64, 0x00, 0x84, 0x4D, 0x64, 0x7C, 0x94, 0x45, 0x64, 0x00, 0x94, 0x48, 0x64, 0x00, 0x94, 0x4C, 0x64, 0x97, 0x04,
  0x84, 0x45, 0x64, 0x00, 0x84, 0x48, 0x64, 0x00, 0x84, 0x4C, 0x64, 0x81, 0xC0, 0x7C, 0x94, 0x4D, 0x64, 0x00, 0x94, 0x4A, 0x64, 0x00, 0x94, 0x45, 0x64, 0x97, 0x04, 0x84, 0x45, 0x64, 0x00, 0x84, 0x4A, 0x64, 0x00, 0x84, 0x4D, 0x64, 0x7C, 0x94,
  0x45, 0x64, 0x00, 0x94, 0x48, 0x64, 0x00, 0x94, 0x4C, 0x64, 0x97, 0x04, 0x84, 0x45, 0x64, 0x00, 0x84, 0x48, 0x64, 0x00, 0x84, 0x4C, 0x64, 0x7C, 0x94, 0x4A, 0x64, 0x00, 0x94, 0x4D, 0x64, 0x00, 0x94, 0x45, 0x64, 0x97, 0x04, 0x84, 0x45, 0x64,
  0x00, 0x84, 0x4A, 0x64, 0x00, 0x84, 0x4D, 0x64, 0x7C, 0x94, 0x45, 0x64, 0x00, 0x94, 0x48, 0x64, 0x00, 0x94, 0x4C, 0x64, 0x97, 0x04, 0x84, 0x45, 0x64, 0x00, 0x84, 0x48, 0x64, 0x00, 0x84, 0x4C, 0x64, 0x81, 0xCC, 0x7C, 0x94, 0x48, 0x64, 0x00,
  0x94, 0x4C, 0x64, 0x00, 0x94, 0x45, 0x64, 0x8B, 0x04, 0x84, 0x45, 0x64, 0x7C, 0x94, 0x43, 0x64, 0x8B, 0x04, 0x84, 0x48, 0x64, 0x00, 0x84, 0x4C, 0x64, 0x7C, 0x94, 0x4A, 0x64, 0x00, 0x94, 0x47, 0x64, 0x8B, 0x04, 0x84, 0x43, 0x64, 0x00, 0x84,
  0x4A, 0x64, 0x00, 0x84, 0x47, 0x64, 0x7C, 0x94, 0x48, 0x64, 0x00, 0x94, 0x45, 0x64, 0x00, 0x94, 0x41, 0x64, 0x8B, 0x04, 0x84, 0x48, 0x64, 0x00, 0x84, 0x45, 0x64, 0x00, 0x84, 0x41, 0x64, 0x00, 0xFF, 0x2F, 0x00, 0x4D, 0x54, 0x72, 0x6B, 0x00,
  0x00, 0x0A, 0x43, 0x00, 0xFF, 0x03, 0x06, 0x20, 0x5A, 0x61, 0x6E, 0x64, 0x74, 0x00, 0xB5, 0x00, 0x00, 0x00, 0xC5, 0x51, 0x00, 0xFF, 0x59, 0x02, 0x00, 0x00, 0x8C, 0x00, 0x95, 0x39, 0x7F, 0x81, 0x00, 0x85, 0x39, 0x64, 0x40, 0x95, 0x39, 0x7F,
  0x81, 0x00, 0x85, 0x39, 0x64, 0x40, 0x95, 0x3C, 0x7F, 0x81, 0x00, 0x85, 0x3C, 0x64, 0x40, 0x95, 0x39, 0x7F, 0x81, 0x00, 0x85, 0x39, 0x64, 0x40, 0x95, 0x3E, 0x7F, 0x81, 0x00, 0x85, 0x3E, 0x64, 0x40, 0x95, 0x39, 0x7F, 0x81, 0x00, 0x85, 0x39,
  0x64, 0x40, 0x95, 0x40, 0x7F, 0x81, 0x00, 0x85, 0x40, 0x64, 0x40, 0x95, 0x3E, 0x7F, 0x81, 0x00, 0x85, 0x3E, 0x64, 0x40, 0x95, 0x3C, 0x7F, 0x81, 0x00, 0x85, 0x3C, 0x64, 0x40, 0x95, 0x3C, 0x7F, 0x81, 0x00, 0x85, 0x3C, 0x64, 0x40, 0x95, 0x40,
  0x7F, 0x81, 0x00, 0x85, 0x40, 0x64, 0x40, 0x95, 0x3C, 0x7F, 0x81, 0x00, 0x85, 0x3C, 0x64, 0x40, 0x95, 0x43, 0x7F, 0x81, 0x00, 0x85, 0x43, 0x64, 0x40, 0x95, 0x3C, 0x7F, 0x81, 0x00, 0x85, 0x3C, 0x64, 0x40, 0x95, 0x40, 0x7F, 0x81, 0x00, 0x85,
  0x40, 0x64, 0x40, 0x95, 0x3C, 0x7F, 0x81, 0x00, 0x85, 0x3C, 0x64, 0x40, 0x95, 0x37, 0x7F, 0x81, 0x00, 0x85, 0x37, 0x64, 0x40, 0x95, 0x37, 0x7F, 0x81, 0x00, 0x85, 0x37, 0x64, 0x40, 0x95, 0x3B, 0x7F, 0x81, 0x00, 0x85, 0x3B, 0x64, 0x40, 0x95,
  0x37, 0x7F, 0x81, 0x00, 0x85, 0x37, 0x64, 0x40, 0x95, 0x3C, 0x7F, 0x81, 0x00, 0x85, 0x3C, 0x64, 0x40, 0x95, 0x37, 0x7F, 0x81, 0x00, 0x85, 0x37, 0x64, 0x40, 0x95, 0x3E, 0x7F, 0x81, 0x00, 0x85, 0x3E, 0x64, 0x40, 0x95, 0x3C, 0x7F, 0x81, 0x00,
  0x85, 0x3C, 0x64, 0x40, 0x95, 0x35, 0x7F, 0x81, 0x00, 0x85, 0x35, 0x64, 0x40, 0x95, 0x35, 0x7F, 0x81, 0x00, 0x85, 0x35, 0x64, 0x40, 0x95, 0x39, 0x7F, 0x81, 0x00, 0x85, 0x39, 0x64, 0x40, 0x95, 0x35, 0x7F, 0x81, 0x00, 0x85, 0x35, 0x64, 0x40,
  0x95, 0x3C, 0x7F, 0x81, 0x00, 0x85, 0x3C, 0x64, 0x40, 0x95, 0x35, 0x7F, 0x81, 0x00, 0x85, 0x35, 0x64, 0x40, 0x95, 0x3C, 0x7F, 0x81, 0x00, 0x85, 0x3C, 0x64, 0x40, 0x95, 0x3B, 0x7F, 0x81, 0x00, 0x85, 0x3B, 0x64, 0x40, 0x95, 0x39, 0x7F, 0x81,
  0x00, 0x85, 0x39, 0x64, 0x40, 0x95, 0x39, 0x7F, 0x81, 0x00, 0x85, 0x39, 0x64, 0x40, 0x95, 0x3C, 0x7F, 0x81, 0x00, 0x85, 0x3C, 0x64, 0x40, 0x95, 0x39, 0x7F, 0x81, 0x00, 0x85, 0x39, 0x64, 0x40, 0x95, 0x3E, 0x7F, 0x81, 0x00, 0x85, 0x3E, 0x64,
  0x40, 0x95, 0x39, 0x7F, 0x81, 0x00, 0x85, 0x39, 0x64, 0x40, 0x95, 0x40, 0x7F, 0x81, 0x00, 0x85, 0x40, 0x64, 0x40, 0x95, 0x3E, 0x7F, 0x81, 0x00, 0x85, 0x3E, 0x64, 0x40, 0x95, 0x3C, 0x7F, 0x81, 0x00, 0x85, 0x3C, 0x64, 0x40, 0x95, 0x3C, 0x7F,
  0x81, 0x00, 0x85, 0x3C, 0x64, 0x40, 0x95, 0x40, 0x7F, 0x81, 0x00, 0x85, 0x40, 0x64, 0x40, 0x95, 0x3C, 0x7F, 0x81, 0x00, 0x85, 0x3C, 0x64, 0x40, 0x95, 0x43, 0x7F, 0x81, 0x00, 0x85, 0x43, 0x64, 0x40, 0x95, 0x3C, 0x7F, 0x81, 0x00, 0x85, 0x3C,
  0x64, 0x40, 0x95, 0x40, 0x7F, 0x81, 0x00, 0x85, 0x40, 0x64, 0x40, 0x95, 0x3C, 0x7F, 0x81, 0x00, 0x85, 0x3C, 0x64, 0x40, 0x95, 0x37, 0x7F, 0x81, 0x00, 0x85, 0x37, 0x64, 0x40, 0x95, 0x37, 0x7F, 0x81, 0x00, 0x85, 0x37, 0x64, 0x40, 0x95, 0x3B,
  0x7F, 0x81, 0x00, 0x85, 0x3B, 0x64, 0x40, 0x95, 0x37, 0x7F, 0x81, 0x00, 0x85, 0x37, 0x64, 0x40, 0x95, 0x3C, 0x7F, 0x81, 0x00, 0x85, 0x3C, 0x64, 0x40, 0x95, 0x37, 0x7F, 0x81, 0x00, 0x85, 0x37, 0x64, 0x40, 0x95, 0x3E, 0x7F, 0x81, 0x00, 0x85,
  0x3E, 0x64, 0x40, 0x95, 0x3C, 0x7F, 0x81, 0x00, 0x85, 0x3C, 0x64, 0x40, 0x95, 0x35, 0x7F, 0x81, 0x00, 0x85, 0x35, 0x64, 0x40, 0x95, 0x35, 0x7F, 0x81, 0x00, 0x85, 0x35, 0x64, 0x40, 0x95, 0x39, 0x7F, 0x81, 0x00, 0x85, 0x39, 0x64, 0x40, 0x95,
  0x35, 0x7F, 0x81, 0x00, 0x85, 0x35, 0x64, 0x40, 0x95, 0x3C, 0x7F, 0x81, 0x00, 0x85, 0x3C, 0x64, 0x40, 0x95, 0x35, 0x7F, 0x81, 0x00, 0x85, 0x35, 0x64, 0x40, 0x95, 0x3C, 0x7F, 0x81, 0x00, 0x85, 0x3C, 0x64, 0x40, 0x95, 0x3B, 0x7F, 0x81, 0x00,
  0x85, 0x3B, 0x64, 0x82, 0xA0, 0x40, 0x95, 0x39, 0x7F, 0x81, 0x00, 0x85, 0x39, 0x64, 0x40, 0x95, 0x39, 0x7F, 0x81, 0x00, 0x85, 0x39, 0x64, 0x40, 0x95, 0x3C, 0x7F, 0x81, 0x00, 0x85, 0x3C, 0x64, 0x40, 0x95, 0x39, 0x7F, 0x81, 0x00, 0x85, 0x39,
  0x64, 0x40, 0x95, 0x3E, 0x7F, 0x81, 0x00, 0x85, 0x3E, 0x64, 0x40, 0x95, 0x39, 0x7F, 0x81, 0x00, 0x85, 0x39, 0x64, 0x40, 0x95, 0x40, 0x7F, 0x81, 0x00, 0x85, 0x40, 0x64, 0x40, 0x95, 0x3E, 0x7F, 0x81, 0x00, 0x85, 0x3E, 0x64, 0x40, 0x95, 0x3C,
  0x7F, 0x81, 0x00, 0x85, 0x3C, 0x64, 0x40, 0x95, 0x3C, 0x7F, 0x81, 0x00, 0x85, 0x3C, 0x64, 0x40, 0x95, 0x40, 0x7F, 0x81, 0x00, 0x85, 0x40, 0x64, 0x40, 0x95, 0x3C, 0x7F, 0x81, 0x00, 0x85, 0x3C, 0x64, 0x40, 0x95, 0x43, 0x7F, 0x81, 0x00, 0x85,
  0x43, 0x64, 0x40, 0x95, 0x3C, 0x7F, 0x81, 0x00, 0x85, 0x3C, 0x64, 0x40, 0x95, 0x40, 0x7F, 0x81, 0x00, 0x85, 0x40, 0x64, 0x40, 0x95, 0x3C, 0x7F, 0x81, 0x00, 0x85, 0x3C, 0x64, 0x40, 0x95, 0x37, 0x7F, 0x81, 0x00, 0x85, 0x37, 0x64, 0x40, 0x95,
  0x37, 0x7F, 0x81, 0x00, 0x85, 0x37, 0x64, 0x40, 0x95, 0x3B, 0x7F, 0x81, 0x00, 0x85, 0x3B, 0x64, 0x40, 0x95, 0x37, 0x7F, 0x81, 0x00, 0x85, 0x37, 0x64, 0x40, 0x95, 0x3C, 0x7F, 0x81, 0x00, 0x85, 0x3C, 0x64, 0x40, 0x95, 0x37, 0x7F, 0x81, 0x00,
  0x85, 0x37, 0x64, 0x40, 0x95, 0x3E, 0x7F, 0x81, 0x00, 0x85, 0x3E, 0x64, 0x40, 0x95, 0x3C, 0x7F, 0x81, 0x00, 0x85, 0x3C, 0x64, 0x40, 0x95, 0x35, 0x7F, 0x81, 0x00, 0x85, 0x35, 0x64, 0x40, 0x95, 0x35, 0x7F, 0x81, 0x00, 0x85, 0x35, 0x64, 0x40,
  0x95, 0x39, 0x7F, 0x81, 0x00, 0x85, 0x39, 0x64, 0x40, 0x95, 0x35, 0x7F, 0x81, 0x00, 0x85, 0x35, 0x64, 0x40, 0x95, 0x3C, 0x7F, 0x81, 0x00, 0x85, 0x3C, 0x64, 0x40, 0x95, 0x35, 0x7F, 0x81, 0x00, 0x85, 0x35, 0x64, 0x40, 0x95, 0x3C, 0x7F, 0x81,
  0x00, 0x85, 0x3C, 0x64, 0x40, 0x95, 0x3B, 0x7F, 0x81, 0x00, 0x85, 0x3B, 0x64, 0x81, 0xF0, 0x40, 0x95, 0x39, 0x7F, 0x81, 0x00, 0x85, 0x39, 0x64, 0x40, 0x95, 0x39, 0x7F, 0x81, 0x00, 0x85, 0x39, 0x64, 0x40, 0x95, 0x3C, 0x7F, 0x81, 0x00, 0x85,
  0x3C, 0x64, 0x40, 0x95, 0x39, 0x7F, 0x81, 0x00, 0x85, 0x39, 0x64, 0x40, 0x95, 0x3E, 0x7F, 0x81, 0x00, 0x85, 0x3E, 0x64, 0x40, 0x95, 0x39, 0x7F, 0x81, 0x00, 0x85, 0x39, 0x64, 0x40, 0x95, 0x40, 0x7F, 0x81, 0x00, 0x85, 0x40, 0x64, 0x40, 0x95,
  0x3E, 0x7F, 0x81, 0x00, 0x85, 0x3E, 0x64, 0x40, 0x95, 0x3C, 0x7F, 0x81, 0x00, 0x85, 0x3C, 0x64, 0x40, 0x95, 0x3C, 0x7F, 0x81, 0x00, 0x85, 0x3C, 0x64, 0x40, 0x95, 0x40, 0x7F, 0x81, 0x00, 0x85, 0x40, 0x64, 0x40, 0x95, 0x3C, 0x7F, 0x81, 0x00,
  0x85, 0x3C, 0x64, 0x40, 0x95, 0x43, 0x7F, 0x81, 0x00, 0x85, 0x43, 0x64, 0x40, 0x95, 0x3C, 0x7F, 0x81, 0x00, 0x85, 0x3C, 0x64, 0x40, 0x95, 0x40, 0x7F, 0x81, 0x00, 0x85, 0x40, 0x64, 0x40, 0x95, 0x3C, 0x7F, 0x81, 0x00, 0x85, 0x3C, 0x64, 0x40,
  0x95, 0x37, 0x7F, 0x81, 0x00, 0x85, 0x37, 0x64, 0x40, 0x95, 0x37, 0x7F, 0x81, 0x00, 0x85, 0x37, 0x64, 0x40, 0x95, 0x3B, 0x7F, 0x81, 0x00, 0x85, 0x3B, 0x64, 0x40, 0x95, 0x37, 0x7F, 0x81, 0x00, 0x85, 0x37, 0x64, 0x40, 0x95, 0x3C, 0x7F, 0x81,
  0x00, 0x85, 0x3C, 0x64, 0x40, 0x95, 0x37, 0x7F, 0x81, 0x00, 0x85, 0x37, 0x64, 0x40, 0x95, 0x3E, 0x7F, 0x81, 0x00, 0x85, 0x3E, 0x64, 0x40, 0x95, 0x3C, 0x7F, 0x81, 0x00, 0x85, 0x3C, 0x64, 0x40, 0x95, 0x35, 0x7F, 0x81, 0x00, 0x85, 0x35, 0x64,
  0x40, 0x95, 0x35, 0x7F, 0x81, 0x00, 0x85, 0x35, 0x64, 0x40, 0x95, 0x39, 0x7F, 0x81, 0x00, 0x85, 0x39, 0x64, 0x40, 0x95, 0x35, 0x7F, 0x81, 0x00, 0x85, 0x35, 0x64, 0x40, 0x95, 0x3C, 0x7F, 0x81, 0x00, 0x85, 0x3C, 0x64, 0x40, 0x95, 0x35, 0x7F,
  0x81, 0x00, 0x85, 0x35, 0x64, 0x40, 0x95, 0x3C, 0x7F, 0x81, 0x00, 0x85, 0x3C, 0x64, 0x40, 0x95, 0x3B, 0x7F, 0x81, 0x00, 0x85, 0x3B, 0x64, 0x40, 0x95, 0x39, 0x7F, 0x81, 0x00, 0x85, 0x39, 0x64, 0x40, 0x95, 0x39, 0x7F, 0x81, 0x00, 0x85, 0x39,
  0x64, 0x40, 0x95, 0x3C, 0x7F, 0x81, 0x00, 0x85, 0x3C, 0x64, 0x40, 0x95, 0x39, 0x7F, 0x81, 0x00, 0x85, 0x39, 0x64, 0x40, 0x95, 0x3E, 0x7F, 0x81, 0x00, 0x85, 0x3E, 0x64, 0x40, 0x95, 0x39, 0x7F, 0x81, 0x00, 0x85, 0x39, 0x64, 0x40, 0x95, 0x40,
  0x7F, 0x81, 0x00, 0x85, 0x40, 0x64, 0x40, 0x95, 0x3E, 0x7F, 0x81, 0x00, 0x85, 0x3E, 0x64, 0x40, 0x95, 0x3C, 0x7F, 0x81, 0x00, 0x85, 0x3C, 0x64, 0x40, 0x95, 0x3C, 0x7F, 0x81, 0x00, 0x85, 0x3C, 0x64, 0x40, 0x95, 0x40, 0x7F, 0x81, 0x00, 0x85,
  0x40, 0x64, 0x40, 0x95, 0x3C, 0x7F, 0x81, 0x00, 0x85, 0x3C, 0x64, 0x40, 0x95, 0x43, 0x7F, 0x81, 0x00, 0x85, 0x43, 0x64, 0x40, 0x95, 0x3C, 0x7F, 0x81, 0x00, 0x85, 0x3C, 0x64, 0x40, 0x95, 0x40, 0x7F, 0x81, 0x00, 0x85, 0x40, 0x64, 0x40, 0x95,
  0x3C, 0x7F, 0x81, 0x00, 0x85, 0x3C, 0x64, 0x40, 0x95, 0x37, 0x7F, 0x81, 0x00, 0x85, 0x37, 0x64, 0x40, 0x95, 0x37, 0x7F, 0x81, 0x00, 0x85, 0x37, 0x64, 0x40, 0x95, 0x3B, 0x7F, 0x81, 0x00, 0x85, 0x3B, 0x64, 0x40, 0x95, 0x37, 0x7F, 0x81, 0x00,
  0x85, 0x37, 0x64, 0x40, 0x95, 0x3C, 0x7F, 0x81, 0x00, 0x85, 0x3C, 0x64, 0x40, 0x95, 0x37, 0x7F, 0x81, 0x00, 0x85, 0x37, 0x64, 0x40, 0x95, 0x3E, 0x7F, 0x81, 0x00, 0x85, 0x3E, 0x64, 0x40, 0x95, 0x3C, 0x7F, 0x81, 0x00, 0x85, 0x3C, 0x64, 0x40,
  0x95, 0x35, 0x7F, 0x81, 0x00, 0x85, 0x35, 0x64, 0x40, 0x95, 0x35, 0x7F, 0x81, 0x00, 0x85, 0x35, 0x64, 0x40, 0x95, 0x39, 0x7F, 0x81, 0x00, 0x85, 0x39, 0x64, 0x40, 0x95, 0x35, 0x7F, 0x81, 0x00, 0x85, 0x35, 0x64, 0x40, 0x95, 0x3C, 0x7F, 0x81,
  0x00, 0x85, 0x3C, 0x64, 0x40, 0x95, 0x35, 0x7F, 0x81, 0x00, 0x85, 0x35, 0x64, 0x40, 0x95, 0x3C, 0x7F, 0x81, 0x00, 0x85, 0x3C, 0x64, 0x40, 0x95, 0x3B, 0x7F, 0x81, 0x00, 0x85, 0x3B, 0x64, 0x81, 0xC0, 0x40, 0x95, 0x39, 0x7F, 0x81, 0x00, 0x85,
  0x39, 0x64, 0x40, 0x95, 0x39, 0x7F, 0x81, 0x00, 0x85, 0x39, 0x64, 0x40, 0x95, 0x3C, 0x7F, 0x81, 0x00, 0x85, 0x3C, 0x64, 0x40, 0x95, 0x39, 0x7F, 0x81, 0x00, 0x85, 0x39, 0x64, 0x40, 0x95, 0x3E, 0x7F, 0x81, 0x00, 0x85, 0x3E, 0x64, 0x40, 0x95,
  0x39, 0x7F, 0x81, 0x00, 0x85, 0x39, 0x64, 0x40, 0x95, 0x40, 0x7F, 0x81, 0x00, 0x85, 0x40, 0x64, 0x40, 0x95, 0x3E, 0x7F, 0x81, 0x00, 0x85, 0x3E, 0x64, 0x40, 0x95, 0x3C, 0x7F, 0x81, 0x00, 0x85, 0x3C, 0x64, 0x40, 0x95, 0x3C, 0x7F, 0x81, 0x00,
  0x85, 0x3C, 0x64, 0x40, 0x95, 0x40, 0x7F, 0x81, 0x00, 0x85, 0x40, 0x64, 0x40, 0x95, 0x3C, 0x7F, 0x81, 0x00, 0x85, 0x3C, 0x64, 0x40, 0x95, 0x43, 0x7F, 0x81, 0x00, 0x85, 0x43, 0x64, 0x40, 0x95, 0x3C, 0x7F, 0x81, 0x00, 0x85, 0x3C, 0x64, 0x40,
  0x95, 0x40, 0x7F, 0x81, 0x00, 0x85, 0x40, 0x64, 0x40, 0x95, 0x3C, 0x7F, 0x81, 0x00, 0x85, 0x3C, 0x64, 0x40, 0x95, 0x37, 0x7F, 0x81, 0x00, 0x85, 0x37, 0x64, 0x40, 0x95, 0x37, 0x7F, 0x81, 0x00, 0x85, 0x37, 0x64, 0x40, 0x95, 0x3B, 0x7F, 0x81,
  0x00, 0x85, 0x3B, 0x64, 0x40, 0x95, 0x37, 0x7F, 0x81, 0x00, 0x85, 0x37, 0x64, 0x40, 0x95, 0x3C, 0x7F, 0x81, 0x00, 0x85, 0x3C, 0x64, 0x40, 0x95, 0x37, 0x7F, 0x81, 0x00, 0x85, 0x37, 0x64, 0x40, 0x95, 0x3E, 0x7F, 0x81, 0x00, 0x85, 0x3E, 0x64,
  0x40, 0x95, 0x3C, 0x7F, 0x81, 0x00, 0x85, 0x3C, 0x64, 0x40, 0x95, 0x35, 0x7F, 0x81, 0x00, 0x85, 0x35, 0x64, 0x40, 0x95, 0x35, 0x7F, 0x81, 0x00, 0x85, 0x35, 0x64, 0x40, 0x95, 0x39, 0x7F, 0x81, 0x00, 0x85, 0x39, 0x64, 0x40, 0x95, 0x35, 0x7F,
  0x81, 0x00, 0x85, 0x35, 0x64, 0x40, 0x95, 0x3C, 0x7F, 0x81, 0x00, 0x85, 0x3C, 0x64, 0x40, 0x95, 0x35, 0x7F, 0x81, 0x00, 0x85, 0x35, 0x64, 0x40, 0x95, 0x3C, 0x7F, 0x81, 0x00, 0x85, 0x3C, 0x64, 0x40, 0x95, 0x3B, 0x7F, 0x81, 0x00, 0x85, 0x3B,
  0x64, 0x40, 0x95, 0x39, 0x7F, 0x81, 0x00, 0x85, 0x39, 0x64, 0x40, 0x95, 0x39, 0x7F, 0x81, 0x00, 0x85, 0x39, 0x64, 0x40, 0x95, 0x3C, 0x7F, 0x81, 0x00, 0x85, 0x3C, 0x64, 0x40, 0x95, 0x39, 0x7F, 0x81, 0x00, 0x85, 0x39, 0x64, 0x40, 0x95, 0x3E,
  0x7F, 0x81, 0x00, 0x85, 0x3E, 0x64, 0x40, 0x95, 0x39, 0x7F, 0x81, 0x00, 0x85, 0x39, 0x64, 0x40, 0x95, 0x40, 0x7F, 0x81, 0x00, 0x85, 0x40, 0x64, 0x40, 0x95, 0x3E, 0x7F, 0x81, 0x00, 0x85, 0x3E, 0x64, 0x40, 0x95, 0x3C, 0x7F, 0x81, 0x00, 0x85,
  0x3C, 0x64, 0x40, 0x95, 0x3C, 0x7F, 0x81, 0x00, 0x85, 0x3C, 0x64, 0x40, 0x95, 0x40, 0x7F, 0x81, 0x00, 0x85, 0x40, 0x64, 0x40, 0x95, 0x3C, 0x7F, 0x81, 0x00, 0x85, 0x3C, 0x64, 0x40, 0x95, 0x43, 0x7F, 0x81, 0x00, 0x85, 0x43, 0x64, 0x40, 0x95,
  0x3C, 0x7F, 0x81, 0x00, 0x85, 0x3C, 0x64, 0x40, 0x95, 0x40, 0x7F, 0x81, 0x00, 0x85, 0x40, 0x64, 0x40, 0x95, 0x3C, 0x7F, 0x81, 0x00, 0x85, 0x3C, 0x64, 0x40, 0x95, 0x37, 0x7F, 0x81, 0x00, 0x85, 0x37, 0x64, 0x40, 0x95, 0x37, 0x7F, 0x81, 0x00,
  0x85, 0x37, 0x64, 0x40, 0x95, 0x3B, 0x7F, 0x81, 0x00, 0x85, 0x3B, 0x64, 0x40, 0x95, 0x37, 0x7F, 0x81, 0x00, 0x85, 0x37, 0x64, 0x40, 0x95, 0x3C, 0x7F, 0x81, 0x00, 0x85, 0x3C, 0x64, 0x40, 0x95, 0x37, 0x7F, 0x81, 0x00, 0x85, 0x37, 0x64, 0x40,
  0x95, 0x3E, 0x7F, 0x81, 0x00, 0x85, 0x3E, 0x64, 0x40, 0x95, 0x3C, 0x7F, 0x81, 0x00, 0x85, 0x3C, 0x64, 0x40, 0x95, 0x35, 0x7F, 0x81, 0x00, 0x85, 0x35, 0x64, 0x40, 0x95, 0x35, 0x7F, 0x81, 0x00, 0x85, 0x35, 0x64, 0x40, 0x95, 0x39, 0x7F, 0x81,
  0x00, 0x85, 0x39, 0x64, 0x40, 0x95, 0x35, 0x7F, 0x81, 0x00, 0x85, 0x35, 0x64, 0x40, 0x95, 0x3C, 0x7F, 0x81, 0x00, 0x85, 0x3C, 0x64, 0x40, 0x95, 0x35, 0x7F, 0x81, 0x00, 0x85, 0x35, 0x64, 0x40, 0x95, 0x3C, 0x7F, 0x81, 0x00, 0x85, 0x3C, 0x64,
  0x40, 0x95, 0x3B, 0x7F, 0x81, 0x00, 0x85, 0x3B, 0x64, 0xEC, 0x40, 0x95, 0x39, 0x7F, 0x81, 0x00, 0x85, 0x39, 0x23, 0x40, 0x95, 0x39, 0x7F, 0x81, 0x00, 0x85, 0x39, 0x23, 0x40, 0x95, 0x3C, 0x7F, 0x81, 0x00, 0x85, 0x3C, 0x23, 0x40, 0x95, 0x39,
  0x7F, 0x81, 0x00, 0x85, 0x39, 0x23, 0x40, 0x95, 0x3E, 0x7F, 0x81, 0x00, 0x85, 0x3E, 0x23, 0x40, 0x95, 0x39, 0x7F, 0x81, 0x00, 0x85, 0x39, 0x23, 0x40, 0x95, 0x40, 0x7F, 0x81, 0x00, 0x85, 0x40, 0x23, 0x40, 0x95, 0x3E, 0x7F, 0x81, 0x00, 0x85,
  0x3E, 0x23, 0x40, 0x95, 0x3C, 0x7F, 0x81, 0x00, 0x85, 0x3C, 0x23, 0x40, 0x95, 0x3C, 0x7F, 0x81, 0x00, 0x85, 0x3C, 0x23, 0x40, 0x95, 0x40, 0x7F, 0x81, 0x00, 0x85, 0x40, 0x23, 0x40, 0x95, 0x3C, 0x7F, 0x81, 0x00, 0x85, 0x3C, 0x23, 0x40, 0x95,
  0x43, 0x7F, 0x81, 0x00, 0x85, 0x43, 0x23, 0x40, 0x95, 0x3C, 0x7F, 0x81, 0x00, 0x85, 0x3C, 0x23, 0x40, 0x95, 0x40, 0x7F, 0x81, 0x00, 0x85, 0x40, 0x23, 0x40, 0x95, 0x3C, 0x7F, 0x81, 0x00, 0x85, 0x3C, 0x23, 0x40, 0x95, 0x37, 0x7F, 0x81, 0x00,
  0x85, 0x37, 0x23, 0x40, 0x95, 0x37, 0x7F, 0x81, 0x00, 0x85, 0x37, 0x23, 0x40, 0x95, 0x3B, 0x7F, 0x81, 0x00, 0x85, 0x3B, 0x23, 0x40, 0x95, 0x37, 0x7F, 0x81, 0x00, 0x85, 0x37, 0x23, 0x40, 0x95, 0x3C, 0x7F, 0x81, 0x00, 0x85, 0x3C, 0x23, 0x40,
  0x95, 0x37, 0x7F, 0x81, 0x00, 0x85, 0x37, 0x23, 0x40, 0x95, 0x3E, 0x7F, 0x81, 0x00, 0x85, 0x3E, 0x23, 0x40, 0x95, 0x3C, 0x7F, 0x81, 0x00, 0x85, 0x3C, 0x23, 0x40, 0x95, 0x35, 0x7F, 0x81, 0x00, 0x85, 0x35, 0x23, 0x40, 0x95, 0x35, 0x7F, 0x81,
  0x00, 0x85, 0x35, 0x23, 0x40, 0x95, 0x39, 0x7F, 0x81, 0x00, 0x85, 0x39, 0x23, 0x40, 0x95, 0x35, 0x7F, 0x81, 0x00, 0x85, 0x35, 0x23, 0x40, 0x95, 0x3C, 0x7F, 0x81, 0x00, 0x85, 0x3C, 0x23, 0x40, 0x95, 0x35, 0x7F, 0x81, 0x00, 0x85, 0x35, 0x23,
  0x40, 0x95, 0x3C, 0x7F, 0x81, 0x00, 0x85, 0x3C, 0x23, 0x40, 0x95, 0x3B, 0x7F, 0x81, 0x00, 0x85, 0x3B, 0x23, 0x40, 0x95, 0x39, 0x7F, 0x81, 0x00, 0x85, 0x39, 0x23, 0x40, 0x95, 0x39, 0x7F, 0x81, 0x00, 0x85, 0x39, 0x23, 0x40, 0x95, 0x3C, 0x7F,
  0x81, 0x00, 0x85, 0x3C, 0x23, 0x40, 0x95, 0x39, 0x7F, 0x81, 0x00, 0x85, 0x39, 0x23, 0x40, 0x95, 0x3E, 0x7F, 0x81, 0x00, 0x85, 0x3E, 0x23, 0x40, 0x95, 0x39, 0x7F, 0x81, 0x00, 0x85, 0x39, 0x23, 0x40, 0x95, 0x40, 0x7F, 0x81, 0x00, 0x85, 0x40,
  0x23, 0x40, 0x95, 0x3E, 0x7F, 0x81, 0x00, 0x85, 0x3E, 0x23, 0x40, 0x95, 0x3C, 0x7F, 0x81, 0x00, 0x85, 0x3C, 0x23, 0x40, 0x95, 0x3C, 0x7F, 0x81, 0x00, 0x85, 0x3C, 0x23, 0x40, 0x95, 0x40, 0x7F, 0x81, 0x00, 0x85, 0x40, 0x23, 0x40, 0x95, 0x3C,
  0x7F, 0x81, 0x00, 0x85, 0x3C, 0x23, 0x40, 0x95, 0x43, 0x7F, 0x81, 0x00, 0x85, 0x43, 0x23, 0x40, 0x95, 0x3C, 0x7F, 0x81, 0x00, 0x85, 0x3C, 0x23, 0x40, 0x95, 0x40, 0x7F, 0x81, 0x00, 0x85, 0x40, 0x23, 0x40, 0x95, 0x3C, 0x7F, 0x81, 0x00, 0x85,
  0x3C, 0x23, 0x40, 0x95, 0x37, 0x7F, 0x81, 0x00, 0x85, 0x37, 0x23, 0x40, 0x95, 0x37, 0x7F, 0x81, 0x00, 0x85, 0x37, 0x23, 0x40, 0x95, 0x3B, 0x7F, 0x81, 0x00, 0x85, 0x3B, 0x23, 0x40, 0x95, 0x37, 0x7F, 0x81, 0x00, 0x85, 0x37, 0x23, 0x40, 0x95,
  0x3C, 0x7F, 0x81, 0x00, 0x85, 0x3C, 0x23, 0x40, 0x95, 0x37, 0x7F, 0x81, 0x00, 0x85, 0x37, 0x23, 0x40, 0x95, 0x3E, 0x7F, 0x81, 0x00, 0x85, 0x3E, 0x23, 0x40, 0x95, 0x3C, 0x7F, 0x81, 0x00, 0x85, 0x3C, 0x23, 0x40, 0x95, 0x35, 0x7F, 0x81, 0x00,
  0x85, 0x35, 0x23, 0x40, 0x95, 0x35, 0x7F, 0x81, 0x00, 0x85, 0x35, 0x23, 0x40, 0x95, 0x39, 0x7F, 0x81, 0x00, 0x85, 0x39, 0x23, 0x40, 0x95, 0x35, 0x7F, 0x81, 0x00, 0x85, 0x35, 0x23, 0x40, 0x95, 0x3C, 0x7F, 0x81, 0x00, 0x85, 0x3C, 0x23, 0x40,
  0x95, 0x35, 0x7F, 0x81, 0x00, 0x85, 0x35, 0x23, 0x40, 0x95, 0x3C, 0x7F, 0x81, 0x00, 0x85, 0x3C, 0x23, 0x40, 0x95, 0x3B, 0x7F, 0x81, 0x00, 0x85, 0x3B, 0x23, 0x00, 0xFF, 0x2F, 0x00, 0x4D, 0x54, 0x72, 0x6B, 0x00, 0x00, 0x06, 0xD2, 0x00, 0xB6,
  0x00, 0x00, 0x00, 0xC6, 0x76, 0x00, 0xFF, 0x59, 0x02, 0x00, 0x00, 0x81, 0x9D, 0x40, 0x96, 0x48, 0x64, 0x81, 0x00, 0x86, 0x48, 0x64, 0x40, 0x96, 0x48, 0x64, 0x82, 0x00, 0x86, 0x48, 0x64, 0x81, 0x00, 0x96, 0x48, 0x64, 0x81, 0x40, 0x86, 0x48,
  0x64, 0x60, 0x96, 0x48, 0x64, 0x81, 0x40, 0x86, 0x48, 0x64, 0x60, 0x96, 0x48, 0x64, 0x40, 0x86, 0x48, 0x64, 0x20, 0x96, 0x48, 0x64, 0x40, 0x86, 0x48, 0x64, 0x81, 0x60, 0x96, 0x48, 0x64, 0x81, 0x00, 0x86, 0x48, 0x64, 0x40, 0x96, 0x48, 0x64,
  0x82, 0x00, 0x86, 0x48, 0x64, 0x81, 0x00, 0x96, 0x48, 0x64, 0x81, 0x40, 0x86, 0x48, 0x64, 0x60, 0x96, 0x48, 0x64, 0x81, 0x40, 0x86, 0x48, 0x64, 0x60, 0x96, 0x48, 0x64, 0x40, 0x86, 0x48, 0x64, 0x20, 0x96, 0x48, 0x64, 0x40, 0x86, 0x48, 0x64,
  0x81, 0x60, 0x96, 0x48, 0x64, 0x81, 0x00, 0x86, 0x48, 0x64, 0x40, 0x96, 0x48, 0x64, 0x82, 0x00, 0x86, 0x48, 0x64, 0x81, 0x00, 0x96, 0x48, 0x64, 0x81, 0x40, 0x86, 0x48, 0x64, 0x60, 0x96, 0x48, 0x64, 0x81, 0x40, 0x86, 0x48, 0x64, 0x60, 0x96,
  0x48, 0x64, 0x40, 0x86, 0x48, 0x64, 0x20, 0x96, 0x48, 0x64, 0x40, 0x86, 0x48, 0x64, 0x8D, 0x60, 0x96, 0x48, 0x64, 0x81, 0x00, 0x86, 0x48, 0x64, 0x40, 0x96, 0x48, 0x64, 0x82, 0x00, 0x86, 0x48, 0x64, 0x81, 0x00, 0x96, 0x48, 0x64, 0x81, 0x40,
  0x86, 0x48, 0x64, 0x60, 0x96, 0x48, 0x64, 0x81, 0x40, 0x86, 0x48, 0x64, 0x60, 0x96, 0x48, 0x64, 0x40, 0x86, 0x48, 0x64, 0x20, 0x96, 0x48, 0x64, 0x40, 0x86, 0x48, 0x64, 0x81, 0x60, 0x96, 0x48, 0x64, 0x81, 0x00, 0x86, 0x48, 0x64, 0x40, 0x96,
  0x48, 0x64, 0x82, 0x00, 0x86, 0x48, 0x64, 0x81, 0x00, 0x96, 0x48, 0x64, 0x81, 0x40, 0x86, 0x48, 0x64, 0x60, 0x96, 0x48, 0x64, 0x81, 0x40, 0x86, 0x48, 0x64, 0x60, 0x96, 0x48, 0x64, 0x40, 0x86, 0x48, 0x64, 0x20, 0x96, 0x48, 0x64, 0x40, 0x86,
  0x48, 0x64, 0x81, 0x60, 0x96, 0x48, 0x64, 0x81, 0x00, 0x86, 0x48, 0x64, 0x40, 0x96, 0x48, 0x64, 0x82, 0x00, 0x86, 0x48, 0x64, 0x81, 0x00, 0x96, 0x48, 0x64, 0x81, 0x40, 0x86, 0x48, 0x64, 0x60, 0x96, 0x48, 0x64, 0x81, 0x40, 0x86, 0x48, 0x64,
  0x60, 0x96, 0x48, 0x64, 0x40, 0x86, 0x48, 0x64, 0x20, 0x96, 0x48, 0x64, 0x40, 0x86, 0x48, 0x64, 0x81, 0x60, 0x96, 0x48, 0x64, 0x81, 0x00, 0x86, 0x48, 0x64, 0x40, 0x96, 0x48, 0x64, 0x82, 0x00, 0x86, 0x48, 0x64, 0x81, 0x00, 0x96, 0x48, 0x64,
  0x81, 0x40, 0x86, 0x48, 0x64, 0x60, 0x96, 0x48, 0x64, 0x81, 0x40, 0x86, 0x48, 0x64, 0x60, 0x96, 0x48, 0x64, 0x40, 0x86, 0x48, 0x64, 0x20, 0x96, 0x48, 0x64, 0x40, 0x86, 0x48, 0x64, 0x81, 0x60, 0x96, 0x48, 0x64, 0x81, 0x00, 0x86, 0x48, 0x64,
  0x40, 0x96, 0x48, 0x64, 0x82, 0x00, 0x86, 0x48, 0x64, 0x81, 0x00, 0x96, 0x48, 0x64, 0x81, 0x40, 0x86, 0x48, 0x64, 0x60, 0x96, 0x48, 0x64, 0x81, 0x40, 0x86, 0x48, 0x64, 0x60, 0x96, 0x48, 0x64, 0x40, 0x86, 0x48, 0x64, 0x20, 0x96, 0x48, 0x64,
  0x40, 0x86, 0x48, 0x64, 0x81, 0x60, 0x96, 0x48, 0x64, 0x81, 0x00, 0x86, 0x48, 0x64, 0x40, 0x96, 0x48, 0x64, 0x82, 0x00, 0x86, 0x48, 0x64, 0x81, 0x00, 0x96, 0x48, 0x64, 0x81, 0x40, 0x86, 0x48, 0x64, 0x60, 0x96, 0x48, 0x64, 0x81, 0x40, 0x86,
  0x48, 0x64, 0x60, 0x96, 0x48, 0x64, 0x40, 0x86, 0x48, 0x64, 0x20, 0x96, 0x48, 0x64, 0x40, 0x86, 0x48, 0x64, 0x81, 0x60, 0x96, 0x48, 0x64, 0x81, 0x00, 0x86, 0x48, 0x64, 0x40, 0x96, 0x48, 0x64, 0x82, 0x00, 0x86, 0x48, 0x64, 0x81, 0x00, 0x96,
  0x48, 0x64, 0x81, 0x40, 0x86, 0x48, 0x64, 0x60, 0x96, 0x48, 0x64, 0x81, 0x40, 0x86, 0x48, 0x64, 0x60, 0x96, 0x48, 0x64, 0x40, 0x86, 0x48, 0x64, 0x20, 0x96, 0x48, 0x64, 0x40, 0x86, 0x48, 0x64, 0x81, 0x9D, 0x60, 0x96, 0x48, 0x64, 0x81, 0x00,
  0x86, 0x48, 0x64, 0x40, 0x96, 0x48, 0x64, 0x82, 0x00, 0x86, 0x48, 0x64, 0x81, 0x00, 0x96, 0x48, 0x64, 0x81, 0x40, 0x86, 0x48, 0x64, 0x60, 0x96, 0x48, 0x64, 0x81, 0x40, 0x86, 0x48, 0x64, 0x60, 0x96, 0x48, 0x64, 0x40, 0x86, 0x48, 0x64, 0x20,
  0x96, 0x48, 0x64, 0x40, 0x86, 0x48, 0x64, 0x81, 0x60, 0x96, 0x48, 0x64, 0x81, 0x00, 0x86, 0x48, 0x64, 0x40, 0x96, 0x48, 0x64, 0x82, 0x00, 0x86, 0x48, 0x64, 0x81, 0x00, 0x96, 0x48, 0x64, 0x81, 0x40, 0x86, 0x48, 0x64, 0x60, 0x96, 0x48, 0x64,
  0x81, 0x40, 0x86, 0x48, 0x64, 0x60, 0x96, 0x48, 0x64, 0x40, 0x86, 0x48, 0x64, 0x20, 0x96, 0x48, 0x64, 0x40, 0x86, 0x48, 0x64, 0x81, 0x60, 0x96, 0x48, 0x64, 0x81, 0x00, 0x86, 0x48, 0x64, 0x40, 0x96, 0x48, 0x64, 0x82, 0x00, 0x86, 0x48, 0x64,
  0x81, 0x00, 0x96, 0x48, 0x64, 0x81, 0x40, 0x86, 0x48, 0x64, 0x60, 0x96, 0x48, 0x64, 0x81, 0x40, 0x86, 0x48, 0x64, 0x60, 0x96, 0x48, 0x64, 0x40, 0x86, 0x48, 0x64, 0x20, 0x96, 0x48, 0x64, 0x40, 0x86, 0x48, 0x64, 0xBA, 0x60, 0x96, 0x48, 0x64,
  0x40, 0x86, 0x48, 0x64, 0x20, 0x96, 0x48, 0x64, 0x40, 0x86, 0x48, 0x64, 0x81, 0x60, 0x96, 0x48, 0x64, 0x81, 0x00, 0x86, 0x48, 0x64, 0x40, 0x96, 0x48, 0x64, 0x82, 0x00, 0x86, 0x48, 0x64, 0x81, 0x00, 0x96, 0x48, 0x64, 0x81, 0x40, 0x86, 0x48,
  0x64, 0x60, 0x96, 0x48, 0x64, 0x81, 0x40, 0x86, 0x48, 0x64, 0x60, 0x96, 0x48, 0x64, 0x40, 0x86, 0x48, 0x64, 0x20, 0x96, 0x48, 0x64, 0x40, 0x86, 0x48, 0x64, 0x81, 0x60, 0x96, 0x48, 0x64, 0x81, 0x00, 0x86, 0x48, 0x64, 0x40, 0x96, 0x48, 0x64,
  0x82, 0x00, 0x86, 0x48, 0x64, 0x81, 0x00, 0x96, 0x48, 0x64, 0x81, 0x40, 0x86, 0x48, 0x64, 0x60, 0x96, 0x48, 0x64, 0x81, 0x40, 0x86, 0x48, 0x64, 0x60, 0x96, 0x48, 0x64, 0x40, 0x86, 0x48, 0x64, 0x20, 0x96, 0x48, 0x64, 0x40, 0x86, 0x48, 0x64,
  0x81, 0x60, 0x96, 0x48, 0x64, 0x81, 0x00, 0x86, 0x48, 0x64, 0x40, 0x96, 0x48, 0x64, 0x82, 0x00, 0x86, 0x48, 0x64, 0x81, 0x00, 0x96, 0x48, 0x64, 0x81, 0x40, 0x86, 0x48, 0x64, 0x60, 0x96, 0x48, 0x64, 0x81, 0x40, 0x86, 0x48, 0x64, 0x60, 0x96,
  0x48, 0x64, 0x40, 0x86, 0x48, 0x64, 0x20, 0x96, 0x48, 0x64, 0x40, 0x86, 0x48, 0x64, 0x81, 0xCA, 0x60, 0x96, 0x48, 0x64, 0x40, 0x86, 0x48, 0x64, 0x20, 0x96, 0x48, 0x64, 0x40, 0x86, 0x48, 0x64, 0x81, 0x60, 0x96, 0x48, 0x64, 0x81, 0x00, 0x86,
  0x48, 0x64, 0x40, 0x96, 0x48, 0x64, 0x82, 0x00, 0x86, 0x48, 0x64, 0x81, 0x00, 0x96, 0x48, 0x64, 0x81, 0x40, 0x86, 0x48, 0x64, 0x60, 0x96, 0x48, 0x64, 0x81, 0x40, 0x86, 0x48, 0x64, 0x60, 0x96, 0x48, 0x64, 0x40, 0x86, 0x48, 0x64, 0x20, 0x96,
  0x48, 0x64, 0x40, 0x86, 0x48, 0x64, 0x81, 0x60, 0x96, 0x48, 0x64, 0x81, 0x00, 0x86, 0x48, 0x64, 0x40, 0x96, 0x48, 0x64, 0x82, 0x00, 0x86, 0x48, 0x64, 0x81, 0x00, 0x96, 0x48, 0x64, 0x81, 0x40, 0x86, 0x48, 0x64, 0x60, 0x96, 0x48, 0x64, 0x81,
  0x40, 0x86, 0x48, 0x64, 0x60, 0x96, 0x48, 0x64, 0x40, 0x86, 0x48, 0x64, 0x20, 0x96, 0x48, 0x64, 0x40, 0x86, 0x48, 0x64, 0x81, 0x60, 0x96, 0x48, 0x64, 0x81, 0x00, 0x86, 0x48, 0x64, 0x40, 0x96, 0x48, 0x64, 0x82, 0x00, 0x86, 0x48, 0x64, 0x81,
  0x00, 0x96, 0x48, 0x64, 0x81, 0x40, 0x86, 0x48, 0x64, 0x60, 0x96, 0x48, 0x64, 0x81, 0x40, 0x86, 0x48, 0x64, 0x60, 0x96, 0x48, 0x64, 0x40, 0x86, 0x48, 0x64, 0x20, 0x96, 0x48, 0x64, 0x40, 0x86, 0x48, 0x64, 0x81, 0x60, 0x96, 0x48, 0x64, 0x81,
  0x00, 0x86, 0x48, 0x64, 0x40, 0x96, 0x48, 0x64, 0x82, 0x00, 0x86, 0x48, 0x64, 0x81, 0x00, 0x96, 0x48, 0x64, 0x81, 0x40, 0x86, 0x48, 0x64, 0x60, 0x96, 0x48, 0x64, 0x81, 0x40, 0x86, 0x48, 0x64, 0x60, 0x96, 0x48, 0x64, 0x40, 0x86, 0x48, 0x64,
  0x20, 0x96, 0x48, 0x64, 0x40, 0x86, 0x48, 0x64, 0x81, 0x60, 0x96, 0x48, 0x64, 0x81, 0x00, 0x86, 0x48, 0x64, 0x40, 0x96, 0x48, 0x64, 0x82, 0x00, 0x86, 0x48, 0x64, 0x81, 0x00, 0x96, 0x48, 0x64, 0x81, 0x40, 0x86, 0x48, 0x64, 0x60, 0x96, 0x48,
  0x64, 0x81, 0x40, 0x86, 0x48, 0x64, 0x60, 0x96, 0x48, 0x64, 0x40, 0x86, 0x48, 0x64, 0x20, 0x96, 0x48, 0x64, 0x40, 0x86, 0x48, 0x64, 0x81, 0x60, 0x96, 0x48, 0x64, 0x81, 0x00, 0x86, 0x48, 0x64, 0x40, 0x96, 0x48, 0x64, 0x82, 0x00, 0x86, 0x48,
  0x64, 0x81, 0x00, 0x96, 0x48, 0x64, 0x81, 0x40, 0x86, 0x48, 0x64, 0x60, 0x96, 0x48, 0x64, 0x81, 0x40, 0x86, 0x48, 0x64, 0x60, 0x96, 0x48, 0x64, 0x40, 0x86, 0x48, 0x64, 0x20, 0x96, 0x48, 0x64, 0x40, 0x86, 0x48, 0x64, 0x81, 0x60, 0x96, 0x48,
  0x64, 0x81, 0x00, 0x86, 0x48, 0x64, 0x40, 0x96, 0x48, 0x64, 0x82, 0x00, 0x86, 0x48, 0x64, 0x81, 0x00, 0x96, 0x48, 0x64, 0x81, 0x40, 0x86, 0x48, 0x64, 0x60, 0x96, 0x48, 0x64, 0x81, 0x40, 0x86, 0x48, 0x64, 0x60, 0x96, 0x48, 0x64, 0x40, 0x86,
  0x48, 0x64, 0x20, 0x96, 0x48, 0x64, 0x40, 0x86, 0x48, 0x64, 0x81, 0xCA, 0x60, 0x96, 0x48, 0x64, 0x40, 0x86, 0x48, 0x64, 0x20, 0x96, 0x48, 0x64, 0x40, 0x86, 0x48, 0x64, 0x81, 0x60, 0x96, 0x48, 0x64, 0x81, 0x00, 0x86, 0x48, 0x64, 0x40, 0x96,
  0x48, 0x64, 0x82, 0x00, 0x86, 0x48, 0x64, 0x81, 0x00, 0x96, 0x48, 0x64, 0x81, 0x40, 0x86, 0x48, 0x64, 0x60, 0x96, 0x48, 0x64, 0x81, 0x40, 0x86, 0x48, 0x64, 0x60, 0x96, 0x48, 0x64, 0x40, 0x86, 0x48, 0x64, 0x20, 0x96, 0x48, 0x64, 0x40, 0x86,
  0x48, 0x64, 0x81, 0x60, 0x96, 0x48, 0x64, 0x81, 0x00, 0x86, 0x48, 0x64, 0x40, 0x96, 0x48, 0x64, 0x82, 0x00, 0x86, 0x48, 0x64, 0x81, 0x00, 0x96, 0x48, 0x64, 0x81, 0x40, 0x86, 0x48, 0x64, 0x60, 0x96, 0x48, 0x64, 0x81, 0x40, 0x86, 0x48, 0x64,
  0x60, 0x96, 0x48, 0x64, 0x40, 0x86, 0x48, 0x64, 0x20, 0x96, 0x48, 0x64, 0x40, 0x86, 0x48, 0x64, 0x81, 0x60, 0x96, 0x48, 0x64, 0x81, 0x00, 0x86, 0x48, 0x64, 0x40, 0x96, 0x48, 0x64, 0x82, 0x00, 0x86, 0x48, 0x64, 0x81, 0x00, 0x96, 0x48, 0x64,
  0x81, 0x40, 0x86, 0x48, 0x64, 0x60, 0x96, 0x48, 0x64, 0x81, 0x40, 0x86, 0x48, 0x64, 0x60, 0x96, 0x48, 0x64, 0x40, 0x86, 0x48, 0x64, 0x20, 0x96, 0x48, 0x64, 0x40, 0x86, 0x48, 0x64, 0x81, 0x60, 0x96, 0x48, 0x64, 0x81, 0x00, 0x86, 0x48, 0x64,
  0x40, 0x96, 0x48, 0x64, 0x82, 0x00, 0x86, 0x48, 0x64, 0x81, 0x00, 0x96, 0x48, 0x64, 0x81, 0x40, 0x86, 0x48, 0x64, 0x60, 0x96, 0x48, 0x64, 0x81, 0x40, 0x86, 0x48, 0x64, 0x60, 0x96, 0x48, 0x64, 0x40, 0x86, 0x48, 0x64, 0x20, 0x96, 0x48, 0x64,
  0x40, 0x86, 0x48, 0x64, 0x81, 0x60, 0x96, 0x48, 0x64, 0x81, 0x00, 0x86, 0x48, 0x64, 0x40, 0x96, 0x48, 0x64, 0x82, 0x00, 0x86, 0x48, 0x64, 0x81, 0x00, 0x96, 0x48, 0x64, 0x81, 0x40, 0x86, 0x48, 0x64, 0x60, 0x96, 0x48, 0x64, 0x81, 0x40, 0x86,
  0x48, 0x64, 0x60, 0x96, 0x48, 0x64, 0x40, 0x86, 0x48, 0x64, 0x20, 0x96, 0x48, 0x64, 0x40, 0x86, 0x48, 0x64, 0x81, 0x60, 0x96, 0x48, 0x64, 0x81, 0x00, 0x86, 0x48, 0x64, 0x40, 0x96, 0x48, 0x64, 0x82, 0x00, 0x86, 0x48, 0x64, 0x81, 0x00, 0x96,
  0x48, 0x64, 0x81, 0x40, 0x86, 0x48, 0x64, 0x60, 0x96, 0x48, 0x64, 0x81, 0x40, 0x86, 0x48, 0x64, 0x60, 0x96, 0x48, 0x64, 0x40, 0x86, 0x48, 0x64, 0x20, 0x96, 0x48, 0x64, 0x40, 0x86, 0x48, 0x64, 0x81, 0x60, 0x96, 0x48, 0x64, 0x81, 0x00, 0x86,
  0x48, 0x64, 0x40, 0x96, 0x48, 0x64, 0x82, 0x00, 0x86, 0x48, 0x64, 0x81, 0x00, 0x96, 0x48, 0x64, 0x81, 0x40, 0x86, 0x48, 0x64, 0x60, 0x96, 0x48, 0x64, 0x81, 0x40, 0x86, 0x48, 0x64, 0x60, 0x96, 0x48, 0x64, 0x40, 0x86, 0x48, 0x64, 0x20, 0x96,
  0x48, 0x64, 0x40, 0x86, 0x48, 0x64, 0x81, 0x60, 0x96, 0x48, 0x64, 0x81, 0x00, 0x86, 0x48, 0x64, 0x40, 0x96, 0x48, 0x64, 0x82, 0x00, 0x86, 0x48, 0x64, 0x81, 0x00, 0x96, 0x48, 0x64, 0x81, 0x40, 0x86, 0x48, 0x64, 0x60, 0x96, 0x48, 0x64, 0x81,
  0x40, 0x86, 0x48, 0x64, 0x60, 0x96, 0x48, 0x64, 0x40, 0x86, 0x48, 0x64, 0x20, 0x96, 0x48, 0x64, 0x40, 0x86, 0x48, 0x64, 0x00, 0xFF, 0x2F, 0x00, 0x4D, 0x54, 0x72, 0x6B, 0x00, 0x00, 0x03, 0xAA, 0x00, 0xB7, 0x00, 0x00, 0x00, 0xC7, 0x77, 0x00,
  0xFF, 0x59, 0x02, 0x00, 0x00, 0xE0, 0x00, 0x97, 0x3C, 0x7F, 0x8B, 0x68, 0x87, 0x3C, 0x64, 0xA4, 0x18, 0x97, 0x3C, 0x7F, 0x8B, 0x68, 0x87, 0x3C, 0x64, 0xA4, 0x18, 0x97, 0x3C, 0x7F, 0x8B, 0x68, 0x87, 0x3C, 0x64, 0xA4, 0x18, 0x97, 0x3C, 0x7F,
  0x8B, 0x68, 0x87, 0x3C, 0x64, 0x81, 0x84, 0x18, 0x97, 0x3C, 0x7F, 0x8B, 0x68, 0x87, 0x3C, 0x64, 0xA4, 0x18, 0x97, 0x3C, 0x7F, 0x8B, 0x68, 0x87, 0x3C, 0x64, 0xA4, 0x18, 0x97, 0x3C, 0x7F, 0x8B, 0x68, 0x87, 0x3C, 0x64, 0xA4, 0x18, 0x97, 0x3C,
  0x7F, 0x8B, 0x68, 0x87, 0x3C, 0x64, 0xB0, 0x18, 0xC7, 0x01, 0x81, 0x40, 0x97, 0x51, 0x64, 0x81, 0x70, 0x87, 0x51, 0x64, 0x30, 0x97, 0x4F, 0x64, 0x81, 0x70, 0x87, 0x4F, 0x64, 0x30, 0x97, 0x4D, 0x64, 0x81, 0x70, 0x87, 0x4D, 0x64, 0x30, 0x97,
  0x4C, 0x64, 0x81, 0x70, 0x87, 0x4C, 0x64, 0x30, 0x97, 0x4A, 0x64, 0x81, 0x48, 0x87, 0x4A, 0x64, 0x81, 0x38, 0x97, 0x51, 0x64, 0x81, 0x70, 0x87, 0x51, 0x64, 0x30, 0x97, 0x4F, 0x64, 0x81, 0x70, 0x87, 0x4F, 0x64, 0x30, 0x97, 0x4D, 0x64, 0x81,
  0x70, 0x87, 0x4D, 0x64, 0x30, 0x97, 0x4C, 0x64, 0x81, 0x70, 0x87, 0x4C, 0x64, 0x30, 0x97, 0x4A, 0x64, 0x81, 0x48, 0x87, 0x4A, 0x64, 0x81, 0x38, 0x97, 0x51, 0x64, 0x81, 0x70, 0x87, 0x51, 0x64, 0x30, 0x97, 0x4F, 0x64, 0x81, 0x70, 0x87, 0x4F,
  0x64, 0x30, 0x97, 0x4D, 0x64, 0x81, 0x70, 0x87, 0x4D, 0x64, 0x30, 0x97, 0x4C, 0x64, 0x81, 0x70, 0x87, 0x4C, 0x64, 0x30, 0x97, 0x4A, 0x64, 0x81, 0x48, 0x87, 0x4A, 0x64, 0x81, 0x38, 0x97, 0x4C, 0x64, 0x81, 0x70, 0x87, 0x4C, 0x64, 0x30, 0x97,
  0x4A, 0x64, 0x81, 0x70, 0x87, 0x4A, 0x64, 0x30, 0x97, 0x48, 0x64, 0x81, 0x70, 0x87, 0x48, 0x64, 0x30, 0x97, 0x47, 0x64, 0x81, 0x70, 0x87, 0x47, 0x64, 0x30, 0x97, 0x45, 0x64, 0x81, 0x48, 0x87, 0x45, 0x64, 0x81, 0x38, 0x97, 0x51, 0x64, 0x81,
  0x70, 0x87, 0x51, 0x64, 0x30, 0x97, 0x4F, 0x64, 0x81, 0x70, 0x87, 0x4F, 0x64, 0x30, 0x97, 0x4D, 0x64, 0x81, 0x70, 0x87, 0x4D, 0x64, 0x30, 0x97, 0x4C, 0x64, 0x81, 0x70, 0x87, 0x4C, 0x64, 0x30, 0x97, 0x4A, 0x64, 0x81, 0x48, 0x87, 0x4A, 0x64,
  0x81, 0x38, 0x97, 0x51, 0x64, 0x81, 0x70, 0x87, 0x51, 0x64, 0x30, 0x97, 0x4F, 0x64, 0x81, 0x70, 0x87, 0x4F, 0x64, 0x30, 0x97, 0x4D, 0x64, 0x81, 0x70, 0x87, 0x4D, 0x64, 0x30, 0x97, 0x4C, 0x64, 0x81, 0x70, 0x87, 0x4C, 0x64, 0x30, 0x97, 0x4A,
  0x64, 0x81, 0x48, 0x87, 0x4A, 0x64, 0x81, 0x38, 0x97, 0x51, 0x64, 0x81, 0x70, 0x87, 0x51, 0x64, 0x30, 0x97, 0x4F, 0x64, 0x81, 0x70, 0x87, 0x4F, 0x64, 0x30, 0x97, 0x4D, 0x64, 0x81, 0x70, 0x87, 0x4D, 0x64, 0x30, 0x97, 0x4C, 0x64, 0x81, 0x70,
  0x87, 0x4C, 0x64, 0x30, 0x97, 0x4A, 0x64, 0x81, 0x48, 0x87, 0x4A, 0x64, 0x81, 0x38, 0x97, 0x4C, 0x64, 0x81, 0x70, 0x87, 0x4C, 0x64, 0x30, 0x97, 0x4A, 0x64, 0x81, 0x70, 0x87, 0x4A, 0x64, 0x30, 0x97, 0x48, 0x64, 0x81, 0x70, 0x87, 0x48, 0x64,
  0x30, 0x97, 0x47, 0x64, 0x81, 0x70, 0x87, 0x47, 0x64, 0x30, 0x97, 0x45, 0x64, 0x81, 0x40, 0xC7, 0x77, 0x08, 0x87, 0x45, 0x64, 0xA3, 0x78, 0x97, 0x3C, 0x7F, 0x8B, 0x68, 0x87, 0x3C, 0x64, 0xA4, 0x18, 0x97, 0x3C, 0x7F, 0x8B, 0x68, 0x87, 0x3C,
  0x64, 0xA4, 0x18, 0x97, 0x3C, 0x7F, 0x8B, 0x68, 0x87, 0x3C, 0x64, 0xB0, 0x18, 0xC7, 0x01, 0x81, 0x40, 0x97, 0x51, 0x64, 0x81, 0x70, 0x87, 0x51, 0x64, 0x30, 0x97, 0x4F, 0x64, 0x81, 0x70, 0x87, 0x4F, 0x64, 0x30, 0x97, 0x4D, 0x64, 0x81, 0x70,
  0x87, 0x4D, 0x64, 0x30, 0x97, 0x4C, 0x64, 0x81, 0x70, 0x87, 0x4C, 0x64, 0x30, 0x97, 0x4A, 0x64, 0x81, 0x48, 0x87, 0x4A, 0x64, 0x81, 0x38, 0x97, 0x51, 0x64, 0x81, 0x70, 0x87, 0x51, 0x64, 0x30, 0x97, 0x4F, 0x64, 0x81, 0x70, 0x87, 0x4F, 0x64,
  0x30, 0x97, 0x4D, 0x64, 0x81, 0x70, 0x87, 0x4D, 0x64, 0x30, 0x97, 0x4C, 0x64, 0x81, 0x70, 0x87, 0x4C, 0x64, 0x30, 0x97, 0x4A, 0x64, 0x81, 0x48, 0x87, 0x4A, 0x64, 0x81, 0x38, 0x97, 0x51, 0x64, 0x81, 0x70, 0x87, 0x51, 0x64, 0x30, 0x97, 0x4F,
  0x64, 0x81, 0x70, 0x87, 0x4F, 0x64, 0x30, 0x97, 0x4D, 0x64, 0x81, 0x70, 0x87, 0x4D, 0x64, 0x30, 0x97, 0x4C, 0x64, 0x81, 0x70, 0x87, 0x4C, 0x64, 0x30, 0x97, 0x4A, 0x64, 0x81, 0x48, 0x87, 0x4A, 0x64, 0x81, 0x38, 0x97, 0x4C, 0x64, 0x81, 0x70,
  0x87, 0x4C, 0x64, 0x30, 0x97, 0x4A, 0x64, 0x81, 0x70, 0x87, 0x4A, 0x64, 0x30, 0x97, 0x48, 0x64, 0x81, 0x70, 0x87, 0x48, 0x64, 0x30, 0x97, 0x47, 0x64, 0x81, 0x70, 0x87, 0x47, 0x64, 0x30, 0x97, 0x45, 0x64, 0x81, 0x48, 0x87, 0x45, 0x64, 0x81,
  0x38, 0x97, 0x51, 0x64, 0x81, 0x70, 0x87, 0x51, 0x64, 0x30, 0x97, 0x4F, 0x64, 0x81, 0x70, 0x87, 0x4F, 0x64, 0x30, 0x97, 0x4D, 0x64, 0x81, 0x70, 0x87, 0x4D, 0x64, 0x30, 0x97, 0x4C, 0x64, 0x81, 0x70, 0x87, 0x4C, 0x64, 0x30, 0x97, 0x4A, 0x64,
  0x81, 0x48, 0x87, 0x4A, 0x64, 0x81, 0x38, 0x97, 0x51, 0x64, 0x81, 0x70, 0x87, 0x51, 0x64, 0x30, 0x97, 0x4F, 0x64, 0x81, 0x70, 0x87, 0x4F, 0x64, 0x30, 0x97, 0x4D, 0x64, 0x81, 0x70, 0x87, 0x4D, 0x64, 0x30, 0x97, 0x4C, 0x64, 0x81, 0x70, 0x87,
  0x4C, 0x64, 0x30, 0x97, 0x4A, 0x64, 0x81, 0x48, 0x87, 0x4A, 0x64, 0x81, 0x38, 0x97, 0x51, 0x64, 0x81, 0x70, 0x87, 0x51, 0x64, 0x30, 0x97, 0x4F, 0x64, 0x81, 0x70, 0x87, 0x4F, 0x64, 0x30, 0x97, 0x4D, 0x64, 0x81, 0x70, 0x87, 0x4D, 0x64, 0x30,
  0x97, 0x4C, 0x64, 0x81, 0x70, 0x87, 0x4C, 0x64, 0x30, 0x97, 0x4A, 0x64, 0x81, 0x48, 0x87, 0x4A, 0x64, 0x81, 0x38, 0x97, 0x4C, 0x64, 0x81, 0x70, 0x87, 0x4C, 0x64, 0x30, 0x97, 0x4A, 0x64, 0x81, 0x70, 0x87, 0x4A, 0x64, 0x30, 0x97, 0x48, 0x64,
  0x81, 0x70, 0x87, 0x48, 0x64, 0x30, 0x97, 0x47, 0x64, 0x81, 0x70, 0x87, 0x47, 0x64, 0x30, 0x97, 0x45, 0x64, 0x81, 0x40, 0xC7, 0x77, 0x08, 0x87, 0x45, 0x64, 0xA3, 0x78, 0x97, 0x3C, 0x7F, 0x8B, 0x68, 0x87, 0x3C, 0x64, 0xA4, 0x18, 0x97, 0x3C,
  0x7F, 0x8B, 0x68, 0x87, 0x3C, 0x64, 0xA4, 0x18, 0x97, 0x3C, 0x7F, 0x8B, 0x68, 0x87, 0x3C, 0x64, 0xA4, 0x18, 0x97, 0x3C, 0x7F, 0x8B, 0x68, 0x87, 0x3C, 0x64, 0xB0, 0x18, 0x97, 0x3C, 0x64, 0x8B, 0x04, 0x87, 0x3C, 0x64, 0xA4, 0x7C, 0x97, 0x3C,
  0x64, 0x8B, 0x04, 0x87, 0x3C, 0x64, 0x00, 0xFF, 0x2F, 0x00, 0x4D, 0x54, 0x72, 0x6B, 0x00, 0x00, 0x00, 0x12, 0x00, 0xB9, 0x5B, 0x00, 0x00, 0xB9, 0x5D, 0x08, 0x00, 0xFF, 0x59, 0x02, 0x00, 0x00, 0x00, 0xFF, 0x2F, 0x00, 0x4D, 0x54, 0x72, 0x6B,
  0x00, 0x00, 0x32, 0x45, 0x00, 0xB9, 0x5B, 0x00, 0x00, 0xB9, 0x5D, 0x08, 0x00, 0xFF, 0x59, 0x02, 0x00, 0x00, 0xBC, 0x00, 0x99, 0x31, 0x64, 0x82, 0x00, 0x89, 0x31, 0x64, 0xAE, 0x00, 0x99, 0x31, 0x64, 0x82, 0x00, 0x89, 0x31, 0x64, 0xAE, 0x00,
  0x99, 0x31, 0x64, 0x00, 0x99, 0x2A, 0x64, 0x00, 0x99, 0x24, 0x7F, 0x00, 0x99, 0x23, 0x7F, 0x40, 0x89, 0x2A, 0x64, 0x20, 0x99, 0x2A, 0x64, 0x40, 0x89, 0x2A, 0x64, 0x20, 0x99, 0x2E, 0x64, 0x40, 0x89, 0x31, 0x64, 0x00, 0x89, 0x24, 0x64, 0x00,
  0x89, 0x23, 0x64, 0x40, 0x89, 0x2E, 0x64, 0x40, 0x99, 0x2A, 0x64, 0x00, 0x99, 0x24, 0x7F, 0x00, 0x99, 0x23, 0x7F, 0x40, 0x89, 0x2A, 0x64, 0x20, 0x99, 0x2A, 0x64, 0x40, 0x89, 0x2A, 0x64, 0x20, 0x99, 0x2E, 0x64, 0x40, 0x89, 0x24, 0x64, 0x00,
  0x89, 0x23, 0x64, 0x40, 0x89, 0x2E, 0x64, 0x40, 0x99, 0x2A, 0x64, 0x00, 0x99, 0x24, 0x7F, 0x00, 0x99, 0x23, 0x7F, 0x40, 0x89, 0x2A, 0x64, 0x20, 0x99, 0x2A, 0x64, 0x40, 0x89, 0x2A, 0x64, 0x20, 0x99, 0x2E, 0x64, 0x40, 0x89, 0x24, 0x64, 0x00,
  0x89, 0x23, 0x64, 0x40, 0x89, 0x2E, 0x64, 0x40, 0x99, 0x2A, 0x64, 0x00, 0x99, 0x24, 0x7F, 0x00, 0x99, 0x23, 0x7F, 0x40, 0x89, 0x2A, 0x64, 0x20, 0x99, 0x2A, 0x64, 0x40, 0x89, 0x2A, 0x64, 0x20, 0x99, 0x2E, 0x64, 0x40, 0x89, 0x24, 0x64, 0x00,
  0x89, 0x23, 0x64, 0x40, 0x89, 0x2E, 0x64, 0x40, 0x99, 0x2A, 0x64, 0x00, 0x99, 0x24, 0x7F, 0x00, 0x99, 0x23, 0x7F, 0x40, 0x89, 0x2A, 0x64, 0x20, 0x99, 0x2A, 0x64, 0x40, 0x89, 0x2A, 0x64, 0x20, 0x99, 0x2E, 0x64, 0x40, 0x89, 0x24, 0x64, 0x00,
  0x89, 0x23, 0x64, 0x40, 0x89, 0x2E, 0x64, 0x40, 0x99, 0x2A, 0x64, 0x00, 0x99, 0x24, 0x7F, 0x00, 0x99, 0x23, 0x7F, 0x40, 0x89, 0x2A, 0x64, 0x20, 0x99, 0x2A, 0x64, 0x40, 0x89, 0x2A, 0x64, 0x20, 0x99, 0x2E, 0x64, 0x40, 0x89, 0x24, 0x64, 0x00,
  0x89, 0x23, 0x64, 0x40, 0x89, 0x2E, 0x64, 0x40, 0x99, 0x2A, 0x64, 0x00, 0x99, 0x24, 0x7F, 0x00, 0x99, 0x23, 0x7F, 0x40, 0x89, 0x2A, 0x64, 0x20, 0x99, 0x2A, 0x64, 0x40, 0x89, 0x2A, 0x64, 0x20, 0x99, 0x2E, 0x64, 0x40, 0x89, 0x24, 0x64, 0x00,
  0x89, 0x23, 0x64, 0x40, 0x89, 0x2E, 0x64, 0x40, 0x99, 0x2A, 0x64, 0x00, 0x99, 0x24, 0x7F, 0x00, 0x99, 0x23, 0x7F, 0x40, 0x89, 0x2A, 0x64, 0x20, 0x99, 0x2A, 0x64, 0x40, 0x89, 0x2A, 0x64, 0x20, 0x99, 0x2E, 0x64, 0x40, 0x89, 0x24, 0x64, 0x00,
  0x89, 0x23, 0x64, 0x40, 0x89, 0x2E, 0x64, 0x40, 0x99, 0x2A, 0x64, 0x00, 0x99, 0x24, 0x7F, 0x00, 0x99, 0x23, 0x7F, 0x40, 0x89, 0x2A, 0x64, 0x20, 0x99, 0x2A, 0x64, 0x40, 0x89, 0x2A, 0x64, 0x20, 0x99, 0x2E, 0x64, 0x40, 0x89, 0x24, 0x64, 0x00,
  0x89, 0x23, 0x64, 0x40, 0x89, 0x2E, 0x64, 0x40, 0x99, 0x2A, 0x64, 0x00, 0x99, 0x24, 0x7F, 0x00, 0x99, 0x23, 0x7F, 0x40, 0x89, 0x2A, 0x64, 0x20, 0x99, 0x2A, 0x64, 0x40, 0x89, 0x2A, 0x64, 0x20, 0x99, 0x2E, 0x64, 0x40, 0x89, 0x24, 0x64, 0x00,
  0x89, 0x23, 0x64, 0x40, 0x89, 0x2E, 0x64, 0x40, 0x99, 0x2A, 0x64, 0x00, 0x99, 0x24, 0x7F, 0x00, 0x99, 0x23, 0x7F, 0x40, 0x89, 0x2A, 0x64, 0x20, 0x99, 0x2A, 0x64, 0x40, 0x89, 0x2A, 0x64, 0x20, 0x99, 0x2E, 0x64, 0x40, 0x89, 0x24, 0x64, 0x00,
  0x89, 0x23, 0x64, 0x40, 0x89, 0x2E, 0x64, 0x40, 0x99, 0x2A, 0x64, 0x00, 0x99, 0x24, 0x7F, 0x00, 0x99, 0x23, 0x7F, 0x40, 0x89, 0x2A, 0x64, 0x20, 0x99, 0x2A, 0x64, 0x40, 0x89, 0x2A, 0x64, 0x20, 0x99, 0x2E, 0x64, 0x40, 0x89, 0x24, 0x64, 0x00,
  0x89, 0x23, 0x64, 0x40, 0x89, 0x2E, 0x64, 0x8C, 0x40, 0x99, 0x31, 0x64, 0x00, 0x99, 0x2A, 0x64, 0x00, 0x99, 0x24, 0x7F, 0x00, 0x99, 0x23, 0x7F, 0x40, 0x89, 0x2A, 0x64, 0x20, 0x99, 0x2A, 0x64, 0x40, 0x89, 0x2A, 0x64, 0x20, 0x99, 0x2E, 0x64,
  0x40, 0x89, 0x31, 0x64, 0x00, 0x89, 0x24, 0x64, 0x00, 0x89, 0x23, 0x64, 0x40, 0x89, 0x2E, 0x64, 0x40, 0x99, 0x2A, 0x64, 0x00, 0x99, 0x24, 0x7F, 0x00, 0x99, 0x23, 0x7F, 0x40, 0x89, 0x2A, 0x64, 0x20, 0x99, 0x2A, 0x64, 0x40, 0x89, 0x2A, 0x64,
  0x20, 0x99, 0x2E, 0x64, 0x40, 0x89, 0x24, 0x64, 0x00, 0x89, 0x23, 0x64, 0x40, 0x89, 0x2E, 0x64, 0x40, 0x99, 0x2A, 0x64, 0x00, 0x99, 0x24, 0x7F, 0x00, 0x99, 0x23, 0x7F, 0x40, 0x89, 0x2A, 0x64, 0x20, 0x99, 0x2A, 0x64, 0x40, 0x89, 0x2A, 0x64,
  0x20, 0x99, 0x2E, 0x64, 0x40, 0x89, 0x24, 0x64, 0x00, 0x89, 0x23, 0x64, 0x40, 0x89, 0x2E, 0x64, 0x40, 0x99, 0x2A, 0x64, 0x00, 0x99, 0x24, 0x7F, 0x00, 0x99, 0x23, 0x7F, 0x40, 0x89, 0x2A, 0x64, 0x20, 0x99, 0x2A, 0x64, 0x40, 0x89, 0x2A, 0x64,
  0x20, 0x99, 0x2E, 0x64, 0x40, 0x89, 0x24, 0x64, 0x00, 0x89, 0x23, 0x64, 0x40, 0x89, 0x2E, 0x64, 0x40, 0x99, 0x2A, 0x64, 0x00, 0x99, 0x24, 0x7F, 0x00, 0x99, 0x23, 0x7F, 0x40, 0x89, 0x2A, 0x64, 0x20, 0x99, 0x2A, 0x64, 0x40, 0x89, 0x2A, 0x64,
  0x20, 0x99, 0x2E, 0x64, 0x40, 0x89, 0x24, 0x64, 0x00, 0x89, 0x23, 0x64, 0x40, 0x89, 0x2E, 0x64, 0x40, 0x99, 0x2A, 0x64, 0x00, 0x99, 0x24, 0x7F, 0x00, 0x99, 0x23, 0x7F, 0x40, 0x89, 0x2A, 0x64, 0x20, 0x99, 0x2A, 0x64, 0x40, 0x89, 0x2A, 0x64,
  0x20, 0x99, 0x2E, 0x64, 0x40, 0x89, 0x24, 0x64, 0x00, 0x89, 0x23, 0x64, 0x40, 0x89, 0x2E, 0x64, 0x40, 0x99, 0x2A, 0x64, 0x00, 0x99, 0x24, 0x7F, 0x00, 0x99, 0x23, 0x7F, 0x40, 0x89, 0x2A, 0x64, 0x20, 0x99, 0x2A, 0x64, 0x40, 0x89, 0x2A, 0x64,
  0x20, 0x99, 0x2E, 0x64, 0x40, 0x89, 0x24, 0x64, 0x00, 0x89, 0x23, 0x64, 0x40, 0x89, 0x2E, 0x64, 0x40, 0x99, 0x2A, 0x64, 0x00, 0x99, 0x24, 0x7F, 0x00, 0x99, 0x23, 0x7F, 0x40, 0x89, 0x2A, 0x64, 0x20, 0x99, 0x2A, 0x64, 0x40, 0x89, 0x2A, 0x64,
  0x20, 0x99, 0x2E, 0x64, 0x40, 0x89, 0x24, 0x64, 0x00, 0x89, 0x23, 0x64, 0x40, 0x89, 0x2E, 0x64, 0x40, 0x99, 0x2A, 0x64, 0x00, 0x99, 0x24, 0x7F, 0x00, 0x99, 0x23, 0x7F, 0x40, 0x89, 0x2A, 0x64, 0x20, 0x99, 0x2A, 0x64, 0x40, 0x89, 0x2A, 0x64,
  0x20, 0x99, 0x2E, 0x64, 0x40, 0x89, 0x24, 0x64, 0x00, 0x89, 0x23, 0x64, 0x40, 0x89, 0x2E, 0x64, 0x40, 0x99, 0x2A, 0x64, 0x00, 0x99, 0x24, 0x7F, 0x00, 0x99, 0x23, 0x7F, 0x40, 0x89, 0x2A, 0x64, 0x20, 0x99, 0x2A, 0x64, 0x40, 0x89, 0x2A, 0x64,
  0x20, 0x99, 0x2E, 0x64, 0x40, 0x89, 0x24, 0x64, 0x00, 0x89, 0x23, 0x64, 0x40, 0x89, 0x2E, 0x64, 0x40, 0x99, 0x2A, 0x64, 0x00, 0x99, 0x24, 0x7F, 0x00, 0x99, 0x23, 0x7F, 0x40, 0x89, 0x2A, 0x64, 0x20, 0x99, 0x2A, 0x64, 0x40, 0x89, 0x2A, 0x64,
  0x20, 0x99, 0x2E, 0x64, 0x40, 0x89, 0x24, 0x64, 0x00, 0x89, 0x23, 0x64, 0x40, 0x89, 0x2E, 0x64, 0x40, 0x99, 0x2A, 0x64, 0x00, 0x99, 0x24, 0x7F, 0x00, 0x99, 0x23, 0x7F, 0x40, 0x89, 0x2A, 0x64, 0x20, 0x99, 0x2A, 0x64, 0x40, 0x89, 0x2A, 0x64,
  0x20, 0x99, 0x2E, 0x64, 0x40, 0x89, 0x24, 0x64, 0x00, 0x89, 0x23, 0x64, 0x40, 0x89, 0x2E, 0x64, 0x40, 0x99, 0x2A, 0x64, 0x00, 0x99, 0x24, 0x7F, 0x00, 0x99, 0x23, 0x7F, 0x40, 0x89, 0x2A, 0x64, 0x20, 0x99, 0x2A, 0x64, 0x40, 0x89, 0x2A, 0x64,
  0x20, 0x99, 0x2E, 0x64, 0x40, 0x89, 0x24, 0x64, 0x00, 0x89, 0x23, 0x64, 0x40, 0x89, 0x2E, 0x64, 0x40, 0x99, 0x2A, 0x64, 0x00, 0x99, 0x24, 0x7F, 0x00, 0x99, 0x23, 0x7F, 0x40, 0x89, 0x2A, 0x64, 0x20, 0x99, 0x2A, 0x64, 0x40, 0x89, 0x2A, 0x64,
  0x20, 0x99, 0x2E, 0x64, 0x40, 0x89, 0x24, 0x64, 0x00, 0x89, 0x23, 0x64, 0x40, 0x89, 0x2E, 0x64, 0x40, 0x99, 0x2A, 0x64, 0x00, 0x99, 0x24, 0x7F, 0x00, 0x99, 0x23, 0x7F, 0x40, 0x89, 0x2A, 0x64, 0x20, 0x99, 0x2A, 0x64, 0x40, 0x89, 0x2A, 0x64,
  0x20, 0x99, 0x2E, 0x64, 0x40, 0x89, 0x24, 0x64, 0x00, 0x89, 0x23, 0x64, 0x40, 0x89, 0x2E, 0x64, 0x40, 0x99, 0x2A, 0x64, 0x00, 0x99, 0x24, 0x7F, 0x00, 0x99, 0x23, 0x7F, 0x40, 0x89, 0x2A, 0x64, 0x20, 0x99, 0x2A, 0x64, 0x40, 0x89, 0x2A, 0x64,
  0x20, 0x99, 0x2E, 0x64, 0x40, 0x89, 0x24, 0x64, 0x00, 0x89, 0x23, 0x64, 0x40, 0x89, 0x2E, 0x64, 0x40, 0x99, 0x31, 0x64, 0x00, 0x99, 0x2A, 0x64, 0x00, 0x99, 0x24, 0x7F, 0x00, 0x99, 0x23, 0x7F, 0x40, 0x89, 0x2A, 0x64, 0x20, 0x99, 0x2A, 0x64,
  0x40, 0x89, 0x2A, 0x64, 0x20, 0x99, 0x2E, 0x64, 0x40, 0x89, 0x31, 0x64, 0x00, 0x89, 0x24, 0x64, 0x00, 0x89, 0x23, 0x64, 0x40, 0x89, 0x2E, 0x64, 0x40, 0x99, 0x2A, 0x64, 0x00, 0x99, 0x24, 0x7F, 0x00, 0x99, 0x23, 0x7F, 0x40, 0x89, 0x2A, 0x64,
  0x20, 0x99, 0x2A, 0x64, 0x40, 0x89, 0x2A, 0x64, 0x20, 0x99, 0x2E, 0x64, 0x40, 0x89, 0x24, 0x64, 0x00, 0x89, 0x23, 0x64, 0x40, 0x89, 0x2E, 0x64, 0x40, 0x99, 0x2A, 0x64, 0x00, 0x99, 0x24, 0x7F, 0x00, 0x99, 0x23, 0x7F, 0x40, 0x89, 0x2A, 0x64,
  0x20, 0x99, 0x2A, 0x64, 0x40, 0x89, 0x2A, 0x64, 0x20, 0x99, 0x2E, 0x64, 0x40, 0x89, 0x24, 0x64, 0x00, 0x89, 0x23, 0x64, 0x40, 0x89, 0x2E, 0x64, 0x40, 0x99, 0x2A, 0x64, 0x00, 0x99, 0x24, 0x7F, 0x00, 0x99, 0x23, 0x7F, 0x40, 0x89, 0x2A, 0x64,
  0x20, 0x99, 0x2A, 0x64, 0x40, 0x89, 0x2A, 0x64, 0x20, 0x99, 0x2E, 0x64, 0x40, 0x89, 0x24, 0x64, 0x00, 0x89, 0x23, 0x64, 0x40, 0x89, 0x2E, 0x64, 0x40, 0x99, 0x2A, 0x64, 0x00, 0x99, 0x24, 0x7F, 0x00, 0x99, 0x23, 0x7F, 0x40, 0x89, 0x2A, 0x64,
  0x20, 0x99, 0x2A, 0x64, 0x40, 0x89, 0x2A, 0x64, 0x20, 0x99, 0x2E, 0x64, 0x40, 0x89, 0x24, 0x64, 0x00, 0x89, 0x23, 0x64, 0x40, 0x89, 0x2E, 0x64, 0x40, 0x99, 0x2A, 0x64, 0x00, 0x99, 0x24, 0x7F, 0x00, 0x99, 0x23, 0x7F, 0x40, 0x89, 0x2A, 0x64,
  0x20, 0x99, 0x2A, 0x64, 0x40, 0x89, 0x2A, 0x64, 0x20, 0x99, 0x2E, 0x64, 0x40, 0x89, 0x24, 0x64, 0x00, 0x89, 0x23, 0x64, 0x40, 0x89, 0x2E, 0x64, 0x40, 0x99, 0x2A, 0x64, 0x00, 0x99, 0x24, 0x7F, 0x00, 0x99, 0x23, 0x7F, 0x40, 0x89, 0x2A, 0x64,
  0x20, 0x99, 0x2A, 0x64, 0x40, 0x89, 0x2A, 0x64, 0x20, 0x99, 0x2E, 0x64, 0x40, 0x89, 0x24, 0x64, 0x00, 0x89, 0x23, 0x64, 0x40, 0x89, 0x2E, 0x64, 0x40, 0x99, 0x2A, 0x64, 0x00, 0x99, 0x24, 0x7F, 0x00, 0x99, 0x23, 0x7F, 0x40, 0x89, 0x2A, 0x64,
  0x20, 0x99, 0x2A, 0x64, 0x40, 0x89, 0x2A, 0x64, 0x20, 0x99, 0x2E, 0x64, 0x40, 0x89, 0x24, 0x64, 0x00, 0x89, 0x23, 0x64, 0x40, 0x89, 0x2E, 0x64, 0x40, 0x99, 0x2A, 0x64, 0x00, 0x99, 0x24, 0x7F, 0x00, 0x99, 0x23, 0x7F, 0x40, 0x89, 0x2A, 0x64,
  0x20, 0x99, 0x2A, 0x64, 0x40, 0x89, 0x2A, 0x64, 0x20, 0x99, 0x2E, 0x64, 0x40, 0x89, 0x24, 0x64, 0x00, 0x89, 0x23, 0x64, 0x40, 0x89, 0x2E, 0x64, 0x40, 0x99, 0x2A, 0x64, 0x00, 0x99, 0x24, 0x7F, 0x00, 0x99, 0x23, 0x7F, 0x40, 0x89, 0x2A, 0x64,
  0x20, 0x99, 0x2A, 0x64, 0x40, 0x89, 0x2A, 0x64, 0x20, 0x99, 0x2E, 0x64, 0x40, 0x89, 0x24, 0x64, 0x00, 0x89, 0x23, 0x64, 0x40, 0x89, 0x2E, 0x64, 0x40, 0x99, 0x2A, 0x64, 0x00, 0x99, 0x24, 0x7F, 0x00, 0x99, 0x23, 0x7F, 0x40, 0x89, 0x2A, 0x64,
  0x20, 0x99, 0x2A, 0x64, 0x40, 0x89, 0x2A, 0x64, 0x20, 0x99, 0x2E, 0x64, 0x40, 0x89, 0x24, 0x64, 0x00, 0x89, 0x23, 0x64, 0x40, 0x89, 0x2E, 0x64, 0x40, 0x99, 0x2A, 0x64, 0x00, 0x99, 0x24, 0x7F, 0x00, 0x99, 0x23, 0x7F, 0x40, 0x89, 0x2A, 0x64,
  0x20, 0x99, 0x2A, 0x64, 0x40, 0x89, 0x2A, 0x64, 0x20, 0x99, 0x2E, 0x64, 0x40, 0x89, 0x24, 0x64, 0x00, 0x89, 0x23, 0x64, 0x40, 0x89, 0x2E, 0x64, 0x40, 0x99, 0x24, 0x7F, 0x00, 0x99, 0x23, 0x7F, 0x82, 0x00, 0x89, 0x24, 0x64, 0x00, 0x89, 0x23,
  0x64, 0x81, 0x00, 0x99, 0x24, 0x7F, 0x00, 0x99, 0x23, 0x7F, 0x82, 0x00, 0x89, 0x24, 0x64, 0x00, 0x89, 0x23, 0x64, 0x81, 0x00, 0x99, 0x24, 0x7F, 0x00, 0x99, 0x23, 0x7F, 0x82, 0x00, 0x89, 0x24, 0x64, 0x00, 0x89, 0x23, 0x64, 0x81, 0x00, 0x99,
  0x24, 0x7F, 0x00, 0x99, 0x23, 0x7F, 0x82, 0x00, 0x89, 0x24, 0x64, 0x00, 0x89, 0x23, 0x64, 0x81, 0x00, 0x99, 0x2A, 0x64, 0x00, 0x99, 0x24, 0x7F, 0x00, 0x99, 0x23, 0x7F, 0x40, 0x89, 0x2A, 0x64, 0x20, 0x99, 0x2A, 0x64, 0x40, 0x89, 0x2A, 0x64,
  0x20, 0x99, 0x2E, 0x64, 0x40, 0x89, 0x24, 0x64, 0x00, 0x89, 0x23, 0x64, 0x40, 0x89, 0x2E, 0x64, 0x40, 0x99, 0x2A, 0x64, 0x00, 0x99, 0x24, 0x7F, 0x00, 0x99, 0x23, 0x7F, 0x40, 0x89, 0x2A, 0x64, 0x20, 0x99, 0x2A, 0x64, 0x40, 0x89, 0x2A, 0x64,
  0x20, 0x99, 0x2E, 0x64, 0x40, 0x89, 0x24, 0x64, 0x00, 0x89, 0x23, 0x64, 0x40, 0x89, 0x2E, 0x64, 0x40, 0x99, 0x2A, 0x64, 0x00, 0x99, 0x24, 0x7F, 0x00, 0x99, 0x23, 0x7F, 0x40, 0x89, 0x2A, 0x64, 0x20, 0x99, 0x2A, 0x64, 0x40, 0x89, 0x2A, 0x64,
  0x20, 0x99, 0x2E, 0x64, 0x40, 0x89, 0x24, 0x64, 0x00, 0x89, 0x23, 0x64, 0x40, 0x89, 0x2E, 0x64, 0x40, 0x99, 0x2A, 0x64, 0x00, 0x99, 0x24, 0x7F, 0x00, 0x99, 0x23, 0x7F, 0x40, 0x89, 0x2A, 0x64, 0x20, 0x99, 0x2A, 0x64, 0x40, 0x89, 0x2A, 0x64,
  0x20, 0x99, 0x2E, 0x64, 0x40, 0x89, 0x24, 0x64, 0x00, 0x89, 0x23, 0x64, 0x40, 0x89, 0x2E, 0x64, 0x40, 0x99, 0x2A, 0x64, 0x00, 0x99, 0x24, 0x7F, 0x00, 0x99, 0x23, 0x7F, 0x40, 0x89, 0x2A, 0x64, 0x20, 0x99, 0x2A, 0x64, 0x40, 0x89, 0x2A, 0x64,
  0x20, 0x99, 0x2E, 0x64, 0x40, 0x89, 0x24, 0x64, 0x00, 0x89, 0x23, 0x64, 0x40, 0x89, 0x2E, 0x64, 0x40, 0x99, 0x2A, 0x64, 0x00, 0x99, 0x24, 0x7F, 0x00, 0x99, 0x23, 0x7F, 0x40, 0x89, 0x2A, 0x64, 0x20, 0x99, 0x2A, 0x64, 0x40, 0x89, 0x2A, 0x64,
  0x20, 0x99, 0x2E, 0x64, 0x40, 0x89, 0x24, 0x64, 0x00, 0x89, 0x23, 0x64, 0x40, 0x89, 0x2E, 0x64, 0x40, 0x99, 0x2A, 0x64, 0x00, 0x99, 0x24, 0x7F, 0x00, 0x99, 0x23, 0x7F, 0x40, 0x89, 0x2A, 0x64, 0x20, 0x99, 0x2A, 0x64, 0x40, 0x89, 0x2A, 0x64,
  0x20, 0x99, 0x2E, 0x64, 0x40, 0x89, 0x24, 0x64, 0x00, 0x89, 0x23, 0x64, 0x40, 0x89, 0x2E, 0x64, 0x40, 0x99, 0x2A, 0x64, 0x00, 0x99, 0x24, 0x7F, 0x00, 0x99, 0x23, 0x7F, 0x40, 0x89, 0x2A, 0x64, 0x20, 0x99, 0x2A, 0x64, 0x40, 0x89, 0x2A, 0x64,
  0x20, 0x99, 0x2E, 0x64, 0x40, 0x89, 0x24, 0x64, 0x00, 0x89, 0x23, 0x64, 0x40, 0x89, 0x2E, 0x64, 0x40, 0x99, 0x2A, 0x64, 0x00, 0x99, 0x24, 0x7F, 0x00, 0x99, 0x23, 0x7F, 0x40, 0x89, 0x2A, 0x64, 0x20, 0x99, 0x2A, 0x64, 0x40, 0x89, 0x2A, 0x64,
  0x20, 0x99, 0x2E, 0x64, 0x40, 0x89, 0x24, 0x64, 0x00, 0x89, 0x23, 0x64, 0x40, 0x89, 0x2E, 0x64, 0x40, 0x99, 0x2A, 0x64, 0x00, 0x99, 0x24, 0x7F, 0x00, 0x99, 0x23, 0x7F, 0x40, 0x89, 0x2A, 0x64, 0x20, 0x99, 0x2A, 0x64, 0x40, 0x89, 0x2A, 0x64,
  0x20, 0x99, 0x2E, 0x64, 0x40, 0x89, 0x24, 0x64, 0x00, 0x89, 0x23, 0x64, 0x40, 0x89, 0x2E, 0x64, 0x40, 0x99, 0x2A, 0x64, 0x00, 0x99, 0x24, 0x7F, 0x00, 0x99, 0x23, 0x7F, 0x40, 0x89, 0x2A, 0x64, 0x20, 0x99, 0x2A, 0x64, 0x40, 0x89, 0x2A, 0x64,
  0x20, 0x99, 0x2E, 0x64, 0x40, 0x89, 0x24, 0x64, 0x00, 0x89, 0x23, 0x64, 0x40, 0x89, 0x2E, 0x64, 0x40, 0x99, 0x2A, 0x64, 0x00, 0x99, 0x24, 0x7F, 0x00, 0x99, 0x23, 0x7F, 0x40, 0x89, 0x2A, 0x64, 0x20, 0x99, 0x2A, 0x64, 0x40, 0x89, 0x2A, 0x64,
  0x20, 0x99, 0x2E, 0x64, 0x40, 0x89, 0x24, 0x64, 0x00, 0x89, 0x23, 0x64, 0x40, 0x89, 0x2E, 0x64, 0x40, 0x99, 0x2A, 0x64, 0x00, 0x99, 0x24, 0x7F, 0x00, 0x99, 0x23, 0x7F, 0x40, 0x89, 0x2A, 0x64, 0x20, 0x99, 0x2A, 0x64, 0x40, 0x89, 0x2A, 0x64,
  0x20, 0x99, 0x2E, 0x64, 0x40, 0x89, 0x24, 0x64, 0x00, 0x89, 0x23, 0x64, 0x40, 0x89, 0x2E, 0x64, 0x40, 0x99, 0x2A, 0x64, 0x00, 0x99, 0x24, 0x7F, 0x00, 0x99, 0x23, 0x7F, 0x40, 0x89, 0x2A, 0x64, 0x20, 0x99, 0x2A, 0x64, 0x40, 0x89, 0x2A, 0x64,
  0x20, 0x99, 0x2E, 0x64, 0x40, 0x89, 0x24, 0x64, 0x00, 0x89, 0x23, 0x64, 0x40, 0x89, 0x2E, 0x64, 0x40, 0x99, 0x2A, 0x64, 0x00, 0x99, 0x24, 0x7F, 0x00, 0x99, 0x23, 0x7F, 0x40, 0x89, 0x2A, 0x64, 0x20, 0x99, 0x2A, 0x64, 0x40, 0x89, 0x2A, 0x64,
  0x20, 0x99, 0x2E, 0x64, 0x40, 0x89, 0x24, 0x64, 0x00, 0x89, 0x23, 0x64, 0x40, 0x89, 0x2E, 0x64, 0x40, 0x99, 0x2A, 0x64, 0x00, 0x99, 0x24, 0x7F, 0x00, 0x99, 0x23, 0x7F, 0x40, 0x89, 0x2A, 0x64, 0x20, 0x99, 0x2A, 0x64, 0x40, 0x89, 0x2A, 0x64,
  0x20, 0x99, 0x2E, 0x64, 0x40, 0x89, 0x24, 0x64, 0x00, 0x89, 0x23, 0x64, 0x40, 0x89, 0x2E, 0x64, 0x40, 0x99, 0x2A, 0x64, 0x00, 0x99, 0x24, 0x7F, 0x00, 0x99, 0x23, 0x7F, 0x40, 0x89, 0x2A, 0x64, 0x20, 0x99, 0x2A, 0x64, 0x40, 0x89, 0x2A, 0x64,
  0x20, 0x99, 0x2E, 0x64, 0x40, 0x89, 0x24, 0x64, 0x00, 0x89, 0x23, 0x64, 0x40, 0x89, 0x2E, 0x64, 0x40, 0x99, 0x2A, 0x64, 0x00, 0x99, 0x24, 0x7F, 0x00, 0x99, 0x23, 0x7F, 0x40, 0x89, 0x2A, 0x64, 0x20, 0x99, 0x2A, 0x64, 0x40, 0x89, 0x2A, 0x64,
  0x20, 0x99, 0x2E, 0x64, 0x40, 0x89, 0x24, 0x64, 0x00, 0x89, 0x23, 0x64, 0x40, 0x89, 0x2E, 0x64, 0x40, 0x99, 0x2A, 0x64, 0x00, 0x99, 0x24, 0x7F, 0x00, 0x99, 0x23, 0x7F, 0x40, 0x89, 0x2A, 0x64, 0x20, 0x99, 0x2A, 0x64, 0x40, 0x89, 0x2A, 0x64,
  0x20, 0x99, 0x2E, 0x64, 0x40, 0x89, 0x24, 0x64, 0x00, 0x89, 0x23, 0x64, 0x40, 0x89, 0x2E, 0x64, 0x40, 0x99, 0x2A, 0x64, 0x00, 0x99, 0x24, 0x7F, 0x00, 0x99, 0x23, 0x7F, 0x40, 0x89, 0x2A, 0x64, 0x20, 0x99, 0x2A, 0x64, 0x40, 0x89, 0x2A, 0x64,
  0x20, 0x99, 0x2E, 0x64, 0x40, 0x89, 0x24, 0x64, 0x00, 0x89, 0x23, 0x64, 0x40, 0x89, 0x2E, 0x64, 0x40, 0x99, 0x2A, 0x64, 0x00, 0x99, 0x24, 0x7F, 0x00, 0x99, 0x23, 0x7F, 0x40, 0x89, 0x2A, 0x64, 0x20, 0x99, 0x2A, 0x64, 0x40, 0x89, 0x2A, 0x64,
  0x20, 0x99, 0x2E, 0x64, 0x40, 0x89, 0x24, 0x64, 0x00, 0x89, 0x23, 0x64, 0x40, 0x89, 0x2E, 0x64, 0x40, 0x99, 0x2A, 0x64, 0x00, 0x99, 0x24, 0x7F, 0x00, 0x99, 0x23, 0x7F, 0x40, 0x89, 0x2A, 0x64, 0x20, 0x99, 0x2A, 0x64, 0x40, 0x89, 0x2A, 0x64,
  0x20, 0x99, 0x2E, 0x64, 0x40, 0x89, 0x24, 0x64, 0x00, 0x89, 0x23, 0x64, 0x40, 0x89, 0x2E, 0x64, 0x40, 0x99, 0x2A, 0x64, 0x00, 0x99, 0x24, 0x7F, 0x00, 0x99, 0x23, 0x7F, 0x40, 0x89, 0x2A, 0x64, 0x20, 0x99, 0x2A, 0x64, 0x40, 0x89, 0x2A, 0x64,
  0x20, 0x99, 0x2E, 0x64, 0x40, 0x89, 0x24, 0x64, 0x00, 0x89, 0x23, 0x64, 0x40, 0x89, 0x2E, 0x64, 0x40, 0x99, 0x2A, 0x64, 0x00, 0x99, 0x24, 0x7F, 0x00, 0x99, 0x23, 0x7F, 0x40, 0x89, 0x2A, 0x64, 0x20, 0x99, 0x2A, 0x64, 0x40, 0x89, 0x2A, 0x64,
  0x20, 0x99, 0x2E, 0x64, 0x40, 0x89, 0x24, 0x64, 0x00, 0x89, 0x23, 0x64, 0x40, 0x89, 0x2E, 0x64, 0x40, 0x99, 0x2A, 0x64, 0x00, 0x99, 0x24, 0x7F, 0x00, 0x99, 0x23, 0x7F, 0x40, 0x89, 0x2A, 0x64, 0x20, 0x99, 0x2A, 0x64, 0x40, 0x89, 0x2A, 0x64,
  0x20, 0x99, 0x2E, 0x64, 0x40, 0x89, 0x24, 0x64, 0x00, 0x89, 0x23, 0x64, 0x40, 0x89, 0x2E, 0x64, 0x40, 0x99, 0x2A, 0x64, 0x00, 0x99, 0x24, 0x7F, 0x00, 0x99, 0x23, 0x7F, 0x40, 0x89, 0x2A, 0x64, 0x20, 0x99, 0x2A, 0x64, 0x40, 0x89, 0x2A, 0x64,
  0x20, 0x99, 0x2E, 0x64, 0x40, 0x89, 0x24, 0x64, 0x00, 0x89, 0x23, 0x64, 0x40, 0x89, 0x2E, 0x64, 0x40, 0x99, 0x2A, 0x64, 0x00, 0x99, 0x24, 0x7F, 0x00, 0x99, 0x23, 0x7F, 0x40, 0x89, 0x2A, 0x64, 0x20, 0x99, 0x2A, 0x64, 0x40, 0x89, 0x2A, 0x64,
  0x20, 0x99, 0x2E, 0x64, 0x40, 0x89, 0x24, 0x64, 0x00, 0x89, 0x23, 0x64, 0x40, 0x89, 0x2E, 0x64, 0x40, 0x99, 0x2A, 0x64, 0x00, 0x99, 0x24, 0x7F, 0x00, 0x99, 0x23, 0x7F, 0x40, 0x89, 0x2A, 0x64, 0x20, 0x99, 0x2A, 0x64, 0x40, 0x89, 0x2A, 0x64,
  0x20, 0x99, 0x2E, 0x64, 0x40, 0x89, 0x24, 0x64, 0x00, 0x89, 0x23, 0x64, 0x40, 0x89, 0x2E, 0x64, 0x40, 0x99, 0x2A, 0x64, 0x00, 0x99, 0x24, 0x7F, 0x00, 0x99, 0x23, 0x7F, 0x40, 0x89, 0x2A, 0x64, 0x20, 0x99, 0x2A, 0x64, 0x40, 0x89, 0x2A, 0x64,
  0x20, 0x99, 0x2E, 0x64, 0x40, 0x89, 0x24, 0x64, 0x00, 0x89, 0x23, 0x64, 0x40, 0x89, 0x2E, 0x64, 0x40, 0x99, 0x2A, 0x64, 0x00, 0x99, 0x24, 0x7F, 0x00, 0x99, 0x23, 0x7F, 0x40, 0x89, 0x2A, 0x64, 0x20, 0x99, 0x2A, 0x64, 0x40, 0x89, 0x2A, 0x64,
  0x20, 0x99, 0x2E, 0x64, 0x40, 0x89, 0x24, 0x64, 0x00, 0x89, 0x23, 0x64, 0x40, 0x89, 0x2E, 0x64, 0x40, 0x99, 0x2A, 0x64, 0x00, 0x99, 0x24, 0x7F, 0x00, 0x99, 0x23, 0x7F, 0x40, 0x89, 0x2A, 0x64, 0x20, 0x99, 0x2A, 0x64, 0x40, 0x89, 0x2A, 0x64,
  0x20, 0x99, 0x2E, 0x64, 0x40, 0x89, 0x24, 0x64, 0x00, 0x89, 0x23, 0x64, 0x40, 0x89, 0x2E, 0x64, 0x40, 0x99, 0x2A, 0x64, 0x00, 0x99, 0x24, 0x7F, 0x00, 0x99, 0x23, 0x7F, 0x40, 0x89, 0x2A, 0x64, 0x20, 0x99, 0x2A, 0x64, 0x40, 0x89, 0x2A, 0x64,
  0x20, 0x99, 0x2E, 0x64, 0x40, 0x89, 0x24, 0x64, 0x00, 0x89, 0x23, 0x64, 0x40, 0x89, 0x2E, 0x64, 0x40, 0x99, 0x31, 0x64, 0x00, 0x99, 0x2A, 0x64, 0x00, 0x99, 0x24, 0x7F, 0x00, 0x99, 0x23, 0x7F, 0x40, 0x89, 0x2A, 0x64, 0x20, 0x99, 0x2A, 0x64,
  0x40, 0x89, 0x2A, 0x64, 0x20, 0x99, 0x2A, 0x64, 0x40, 0x89, 0x31, 0x64, 0x00, 0x89, 0x24, 0x64, 0x00, 0x89, 0x23, 0x64, 0x00, 0x89, 0x2A, 0x64, 0x20, 0x99, 0x2A, 0x64, 0x40, 0x89, 0x2A, 0x64, 0x20, 0x99, 0x2A, 0x64, 0x00, 0x99, 0x24, 0x7F,
  0x00, 0x99, 0x23, 0x7F, 0x40, 0x89, 0x2A, 0x64, 0x20, 0x99, 0x2A, 0x64, 0x40, 0x89, 0x2A, 0x64, 0x20, 0x99, 0x2A, 0x64, 0x40, 0x89, 0x24, 0x64, 0x00, 0x89, 0x23, 0x64, 0x00, 0x89, 0x2A, 0x64, 0x20, 0x99, 0x2A, 0x64, 0x40, 0x89, 0x2A, 0x64,
  0x20, 0x99, 0x2A, 0x64, 0x00, 0x99, 0x24, 0x7F, 0x00, 0x99, 0x23, 0x7F, 0x40, 0x89, 0x2A, 0x64, 0x20, 0x99, 0x2A, 0x64, 0x40, 0x89, 0x2A, 0x64, 0x20, 0x99, 0x2A, 0x64, 0x40, 0x89, 0x24, 0x64, 0x00, 0x89, 0x23, 0x64, 0x00, 0x89, 0x2A, 0x64,
  0x20, 0x99, 0x2A, 0x64, 0x40, 0x89, 0x2A, 0x64, 0x20, 0x99, 0x2A, 0x64, 0x00, 0x99, 0x24, 0x7F, 0x00, 0x99, 0x23, 0x7F, 0x40, 0x89, 0x2A, 0x64, 0x20, 0x99, 0x2A, 0x64, 0x40, 0x89, 0x2A, 0x64, 0x20, 0x99, 0x2A, 0x64, 0x40, 0x89, 0x24, 0x64,
  0x00, 0x89, 0x23, 0x64, 0x00, 0x89, 0x2A, 0x64, 0x20, 0x99, 0x2A, 0x64, 0x40, 0x89, 0x2A, 0x64, 0x20, 0x99, 0x2A, 0x64, 0x00, 0x99, 0x24, 0x7F, 0x00, 0x99, 0x23, 0x7F, 0x40, 0x89, 0x2A, 0x64, 0x20, 0x99, 0x2A, 0x64, 0x40, 0x89, 0x2A, 0x64,
  0x20, 0x99, 0x2A, 0x64, 0x40, 0x89, 0x24, 0x64, 0x00, 0x89, 0x23, 0x64, 0x00, 0x89, 0x2A, 0x64, 0x20, 0x99, 0x2A, 0x64, 0x40, 0x89, 0x2A, 0x64, 0x20, 0x99, 0x2A, 0x64, 0x00, 0x99, 0x24, 0x7F, 0x00, 0x99, 0x23, 0x7F, 0x40, 0x89, 0x2A, 0x64,
  0x20, 0x99, 0x2A, 0x64, 0x40, 0x89, 0x2A, 0x64, 0x20, 0x99, 0x2A, 0x64, 0x40, 0x89, 0x24, 0x64, 0x00, 0x89, 0x23, 0x64, 0x00, 0x89, 0x2A, 0x64, 0x20, 0x99, 0x2A, 0x64, 0x40, 0x89, 0x2A, 0x64, 0x20, 0x99, 0x2A, 0x64, 0x00, 0x99, 0x24, 0x7F,
  0x00, 0x99, 0x23, 0x7F, 0x40, 0x89, 0x2A, 0x64, 0x20, 0x99, 0x2A, 0x64, 0x40, 0x89, 0x2A, 0x64, 0x20, 0x99, 0x2A, 0x64, 0x40, 0x89, 0x24, 0x64, 0x00, 0x89, 0x23, 0x64, 0x00, 0x89, 0x2A, 0x64, 0x20, 0x99, 0x2A, 0x64, 0x40, 0x89, 0x2A, 0x64,
  0x20, 0x99, 0x2A, 0x64, 0x00, 0x99, 0x24, 0x7F, 0x00, 0x99, 0x23, 0x7F, 0x40, 0x89, 0x2A, 0x64, 0x20, 0x99, 0x2A, 0x64, 0x40, 0x89, 0x2A, 0x64, 0x20, 0x99, 0x2A, 0x64, 0x40, 0x89, 0x24, 0x64, 0x00, 0x89, 0x23, 0x64, 0x00, 0x89, 0x2A, 0x64,
  0x20, 0x99, 0x2A, 0x64, 0x40, 0x89, 0x2A, 0x64, 0x20, 0x99, 0x2A, 0x64, 0x00, 0x99, 0x24, 0x7F, 0x00, 0x99, 0x23, 0x7F, 0x40, 0x89, 0x2A, 0x64, 0x20, 0x99, 0x2A, 0x64, 0x40, 0x89, 0x2A, 0x64, 0x20, 0x99, 0x2A, 0x64, 0x40, 0x89, 0x24, 0x64,
  0x00, 0x89, 0x23, 0x64, 0x00, 0x89, 0x2A, 0x64, 0x20, 0x99, 0x2A, 0x64, 0x40, 0x89, 0x2A, 0x64, 0x20, 0x99, 0x2A, 0x64, 0x00, 0x99, 0x24, 0x7F, 0x00, 0x99, 0x23, 0x7F, 0x40, 0x89, 0x2A, 0x64, 0x20, 0x99, 0x2A, 0x64, 0x40, 0x89, 0x2A, 0x64,
  0x20, 0x99, 0x2A, 0x64, 0x40, 0x89, 0x24, 0x64, 0x00, 0x89, 0x23, 0x64, 0x00, 0x89, 0x2A, 0x64, 0x20, 0x99, 0x2A, 0x64, 0x40, 0x89, 0x2A, 0x64, 0x20, 0x99, 0x2A, 0x64, 0x00, 0x99, 0x24, 0x7F, 0x00, 0x99, 0x23, 0x7F, 0x40, 0x89, 0x2A, 0x64,
  0x20, 0x99, 0x2A, 0x64, 0x40, 0x89, 0x2A, 0x64, 0x20, 0x99, 0x2A, 0x64, 0x40, 0x89, 0x24, 0x64, 0x00, 0x89, 0x23, 0x64, 0x00, 0x89, 0x2A, 0x64, 0x20, 0x99, 0x2A, 0x64, 0x40, 0x89, 0x2A, 0x64, 0x20, 0x99, 0x2A, 0x64, 0x00, 0x99, 0x24, 0x7F,
  0x00, 0x99, 0x23, 0x7F, 0x40, 0x89, 0x2A, 0x64, 0x20, 0x99, 0x2A, 0x64, 0x40, 0x89, 0x2A, 0x64, 0x20, 0x99, 0x2A, 0x64, 0x40, 0x89, 0x24, 0x64, 0x00, 0x89, 0x23, 0x64, 0x00, 0x89, 0x2A, 0x64, 0x20, 0x99, 0x2A, 0x64, 0x40, 0x89, 0x2A, 0x64,
  0x20, 0x99, 0x2A, 0x64, 0x00, 0x99, 0x24, 0x7F, 0x00, 0x99, 0x23, 0x7F, 0x40, 0x89, 0x2A, 0x64, 0x20, 0x99, 0x2A, 0x64, 0x40, 0x89, 0x2A, 0x64, 0x20, 0x99, 0x2A, 0x64, 0x40, 0x89, 0x24, 0x64, 0x00, 0x89, 0x23, 0x64, 0x00, 0x89, 0x2A, 0x64,
  0x20, 0x99, 0x2A, 0x64, 0x40, 0x89, 0x2A, 0x64, 0x20, 0x99, 0x2A, 0x64, 0x00, 0x99, 0x24, 0x7F, 0x00, 0x99, 0x23, 0x7F, 0x40, 0x89, 0x2A, 0x64, 0x20, 0x99, 0x2A, 0x64, 0x40, 0x89, 0x2A, 0x64, 0x20, 0x99, 0x2A, 0x64, 0x40, 0x89, 0x24, 0x64,
  0x00, 0x89, 0x23, 0x64, 0x00, 0x89, 0x2A, 0x64, 0x20, 0x99, 0x2A, 0x64, 0x40, 0x89, 0x2A, 0x64, 0x20, 0x99, 0x2A, 0x64, 0x00, 0x99, 0x24, 0x7F, 0x00, 0x99, 0x23, 0x7F, 0x40, 0x89, 0x2A, 0x64, 0x20, 0x99, 0x2A, 0x64, 0x40, 0x89, 0x2A, 0x64,
  0x20, 0x99, 0x2A, 0x64, 0x40, 0x89, 0x24, 0x64, 0x00, 0x89, 0x23, 0x64, 0x00, 0x89, 0x2A, 0x64, 0x20, 0x99, 0x2A, 0x64, 0x40, 0x89, 0x2A, 0x64, 0x20, 0x99, 0x2A, 0x64, 0x00, 0x99, 0x24, 0x7F, 0x00, 0x99, 0x23, 0x7F, 0x40, 0x89, 0x2A, 0x64,
  0x20, 0x99, 0x2A, 0x64, 0x40, 0x89, 0x2A, 0x64, 0x20, 0x99, 0x2A, 0x64, 0x40, 0x89, 0x24, 0x64, 0x00, 0x89, 0x23, 0x64, 0x00, 0x89, 0x2A, 0x64, 0x20, 0x99, 0x2A, 0x64, 0x40, 0x89, 0x2A, 0x64, 0x20, 0x99, 0x31, 0x64, 0x00, 0x99, 0x2A, 0x64,
  0x00, 0x99, 0x24, 0x7F, 0x00, 0x99, 0x23, 0x7F, 0x40, 0x89, 0x2A, 0x64, 0x20, 0x99, 0x2A, 0x64, 0x40, 0x89, 0x2A, 0x64, 0x20, 0x99, 0x2E, 0x64, 0x40, 0x89, 0x31, 0x64, 0x00, 0x89, 0x24, 0x64, 0x00, 0x89, 0x23, 0x64, 0x40, 0x89, 0x2E, 0x64,
  0x40, 0x99, 0x2A, 0x64, 0x00, 0x99, 0x24, 0x7F, 0x00, 0x99, 0x23, 0x7F, 0x40, 0x89, 0x2A, 0x64, 0x20, 0x99, 0x2A, 0x64, 0x40, 0x89, 0x2A, 0x64, 0x20, 0x99, 0x2E, 0x64, 0x40, 0x89, 0x24, 0x64, 0x00, 0x89, 0x23, 0x64, 0x40, 0x89, 0x2E, 0x64,
  0x40, 0x99, 0x2A, 0x64, 0x00, 0x99, 0x24, 0x7F, 0x00, 0x99, 0x23, 0x7F, 0x40, 0x89, 0x2A, 0x64, 0x20, 0x99, 0x2A, 0x64, 0x40, 0x89, 0x2A, 0x64, 0x20, 0x99, 0x2E, 0x64, 0x40, 0x89, 0x24, 0x64, 0x00, 0x89, 0x23, 0x64, 0x40, 0x89, 0x2E, 0x64,
  0x40, 0x99, 0x2A, 0x64, 0x00, 0x99, 0x24, 0x7F, 0x00, 0x99, 0x23, 0x7F, 0x40, 0x89, 0x2A, 0x64, 0x20, 0x99, 0x2A, 0x64, 0x40, 0x89, 0x2A, 0x64, 0x20, 0x99, 0x2E, 0x64, 0x40, 0x89, 0x24, 0x64, 0x00, 0x89, 0x23, 0x64, 0x40, 0x89, 0x2E, 0x64,
  0x40, 0x99, 0x2A, 0x64, 0x00, 0x99, 0x24, 0x7F, 0x00, 0x99, 0x23, 0x7F, 0x40, 0x89, 0x2A, 0x64, 0x20, 0x99, 0x2A, 0x64, 0x40, 0x89, 0x2A, 0x64, 0x20, 0x99, 0x2E, 0x64, 0x40, 0x89, 0x24, 0x64, 0x00, 0x89, 0x23, 0x64, 0x40, 0x89, 0x2E, 0x64,
  0x40, 0x99, 0x2A, 0x64, 0x00, 0x99, 0x24, 0x7F, 0x00, 0x99, 0x23, 0x7F, 0x40, 0x89, 0x2A, 0x64, 0x20, 0x99, 0x2A, 0x64, 0x40, 0x89, 0x2A, 0x64, 0x20, 0x99, 0x2E, 0x64, 0x40, 0x89, 0x24, 0x64, 0x00, 0x89, 0x23, 0x64, 0x40, 0x89, 0x2E, 0x64,
  0x40, 0x99, 0x2A, 0x64, 0x00, 0x99, 0x24, 0x7F, 0x00, 0x99, 0x23, 0x7F, 0x40, 0x89, 0x2A, 0x64, 0x20, 0x99, 0x2A, 0x64, 0x40, 0x89, 0x2A, 0x64, 0x20, 0x99, 0x2E, 0x64, 0x40, 0x89, 0x24, 0x64, 0x00, 0x89, 0x23, 0x64, 0x40, 0x89, 0x2E, 0x64,
  0x40, 0x99, 0x2A, 0x64, 0x00, 0x99, 0x24, 0x7F, 0x00, 0x99, 0x23, 0x7F, 0x40, 0x89, 0x2A, 0x64, 0x20, 0x99, 0x2A, 0x64, 0x40, 0x89, 0x2A, 0x64, 0x20, 0x99, 0x2E, 0x64, 0x40, 0x89, 0x24, 0x64, 0x00, 0x89, 0x23, 0x64, 0x40, 0x89, 0x2E, 0x64,
  0x40, 0x99, 0x2A, 0x64, 0x00, 0x99, 0x24, 0x7F, 0x00, 0x99, 0x23, 0x7F, 0x40, 0x89, 0x2A, 0x64, 0x20, 0x99, 0x2A, 0x64, 0x40, 0x89, 0x2A, 0x64, 0x20, 0x99, 0x2E, 0x64, 0x40, 0x89, 0x24, 0x64, 0x00, 0x89, 0x23, 0x64, 0x40, 0x89, 0x2E, 0x64,
  0x40, 0x99, 0x2A, 0x64, 0x00, 0x99, 0x24, 0x7F, 0x00, 0x99, 0x23, 0x7F, 0x40, 0x89, 0x2A, 0x64, 0x20, 0x99, 0x2A, 0x64, 0x40, 0x89, 0x2A, 0x64, 0x20, 0x99, 0x2E, 0x64, 0x40, 0x89, 0x24, 0x64, 0x00, 0x89, 0x23, 0x64, 0x40, 0x89, 0x2E, 0x64,
  0x40, 0x99, 0x2A, 0x64, 0x00, 0x99, 0x24, 0x7F, 0x00, 0x99, 0x23, 0x7F, 0x40, 0x89, 0x2A, 0x64, 0x20, 0x99, 0x2A, 0x64, 0x40, 0x89, 0x2A, 0x64, 0x20, 0x99, 0x2E, 0x64, 0x40, 0x89, 0x24, 0x64, 0x00, 0x89, 0x23, 0x64, 0x40, 0x89, 0x2E, 0x64,
  0x40, 0x99, 0x2A, 0x64, 0x00, 0x99, 0x24, 0x7F, 0x00, 0x99, 0x23, 0x7F, 0x40, 0x89, 0x2A, 0x64, 0x20, 0x99, 0x2A, 0x64, 0x40, 0x89, 0x2A, 0x64, 0x20, 0x99, 0x2E, 0x64, 0x40, 0x89, 0x24, 0x64, 0x00, 0x89, 0x23, 0x64, 0x40, 0x89, 0x2E, 0x64,
  0x40, 0x99, 0x2A, 0x64, 0x00, 0x99, 0x24, 0x7F, 0x00, 0x99, 0x23, 0x7F, 0x40, 0x89, 0x2A, 0x64, 0x20, 0x99, 0x2A, 0x64, 0x40, 0x89, 0x2A, 0x64, 0x20, 0x99, 0x2E, 0x64, 0x40, 0x89, 0x24, 0x64, 0x00, 0x89, 0x23, 0x64, 0x40, 0x89, 0x2E, 0x64,
  0x40, 0x99, 0x2A, 0x64, 0x00, 0x99, 0x24, 0x7F, 0x00, 0x99, 0x23, 0x7F, 0x40, 0x89, 0x2A, 0x64, 0x20, 0x99, 0x2A, 0x64, 0x40, 0x89, 0x2A, 0x64, 0x20, 0x99, 0x2E, 0x64, 0x40, 0x89, 0x24, 0x64, 0x00, 0x89, 0x23, 0x64, 0x40, 0x89, 0x2E, 0x64,
  0x40, 0x99, 0x2A, 0x64, 0x00, 0x99, 0x24, 0x7F, 0x00, 0x99, 0x23, 0x7F, 0x40, 0x89, 0x2A, 0x64, 0x20, 0x99, 0x2A, 0x64, 0x40, 0x89, 0x2A, 0x64, 0x20, 0x99, 0x2E, 0x64, 0x40, 0x89, 0x24, 0x64, 0x00, 0x89, 0x23, 0x64, 0x40, 0x89, 0x2E, 0x64,
  0x40, 0x99, 0x2A, 0x64, 0x00, 0x99, 0x24, 0x7F, 0x00, 0x99, 0x23, 0x7F, 0x40, 0x89, 0x2A, 0x64, 0x20, 0x99, 0x2A, 0x64, 0x40, 0x89, 0x2A, 0x64, 0x20, 0x99, 0x2E, 0x64, 0x40, 0x89, 0x24, 0x64, 0x00, 0x89, 0x23, 0x64, 0x40, 0x89, 0x2E, 0x64,
  0x40, 0x99, 0x31, 0x64, 0x00, 0x99, 0x2A, 0x64, 0x00, 0x99, 0x24, 0x7F, 0x00, 0x99, 0x23, 0x7F, 0x40, 0x89, 0x2A, 0x64, 0x20, 0x99, 0x2A, 0x64, 0x40, 0x89, 0x2A, 0x64, 0x20, 0x99, 0x2E, 0x64, 0x40, 0x89, 0x31, 0x64, 0x00, 0x89, 0x24, 0x64,
  0x00, 0x89, 0x23, 0x64, 0x40, 0x89, 0x2E, 0x64, 0x40, 0x99, 0x2A, 0x64, 0x00, 0x99, 0x24, 0x7F, 0x00, 0x99, 0x23, 0x7F, 0x40, 0x89, 0x2A, 0x64, 0x20, 0x99, 0x2A, 0x64, 0x40, 0x89, 0x2A, 0x64, 0x20, 0x99, 0x2E, 0x64, 0x40, 0x89, 0x24, 0x64,
  0x00, 0x89, 0x23, 0x64, 0x40, 0x89, 0x2E, 0x64, 0x40, 0x99, 0x2A, 0x64, 0x00, 0x99, 0x24, 0x7F, 0x00, 0x99, 0x23, 0x7F, 0x40, 0x89, 0x2A, 0x64, 0x20, 0x99, 0x2A, 0x64, 0x40, 0x89, 0x2A, 0x64, 0x20, 0x99, 0x2E, 0x64, 0x40, 0x89, 0x24, 0x64,
  0x00, 0x89, 0x23, 0x64, 0x40, 0x89, 0x2E, 0x64, 0x40, 0x99, 0x2A, 0x64, 0x00, 0x99, 0x24, 0x7F, 0x00, 0x99, 0x23, 0x7F, 0x40, 0x89, 0x2A, 0x64, 0x20, 0x99, 0x2A, 0x64, 0x40, 0x89, 0x2A, 0x64, 0x20, 0x99, 0x2E, 0x64, 0x40, 0x89, 0x24, 0x64,
  0x00, 0x89, 0x23, 0x64, 0x40, 0x89, 0x2E, 0x64, 0x40, 0x99, 0x2A, 0x64, 0x00, 0x99, 0x24, 0x7F, 0x00, 0x99, 0x23, 0x7F, 0x40, 0x89, 0x2A, 0x64, 0x20, 0x99, 0x2A, 0x64, 0x40, 0x89, 0x2A, 0x64, 0x20, 0x99, 0x2E, 0x64, 0x40, 0x89, 0x24, 0x64,
  0x00, 0x89, 0x23, 0x64, 0x40, 0x89, 0x2E, 0x64, 0x40, 0x99, 0x2A, 0x64, 0x00, 0x99, 0x24, 0x7F, 0x00, 0x99, 0x23, 0x7F, 0x40, 0x89, 0x2A, 0x64, 0x20, 0x99, 0x2A, 0x64, 0x40, 0x89, 0x2A, 0x64, 0x20, 0x99, 0x2E, 0x64, 0x40, 0x89, 0x24, 0x64,
  0x00, 0x89, 0x23, 0x64, 0x40, 0x89, 0x2E, 0x64, 0x40, 0x99, 0x2A, 0x64, 0x00, 0x99, 0x24, 0x7F, 0x00, 0x99, 0x23, 0x7F, 0x40, 0x89, 0x2A, 0x64, 0x20, 0x99, 0x2A, 0x64, 0x40, 0x89, 0x2A, 0x64, 0x20, 0x99, 0x2E, 0x64, 0x40, 0x89, 0x24, 0x64,
  0x00, 0x89, 0x23, 0x64, 0x40, 0x89, 0x2E, 0x64, 0x40, 0x99, 0x2A, 0x64, 0x00, 0x99, 0x24, 0x7F, 0x00, 0x99, 0x23, 0x7F, 0x40, 0x89, 0x2A, 0x64, 0x20, 0x99, 0x2A, 0x64, 0x40, 0x89, 0x2A, 0x64, 0x20, 0x99, 0x2E, 0x64, 0x40, 0x89, 0x24, 0x64,
  0x00, 0x89, 0x23, 0x64, 0x40, 0x89, 0x2E, 0x64, 0x40, 0x99, 0x2A, 0x64, 0x00, 0x99, 0x24, 0x7F, 0x00, 0x99, 0x23, 0x7F, 0x40, 0x89, 0x2A, 0x64, 0x20, 0x99, 0x2A, 0x64, 0x40, 0x89, 0x2A, 0x64, 0x20, 0x99, 0x2E, 0x64, 0x40, 0x89, 0x24, 0x64,
  0x00, 0x89, 0x23, 0x64, 0x40, 0x89, 0x2E, 0x64, 0x40, 0x99, 0x2A, 0x64, 0x00, 0x99, 0x24, 0x7F, 0x00, 0x99, 0x23, 0x7F, 0x40, 0x89, 0x2A, 0x64, 0x20, 0x99, 0x2A, 0x64, 0x40, 0x89, 0x2A, 0x64, 0x20, 0x99, 0x2E, 0x64, 0x40, 0x89, 0x24, 0x64,
  0x00, 0x89, 0x23, 0x64, 0x40, 0x89, 0x2E, 0x64, 0x40, 0x99, 0x2A, 0x64, 0x00, 0x99, 0x24, 0x7F, 0x00, 0x99, 0x23, 0x7F, 0x40, 0x89, 0x2A, 0x64, 0x20, 0x99, 0x2A, 0x64, 0x40, 0x89, 0x2A, 0x64, 0x20, 0x99, 0x2E, 0x64, 0x40, 0x89, 0x24, 0x64,
  0x00, 0x89, 0x23, 0x64, 0x40, 0x89, 0x2E, 0x64, 0x40, 0x99, 0x2A, 0x64, 0x00, 0x99, 0x24, 0x7F, 0x00, 0x99, 0x23, 0x7F, 0x40, 0x89, 0x2A, 0x64, 0x20, 0x99, 0x2A, 0x64, 0x40, 0x89, 0x2A, 0x64, 0x20, 0x99, 0x2E, 0x64, 0x40, 0x89, 0x24, 0x64,
  0x00, 0x89, 0x23, 0x64, 0x40, 0x89, 0x2E, 0x64, 0x40, 0x99, 0x2A, 0x64, 0x00, 0x99, 0x24, 0x7F, 0x00, 0x99, 0x23, 0x7F, 0x40, 0x89, 0x2A, 0x64, 0x20, 0x99, 0x2A, 0x64, 0x40, 0x89, 0x2A, 0x64, 0x20, 0x99, 0x2E, 0x64, 0x40, 0x89, 0x24, 0x64,
  0x00, 0x89, 0x23, 0x64, 0x40, 0x89, 0x2E, 0x64, 0x40, 0x99, 0x2A, 0x64, 0x00, 0x99, 0x24, 0x7F, 0x00, 0x99, 0x23, 0x7F, 0x40, 0x89, 0x2A, 0x64, 0x20, 0x99, 0x2A, 0x64, 0x40, 0x89, 0x2A, 0x64, 0x20, 0x99, 0x2E, 0x64, 0x40, 0x89, 0x24, 0x64,
  0x00, 0x89, 0x23, 0x64, 0x40, 0x89, 0x2E, 0x64, 0x40, 0x99, 0x2A, 0x64, 0x00, 0x99, 0x24, 0x7F, 0x00, 0x99, 0x23, 0x7F, 0x40, 0x89, 0x2A, 0x64, 0x20, 0x99, 0x2A, 0x64, 0x40, 0x89, 0x2A, 0x64, 0x20, 0x99, 0x2E, 0x64, 0x40, 0x89, 0x24, 0x64,
  0x00, 0x89, 0x23, 0x64, 0x40, 0x89, 0x2E, 0x64, 0x40, 0x99, 0x2A, 0x64, 0x00, 0x99, 0x24, 0x7F, 0x00, 0x99, 0x23, 0x7F, 0x40, 0x89, 0x2A, 0x64, 0x20, 0x99, 0x2A, 0x64, 0x40, 0x89, 0x2A, 0x64, 0x20, 0x99, 0x2E, 0x64, 0x40, 0x89, 0x24, 0x64,
  0x00, 0x89, 0x23, 0x64, 0x40, 0x89, 0x2E, 0x64, 0x40, 0x99, 0x31, 0x64, 0x00, 0x99, 0x2A, 0x64, 0x00, 0x99, 0x24, 0x7F, 0x00, 0x99, 0x23, 0x7F, 0x40, 0x89, 0x2A, 0x64, 0x20, 0x99, 0x2A, 0x64, 0x40, 0x89, 0x2A, 0x64, 0x20, 0x99, 0x2E, 0x64,
  0x40, 0x89, 0x31, 0x64, 0x00, 0x89, 0x24, 0x64, 0x00, 0x89, 0x23, 0x64, 0x40, 0x89, 0x2E, 0x64, 0x40, 0x99, 0x2A, 0x64, 0x00, 0x99, 0x24, 0x7F, 0x00, 0x99, 0x23, 0x7F, 0x40, 0x89, 0x2A, 0x64, 0x20, 0x99, 0x2A, 0x64, 0x40, 0x89, 0x2A, 0x64,
  0x20, 0x99, 0x2E, 0x64, 0x40, 0x89, 0x24, 0x64, 0x00, 0x89, 0x23, 0x64, 0x40, 0x89, 0x2E, 0x64, 0x40, 0x99, 0x2A, 0x64, 0x00, 0x99, 0x24, 0x7F, 0x00, 0x99, 0x23, 0x7F, 0x40, 0x89, 0x2A, 0x64, 0x20, 0x99, 0x2A, 0x64, 0x40, 0x89, 0x2A, 0x64,
  0x20, 0x99, 0x2E, 0x64, 0x40, 0x89, 0x24, 0x64, 0x00, 0x89, 0x23, 0x64, 0x40, 0x89, 0x2E, 0x64, 0x40, 0x99, 0x2A, 0x64, 0x00, 0x99, 0x24, 0x7F, 0x00, 0x99, 0x23, 0x7F, 0x40, 0x89, 0x2A, 0x64, 0x20, 0x99, 0x2A, 0x64, 0x40, 0x89, 0x2A, 0x64,
  0x20, 0x99, 0x2E, 0x64, 0x40, 0x89, 0x24, 0x64, 0x00, 0x89, 0x23, 0x64, 0x40, 0x89, 0x2E, 0x64, 0x40, 0x99, 0x2A, 0x64, 0x00, 0x99, 0x24, 0x7F, 0x00, 0x99, 0x23, 0x7F, 0x40, 0x89, 0x2A, 0x64, 0x20, 0x99, 0x2A, 0x64, 0x40, 0x89, 0x2A, 0x64,
  0x20, 0x99, 0x2E, 0x64, 0x40, 0x89, 0x24, 0x64, 0x00, 0x89, 0x23, 0x64, 0x40, 0x89, 0x2E, 0x64, 0x40, 0x99, 0x2A, 0x64, 0x00, 0x99, 0x24, 0x7F, 0x00, 0x99, 0x23, 0x7F, 0x40, 0x89, 0x2A, 0x64, 0x20, 0x99, 0x2A, 0x64, 0x40, 0x89, 0x2A, 0x64,
  0x20, 0x99, 0x2E, 0x64, 0x40, 0x89, 0x24, 0x64, 0x00, 0x89, 0x23, 0x64, 0x40, 0x89, 0x2E, 0x64, 0x40, 0x99, 0x2A, 0x64, 0x00, 0x99, 0x24, 0x7F, 0x00, 0x99, 0x23, 0x7F, 0x40, 0x89, 0x2A, 0x64, 0x20, 0x99, 0x2A, 0x64, 0x40, 0x89, 0x2A, 0x64,
  0x20, 0x99, 0x2E, 0x64, 0x40, 0x89, 0x24, 0x64, 0x00, 0x89, 0x23, 0x64, 0x40, 0x89, 0x2E, 0x64, 0x40, 0x99, 0x2A, 0x64, 0x00, 0x99, 0x24, 0x7F, 0x00, 0x99, 0x23, 0x7F, 0x40, 0x89, 0x2A, 0x64, 0x20, 0x99, 0x2A, 0x64, 0x40, 0x89, 0x2A, 0x64,
  0x20, 0x99, 0x2E, 0x64, 0x40, 0x89, 0x24, 0x64, 0x00, 0x89, 0x23, 0x64, 0x40, 0x89, 0x2E, 0x64, 0x40, 0x99, 0x2A, 0x64, 0x00, 0x99, 0x24, 0x7F, 0x00, 0x99, 0x23, 0x7F, 0x40, 0x89, 0x2A, 0x64, 0x20, 0x99, 0x2A, 0x64, 0x40, 0x89, 0x2A, 0x64,
  0x20, 0x99, 0x2E, 0x64, 0x40, 0x89, 0x24, 0x64, 0x00, 0x89, 0x23, 0x64, 0x40, 0x89, 0x2E, 0x64, 0x40, 0x99, 0x2A, 0x64, 0x00, 0x99, 0x24, 0x7F, 0x00, 0x99, 0x23, 0x7F, 0x40, 0x89, 0x2A, 0x64, 0x20, 0x99, 0x2A, 0x64, 0x40, 0x89, 0x2A, 0x64,
  0x20, 0x99, 0x2E, 0x64, 0x40, 0x89, 0x24, 0x64, 0x00, 0x89, 0x23, 0x64, 0x40, 0x89, 0x2E, 0x64, 0x40, 0x99, 0x2A, 0x64, 0x00, 0x99, 0x24, 0x7F, 0x00, 0x99, 0x23, 0x7F, 0x40, 0x89, 0x2A, 0x64, 0x20, 0x99, 0x2A, 0x64, 0x40, 0x89, 0x2A, 0x64,
  0x20, 0x99, 0x2E, 0x64, 0x40, 0x89, 0x24, 0x64, 0x00, 0x89, 0x23, 0x64, 0x40, 0x89, 0x2E, 0x64, 0x40, 0x99, 0x2A, 0x64, 0x00, 0x99, 0x24, 0x7F, 0x00, 0x99, 0x23, 0x7F, 0x40, 0x89, 0x2A, 0x64, 0x20, 0x99, 0x2A, 0x64, 0x40, 0x89, 0x2A, 0x64,
  0x20, 0x99, 0x2E, 0x64, 0x40, 0x89, 0x24, 0x64, 0x00, 0x89, 0x23, 0x64, 0x40, 0x89, 0x2E, 0x64, 0x40, 0x99, 0x28, 0x64, 0x40, 0x89, 0x28, 0x64, 0x20, 0x99, 0x28, 0x64, 0x81, 0x00, 0x89, 0x28, 0x64, 0x40, 0x99, 0x28, 0x64, 0x40, 0x89, 0x28,
  0x64, 0x20, 0x99, 0x28, 0x64, 0x81, 0x00, 0x89, 0x28, 0x64, 0x40, 0x99, 0x28, 0x64, 0x40, 0x89, 0x28, 0x64, 0x20, 0x99, 0x28, 0x64, 0x81, 0x00, 0x89, 0x28, 0x64, 0x40, 0x99, 0x28, 0x64, 0x40, 0x89, 0x28, 0x64, 0x20, 0x99, 0x28, 0x64, 0x81,
  0x00, 0x89, 0x28, 0x64, 0x40, 0x99, 0x28, 0x64, 0x40, 0x89, 0x28, 0x64, 0x20, 0x99, 0x28, 0x64, 0x40, 0x89, 0x28, 0x64, 0x20, 0x99, 0x28, 0x64, 0x40, 0x89, 0x28, 0x64, 0x20, 0x99, 0x28, 0x64, 0x40, 0x89, 0x28, 0x64, 0x20, 0x99, 0x2A, 0x64,
  0x00, 0x99, 0x24, 0x7F, 0x00, 0x99, 0x23, 0x7F, 0x40, 0x89, 0x2A, 0x64, 0x20, 0x99, 0x2A, 0x64, 0x40, 0x89, 0x2A, 0x64, 0x20, 0x99, 0x2E, 0x64, 0x40, 0x89, 0x24, 0x64, 0x00, 0x89, 0x23, 0x64, 0x40, 0x89, 0x2E, 0x64, 0x40, 0x99, 0x2A, 0x64,
  0x00, 0x99, 0x24, 0x7F, 0x00, 0x99, 0x23, 0x7F, 0x40, 0x89, 0x2A, 0x64, 0x20, 0x99, 0x2A, 0x64, 0x40, 0x89, 0x2A, 0x64, 0x20, 0x99, 0x2E, 0x64, 0x40, 0x89, 0x24, 0x64, 0x00, 0x89, 0x23, 0x64, 0x40, 0x89, 0x2E, 0x64, 0x40, 0x99, 0x2A, 0x64,
  0x00, 0x99, 0x24, 0x7F, 0x00, 0x99, 0x23, 0x7F, 0x40, 0x89, 0x2A, 0x64, 0x20, 0x99, 0x2A, 0x64, 0x40, 0x89, 0x2A, 0x64, 0x20, 0x99, 0x2E, 0x64, 0x40, 0x89, 0x24, 0x64, 0x00, 0x89, 0x23, 0x64, 0x40, 0x89, 0x2E, 0x64, 0x40, 0x99, 0x2A, 0x64,
  0x00, 0x99, 0x24, 0x7F, 0x00, 0x99, 0x23, 0x7F, 0x40, 0x89, 0x2A, 0x64, 0x20, 0x99, 0x2A, 0x64, 0x40, 0x89, 0x2A, 0x64, 0x20, 0x99, 0x2E, 0x64, 0x40, 0x89, 0x24, 0x64, 0x00, 0x89, 0x23, 0x64, 0x40, 0x89, 0x2E, 0x64, 0x40, 0x99, 0x2A, 0x64,
  0x00, 0x99, 0x24, 0x7F, 0x00, 0x99, 0x23, 0x7F, 0x40, 0x89, 0x2A, 0x64, 0x20, 0x99, 0x2A, 0x64, 0x40, 0x89, 0x2A, 0x64, 0x20, 0x99, 0x2E, 0x64, 0x40, 0x89, 0x24, 0x64, 0x00, 0x89, 0x23, 0x64, 0x40, 0x89, 0x2E, 0x64, 0x40, 0x99, 0x2A, 0x64,
  0x00, 0x99, 0x24, 0x7F, 0x00, 0x99, 0x23, 0x7F, 0x40, 0x89, 0x2A, 0x64, 0x20, 0x99, 0x2A, 0x64, 0x40, 0x89, 0x2A, 0x64, 0x20, 0x99, 0x2E, 0x64, 0x40, 0x89, 0x24, 0x64, 0x00, 0x89, 0x23, 0x64, 0x40, 0x89, 0x2E, 0x64, 0x40, 0x99, 0x2A, 0x64,
  0x00, 0x99, 0x24, 0x7F, 0x00, 0x99, 0x23, 0x7F, 0x40, 0x89, 0x2A, 0x64, 0x20, 0x99, 0x2A, 0x64, 0x40, 0x89, 0x2A, 0x64, 0x20, 0x99, 0x2E, 0x64, 0x40, 0x89, 0x24, 0x64, 0x00, 0x89, 0x23, 0x64, 0x40, 0x89, 0x2E, 0x64, 0x40, 0x99, 0x2A, 0x64,
  0x00, 0x99, 0x24, 0x7F, 0x00, 0x99, 0x23, 0x7F, 0x40, 0x89, 0x2A, 0x64, 0x20, 0x99, 0x2A, 0x64, 0x40, 0x89, 0x2A, 0x64, 0x20, 0x99, 0x2E, 0x64, 0x40, 0x89, 0x24, 0x64, 0x00, 0x89, 0x23, 0x64, 0x40, 0x89, 0x2E, 0x64, 0x40, 0x99, 0x2A, 0x64,
  0x00, 0x99, 0x24, 0x7F, 0x00, 0x99, 0x23, 0x7F, 0x40, 0x89, 0x2A, 0x64, 0x20, 0x99, 0x2A, 0x64, 0x40, 0x89, 0x2A, 0x64, 0x20, 0x99, 0x2E, 0x64, 0x40, 0x89, 0x24, 0x64, 0x00, 0x89, 0x23, 0x64, 0x40, 0x89, 0x2E, 0x64, 0x40, 0x99, 0x2A, 0x64,
  0x00, 0x99, 0x24, 0x7F, 0x00, 0x99, 0x23, 0x7F, 0x40, 0x89, 0x2A, 0x64, 0x20, 0x99, 0x2A, 0x64, 0x40, 0x89, 0x2A, 0x64, 0x20, 0x99, 0x2E, 0x64, 0x40, 0x89, 0x24, 0x64, 0x00, 0x89, 0x23, 0x64, 0x40, 0x89, 0x2E, 0x64, 0x40, 0x99, 0x2A, 0x64,
  0x00, 0x99, 0x24, 0x7F, 0x00, 0x99, 0x23, 0x7F, 0x40, 0x89, 0x2A, 0x64, 0x20, 0x99, 0x2A, 0x64, 0x40, 0x89, 0x2A, 0x64, 0x20, 0x99, 0x2E, 0x64, 0x40, 0x89, 0x24, 0x64, 0x00, 0x89, 0x23, 0x64, 0x40, 0x89, 0x2E, 0x64, 0x40, 0x99, 0x2A, 0x64,
  0x00, 0x99, 0x24, 0x7F, 0x00, 0x99, 0x23, 0x7F, 0x40, 0x89, 0x2A, 0x64, 0x20, 0x99, 0x2A, 0x64, 0x40, 0x89, 0x2A, 0x64, 0x20, 0x99, 0x2E, 0x64, 0x40, 0x89, 0x24, 0x64, 0x00, 0x89, 0x23, 0x64, 0x40, 0x89, 0x2E, 0x64, 0x40, 0x99, 0x2A, 0x64,
  0x00, 0x99, 0x24, 0x7F, 0x00, 0x99, 0x23, 0x7F, 0x40, 0x89, 0x2A, 0x64, 0x20, 0x99, 0x2A, 0x64, 0x40, 0x89, 0x2A, 0x64, 0x20, 0x99, 0x2E, 0x64, 0x40, 0x89, 0x24, 0x64, 0x00, 0x89, 0x23, 0x64, 0x40, 0x89, 0x2E, 0x64, 0x40, 0x99, 0x2A, 0x64,
  0x00, 0x99, 0x24, 0x7F, 0x00, 0x99, 0x23, 0x7F, 0x40, 0x89, 0x2A, 0x64, 0x20, 0x99, 0x2A, 0x64, 0x40, 0x89, 0x2A, 0x64, 0x20, 0x99, 0x2E, 0x64, 0x40, 0x89, 0x24, 0x64, 0x00, 0x89, 0x23, 0x64, 0x40, 0x89, 0x2E, 0x64, 0x40, 0x99, 0x2A, 0x64,
  0x00, 0x99, 0x24, 0x7F, 0x00, 0x99, 0x23, 0x7F, 0x40, 0x89, 0x2A, 0x64, 0x20, 0x99, 0x2A, 0x64, 0x40, 0x89, 0x2A, 0x64, 0x20, 0x99, 0x2E, 0x64, 0x40, 0x89, 0x24, 0x64, 0x00, 0x89, 0x23, 0x64, 0x40, 0x89, 0x2E, 0x64, 0x40, 0x99, 0x2A, 0x64,
  0x00, 0x99, 0x24, 0x7F, 0x00, 0x99, 0x23, 0x7F, 0x40, 0x89, 0x2A, 0x64, 0x20, 0x99, 0x2A, 0x64, 0x40, 0x89, 0x2A, 0x64, 0x20, 0x99, 0x2E, 0x64, 0x40, 0x89, 0x24, 0x64, 0x00, 0x89, 0x23, 0x64, 0x40, 0x89, 0x2E, 0x64, 0x40, 0x99, 0x2A, 0x64,
  0x00, 0x99, 0x24, 0x7F, 0x00, 0x99, 0x23, 0x7F, 0x40, 0x89, 0x2A, 0x64, 0x20, 0x99, 0x2A, 0x64, 0x40, 0x89, 0x2A, 0x64, 0x20, 0x99, 0x2E, 0x64, 0x40, 0x89, 0x24, 0x64, 0x00, 0x89, 0x23, 0x64, 0x40, 0x89, 0x2E, 0x64, 0x40, 0x99, 0x2A, 0x64,
  0x00, 0x99, 0x24, 0x7F, 0x00, 0x99, 0x23, 0x7F, 0x40, 0x89, 0x2A, 0x64, 0x20, 0x99, 0x2A, 0x64, 0x40, 0x89, 0x2A, 0x64, 0x20, 0x99, 0x2E, 0x64, 0x40, 0x89, 0x24, 0x64, 0x00, 0x89, 0x23, 0x64, 0x40, 0x89, 0x2E, 0x64, 0x40, 0x99, 0x2A, 0x64,
  0x00, 0x99, 0x24, 0x7F, 0x00, 0x99, 0x23, 0x7F, 0x40, 0x89, 0x2A, 0x64, 0x20, 0x99, 0x2A, 0x64, 0x40, 0x89, 0x2A, 0x64, 0x20, 0x99, 0x2E, 0x64, 0x40, 0x89, 0x24, 0x64, 0x00, 0x89, 0x23, 0x64, 0x40, 0x89, 0x2E, 0x64, 0x40, 0x99, 0x2A, 0x64,
  0x00, 0x99, 0x24, 0x7F, 0x00, 0x99, 0x23, 0x7F, 0x40, 0x89, 0x2A, 0x64, 0x20, 0x99, 0x2A, 0x64, 0x40, 0x89, 0x2A, 0x64, 0x20, 0x99, 0x2E, 0x64, 0x40, 0x89, 0x24, 0x64, 0x00, 0x89, 0x23, 0x64, 0x40, 0x89, 0x2E, 0x64, 0x40, 0x99, 0x2A, 0x64,
  0x00, 0x99, 0x24, 0x7F, 0x00, 0x99, 0x23, 0x7F, 0x40, 0x89, 0x2A, 0x64, 0x20, 0x99, 0x2A, 0x64, 0x40, 0x89, 0x2A, 0x64, 0x20, 0x99, 0x2E, 0x64, 0x40, 0x89, 0x24, 0x64, 0x00, 0x89, 0x23, 0x64, 0x40, 0x89, 0x2E, 0x64, 0x40, 0x99, 0x2A, 0x64,
  0x00, 0x99, 0x24, 0x7F, 0x00, 0x99, 0x23, 0x7F, 0x40, 0x89, 0x2A, 0x64, 0x20, 0x99, 0x2A, 0x64, 0x40, 0x89, 0x2A, 0x64, 0x20, 0x99, 0x2E, 0x64, 0x40, 0x89, 0x24, 0x64, 0x00, 0x89, 0x23, 0x64, 0x40, 0x89, 0x2E, 0x64, 0x40, 0x99, 0x2A, 0x64,
  0x00, 0x99, 0x24, 0x7F, 0x00, 0x99, 0x23, 0x7F, 0x40, 0x89, 0x2A, 0x64, 0x20, 0x99, 0x2A, 0x64, 0x40, 0x89, 0x2A, 0x64, 0x20, 0x99, 0x2E, 0x64, 0x40, 0x89, 0x24, 0x64, 0x00, 0x89, 0x23, 0x64, 0x40, 0x89, 0x2E, 0x64, 0x40, 0x99, 0x2A, 0x64,
  0x00, 0x99, 0x24, 0x7F, 0x00, 0x99, 0x23, 0x7F, 0x40, 0x89, 0x2A, 0x64, 0x20, 0x99, 0x2A, 0x64, 0x40, 0x89, 0x2A, 0x64, 0x20, 0x99, 0x2E, 0x64, 0x40, 0x89, 0x24, 0x64, 0x00, 0x89, 0x23, 0x64, 0x40, 0x89, 0x2E, 0x64, 0x40, 0x99, 0x2A, 0x64,
  0x00, 0x99, 0x24, 0x7F, 0x00, 0x99, 0x23, 0x7F, 0x40, 0x89, 0x2A, 0x64, 0x20, 0x99, 0x2A, 0x64, 0x40, 0x89, 0x2A, 0x64, 0x20, 0x99, 0x2E, 0x64, 0x40, 0x89, 0x24, 0x64, 0x00, 0x89, 0x23, 0x64, 0x40, 0x89, 0x2E, 0x64, 0x40, 0x99, 0x2A, 0x64,
  0x00, 0x99, 0x24, 0x7F, 0x00, 0x99, 0x23, 0x7F, 0x40, 0x89, 0x2A, 0x64, 0x20, 0x99, 0x2A, 0x64, 0x40, 0x89, 0x2A, 0x64, 0x20, 0x99, 0x2E, 0x64, 0x40, 0x89, 0x24, 0x64, 0x00, 0x89, 0x23, 0x64, 0x40, 0x89, 0x2E, 0x64, 0x40, 0x99, 0x2A, 0x64,
  0x00, 0x99, 0x24, 0x7F, 0x00, 0x99, 0x23, 0x7F, 0x40, 0x89, 0x2A, 0x64, 0x20, 0x99, 0x2A, 0x64, 0x40, 0x89, 0x2A, 0x64, 0x20, 0x99, 0x2E, 0x64, 0x40, 0x89, 0x24, 0x64, 0x00, 0x89, 0x23, 0x64, 0x40, 0x89, 0x2E, 0x64, 0x40, 0x99, 0x2A, 0x64,
  0x00, 0x99, 0x24, 0x7F, 0x00, 0x99, 0x23, 0x7F, 0x40, 0x89, 0x2A, 0x64, 0x20, 0x99, 0x2A, 0x64, 0x40, 0x89, 0x2A, 0x64, 0x20, 0x99, 0x2E, 0x64, 0x40, 0x89, 0x24, 0x64, 0x00, 0x89, 0x23, 0x64, 0x40, 0x89, 0x2E, 0x64, 0x40, 0x99, 0x2A, 0x64,
  0x00, 0x99, 0x24, 0x7F, 0x00, 0x99, 0x23, 0x7F, 0x40, 0x89, 0x2A, 0x64, 0x20, 0x99, 0x2A, 0x64, 0x40, 0x89, 0x2A, 0x64, 0x20, 0x99, 0x2E, 0x64, 0x40, 0x89, 0x24, 0x64, 0x00, 0x89, 0x23, 0x64, 0x40, 0x89, 0x2E, 0x64, 0x40, 0x99, 0x2A, 0x64,
  0x00, 0x99, 0x24, 0x7F, 0x00, 0x99, 0x23, 0x7F, 0x40, 0x89, 0x2A, 0x64, 0x20, 0x99, 0x2A, 0x64, 0x40, 0x89, 0x2A, 0x64, 0x20, 0x99, 0x2E, 0x64, 0x40, 0x89, 0x24, 0x64, 0x00, 0x89, 0x23, 0x64, 0x40, 0x89, 0x2E, 0x64, 0x40, 0x99, 0x2A, 0x64,
  0x00, 0x99, 0x24, 0x7F, 0x00, 0x99, 0x23, 0x7F, 0x40, 0x89, 0x2A, 0x64, 0x20, 0x99, 0x2A, 0x64, 0x40, 0x89, 0x2A, 0x64, 0x20, 0x99, 0x2E, 0x64, 0x40, 0x89, 0x24, 0x64, 0x00, 0x89, 0x23, 0x64, 0x40, 0x89, 0x2E, 0x64, 0x40, 0x99, 0x2A, 0x64,
  0x00, 0x99, 0x24, 0x7F, 0x00, 0x99, 0x23, 0x7F, 0x40, 0x89, 0x2A, 0x64, 0x20, 0x99, 0x2A, 0x64, 0x40, 0x89, 0x2A, 0x64, 0x20, 0x99, 0x2E, 0x64, 0x40, 0x89, 0x24, 0x64, 0x00, 0x89, 0x23, 0x64, 0x40, 0x89, 0x2E, 0x64, 0x40, 0x99, 0x31, 0x64,
  0x00, 0x99, 0x2A, 0x64, 0x40, 0x89, 0x2A, 0x64, 0x20, 0x99, 0x2A, 0x64, 0x40, 0x89, 0x2A, 0x64, 0x20, 0x99, 0x2E, 0x64, 0x40, 0x89, 0x31, 0x64, 0x40, 0x89, 0x2E, 0x64, 0x40, 0x99, 0x2A, 0x64, 0x40, 0x89, 0x2A, 0x64, 0x20, 0x99, 0x2A, 0x64,
  0x40, 0x89, 0x2A, 0x64, 0x20, 0x99, 0x2E, 0x64, 0x81, 0x00, 0x89, 0x2E, 0x64, 0x40, 0x99, 0x2A, 0x64, 0x40, 0x89, 0x2A, 0x64, 0x20, 0x99, 0x2A, 0x64, 0x40, 0x89, 0x2A, 0x64, 0x20, 0x99, 0x2E, 0x64, 0x81, 0x00, 0x89, 0x2E, 0x64, 0x40, 0x99,
  0x2A, 0x64, 0x40, 0x89, 0x2A, 0x64, 0x20, 0x99, 0x2A, 0x64, 0x40, 0x89, 0x2A, 0x64, 0x20, 0x99, 0x2E, 0x64, 0x81, 0x00, 0x89, 0x2E, 0x64, 0x40, 0x99, 0x2A, 0x64, 0x40, 0x89, 0x2A, 0x64, 0x20, 0x99, 0x2A, 0x64, 0x40, 0x89, 0x2A, 0x64, 0x20,
  0x99, 0x2E, 0x64, 0x81, 0x00, 0x89, 0x2E, 0x64, 0x40, 0x99, 0x2A, 0x64, 0x40, 0x89, 0x2A, 0x64, 0x20, 0x99, 0x2A, 0x64, 0x40, 0x89, 0x2A, 0x64, 0x20, 0x99, 0x2E, 0x64, 0x81, 0x00, 0x89, 0x2E, 0x64, 0x40, 0x99, 0x2A, 0x64, 0x40, 0x89, 0x2A,
  0x64, 0x20, 0x99, 0x2A, 0x64, 0x40, 0x89, 0x2A, 0x64, 0x20, 0x99, 0x2E, 0x64, 0x81, 0x00, 0x89, 0x2E, 0x64, 0x40, 0x99, 0x2A, 0x64, 0x40, 0x89, 0x2A, 0x64, 0x20, 0x99, 0x2A, 0x64, 0x40, 0x89, 0x2A, 0x64, 0x20, 0x99, 0x2E, 0x64, 0x81, 0x00,
  0x89, 0x2E, 0x64, 0x40, 0x99, 0x2A, 0x64, 0x40, 0x89, 0x2A, 0x64, 0x20, 0x99, 0x2A, 0x64, 0x40, 0x89, 0x2A, 0x64, 0x20, 0x99, 0x2E, 0x64, 0x81, 0x00, 0x89, 0x2E, 0x64, 0x40, 0x99, 0x2A, 0x64, 0x40, 0x89, 0x2A, 0x64, 0x20, 0x99, 0x2A, 0x64,
  0x40, 0x89, 0x2A, 0x64, 0x20, 0x99, 0x2E, 0x64, 0x81, 0x00, 0x89, 0x2E, 0x64, 0x40, 0x99, 0x2A, 0x64, 0x40, 0x89, 0x2A, 0x64, 0x20, 0x99, 0x2A, 0x64, 0x40, 0x89, 0x2A, 0x64, 0x20, 0x99, 0x2E, 0x64, 0x81, 0x00, 0x89, 0x2E, 0x64, 0x40, 0x99,
  0x2A, 0x64, 0x40, 0x89, 0x2A, 0x64, 0x20, 0x99, 0x2A, 0x64, 0x40, 0x89, 0x2A, 0x64, 0x20, 0x99, 0x2E, 0x64, 0x81, 0x00, 0x89, 0x2E, 0x64, 0x40, 0x99, 0x2A, 0x64, 0x40, 0x89, 0x2A, 0x64, 0x20, 0x99, 0x2A, 0x64, 0x40, 0x89, 0x2A, 0x64, 0x20,
  0x99, 0x2E, 0x64, 0x81, 0x00, 0x89, 0x2E, 0x64, 0x40, 0x99, 0x2A, 0x64, 0x40, 0x89, 0x2A, 0x64, 0x20, 0x99, 0x2A, 0x64, 0x40, 0x89, 0x2A, 0x64, 0x20, 0x99, 0x2E, 0x64, 0x81, 0x00, 0x89, 0x2E, 0x64, 0x40, 0x99, 0x2A, 0x64, 0x40, 0x89, 0x2A,
  0x64, 0x20, 0x99, 0x2A, 0x64, 0x40, 0x89, 0x2A, 0x64, 0x20, 0x99, 0x2E, 0x64, 0x81, 0x00, 0x89, 0x2E, 0x64, 0x40, 0x99, 0x2A, 0x64, 0x40, 0x89, 0x2A, 0x64, 0x20, 0x99, 0x2A, 0x64, 0x40, 0x89, 0x2A, 0x64, 0x20, 0x99, 0x2E, 0x64, 0x81, 0x00,
  0x89, 0x2E, 0x64, 0x40, 0x99, 0x31, 0x64, 0x00, 0x99, 0x2A, 0x64, 0x00, 0x99, 0x24, 0x64, 0x00, 0x99, 0x23, 0x7F, 0x40, 0x89, 0x2A, 0x64, 0x20, 0x99, 0x2A, 0x64, 0x20, 0x89, 0x24, 0x64, 0x00, 0x89, 0x23, 0x64, 0x20, 0x89, 0x2A, 0x64, 0x20,
  0x99, 0x2E, 0x64, 0x00, 0x99, 0x24, 0x64, 0x00, 0x99, 0x23, 0x7F, 0x40, 0x89, 0x31, 0x64, 0x40, 0x89, 0x2E, 0x64, 0x40, 0x99, 0x2A, 0x64, 0x40, 0x89, 0x24, 0x64, 0x00, 0x89, 0x23, 0x64, 0x00, 0x89, 0x2A, 0x64, 0x20, 0x99, 0x2A, 0x64, 0x40,
  0x89, 0x2A, 0x64, 0x20, 0x99, 0x2E, 0x64, 0x81, 0x00, 0x89, 0x2E, 0x64, 0x40, 0x99, 0x2A, 0x64, 0x40, 0x89, 0x2A, 0x64, 0x20, 0x99, 0x2A, 0x64, 0x40, 0x89, 0x2A, 0x64, 0x20, 0x99, 0x2E, 0x64, 0x81, 0x00, 0x89, 0x2E, 0x64, 0x40, 0x99, 0x2A,
  0x64, 0x40, 0x89, 0x2A, 0x64, 0x20, 0x99, 0x2A, 0x64, 0x40, 0x89, 0x2A, 0x64, 0x20, 0x99, 0x2E, 0x64, 0x81, 0x00, 0x89, 0x2E, 0x64, 0x40, 0x99, 0x2A, 0x64, 0x00, 0x99, 0x24, 0x64, 0x00, 0x99, 0x23, 0x7F, 0x40, 0x89, 0x2A, 0x64, 0x20, 0x99,
  0x2A, 0x64, 0x20, 0x89, 0x24, 0x64, 0x00, 0x89, 0x23, 0x64, 0x20, 0x89, 0x2A, 0x64, 0x20, 0x99, 0x2E, 0x64, 0x00, 0x99, 0x24, 0x64, 0x00, 0x99, 0x23, 0x7F, 0x81, 0x00, 0x89, 0x2E, 0x64, 0x40, 0x99, 0x2A, 0x64, 0x40, 0x89, 0x24, 0x64, 0x00,
  0x89, 0x23, 0x64, 0x00, 0x89, 0x2A, 0x64, 0x20, 0x99, 0x2A, 0x64, 0x40, 0x89, 0x2A, 0x64, 0x20, 0x99, 0x2E, 0x64, 0x81, 0x00, 0x89, 0x2E, 0x64, 0x40, 0x99, 0x2A, 0x64, 0x40, 0x89, 0x2A, 0x64, 0x20, 0x99, 0x2A, 0x64, 0x40, 0x89, 0x2A, 0x64,
  0x20, 0x99, 0x2E, 0x64, 0x81, 0x00, 0x89, 0x2E, 0x64, 0x40, 0x99, 0x2A, 0x64, 0x40, 0x89, 0x2A, 0x64, 0x20, 0x99, 0x2A, 0x64, 0x40, 0x89, 0x2A, 0x64, 0x20, 0x99, 0x2E, 0x64, 0x81, 0x00, 0x89, 0x2E, 0x64, 0x40, 0x99, 0x2A, 0x64, 0x00, 0x99,
  0x24, 0x64, 0x00, 0x99, 0x23, 0x7F, 0x40, 0x89, 0x2A, 0x64, 0x20, 0x99, 0x2A, 0x64, 0x20, 0x89, 0x24, 0x64, 0x00, 0x89, 0x23, 0x64, 0x20, 0x89, 0x2A, 0x64, 0x20, 0x99, 0x2E, 0x64, 0x00, 0x99, 0x23, 0x64, 0x00, 0x99, 0x24, 0x64, 0x81, 0x00,
  0x89, 0x2E, 0x64, 0x40, 0x99, 0x2A, 0x64, 0x40, 0x89, 0x23, 0x64, 0x00, 0x89, 0x24, 0x64, 0x00, 0x89, 0x2A, 0x64, 0x20, 0x99, 0x2A, 0x64, 0x40, 0x89, 0x2A, 0x64, 0x20, 0x99, 0x2E, 0x64, 0x81, 0x00, 0x89, 0x2E, 0x64, 0x40, 0x99, 0x2A, 0x64,
  0x40, 0x89, 0x2A, 0x64, 0x20, 0x99, 0x2A, 0x64, 0x40, 0x89, 0x2A, 0x64, 0x20, 0x99, 0x2E, 0x64, 0x81, 0x00, 0x89, 0x2E, 0x64, 0x40, 0x99, 0x2A, 0x64, 0x40, 0x89, 0x2A, 0x64, 0x20, 0x99, 0x2A, 0x64, 0x40, 0x89, 0x2A, 0x64, 0x20, 0x99, 0x2E,
  0x64, 0x81, 0x00, 0x89, 0x2E, 0x64, 0x40, 0x99, 0x2A, 0x64, 0x00, 0x99, 0x24, 0x64, 0x00, 0x99, 0x23, 0x7F, 0x40, 0x89, 0x2A, 0x64, 0x20, 0x99, 0x2A, 0x64, 0x20, 0x89, 0x24, 0x64, 0x00, 0x89, 0x23, 0x64, 0x20, 0x89, 0x2A, 0x64, 0x20, 0x99,
  0x2E, 0x64, 0x00, 0x99, 0x24, 0x64, 0x00, 0x99, 0x23, 0x7F, 0x81, 0x00, 0x89, 0x2E, 0x64, 0x40, 0x99, 0x2A, 0x64, 0x40, 0x89, 0x24, 0x64, 0x00, 0x89, 0x23, 0x64, 0x00, 0x89, 0x2A, 0x64, 0x20, 0x99, 0x2A, 0x64, 0x40, 0x89, 0x2A, 0x64, 0x20,
  0x99, 0x2E, 0x64, 0x81, 0x00, 0x89, 0x2E, 0x64, 0x40, 0x99, 0x2A, 0x64, 0x40, 0x89, 0x2A, 0x64, 0x20, 0x99, 0x2A, 0x64, 0x40, 0x89, 0x2A, 0x64, 0x20, 0x99, 0x2E, 0x64, 0x81, 0x00, 0x89, 0x2E, 0x64, 0x40, 0x99, 0x2A, 0x64, 0x40, 0x89, 0x2A,
  0x64, 0x20, 0x99, 0x2A, 0x64, 0x40, 0x89, 0x2A, 0x64, 0x20, 0x99, 0x2E, 0x64, 0x81, 0x00, 0x89, 0x2E, 0x64, 0x40, 0x99, 0x31, 0x64, 0x00, 0x99, 0x2A, 0x64, 0x00, 0x99, 0x24, 0x7F, 0x00, 0x99, 0x23, 0x7F, 0x40, 0x89, 0x2A, 0x64, 0x20, 0x99,
  0x2A, 0x64, 0x40, 0x89, 0x2A, 0x64, 0x20, 0x99, 0x2E, 0x64, 0x40, 0x89, 0x31, 0x64, 0x00, 0x89, 0x24, 0x64, 0x00, 0x89, 0x23, 0x64, 0x40, 0x89, 0x2E, 0x64, 0x40, 0x99, 0x2A, 0x64, 0x00, 0x99, 0x24, 0x7F, 0x00, 0x99, 0x23, 0x7F, 0x40, 0x89,
  0x2A, 0x64, 0x20, 0x99, 0x2A, 0x64, 0x40, 0x89, 0x2A, 0x64, 0x20, 0x99, 0x2E, 0x64, 0x40, 0x89, 0x24, 0x64, 0x00, 0x89, 0x23, 0x64, 0x40, 0x89, 0x2E, 0x64, 0x40, 0x99, 0x2A, 0x64, 0x00, 0x99, 0x24, 0x7F, 0x00, 0x99, 0x23, 0x7F, 0x40, 0x89,
  0x2A, 0x64, 0x20, 0x99, 0x2A, 0x64, 0x40, 0x89, 0x2A, 0x64, 0x20, 0x99, 0x2E, 0x64, 0x40, 0x89, 0x24, 0x64, 0x00, 0x89, 0x23, 0x64, 0x40, 0x89, 0x2E, 0x64, 0x40, 0x99, 0x2A, 0x64, 0x00, 0x99, 0x24, 0x7F, 0x00, 0x99, 0x23, 0x7F, 0x40, 0x89,
  0x2A, 0x64, 0x20, 0x99, 0x2A, 0x64, 0x40, 0x89, 0x2A, 0x64, 0x20, 0x99, 0x2E, 0x64, 0x40, 0x89, 0x24, 0x64, 0x00, 0x89, 0x23, 0x64, 0x40, 0x89, 0x2E, 0x64, 0x40, 0x99, 0x2A, 0x64, 0x00, 0x99, 0x24, 0x7F, 0x00, 0x99, 0x23, 0x7F, 0x40, 0x89,
  0x2A, 0x64, 0x20, 0x99, 0x2A, 0x64, 0x40, 0x89, 0x2A, 0x64, 0x20, 0x99, 0x2E, 0x64, 0x40, 0x89, 0x24, 0x64, 0x00, 0x89, 0x23, 0x64, 0x40, 0x89, 0x2E, 0x64, 0x40, 0x99, 0x2A, 0x64, 0x00, 0x99, 0x24, 0x7F, 0x00, 0x99, 0x23, 0x7F, 0x40, 0x89,
  0x2A, 0x64, 0x20, 0x99, 0x2A, 0x64, 0x40, 0x89, 0x2A, 0x64, 0x20, 0x99, 0x2E, 0x64, 0x40, 0x89, 0x24, 0x64, 0x00, 0x89, 0x23, 0x64, 0x40, 0x89, 0x2E, 0x64, 0x40, 0x99, 0x2A, 0x64, 0x00, 0x99, 0x24, 0x7F, 0x00, 0x99, 0x23, 0x7F, 0x40, 0x89,
  0x2A, 0x64, 0x20, 0x99, 0x2A, 0x64, 0x40, 0x89, 0x2A, 0x64, 0x20, 0x99, 0x2E, 0x64, 0x40, 0x89, 0x24, 0x64, 0x00, 0x89, 0x23, 0x64, 0x40, 0x89, 0x2E, 0x64, 0x40, 0x99, 0x2A, 0x64, 0x00, 0x99, 0x24, 0x7F, 0x00, 0x99, 0x23, 0x7F, 0x40, 0x89,
  0x2A, 0x64, 0x20, 0x99, 0x2A, 0x64, 0x40, 0x89, 0x2A, 0x64, 0x20, 0x99, 0x2E, 0x64, 0x40, 0x89, 0x24, 0x64, 0x00, 0x89, 0x23, 0x64, 0x40, 0x89, 0x2E, 0x64, 0x40, 0x99, 0x2A, 0x64, 0x00, 0x99, 0x24, 0x7F, 0x00, 0x99, 0x23, 0x7F, 0x40, 0x89,
  0x2A, 0x64, 0x20, 0x99, 0x2A, 0x64, 0x40, 0x89, 0x2A, 0x64, 0x20, 0x99, 0x2E, 0x64, 0x40, 0x89, 0x24, 0x64, 0x00, 0x89, 0x23, 0x64, 0x40, 0x89, 0x2E, 0x64, 0x40, 0x99, 0x2A, 0x64, 0x00, 0x99, 0x24, 0x7F, 0x00, 0x99, 0x23, 0x7F, 0x40, 0x89,
  0x2A, 0x64, 0x20, 0x99, 0x2A, 0x64, 0x40, 0x89, 0x2A, 0x64, 0x20, 0x99, 0x2E, 0x64, 0x40, 0x89, 0x24, 0x64, 0x00, 0x89, 0x23, 0x64, 0x40, 0x89, 0x2E, 0x64, 0x40, 0x99, 0x2A, 0x64, 0x00, 0x99, 0x24, 0x7F, 0x00, 0x99, 0x23, 0x7F, 0x40, 0x89,
  0x2A, 0x64, 0x20, 0x99, 0x2A, 0x64, 0x40, 0x89, 0x2A, 0x64, 0x20, 0x99, 0x2E, 0x64, 0x40, 0x89, 0x24, 0x64, 0x00, 0x89, 0x23, 0x64, 0x40, 0x89, 0x2E, 0x64, 0x40, 0x99, 0x2A, 0x64, 0x00, 0x99, 0x24, 0x7F, 0x00, 0x99, 0x23, 0x7F, 0x40, 0x89,
  0x2A, 0x64, 0x20, 0x99, 0x2A, 0x64, 0x40, 0x89, 0x2A, 0x64, 0x20, 0x99, 0x2E, 0x64, 0x40, 0x89, 0x24, 0x64, 0x00, 0x89, 0x23, 0x64, 0x40, 0x89, 0x2E, 0x64, 0x40, 0x99, 0x2A, 0x64, 0x00, 0x99, 0x24, 0x7F, 0x00, 0x99, 0x23, 0x7F, 0x40, 0x89,
  0x2A, 0x64, 0x20, 0x99, 0x2A, 0x64, 0x40, 0x89, 0x2A, 0x64, 0x20, 0x99, 0x2E, 0x64, 0x40, 0x89, 0x24, 0x64, 0x00, 0x89, 0x23, 0x64, 0x40, 0x89, 0x2E, 0x64, 0x40, 0x99, 0x2A, 0x64, 0x00, 0x99, 0x24, 0x7F, 0x00, 0x99, 0x23, 0x7F, 0x40, 0x89,
  0x2A, 0x64, 0x20, 0x99, 0x2A, 0x64, 0x40, 0x89, 0x2A, 0x64, 0x20, 0x99, 0x2E, 0x64, 0x40, 0x89, 0x24, 0x64, 0x00, 0x89, 0x23, 0x64, 0x40, 0x89, 0x2E, 0x64, 0x40, 0x99, 0x2A, 0x64, 0x00, 0x99, 0x24, 0x7F, 0x00, 0x99, 0x23, 0x7F, 0x40, 0x89,
  0x2A, 0x64, 0x20, 0x99, 0x2A, 0x64, 0x40, 0x89, 0x2A, 0x64, 0x20, 0x99, 0x2E, 0x64, 0x40, 0x89, 0x24, 0x64, 0x00, 0x89, 0x23, 0x64, 0x40, 0x89, 0x2E, 0x64, 0x40, 0x99, 0x2A, 0x64, 0x00, 0x99, 0x24, 0x7F, 0x00, 0x99, 0x23, 0x7F, 0x40, 0x89,
  0x2A, 0x64, 0x20, 0x99, 0x2A, 0x64, 0x40, 0x89, 0x2A, 0x64, 0x20, 0x99, 0x2E, 0x64, 0x40, 0x89, 0x24, 0x64, 0x00, 0x89, 0x23, 0x64, 0x40, 0x89, 0x2E, 0x64, 0x40, 0x99, 0x31, 0x64, 0x00, 0x99, 0x2A, 0x64, 0x00, 0x99, 0x24, 0x7F, 0x00, 0x99,
  0x23, 0x7F, 0x40, 0x89, 0x2A, 0x64, 0x20, 0x99, 0x2A, 0x64, 0x40, 0x89, 0x2A, 0x64, 0x20, 0x99, 0x2E, 0x64, 0x40, 0x89, 0x31, 0x64, 0x00, 0x89, 0x24, 0x64, 0x00, 0x89, 0x23, 0x64, 0x40, 0x89, 0x2E, 0x64, 0x40, 0x99, 0x2A, 0x64, 0x00, 0x99,
  0x24, 0x7F, 0x00, 0x99, 0x23, 0x7F, 0x40, 0x89, 0x2A, 0x64, 0x20, 0x99, 0x2A, 0x64, 0x40, 0x89, 0x2A, 0x64, 0x20, 0x99, 0x2E, 0x64, 0x40, 0x89, 0x24, 0x64, 0x00, 0x89, 0x23, 0x64, 0x40, 0x89, 0x2E, 0x64, 0x40, 0x99, 0x2A, 0x64, 0x00, 0x99,
  0x24, 0x7F, 0x00, 0x99, 0x23, 0x7F, 0x40, 0x89, 0x2A, 0x64, 0x20, 0x99, 0x2A, 0x64, 0x40, 0x89, 0x2A, 0x64, 0x20, 0x99, 0x2E, 0x64, 0x40, 0x89, 0x24, 0x64, 0x00, 0x89, 0x23, 0x64, 0x40, 0x89, 0x2E, 0x64, 0x40, 0x99, 0x2A, 0x64, 0x00, 0x99,
  0x24, 0x7F, 0x00, 0x99, 0x23, 0x7F, 0x40, 0x89, 0x2A, 0x64, 0x20, 0x99, 0x2A, 0x64, 0x40, 0x89, 0x2A, 0x64, 0x20, 0x99, 0x2E, 0x64, 0x40, 0x89, 0x24, 0x64, 0x00, 0x89, 0x23, 0x64, 0x40, 0x89, 0x2E, 0x64, 0x40, 0x99, 0x2A, 0x64, 0x00, 0x99,
  0x24, 0x7F, 0x00, 0x99, 0x23, 0x7F, 0x40, 0x89, 0x2A, 0x64, 0x20, 0x99, 0x2A, 0x64, 0x40, 0x89, 0x2A, 0x64, 0x20, 0x99, 0x2E, 0x64, 0x40, 0x89, 0x24, 0x64, 0x00, 0x89, 0x23, 0x64, 0x40, 0x89, 0x2E, 0x64, 0x40, 0x99, 0x2A, 0x64, 0x00, 0x99,
  0x24, 0x7F, 0x00, 0x99, 0x23, 0x7F, 0x40, 0x89, 0x2A, 0x64, 0x20, 0x99, 0x2A, 0x64, 0x40, 0x89, 0x2A, 0x64, 0x20, 0x99, 0x2E, 0x64, 0x40, 0x89, 0x24, 0x64, 0x00, 0x89, 0x23, 0x64, 0x40, 0x89, 0x2E, 0x64, 0x40, 0x99, 0x2A, 0x64, 0x00, 0x99,
  0x24, 0x7F, 0x00, 0x99, 0x23, 0x7F, 0x40, 0x89, 0x2A, 0x64, 0x20, 0x99, 0x2A, 0x64, 0x40, 0x89, 0x2A, 0x64, 0x20, 0x99, 0x2E, 0x64, 0x40, 0x89, 0x24, 0x64, 0x00, 0x89, 0x23, 0x64, 0x40, 0x89, 0x2E, 0x64, 0x40, 0x99, 0x2A, 0x64, 0x00, 0x99,
  0x24, 0x7F, 0x00, 0x99, 0x23, 0x7F, 0x40, 0x89, 0x2A, 0x64, 0x20, 0x99, 0x2A, 0x64, 0x40, 0x89, 0x2A, 0x64, 0x20, 0x99, 0x2E, 0x64, 0x40, 0x89, 0x24, 0x64, 0x00, 0x89, 0x23, 0x64, 0x40, 0x89, 0x2E, 0x64, 0x40, 0x99, 0x2A, 0x64, 0x00, 0x99,
  0x24, 0x7F, 0x00, 0x99, 0x23, 0x7F, 0x40, 0x89, 0x2A, 0x64, 0x20, 0x99, 0x2A, 0x64, 0x40, 0x89, 0x2A, 0x64, 0x20, 0x99, 0x2E, 0x64, 0x40, 0x89, 0x24, 0x64, 0x00, 0x89, 0x23, 0x64, 0x40, 0x89, 0x2E, 0x64, 0x40, 0x99, 0x2A, 0x64, 0x00, 0x99,
  0x24, 0x7F, 0x00, 0x99, 0x23, 0x7F, 0x40, 0x89, 0x2A, 0x64, 0x20, 0x99, 0x2A, 0x64, 0x40, 0x89, 0x2A, 0x64, 0x20, 0x99, 0x2E, 0x64, 0x40, 0x89, 0x24, 0x64, 0x00, 0x89, 0x23, 0x64, 0x40, 0x89, 0x2E, 0x64, 0x40, 0x99, 0x2A, 0x64, 0x00, 0x99,
  0x24, 0x7F, 0x00, 0x99, 0x23, 0x7F, 0x40, 0x89, 0x2A, 0x64, 0x20, 0x99, 0x2A, 0x64, 0x40, 0x89, 0x2A, 0x64, 0x20, 0x99, 0x2E, 0x64, 0x40, 0x89, 0x24, 0x64, 0x00, 0x89, 0x23, 0x64, 0x40, 0x89, 0x2E, 0x64, 0x40, 0x99, 0x2A, 0x64, 0x00, 0x99,
  0x24, 0x7F, 0x00, 0x99, 0x23, 0x7F, 0x40, 0x89, 0x2A, 0x64, 0x20, 0x99, 0x2A, 0x64, 0x40, 0x89, 0x2A, 0x64, 0x20, 0x99, 0x2E, 0x64, 0x40, 0x89, 0x24, 0x64, 0x00, 0x89, 0x23, 0x64, 0x40, 0x89, 0x2E, 0x64, 0x40, 0x99, 0x24, 0x7F, 0x00, 0x99,
  0x23, 0x7F, 0x82, 0x00, 0x89, 0x24, 0x64, 0x00, 0x89, 0x23, 0x64, 0x81, 0x00, 0x99, 0x24, 0x7F, 0x00, 0x99, 0x23, 0x7F, 0x82, 0x00, 0x89, 0x24, 0x64, 0x00, 0x89, 0x23, 0x64, 0x81, 0x00, 0x99, 0x24, 0x7F, 0x00, 0x99, 0x23, 0x7F, 0x82, 0x00,
  0x89, 0x24, 0x64, 0x00, 0x89, 0x23, 0x64, 0x81, 0x00, 0x99, 0x24, 0x7F, 0x00, 0x99, 0x23, 0x7F, 0x82, 0x00, 0x89, 0x24, 0x64, 0x00, 0x89, 0x23, 0x64, 0x81, 0x00, 0x99, 0x2A, 0x64, 0x00, 0x99, 0x24, 0x7F, 0x00, 0x99, 0x23, 0x7F, 0x40, 0x89,
  0x2A, 0x64, 0x20, 0x99, 0x2A, 0x64, 0x40, 0x89, 0x2A, 0x64, 0x20, 0x99, 0x2E, 0x64, 0x40, 0x89, 0x24, 0x64, 0x00, 0x89, 0x23, 0x64, 0x40, 0x89, 0x2E, 0x64, 0x40, 0x99, 0x2A, 0x64, 0x00, 0x99, 0x24, 0x7F, 0x00, 0x99, 0x23, 0x7F, 0x40, 0x89,
  0x2A, 0x64, 0x20, 0x99, 0x2A, 0x64, 0x40, 0x89, 0x2A, 0x64, 0x20, 0x99, 0x2E, 0x64, 0x40, 0x89, 0x24, 0x64, 0x00, 0x89, 0x23, 0x64, 0x40, 0x89, 0x2E, 0x64, 0x40, 0x99, 0x2A, 0x64, 0x00, 0x99, 0x24, 0x7F, 0x00, 0x99, 0x23, 0x7F, 0x40, 0x89,
  0x2A, 0x64, 0x20, 0x99, 0x2A, 0x64, 0x40, 0x89, 0x2A, 0x64, 0x20, 0x99, 0x2E, 0x64, 0x40, 0x89, 0x24, 0x64, 0x00, 0x89, 0x23, 0x64, 0x40, 0x89, 0x2E, 0x64, 0x40, 0x99, 0x2A, 0x64, 0x00, 0x99, 0x24, 0x7F, 0x00, 0x99, 0x23, 0x7F, 0x40, 0x89,
  0x2A, 0x64, 0x20, 0x99, 0x2A, 0x64, 0x40, 0x89, 0x2A, 0x64, 0x20, 0x99, 0x2E, 0x64, 0x40, 0x89, 0x24, 0x64, 0x00, 0x89, 0x23, 0x64, 0x40, 0x89, 0x2E, 0x64, 0x40, 0x99, 0x2A, 0x64, 0x00, 0x99, 0x24, 0x7F, 0x00, 0x99, 0x23, 0x7F, 0x40, 0x89,
  0x2A, 0x64, 0x20, 0x99, 0x2A, 0x64, 0x40, 0x89, 0x2A, 0x64, 0x20, 0x99, 0x2E, 0x64, 0x40, 0x89, 0x24, 0x64, 0x00, 0x89, 0x23, 0x64, 0x40, 0x89, 0x2E, 0x64, 0x40, 0x99, 0x2A, 0x64, 0x00, 0x99, 0x24, 0x7F, 0x00, 0x99, 0x23, 0x7F, 0x40, 0x89,
  0x2A, 0x64, 0x20, 0x99, 0x2A, 0x64, 0x40, 0x89, 0x2A, 0x64, 0x20, 0x99, 0x2E, 0x64, 0x40, 0x89, 0x24, 0x64, 0x00, 0x89, 0x23, 0x64, 0x40, 0x89, 0x2E, 0x64, 0x40, 0x99, 0x2A, 0x64, 0x00, 0x99, 0x24, 0x7F, 0x00, 0x99, 0x23, 0x7F, 0x40, 0x89,
  0x2A, 0x64, 0x20, 0x99, 0x2A, 0x64, 0x40, 0x89, 0x2A, 0x64, 0x20, 0x99, 0x2E, 0x64, 0x40, 0x89, 0x24, 0x64, 0x00, 0x89, 0x23, 0x64, 0x40, 0x89, 0x2E, 0x64, 0x40, 0x99, 0x2A, 0x64, 0x00, 0x99, 0x24, 0x7F, 0x00, 0x99, 0x23, 0x7F, 0x40, 0x89,
  0x2A, 0x64, 0x20, 0x99, 0x2A, 0x64, 0x40, 0x89, 0x2A, 0x64, 0x20, 0x99, 0x2E, 0x64, 0x40, 0x89, 0x24, 0x64, 0x00, 0x89, 0x23, 0x64, 0x40, 0x89, 0x2E, 0x64, 0x40, 0x99, 0x2A, 0x64, 0x00, 0x99, 0x24, 0x7F, 0x00, 0x99, 0x23, 0x7F, 0x40, 0x89,
  0x2A, 0x64, 0x20, 0x99, 0x2A, 0x64, 0x40, 0x89, 0x2A, 0x64, 0x20, 0x99, 0x2E, 0x64, 0x40, 0x89, 0x24, 0x64, 0x00, 0x89, 0x23, 0x64, 0x40, 0x89, 0x2E, 0x64, 0x40, 0x99, 0x2A, 0x64, 0x00, 0x99, 0x24, 0x7F, 0x00, 0x99, 0x23, 0x7F, 0x40, 0x89,
  0x2A, 0x64, 0x20, 0x99, 0x2A, 0x64, 0x40, 0x89, 0x2A, 0x64, 0x20, 0x99, 0x2E, 0x64, 0x40, 0x89, 0x24, 0x64, 0x00, 0x89, 0x23, 0x64, 0x40, 0x89, 0x2E, 0x64, 0x40, 0x99, 0x2A, 0x64, 0x00, 0x99, 0x24, 0x7F, 0x00, 0x99, 0x23, 0x7F, 0x40, 0x89,
  0x2A, 0x64, 0x20, 0x99, 0x2A, 0x64, 0x40, 0x89, 0x2A, 0x64, 0x20, 0x99, 0x2E, 0x64, 0x40, 0x89, 0x24, 0x64, 0x00, 0x89, 0x23, 0x64, 0x40, 0x89, 0x2E, 0x64, 0x40, 0x99, 0x2A, 0x64, 0x00, 0x99, 0x24, 0x7F, 0x00, 0x99, 0x23, 0x7F, 0x40, 0x89,
  0x2A, 0x64, 0x20, 0x99, 0x2A, 0x64, 0x40, 0x89, 0x2A, 0x64, 0x20, 0x99, 0x2E, 0x64, 0x40, 0x89, 0x24, 0x64, 0x00, 0x89, 0x23, 0x64, 0x40, 0x89, 0x2E, 0x64, 0x40, 0x99, 0x2A, 0x64, 0x00, 0x99, 0x24, 0x7F, 0x00, 0x99, 0x23, 0x7F, 0x40, 0x89,
  0x2A, 0x64, 0x20, 0x99, 0x2A, 0x64, 0x40, 0x89, 0x2A, 0x64, 0x20, 0x99, 0x2E, 0x64, 0x40, 0x89, 0x24, 0x64, 0x00, 0x89, 0x23, 0x64, 0x40, 0x89, 0x2E, 0x64, 0x40, 0x99, 0x2A, 0x64, 0x00, 0x99, 0x24, 0x7F, 0x00, 0x99, 0x23, 0x7F, 0x40, 0x89,
  0x2A, 0x64, 0x20, 0x99, 0x2A, 0x64, 0x40, 0x89, 0x2A, 0x64, 0x20, 0x99, 0x2E, 0x64, 0x40, 0x89, 0x24, 0x64, 0x00, 0x89, 0x23, 0x64, 0x40, 0x89, 0x2E, 0x64, 0x40, 0x99, 0x2A, 0x64, 0x00, 0x99, 0x24, 0x7F, 0x00, 0x99, 0x23, 0x7F, 0x40, 0x89,
  0x2A, 0x64, 0x20, 0x99, 0x2A, 0x64, 0x40, 0x89, 0x2A, 0x64, 0x20, 0x99, 0x2E, 0x64, 0x40, 0x89, 0x24, 0x64, 0x00, 0x89, 0x23, 0x64, 0x40, 0x89, 0x2E, 0x64, 0x40, 0x99, 0x2A, 0x64, 0x00, 0x99, 0x24, 0x7F, 0x00, 0x99, 0x23, 0x7F, 0x40, 0x89,
  0x2A, 0x64, 0x20, 0x99, 0x2A, 0x64, 0x40, 0x89, 0x2A, 0x64, 0x20, 0x99, 0x2E, 0x64, 0x40, 0x89, 0x24, 0x64, 0x00, 0x89, 0x23, 0x64, 0x40, 0x89, 0x2E, 0x64, 0x40, 0x99, 0x2A, 0x64, 0x00, 0x99, 0x24, 0x7F, 0x00, 0x99, 0x23, 0x7F, 0x40, 0x89,
  0x2A, 0x64, 0x20, 0x99, 0x2A, 0x64, 0x40, 0x89, 0x2A, 0x64, 0x20, 0x99, 0x2E, 0x64, 0x40, 0x89, 0x24, 0x64, 0x00, 0x89, 0x23, 0x64, 0x40, 0x89, 0x2E, 0x64, 0x40, 0x99, 0x2A, 0x64, 0x00, 0x99, 0x24, 0x7F, 0x00, 0x99, 0x23, 0x7F, 0x40, 0x89,
  0x2A, 0x64, 0x20, 0x99, 0x2A, 0x64, 0x40, 0x89, 0x2A, 0x64, 0x20, 0x99, 0x2E, 0x64, 0x40, 0x89, 0x24, 0x64, 0x00, 0x89, 0x23, 0x64, 0x40, 0x89, 0x2E, 0x64, 0x40, 0x99, 0x2A, 0x64, 0x00, 0x99, 0x24, 0x7F, 0x00, 0x99, 0x23, 0x7F, 0x40, 0x89,
  0x2A, 0x64, 0x20, 0x99, 0x2A, 0x64, 0x40, 0x89, 0x2A, 0x64, 0x20, 0x99, 0x2E, 0x64, 0x40, 0x89, 0x24, 0x64, 0x00, 0x89, 0x23, 0x64, 0x40, 0x89, 0x2E, 0x64, 0x40, 0x99, 0x2A, 0x64, 0x00, 0x99, 0x24, 0x7F, 0x00, 0x99, 0x23, 0x7F, 0x40, 0x89,
  0x2A, 0x64, 0x20, 0x99, 0x2A, 0x64, 0x40, 0x89, 0x2A, 0x64, 0x20, 0x99, 0x2E, 0x64, 0x40, 0x89, 0x24, 0x64, 0x00, 0x89, 0x23, 0x64, 0x40, 0x89, 0x2E, 0x64, 0x40, 0x99, 0x2A, 0x64, 0x00, 0x99, 0x24, 0x7F, 0x00, 0x99, 0x23, 0x7F, 0x40, 0x89,
  0x2A, 0x64, 0x20, 0x99, 0x2A, 0x64, 0x40, 0x89, 0x2A, 0x64, 0x20, 0x99, 0x2E, 0x64, 0x40, 0x89, 0x24, 0x64, 0x00, 0x89, 0x23, 0x64, 0x40, 0x89, 0x2E, 0x64, 0x40, 0x99, 0x2A, 0x64, 0x00, 0x99, 0x24, 0x7F, 0x00, 0x99, 0x23, 0x7F, 0x40, 0x89,
  0x2A, 0x64, 0x20, 0x99, 0x2A, 0x64, 0x40, 0x89, 0x2A, 0x64, 0x20, 0x99, 0x2E, 0x64, 0x40, 0x89, 0x24, 0x64, 0x00, 0x89, 0x23, 0x64, 0x40, 0x89, 0x2E, 0x64, 0x40, 0x99, 0x2A, 0x64, 0x00, 0x99, 0x24, 0x7F, 0x00, 0x99, 0x23, 0x7F, 0x40, 0x89,
  0x2A, 0x64, 0x20, 0x99, 0x2A, 0x64, 0x40, 0x89, 0x2A, 0x64, 0x20, 0x99, 0x2E, 0x64, 0x40, 0x89, 0x24, 0x64, 0x00, 0x89, 0x23, 0x64, 0x40, 0x89, 0x2E, 0x64, 0x40, 0x99, 0x2A, 0x64, 0x00, 0x99, 0x24, 0x7F, 0x00, 0x99, 0x23, 0x7F, 0x40, 0x89,
  0x2A, 0x64, 0x20, 0x99, 0x2A, 0x64, 0x40, 0x89, 0x2A, 0x64, 0x20, 0x99, 0x2E, 0x64, 0x40, 0x89, 0x24, 0x64, 0x00, 0x89, 0x23, 0x64, 0x40, 0x89, 0x2E, 0x64, 0x40, 0x99, 0x2A, 0x64, 0x00, 0x99, 0x24, 0x7F, 0x00, 0x99, 0x23, 0x7F, 0x40, 0x89,
  0x2A, 0x64, 0x20, 0x99, 0x2A, 0x64, 0x40, 0x89, 0x2A, 0x64, 0x20, 0x99, 0x2E, 0x64, 0x40, 0x89, 0x24, 0x64, 0x00, 0x89, 0x23, 0x64, 0x40, 0x89, 0x2E, 0x64, 0x40, 0x99, 0x2A, 0x64, 0x00, 0x99, 0x24, 0x7F, 0x00, 0x99, 0x23, 0x7F, 0x40, 0x89,
  0x2A, 0x64, 0x20, 0x99, 0x2A, 0x64, 0x40, 0x89, 0x2A, 0x64, 0x20, 0x99, 0x2E, 0x64, 0x40, 0x89, 0x24, 0x64, 0x00, 0x89, 0x23, 0x64, 0x40, 0x89, 0x2E, 0x64, 0x40, 0x99, 0x2A, 0x64, 0x00, 0x99, 0x24, 0x7F, 0x00, 0x99, 0x23, 0x7F, 0x40, 0x89,
  0x2A, 0x64, 0x20, 0x99, 0x2A, 0x64, 0x40, 0x89, 0x2A, 0x64, 0x20, 0x99, 0x2E, 0x64, 0x40, 0x89, 0x24, 0x64, 0x00, 0x89, 0x23, 0x64, 0x40, 0x89, 0x2E, 0x64, 0x40, 0x99, 0x2A, 0x64, 0x00, 0x99, 0x24, 0x7F, 0x00, 0x99, 0x23, 0x7F, 0x40, 0x89,
  0x2A, 0x64, 0x20, 0x99, 0x2A, 0x64, 0x40, 0x89, 0x2A, 0x64, 0x20, 0x99, 0x2E, 0x64, 0x40, 0x89, 0x24, 0x64, 0x00, 0x89, 0x23, 0x64, 0x40, 0x89, 0x2E, 0x64, 0x40, 0x99, 0x2A, 0x64, 0x00, 0x99, 0x24, 0x7F, 0x00, 0x99, 0x23, 0x7F, 0x40, 0x89,
  0x2A, 0x64, 0x20, 0x99, 0x2A, 0x64, 0x40, 0x89, 0x2A, 0x64, 0x20, 0x99, 0x2E, 0x64, 0x40, 0x89, 0x24, 0x64, 0x00, 0x89, 0x23, 0x64, 0x40, 0x89, 0x2E, 0x64, 0x40, 0x99, 0x2A, 0x64, 0x00, 0x99, 0x24, 0x7F, 0x00, 0x99, 0x23, 0x7F, 0x40, 0x89,
  0x2A, 0x64, 0x20, 0x99, 0x2A, 0x64, 0x40, 0x89, 0x2A, 0x64, 0x20, 0x99, 0x2E, 0x64, 0x40, 0x89, 0x24, 0x64, 0x00, 0x89, 0x23, 0x64, 0x40, 0x89, 0x2E, 0x64, 0x40, 0x99, 0x2A, 0x64, 0x00, 0x99, 0x24, 0x7F, 0x00, 0x99, 0x23, 0x7F, 0x40, 0x89,
  0x2A, 0x64, 0x20, 0x99, 0x2A, 0x64, 0x40, 0x89, 0x2A, 0x64, 0x20, 0x99, 0x2E, 0x64, 0x40, 0x89, 0x24, 0x64, 0x00, 0x89, 0x23, 0x64, 0x40, 0x89, 0x2E, 0x64, 0x40, 0x99, 0x2A, 0x64, 0x00, 0x99, 0x24, 0x7F, 0x00, 0x99, 0x23, 0x7F, 0x40, 0x89,
  0x2A, 0x64, 0x20, 0x99, 0x2A, 0x64, 0x40, 0x89, 0x2A, 0x64, 0x20, 0x99, 0x2E, 0x64, 0x40, 0x89, 0x24, 0x64, 0x00, 0x89, 0x23, 0x64, 0x40, 0x89, 0x2E, 0x64, 0x40, 0x99, 0x31, 0x64, 0x00, 0x99, 0x2A, 0x64, 0x40, 0x89, 0x2A, 0x64, 0x20, 0x99,
  0x2A, 0x64, 0x40, 0x89, 0x2A, 0x64, 0x20, 0x99, 0x2A, 0x64, 0x40, 0x89, 0x31, 0x64, 0x00, 0x89, 0x2A, 0x64, 0x20, 0x99, 0x2A, 0x64, 0x40, 0x89, 0x2A, 0x64, 0x20, 0x99, 0x2A, 0x64, 0x40, 0x89, 0x2A, 0x64, 0x20, 0x99, 0x2A, 0x64, 0x40, 0x89,
  0x2A, 0x64, 0x20, 0x99, 0x2A, 0x64, 0x40, 0x89, 0x2A, 0x64, 0x20, 0x99, 0x2A, 0x64, 0x40, 0x89, 0x2A, 0x64, 0x20, 0x99, 0x2A, 0x64, 0x40, 0x89, 0x2A, 0x64, 0x20, 0x99, 0x2A, 0x64, 0x40, 0x89, 0x2A, 0x64, 0x20, 0x99, 0x2A, 0x64, 0x40, 0x89,
  0x2A, 0x64, 0x20, 0x99, 0x2A, 0x64, 0x40, 0x89, 0x2A, 0x64, 0x20, 0x99, 0x2A, 0x64, 0x40, 0x89, 0x2A, 0x64, 0x20, 0x99, 0x2A, 0x64, 0x40, 0x89, 0x2A, 0x64, 0x20, 0x99, 0x2A, 0x64, 0x40, 0x89, 0x2A, 0x64, 0x20, 0x99, 0x2A, 0x64, 0x40, 0x89,
  0x2A, 0x64, 0x20, 0x99, 0x2A, 0x64, 0x40, 0x89, 0x2A, 0x64, 0x20, 0x99, 0x2A, 0x64, 0x40, 0x89, 0x2A, 0x64, 0x20, 0x99, 0x2A, 0x64, 0x40, 0x89, 0x2A, 0x64, 0x20, 0x99, 0x2A, 0x64, 0x40, 0x89, 0x2A, 0x64, 0x20, 0x99, 0x2A, 0x64, 0x40, 0x89,
  0x2A, 0x64, 0x20, 0x99, 0x2A, 0x64, 0x40, 0x89, 0x2A, 0x64, 0x20, 0x99, 0x2A, 0x64, 0x40, 0x89, 0x2A, 0x64, 0x20, 0x99, 0x2A, 0x64, 0x40, 0x89, 0x2A, 0x64, 0x20, 0x99, 0x2A, 0x64, 0x40, 0x89, 0x2A, 0x64, 0x20, 0x99, 0x2A, 0x64, 0x40, 0x89,
  0x2A, 0x64, 0x20, 0x99, 0x2A, 0x64, 0x40, 0x89, 0x2A, 0x64, 0x20, 0x99, 0x2A, 0x64, 0x40, 0x89, 0x2A, 0x64, 0x20, 0x99, 0x2A, 0x64, 0x40, 0x89, 0x2A, 0x64, 0x20, 0x99, 0x2A, 0x64, 0x40, 0x89, 0x2A, 0x64, 0x20, 0x99, 0x2A, 0x64, 0x40, 0x89,
  0x2A, 0x64, 0x20, 0x99, 0x2A, 0x64, 0x40, 0x89, 0x2A, 0x64, 0x20, 0x99, 0x2A, 0x64, 0x40, 0x89, 0x2A, 0x64, 0x20, 0x99, 0x2A, 0x64, 0x40, 0x89, 0x2A, 0x64, 0x20, 0x99, 0x2A, 0x64, 0x40, 0x89, 0x2A, 0x64, 0x20, 0x99, 0x2A, 0x64, 0x40, 0x89,
  0x2A, 0x64, 0x20, 0x99, 0x2A, 0x64, 0x40, 0x89, 0x2A, 0x64, 0x20, 0x99, 0x2A, 0x64, 0x40, 0x89, 0x2A, 0x64, 0x20, 0x99, 0x2A, 0x64, 0x40, 0x89, 0x2A, 0x64, 0x20, 0x99, 0x2A, 0x64, 0x40, 0x89, 0x2A, 0x64, 0x20, 0x99, 0x2A, 0x64, 0x40, 0x89,
  0x2A, 0x64, 0x20, 0x99, 0x2A, 0x64, 0x40, 0x89, 0x2A, 0x64, 0x20, 0x99, 0x2A, 0x64, 0x40, 0x89, 0x2A, 0x64, 0x20, 0x99, 0x2A, 0x64, 0x40, 0x89, 0x2A, 0x64, 0x20, 0x99, 0x2A, 0x64, 0x40, 0x89, 0x2A, 0x64, 0x20, 0x99, 0x2A, 0x64, 0x40, 0x89,
  0x2A, 0x64, 0x20, 0x99, 0x2A, 0x64, 0x40, 0x89, 0x2A, 0x64, 0x20, 0x99, 0x2A, 0x64, 0x40, 0x89, 0x2A, 0x64, 0x20, 0x99, 0x2A, 0x64, 0x40, 0x89, 0x2A, 0x64, 0x20, 0x99, 0x2A, 0x64, 0x40, 0x89, 0x2A, 0x64, 0x20, 0x99, 0x2A, 0x64, 0x40, 0x89,
  0x2A, 0x64, 0x20, 0x99, 0x2A, 0x64, 0x40, 0x89, 0x2A, 0x64, 0x20, 0x99, 0x2A, 0x64, 0x40, 0x89, 0x2A, 0x64, 0x20, 0x99, 0x2A, 0x64, 0x40, 0x89, 0x2A, 0x64, 0x20, 0x99, 0x2A, 0x64, 0x40, 0x89, 0x2A, 0x64, 0x20, 0x99, 0x2A, 0x64, 0x40, 0x89,
  0x2A, 0x64, 0x20, 0x99, 0x2A, 0x64, 0x40, 0x89, 0x2A, 0x64, 0x20, 0x99, 0x2A, 0x64, 0x40, 0x89, 0x2A, 0x64, 0x20, 0x99, 0x2A, 0x64, 0x40, 0x89, 0x2A, 0x64, 0x20, 0x99, 0x2A, 0x64, 0x40, 0x89, 0x2A, 0x64, 0x20, 0x99, 0x2A, 0x64, 0x40, 0x89,
  0x2A, 0x64, 0x20, 0x99, 0x2A, 0x64, 0x40, 0x89, 0x2A, 0x64, 0x20, 0x99, 0x2A, 0x64, 0x40, 0x89, 0x2A, 0x64, 0x20, 0x99, 0x2A, 0x64, 0x40, 0x89, 0x2A, 0x64, 0x20, 0x99, 0x31, 0x64, 0x00, 0x99, 0x2A, 0x64, 0x00, 0x99, 0x24, 0x7F, 0x00, 0x99,
  0x23, 0x7F, 0x40, 0x89, 0x2A, 0x64, 0x20, 0x99, 0x2A, 0x64, 0x40, 0x89, 0x2A, 0x64, 0x20, 0x99, 0x2E, 0x64, 0x40, 0x89, 0x31, 0x64, 0x00, 0x89, 0x24, 0x64, 0x00, 0x89, 0x23, 0x64, 0x40, 0x89, 0x2E, 0x64, 0x40, 0x99, 0x2A, 0x64, 0x00, 0x99,
  0x24, 0x7F, 0x00, 0x99, 0x23, 0x7F, 0x40, 0x89, 0x2A, 0x64, 0x20, 0x99, 0x2A, 0x64, 0x40, 0x89, 0x2A, 0x64, 0x20, 0x99, 0x2E, 0x64, 0x40, 0x89, 0x24, 0x64, 0x00, 0x89, 0x23, 0x64, 0x40, 0x89, 0x2E, 0x64, 0x40, 0x99, 0x2A, 0x64, 0x00, 0x99,
  0x24, 0x7F, 0x00, 0x99, 0x23, 0x7F, 0x40, 0x89, 0x2A, 0x64, 0x20, 0x99, 0x2A, 0x64, 0x40, 0x89, 0x2A, 0x64, 0x20, 0x99, 0x2E, 0x64, 0x40, 0x89, 0x24, 0x64, 0x00, 0x89, 0x23, 0x64, 0x40, 0x89, 0x2E, 0x64, 0x40, 0x99, 0x2A, 0x64, 0x00, 0x99,
  0x24, 0x7F, 0x00, 0x99, 0x23, 0x7F, 0x40, 0x89, 0x2A, 0x64, 0x20, 0x99, 0x2A, 0x64, 0x40, 0x89, 0x2A, 0x64, 0x20, 0x99, 0x2E, 0x64, 0x40, 0x89, 0x24, 0x64, 0x00, 0x89, 0x23, 0x64, 0x40, 0x89, 0x2E, 0x64, 0x40, 0x99, 0x2A, 0x64, 0x00, 0x99,
  0x24, 0x7F, 0x00, 0x99, 0x23, 0x7F, 0x40, 0x89, 0x2A, 0x64, 0x20, 0x99, 0x2A, 0x64, 0x40, 0x89, 0x2A, 0x64, 0x20, 0x99, 0x2E, 0x64, 0x40, 0x89, 0x24, 0x64, 0x00, 0x89, 0x23, 0x64, 0x40, 0x89, 0x2E, 0x64, 0x40, 0x99, 0x2A, 0x64, 0x00, 0x99,
  0x24, 0x7F, 0x00, 0x99, 0x23, 0x7F, 0x40, 0x89, 0x2A, 0x64, 0x20, 0x99, 0x2A, 0x64, 0x40, 0x89, 0x2A, 0x64, 0x20, 0x99, 0x2E, 0x64, 0x40, 0x89, 0x24, 0x64, 0x00, 0x89, 0x23, 0x64, 0x40, 0x89, 0x2E, 0x64, 0x40, 0x99, 0x2A, 0x64, 0x00, 0x99,
  0x24, 0x7F, 0x00, 0x99, 0x23, 0x7F, 0x40, 0x89, 0x2A, 0x64, 0x20, 0x99, 0x2A, 0x64, 0x40, 0x89, 0x2A, 0x64, 0x20, 0x99, 0x2E, 0x64, 0x40, 0x89, 0x24, 0x64, 0x00, 0x89, 0x23, 0x64, 0x40, 0x89, 0x2E, 0x64, 0x40, 0x99, 0x2A, 0x64, 0x00, 0x99,
  0x24, 0x7F, 0x00, 0x99, 0x23, 0x7F, 0x40, 0x89, 0x2A, 0x64, 0x20, 0x99, 0x2A, 0x64, 0x40, 0x89, 0x2A, 0x64, 0x20, 0x99, 0x2E, 0x64, 0x40, 0x89, 0x24, 0x64, 0x00, 0x89, 0x23, 0x64, 0x40, 0x89, 0x2E, 0x64, 0x40, 0x99, 0x2A, 0x64, 0x00, 0x99,
  0x24, 0x7F, 0x00, 0x99, 0x23, 0x7F, 0x40, 0x89, 0x2A, 0x64, 0x20, 0x99, 0x2A, 0x64, 0x40, 0x89, 0x2A, 0x64, 0x20, 0x99, 0x2E, 0x64, 0x40, 0x89, 0x24, 0x64, 0x00, 0x89, 0x23, 0x64, 0x40, 0x89, 0x2E, 0x64, 0x40, 0x99, 0x2A, 0x64, 0x00, 0x99,
  0x24, 0x7F, 0x00, 0x99, 0x23, 0x7F, 0x40, 0x89, 0x2A, 0x64, 0x20, 0x99, 0x2A, 0x64, 0x40, 0x89, 0x2A, 0x64, 0x20, 0x99, 0x2E, 0x64, 0x40, 0x89, 0x24, 0x64, 0x00, 0x89, 0x23, 0x64, 0x40, 0x89, 0x2E, 0x64, 0x40, 0x99, 0x2A, 0x64, 0x00, 0x99,
  0x24, 0x7F, 0x00, 0x99, 0x23, 0x7F, 0x40, 0x89, 0x2A, 0x64, 0x20, 0x99, 0x2A, 0x64, 0x40, 0x89, 0x2A, 0x64, 0x20, 0x99, 0x2E, 0x64, 0x40, 0x89, 0x24, 0x64, 0x00, 0x89, 0x23, 0x64, 0x40, 0x89, 0x2E, 0x64, 0x40, 0x99, 0x2A, 0x64, 0x00, 0x99,
  0x24, 0x7F, 0x00, 0x99, 0x23, 0x7F, 0x40, 0x89, 0x2A, 0x64, 0x20, 0x99, 0x2A, 0x64, 0x40, 0x89, 0x2A, 0x64, 0x20, 0x99, 0x2E, 0x64, 0x40, 0x89, 0x24, 0x64, 0x00, 0x89, 0x23, 0x64, 0x40, 0x89, 0x2E, 0x64, 0x40, 0x99, 0x2A, 0x64, 0x00, 0x99,
  0x24, 0x7F, 0x00, 0x99, 0x23, 0x7F, 0x40, 0x89, 0x2A, 0x64, 0x20, 0x99, 0x2A, 0x64, 0x40, 0x89, 0x2A, 0x64, 0x20, 0x99, 0x2E, 0x64, 0x40, 0x89, 0x24, 0x64, 0x00, 0x89, 0x23, 0x64, 0x40, 0x89, 0x2E, 0x64, 0x40, 0x99, 0x2A, 0x64, 0x00, 0x99,
  0x24, 0x7F, 0x00, 0x99, 0x23, 0x7F, 0x40, 0x89, 0x2A, 0x64, 0x20, 0x99, 0x2A, 0x64, 0x40, 0x89, 0x2A, 0x64, 0x20, 0x99, 0x2E, 0x64, 0x40, 0x89, 0x24, 0x64, 0x00, 0x89, 0x23, 0x64, 0x40, 0x89, 0x2E, 0x64, 0x40, 0x99, 0x2A, 0x64, 0x00, 0x99,
  0x24, 0x7F, 0x00, 0x99, 0x23, 0x7F, 0x40, 0x89, 0x2A, 0x64, 0x20, 0x99, 0x2A, 0x64, 0x40, 0x89, 0x2A, 0x64, 0x20, 0x99, 0x2E, 0x64, 0x40, 0x89, 0x24, 0x64, 0x00, 0x89, 0x23, 0x64, 0x40, 0x89, 0x2E, 0x64, 0x40, 0x99, 0x2A, 0x64, 0x00, 0x99,
  0x24, 0x7F, 0x00, 0x99, 0x23, 0x7F, 0x40, 0x89, 0x2A, 0x64, 0x20, 0x99, 0x2A, 0x64, 0x40, 0x89, 0x2A, 0x64, 0x20, 0x99, 0x2E, 0x64, 0x40, 0x89, 0x24, 0x64, 0x00, 0x89, 0x23, 0x64, 0x40, 0x89, 0x2E, 0x64, 0x40, 0x99, 0x31, 0x64, 0x00, 0x99,
  0x2A, 0x64, 0x00, 0x99, 0x24, 0x7F, 0x00, 0x99, 0x23, 0x7F, 0x40, 0x89, 0x2A, 0x64, 0x20, 0x99, 0x2A, 0x64, 0x40, 0x89, 0x2A, 0x64, 0x20, 0x99, 0x2E, 0x64, 0x40, 0x89, 0x31, 0x64, 0x00, 0x89, 0x24, 0x64, 0x00, 0x89, 0x23, 0x64, 0x40, 0x89,
  0x2E, 0x64, 0x40, 0x99, 0x2A, 0x64, 0x00, 0x99, 0x24, 0x7F, 0x00, 0x99, 0x23, 0x7F, 0x40, 0x89, 0x2A, 0x64, 0x20, 0x99, 0x2A, 0x64, 0x40, 0x89, 0x2A, 0x64, 0x20, 0x99, 0x2E, 0x64, 0x40, 0x89, 0x24, 0x64, 0x00, 0x89, 0x23, 0x64, 0x40, 0x89,
  0x2E, 0x64, 0x40, 0x99, 0x2A, 0x64, 0x00, 0x99, 0x24, 0x7F, 0x00, 0x99, 0x23, 0x7F, 0x40, 0x89, 0x2A, 0x64, 0x20, 0x99, 0x2A, 0x64, 0x40, 0x89, 0x2A, 0x64, 0x20, 0x99, 0x2E, 0x64, 0x40, 0x89, 0x24, 0x64, 0x00, 0x89, 0x23, 0x64, 0x40, 0x89,
  0x2E, 0x64, 0x40, 0x99, 0x2A, 0x64, 0x00, 0x99, 0x24, 0x7F, 0x00, 0x99, 0x23, 0x7F, 0x40, 0x89, 0x2A, 0x64, 0x20, 0x99, 0x2A, 0x64, 0x40, 0x89, 0x2A, 0x64, 0x20, 0x99, 0x2E, 0x64, 0x40, 0x89, 0x24, 0x64, 0x00, 0x89, 0x23, 0x64, 0x40, 0x89,
  0x2E, 0x64, 0x40, 0x99, 0x2A, 0x64, 0x00, 0x99, 0x24, 0x7F, 0x00, 0x99, 0x23, 0x7F, 0x40, 0x89, 0x2A, 0x64, 0x20, 0x99, 0x2A, 0x64, 0x40, 0x89, 0x2A, 0x64, 0x20, 0x99, 0x2E, 0x64, 0x40, 0x89, 0x24, 0x64, 0x00, 0x89, 0x23, 0x64, 0x40, 0x89,
  0x2E, 0x64, 0x40, 0x99, 0x2A, 0x64, 0x00, 0x99, 0x24, 0x7F, 0x00, 0x99, 0x23, 0x7F, 0x40, 0x89, 0x2A, 0x64, 0x20, 0x99, 0x2A, 0x64, 0x40, 0x89, 0x2A, 0x64, 0x20, 0x99, 0x2E, 0x64, 0x40, 0x89, 0x24, 0x64, 0x00, 0x89, 0x23, 0x64, 0x40, 0x89,
  0x2E, 0x64, 0x40, 0x99, 0x2A, 0x64, 0x00, 0x99, 0x24, 0x7F, 0x00, 0x99, 0x23, 0x7F, 0x40, 0x89, 0x2A, 0x64, 0x20, 0x99, 0x2A, 0x64, 0x40, 0x89, 0x2A, 0x64, 0x20, 0x99, 0x2E, 0x64, 0x40, 0x89, 0x24, 0x64, 0x00, 0x89, 0x23, 0x64, 0x40, 0x89,
  0x2E, 0x64, 0x40, 0x99, 0x2A, 0x64, 0x00, 0x99, 0x24, 0x7F, 0x00, 0x99, 0x23, 0x7F, 0x40, 0x89, 0x2A, 0x64, 0x20, 0x99, 0x2A, 0x64, 0x40, 0x89, 0x2A, 0x64, 0x20, 0x99, 0x2E, 0x64, 0x40, 0x89, 0x24, 0x64, 0x00, 0x89, 0x23, 0x64, 0x40, 0x89,
  0x2E, 0x64, 0x40, 0x99, 0x2A, 0x64, 0x00, 0x99, 0x24, 0x7F, 0x00, 0x99, 0x23, 0x7F, 0x40, 0x89, 0x2A, 0x64, 0x20, 0x99, 0x2A, 0x64, 0x40, 0x89, 0x2A, 0x64, 0x20, 0x99, 0x2E, 0x64, 0x40, 0x89, 0x24, 0x64, 0x00, 0x89, 0x23, 0x64, 0x40, 0x89,
  0x2E, 0x64, 0x40, 0x99, 0x2A, 0x64, 0x00, 0x99, 0x24, 0x7F, 0x00, 0x99, 0x23, 0x7F, 0x40, 0x89, 0x2A, 0x64, 0x20, 0x99, 0x2A, 0x64, 0x40, 0x89, 0x2A, 0x64, 0x20, 0x99, 0x2E, 0x64, 0x40, 0x89, 0x24, 0x64, 0x00, 0x89, 0x23, 0x64, 0x40, 0x89,
  0x2E, 0x64, 0x40, 0x99, 0x2A, 0x64, 0x00, 0x99, 0x24, 0x7F, 0x00, 0x99, 0x23, 0x7F, 0x40, 0x89, 0x2A, 0x64, 0x20, 0x99, 0x2A, 0x64, 0x40, 0x89, 0x2A, 0x64, 0x20, 0x99, 0x2E, 0x64, 0x40, 0x89, 0x24, 0x64, 0x00, 0x89, 0x23, 0x64, 0x40, 0x89,
  0x2E, 0x64, 0x40, 0x99, 0x2A, 0x64, 0x00, 0x99, 0x24, 0x7F, 0x00, 0x99, 0x23, 0x7F, 0x40, 0x89, 0x2A, 0x64, 0x20, 0x99, 0x2A, 0x64, 0x40, 0x89, 0x2A, 0x64, 0x20, 0x99, 0x2E, 0x64, 0x40, 0x89, 0x24, 0x64, 0x00, 0x89, 0x23, 0x64, 0x40, 0x89,
  0x2E, 0x64, 0x40, 0x99, 0x2A, 0x64, 0x00, 0x99, 0x24, 0x7F, 0x00, 0x99, 0x23, 0x7F, 0x40, 0x89, 0x2A, 0x64, 0x20, 0x99, 0x2A, 0x64, 0x40, 0x89, 0x2A, 0x64, 0x20, 0x99, 0x2E, 0x64, 0x40, 0x89, 0x24, 0x64, 0x00, 0x89, 0x23, 0x64, 0x40, 0x89,
  0x2E, 0x64, 0x40, 0x99, 0x2A, 0x64, 0x00, 0x99, 0x24, 0x7F, 0x00, 0x99, 0x23, 0x7F, 0x40, 0x89, 0x2A, 0x64, 0x20, 0x99, 0x2A, 0x64, 0x40, 0x89, 0x2A, 0x64, 0x20, 0x99, 0x2E, 0x64, 0x40, 0x89, 0x24, 0x64, 0x00, 0x89, 0x23, 0x64, 0x40, 0x89,
  0x2E, 0x64, 0x40, 0x99, 0x2A, 0x64, 0x00, 0x99, 0x24, 0x7F, 0x00, 0x99, 0x23, 0x7F, 0x40, 0x89, 0x2A, 0x64, 0x20, 0x99, 0x2A, 0x64, 0x40, 0x89, 0x2A, 0x64, 0x20, 0x99, 0x2E, 0x64, 0x40, 0x89, 0x24, 0x64, 0x00, 0x89, 0x23, 0x64, 0x40, 0x89,
  0x2E, 0x64, 0x40, 0x99, 0x2A, 0x64, 0x00, 0x99, 0x24, 0x7F, 0x00, 0x99, 0x23, 0x7F, 0x40, 0x89, 0x2A, 0x64, 0x20, 0x99, 0x2A, 0x64, 0x40, 0x89, 0x2A, 0x64, 0x20, 0x99, 0x2E, 0x64, 0x40, 0x89, 0x24, 0x64, 0x00, 0x89, 0x23, 0x64, 0x40, 0x89,
  0x2E, 0x64, 0x40, 0x99, 0x31, 0x64, 0x00, 0x99, 0x2A, 0x64, 0x00, 0x99, 0x24, 0x7F, 0x00, 0x99, 0x23, 0x7F, 0x40, 0x89, 0x2A, 0x64, 0x20, 0x99, 0x2A, 0x64, 0x40, 0x89, 0x2A, 0x64, 0x20, 0x99, 0x2E, 0x64, 0x40, 0x89, 0x31, 0x64, 0x00, 0x89,
  0x24, 0x64, 0x00, 0x89, 0x23, 0x64, 0x40, 0x89, 0x2E, 0x64, 0x40, 0x99, 0x2A, 0x64, 0x00, 0x99, 0x24, 0x7F, 0x00, 0x99, 0x23, 0x7F, 0x40, 0x89, 0x2A, 0x64, 0x20, 0x99, 0x2A, 0x64, 0x40, 0x89, 0x2A, 0x64, 0x20, 0x99, 0x2E, 0x64, 0x40, 0x89,
  0x24, 0x64, 0x00, 0x89, 0x23, 0x64, 0x40, 0x89, 0x2E, 0x64, 0x40, 0x99, 0x2A, 0x64, 0x00, 0x99, 0x24, 0x7F, 0x00, 0x99, 0x23, 0x7F, 0x40, 0x89, 0x2A, 0x64, 0x20, 0x99, 0x2A, 0x64, 0x40, 0x89, 0x2A, 0x64, 0x20, 0x99, 0x2E, 0x64, 0x40, 0x89,
  0x24, 0x64, 0x00, 0x89, 0x23, 0x64, 0x40, 0x89, 0x2E, 0x64, 0x40, 0x99, 0x2A, 0x64, 0x00, 0x99, 0x24, 0x7F, 0x00, 0x99, 0x23, 0x7F, 0x40, 0x89, 0x2A, 0x64, 0x20, 0x99, 0x2A, 0x64, 0x40, 0x89, 0x2A, 0x64, 0x20, 0x99, 0x2E, 0x64, 0x40, 0x89,
  0x24, 0x64, 0x00, 0x89, 0x23, 0x64, 0x40, 0x89, 0x2E, 0x64, 0x40, 0x99, 0x2A, 0x64, 0x00, 0x99, 0x24, 0x7F, 0x00, 0x99, 0x23, 0x7F, 0x40, 0x89, 0x2A, 0x64, 0x20, 0x99, 0x2A, 0x64, 0x40, 0x89, 0x2A, 0x64, 0x20, 0x99, 0x2E, 0x64, 0x40, 0x89,
  0x24, 0x64, 0x00, 0x89, 0x23, 0x64, 0x40, 0x89, 0x2E, 0x64, 0x40, 0x99, 0x2A, 0x64, 0x00, 0x99, 0x24, 0x7F, 0x00, 0x99, 0x23, 0x7F, 0x40, 0x89, 0x2A, 0x64, 0x20, 0x99, 0x2A, 0x64, 0x40, 0x89, 0x2A, 0x64, 0x20, 0x99, 0x2E, 0x64, 0x40, 0x89,
  0x24, 0x64, 0x00, 0x89, 0x23, 0x64, 0x40, 0x89, 0x2E, 0x64, 0x40, 0x99, 0x2A, 0x64, 0x00, 0x99, 0x24, 0x7F, 0x00, 0x99, 0x23, 0x7F, 0x40, 0x89, 0x2A, 0x64, 0x20, 0x99, 0x2A, 0x64, 0x40, 0x89, 0x2A, 0x64, 0x20, 0x99, 0x2E, 0x64, 0x40, 0x89,
  0x24, 0x64, 0x00, 0x89, 0x23, 0x64, 0x40, 0x89, 0x2E, 0x64, 0x40, 0x99, 0x2A, 0x64, 0x00, 0x99, 0x24, 0x7F, 0x00, 0x99, 0x23, 0x7F, 0x40, 0x89, 0x2A, 0x64, 0x20, 0x99, 0x2A, 0x64, 0x40, 0x89, 0x2A, 0x64, 0x20, 0x99, 0x2E, 0x64, 0x40, 0x89,
  0x24, 0x64, 0x00, 0x89, 0x23, 0x64, 0x40, 0x89, 0x2E, 0x64, 0x40, 0x99, 0x2A, 0x64, 0x00, 0x99, 0x24, 0x7F, 0x00, 0x99, 0x23, 0x7F, 0x40, 0x89, 0x2A, 0x64, 0x20, 0x99, 0x2A, 0x64, 0x40, 0x89, 0x2A, 0x64, 0x20, 0x99, 0x2E, 0x64, 0x40, 0x89,
  0x24, 0x64, 0x00, 0x89, 0x23, 0x64, 0x40, 0x89, 0x2E, 0x64, 0x40, 0x99, 0x2A, 0x64, 0x00, 0x99, 0x24, 0x7F, 0x00, 0x99, 0x23, 0x7F, 0x40, 0x89, 0x2A, 0x64, 0x20, 0x99, 0x2A, 0x64, 0x40, 0x89, 0x2A, 0x64, 0x20, 0x99, 0x2E, 0x64, 0x40, 0x89,
  0x24, 0x64, 0x00, 0x89, 0x23, 0x64, 0x40, 0x89, 0x2E, 0x64, 0x40, 0x99, 0x2A, 0x64, 0x00, 0x99, 0x24, 0x7F, 0x00, 0x99, 0x23, 0x7F, 0x40, 0x89, 0x2A, 0x64, 0x20, 0x99, 0x2A, 0x64, 0x40, 0x89, 0x2A, 0x64, 0x20, 0x99, 0x2E, 0x64, 0x40, 0x89,
  0x24, 0x64, 0x00, 0x89, 0x23, 0x64, 0x40, 0x89, 0x2E, 0x64, 0x40, 0x99, 0x2A, 0x64, 0x00, 0x99, 0x24, 0x7F, 0x00, 0x99, 0x23, 0x7F, 0x40, 0x89, 0x2A, 0x64, 0x20, 0x99, 0x2A, 0x64, 0x40, 0x89, 0x2A, 0x64, 0x20, 0x99, 0x2E, 0x64, 0x40, 0x89,
  0x24, 0x64, 0x00, 0x89, 0x23, 0x64, 0x40, 0x89, 0x2E, 0x64, 0x40, 0x99, 0x2A, 0x64, 0x00, 0x99, 0x24, 0x7F, 0x00, 0x99, 0x23, 0x7F, 0x40, 0x89, 0x2A, 0x64, 0x20, 0x99, 0x2A, 0x64, 0x40, 0x89, 0x2A, 0x64, 0x20, 0x99, 0x2E, 0x64, 0x40, 0x89,
  0x24, 0x64, 0x00, 0x89, 0x23, 0x64, 0x40, 0x89, 0x2E, 0x64, 0x40, 0x99, 0x2A, 0x64, 0x00, 0x99, 0x24, 0x7F, 0x00, 0x99, 0x23, 0x7F, 0x40, 0x89, 0x2A, 0x64, 0x20, 0x99, 0x2A, 0x64, 0x40, 0x89, 0x2A, 0x64, 0x20, 0x99, 0x2E, 0x64, 0x40, 0x89,
  0x24, 0x64, 0x00, 0x89, 0x23, 0x64, 0x40, 0x89, 0x2E, 0x64, 0x40, 0x99, 0x2A, 0x64, 0x00, 0x99, 0x24, 0x7F, 0x00, 0x99, 0x23, 0x7F, 0x40, 0x89, 0x2A, 0x64, 0x20, 0x99, 0x2A, 0x64, 0x40, 0x89, 0x2A, 0x64, 0x20, 0x99, 0x2E, 0x64, 0x40, 0x89,
  0x24, 0x64, 0x00, 0x89, 0x23, 0x64, 0x40, 0x89, 0x2E, 0x64, 0x40, 0x99, 0x2A, 0x64, 0x00, 0x99, 0x24, 0x7F, 0x00, 0x99, 0x23, 0x7F, 0x40, 0x89, 0x2A, 0x64, 0x20, 0x99, 0x2A, 0x64, 0x40, 0x89, 0x2A, 0x64, 0x20, 0x99, 0x2E, 0x64, 0x40, 0x89,
  0x24, 0x64, 0x00, 0x89, 0x23, 0x64, 0x40, 0x89, 0x2E, 0x64, 0x40, 0x99, 0x31, 0x64, 0x82, 0x00, 0x89, 0x31, 0x64, 0xBA, 0x00, 0x99, 0x31, 0x64, 0x82, 0x00, 0x89, 0x31, 0x64, 0x00, 0xFF, 0x2F, 0x00, 0x4D, 0x54, 0x72, 0x6B, 0x00, 0x00, 0x00,
  0x0A, 0x00, 0xFF, 0x59, 0x02, 0x00, 0x00, 0x00, 0xFF, 0x2F, 0x00, 0x4D, 0x54, 0x72, 0x6B, 0x00, 0x00, 0x00, 0x0A, 0x00, 0xFF, 0x59, 0x02, 0x00, 0x00, 0x00, 0xFF, 0x2F, 0x00, 0x4D, 0x54, 0x72, 0x6B, 0x00, 0x00, 0x00, 0x0A, 0x00, 0xFF, 0x59,
  0x02, 0x00, 0x00, 0x00, 0xFF, 0x2F, 0x00, 0x4D, 0x54, 0x72, 0x6B, 0x00, 0x00, 0x00, 0x0A, 0x00, 0xFF, 0x59, 0x02, 0x00, 0x00, 0x00, 0xFF, 0x2F, 0x00, 0x4D, 0x54, 0x72, 0x6B, 0x00, 0x00, 0x00, 0x0A, 0x00, 0xFF, 0x59, 0x02, 0x00, 0x00, 0x00,
  0xFF, 0x2F, 0x00, 0x4D, 0x54, 0x72, 0x6B, 0x00, 0x00, 0x00, 0x0A, 0x00, 0xFF, 0x59, 0x02, 0x00, 0x00, 0x00, 0xFF, 0x2F, 0x00, 0x4D, 0x54, 0x72, 0x6B, 0x00, 0x00, 0x00, 0x0A, 0x00, 0xFF, 0x59, 0x02, 0x00, 0x00, 0x00, 0xFF, 0x2F, 0x00, 0x4D,
  0x54, 0x72, 0x6B, 0x00, 0x00, 0x00, 0x0A, 0x00, 0xFF, 0x59, 0x02, 0x00, 0x00, 0x00, 0xFF, 0x2F, 0x00, 0x4D, 0x54, 0x72, 0x6B, 0x00, 0x00, 0x00, 0x0A, 0x00, 0xFF, 0x59, 0x02, 0x00, 0x00, 0x00, 0xFF, 0x2F, 0x00, 0x4D, 0x54, 0x72, 0x6B, 0x00,
  0x00, 0x00, 0x0A, 0x00, 0xFF, 0x59, 0x02, 0x00, 0x00, 0x00, 0xFF, 0x2F, 0x00, 0x4D, 0x54, 0x72, 0x6B, 0x00, 0x00, 0x00, 0x0A, 0x00, 0xFF, 0x59, 0x02, 0x00, 0x00, 0x00, 0xFF, 0x2F, 0x00, 0x4D, 0x54, 0x72, 0x6B, 0x00, 0x00, 0x00, 0x0A, 0x00,
  0xFF, 0x59, 0x02, 0x00, 0x00, 0x00, 0xFF, 0x2F, 0x00, 0x4D, 0x54, 0x72, 0x6B, 0x00, 0x00, 0x00, 0x0A, 0x00, 0xFF, 0x59, 0x02, 0x00, 0x00, 0x00, 0xFF, 0x2F, 0x00, 0x4D, 0x54, 0x72, 0x6B, 0x00, 0x00, 0x00, 0x0A, 0x00, 0xFF, 0x59, 0x02, 0x00,
  0x00, 0x00, 0xFF, 0x2F, 0x00, 0x4D, 0x54, 0x72, 0x6B, 0x00, 0x00, 0x00, 0x0A, 0x00, 0xFF, 0x59, 0x02, 0x00, 0x00, 0x00, 0xFF, 0x2F, 0x00, 0x4D, 0x54, 0x72, 0x6B, 0x00, 0x00, 0x00, 0x0A, 0x00, 0xFF, 0x59, 0x02, 0x00, 0x00, 0x00, 0xFF, 0x2F,
  0x00, 0x00
};

/*************************** End of file ****************************/
